<?xml version="1.0" encoding="utf-8"?>
<!-- Generator: Adobe Illustrator 25.2.1, SVG Export Plug-In . SVG Version: 6.00 Build 0)  -->
<svg version="1.1" id="Capa_1" xmlns="http://www.w3.org/2000/svg" xmlns:xlink="http://www.w3.org/1999/xlink" x="0px" y="0px"
	 viewBox="0 0 512 512" style="enable-background:new 0 0 512 512;" xml:space="preserve">
<style type="text/css">
	.st0{fill:#FFFFFF;}
	.st1{fill:#E42828;}
</style>
<rect x="96.8" y="86.9" class="st0" width="318.5" height="318.5"/>
<path class="st1" d="M437,75C388.7,26.6,324.4,0,256,0S123.3,26.6,75,75S0,187.6,0,256s26.6,132.7,75,181s112.6,75,181,75
	s132.7-26.6,181-75s75-112.6,75-181S485.4,123.3,437,75z M366.7,331.4c9.8,9.8,9.8,25.6,0,35.4c-4.9,4.9-11.3,7.3-17.7,7.3
	s-12.8-2.4-17.7-7.3L256,291.4l-75.4,75.4c-4.9,4.9-11.3,7.3-17.7,7.3s-12.8-2.4-17.7-7.3c-9.8-9.8-9.8-25.6,0-35.4l75.4-75.4
	l-75.4-75.4c-9.8-9.8-9.8-25.6,0-35.4c9.8-9.8,25.6-9.8,35.4,0l75.4,75.4l75.4-75.4c9.8-9.8,25.6-9.8,35.4,0s9.8,25.6,0,35.4
	L291.4,256L366.7,331.4z"/>
</svg>
