<?xml version="1.0" encoding="utf-8"?>
<!-- Generator: Adobe Illustrator 25.2.1, SVG Export Plug-In . SVG Version: 6.00 Build 0)  -->
<svg version="1.1" id="Capa_1" xmlns="http://www.w3.org/2000/svg" xmlns:xlink="http://www.w3.org/1999/xlink" x="0px" y="0px"
	 viewBox="0 0 512 512" style="enable-background:new 0 0 512 512;" xml:space="preserve">
<style type="text/css">
	.st0{fill:#F35C5C;}
</style>
<g transform="translate(0.000000,512.000000) scale(0.100000,-0.100000)">
	<path class="st0" d="M990,4755c-62-19-123-74-155-139c-22-45-30-90-55-307c-16-140-30-266-30-281v-28h1663c1842,0,1734,3,1877-66
		c99-49,213-161,259-254c70-144,65-41,68-1427l4-1251l44,25c51,28,100,83,115,128c17,54,342,2897,336,2943c-11,81-69,164-144,205
		c-38,20-76,30-173,42c-543,66-3687,425-3721,424C1054,4769,1015,4762,990,4755z"/>
	<path class="st0" d="M149,3692c-37-19-64-43-86-76c-66-97-63-48-63-1148c0-549,2-998,4-998c3,0,213,152,468,337
		c255,186,492,352,528,370c168,84,361,85,535,4c77-36,88-45,540-440c254-222,398-341,435-359c65-32,175-42,245-22
		c25,7,390,214,812,460l768,447v609v609l-23,51c-27,60-89,123-152,156l-45,23l-1956,3l-1956,2L149,3692z M2782,3257
		c194-70,334-225,378-417c45-195-26-423-172-555c-181-163-422-196-647-90c-95,45-213,160-259,253c-167,339,23,744,390,827
		C2563,3296,2697,3288,2782,3257z"/>
	<path class="st0" d="M2497,2996c-106-39-179-127-196-237c-28-176,102-337,279-347c167-9,304,111,317,280c9,117-57,234-164,288
		C2674,3010,2556,3018,2497,2996z"/>
	<path class="st0" d="M1180,1961c-59-19-133-70-640-444L5,1123L2,846c-1-170,2-293,8-316c16-60,68-121,129-152l55-28h1948
		c1900,0,1950,0,2003,19c71,25,128,71,163,129l27,47l3,698c1,383,0,697-3,697s-310-176-681-391c-372-215-705-405-740-421
		c-163-76-369-71-538,14c-86,43-81,40-515,422c-442,388-457,399-581,403C1239,1968,1194,1966,1180,1961z"/>
</g>
</svg>
