<?xml version="1.0" encoding="utf-8"?>
<!-- Generator: Adobe Illustrator 25.2.1, SVG Export Plug-In . SVG Version: 6.00 Build 0)  -->
<svg version="1.1" id="Capa_1" xmlns="http://www.w3.org/2000/svg" xmlns:xlink="http://www.w3.org/1999/xlink" x="0px" y="0px"
	 viewBox="0 0 512 512" style="enable-background:new 0 0 512 512;" xml:space="preserve">
<style type="text/css">
	.st0{fill:#F35C5C;}
</style>
<g transform="translate(0.000000,512.000000) scale(0.100000,-0.100000)">
	<path class="st0" d="M1327,4780c267-53,371-398,180-594c-144-146-363-148-506-5c-198,197-104,531,168,595
		C1231,4791,1265,4792,1327,4780z"/>
	<path class="st0" d="M915,4035c200-52,453-162,542-237c31-25,104-115,180-219l128-176l185-94c148-75,190-101,207-128
		c41-61,23-139-39-176c-57-33-92-24-315,89l-208,105l-95,130l-94,131l-57-137c-31-76-75-180-98-232c-22-52-40-95-38-96
		c1-1,85-19,187-40c252-51,274-59,306-100c26-34,28-49,86-568c32-292,57-550,56-572l-3-40l-129-3c-71-1-133,1-138,6
		c-4,4-31,222-60,483c-28,261-55,478-59,483c-7,8-406,96-436,96c-6,0-34-21-62-47l-50-48l-16-450c-9-247-20-465-25-483
		s-91-159-192-312l-183-279l-159-1H178l4,53c4,49,18,74,195,342l190,290l16,405l16,405l80,554c45,305,80,558,79,562
		c-2,4-44-25-93-65c-50-39-105-83-124-97l-33-26l-22-247c-25-273-28-284-100-320c-48-24-93-15-134,25c-17,17-34,45-37,62
		c-8,43,41,581,55,607c11,20,69,69,338,278C772,4076,764,4074,915,4035z"/>
	<path class="st0" d="M5120,1520V340H3942c-648,0-1800-3-2560-7L0,327v341v342h510h510v270v270h515h515v280v280h510h510v295v295
		h1025h1025V1520z"/>
</g>
</svg>
