<?xml version="1.0" encoding="utf-8"?>
<!-- Generator: Adobe Illustrator 25.2.1, SVG Export Plug-In . SVG Version: 6.00 Build 0)  -->
<svg version="1.1" id="Capa_1" xmlns="http://www.w3.org/2000/svg" xmlns:xlink="http://www.w3.org/1999/xlink" x="0px" y="0px"
	 viewBox="0 0 512 512" style="enable-background:new 0 0 512 512;" xml:space="preserve">
<style type="text/css">
	.st0{fill:#FFB800;}
</style>
<g transform="translate(0.000000,512.000000) scale(0.100000,-0.100000)">
	<path class="st0" d="M2128,4527c-57-34-72-62-78-147l-5-75l-65-6c-36-3-79-13-96-22c-44-23-91-80-103-124c-15-52-14-217,1-267
		c16-53,84-121,134-135c26-7,246-11,649-11c592,0,611,1,655,21c57,26,77,44,103,94c25,50,35,195,18,276c-22,104-102,168-212,169h-57
		l-4,74c-4,83-20,114-78,154c-33,22-35,22-429,22S2165,4550,2128,4527z"/>
	<path class="st0" d="M433,3981c-103-30-173-71-254-151c-78-77-117-140-155-250C6,3527,5,3475,5,2280V1035l26-67
		c78-200,230-338,422-383c94-22,4120-22,4214,0c192,45,344,183,422,383l26,67v1250v1250l-26,67c-77,198-224,333-415,382
		c-53,14-142,16-598,16h-536v-57c0-199-153-367-358-394c-87-11-1157-11-1244,0c-199,26-347,182-356,374l-4,77l-542-1
		C551,3999,489,3997,433,3981z M1551,3300c74-14,134-46,190-99c26-25,61-54,79-63c50-28,74-95,75-203c0-49-4-116-8-147
		c-7-50-6-58,8-58c8,0,20-12,25-26c19-50-36-236-75-251c-8-3-15-14-15-25c0-42-64-153-119-208c-80-80-136-104-236-104
		c-63,0-90,4-126,22c-99,49-192,158-219,259c-7,26-24,59-36,71c-31,32-57,115-58,187c-1,53,2,61,22,70c19,8,21,14,15,40
		c-5,16-8,73-8,125c0,87,3,101,32,161c56,113,189,221,303,245C1471,3312,1486,3312,1551,3300z M4540,2750v-110h-855h-855v110v110
		h855h855V2750z M4540,2285v-105h-855h-855v105v105h855h855V2285z M1272,1836c48-153,88-280,90-282c2-1,19,41,38,95l33,97l-31,64
		c-54,108-37,167,50,177c130,15,170-52,106-176l-32-62l23-70c48-151,37-164,136,153c49,156,90,285,92,287c1,2,43-18,93-43
		c49-26,140-69,201-96c141-62,171-85,208-163c37-77,51-172,51-353v-134h-851H628l5,183c8,296,37,360,196,437c52,25,148,72,215,106
		c67,33,125,60,131,59C1180,2114,1224,1988,1272,1836z M4540,1820v-110h-855h-855v110v110h855h855V1820z"/>
</g>
</svg>
