<?xml version="1.0" encoding="utf-8"?>
<!-- Generator: Adobe Illustrator 25.2.1, SVG Export Plug-In . SVG Version: 6.00 Build 0)  -->
<svg version="1.1" id="Capa_1" xmlns="http://www.w3.org/2000/svg" xmlns:xlink="http://www.w3.org/1999/xlink" x="0px" y="0px"
	 viewBox="0 0 512 512" style="enable-background:new 0 0 512 512;" xml:space="preserve">
<style type="text/css">
	.st0{fill:#F35C5C;}
</style>
<g transform="translate(0.000000,512.000000) scale(0.100000,-0.100000)">
	<path class="st0" d="M2385,5109c-559-58-1049-402-1308-915c-43-86-111-283-131-384c-74-364-26-736,135-1064c24-49,341-553,704-1120
		c490-765,669-1037,694-1053c46-31,116-31,162,0c24,16,206,291,691,1047c362,564,680,1070,707,1125c188,383,221,827,90,1228
		c-84,257-215,471-405,661C3369,4989,2884,5161,2385,5109z M2745,4197c269-75,478-288,546-557c8-31,14-105,14-170
		c0-123-12-188-53-285c-93-219-290-387-522-446c-71-18-269-18-340,0c-232,59-429,227-522,446c-41,97-53,162-53,285s12,188,53,285
		c93,220,305,400,522,444c30,6,64,13,75,15C2502,4223,2694,4211,2745,4197z"/>
	<path class="st0" d="M1244,1635c-728-203-1062-553-886-928c32-70,124-174,212-242C861,242,1410,81,2095,18c183-17,747-17,930,0
		c685,63,1234,224,1525,447c88,68,180,172,212,242c177,378-171,736-906,933c-98,26-121,29-131,18c-7-7-175-269-375-583
		s-381-592-402-620c-194-251-592-250-779,2c-20,26-204,310-409,631c-204,320-377,582-384,581C1370,1669,1310,1653,1244,1635z"/>
</g>
</svg>
