<?xml version="1.0" encoding="utf-8"?>
<!-- Generator: Adobe Illustrator 25.2.1, SVG Export Plug-In . SVG Version: 6.00 Build 0)  -->
<svg version="1.1" id="Capa_1" xmlns="http://www.w3.org/2000/svg" xmlns:xlink="http://www.w3.org/1999/xlink" x="0px" y="0px"
	 viewBox="0 0 512 512" style="enable-background:new 0 0 512 512;" xml:space="preserve">
<style type="text/css">
	.st0{fill:#FFB800;}
</style>
<g transform="translate(0.000000,512.000000) scale(0.100000,-0.100000)">
	<path class="st0" d="M2525,5111c-11-5-29-19-40-31c-19-21-20-38-23-471l-3-449h101h100v125v125h335c380,0,394,2,421,65
		c8,20,12,46,8,58c-3,12-38,65-78,117s-75,101-79,107c-5,8,23,53,71,116c43,57,82,115,86,130c8,34-6,69-40,96c-26,21-33,21-433,20
		C2728,5119,2536,5115,2525,5111z"/>
	<path class="st0" d="M1855,3430c-380-324-691-594-693-599c-3-9,152-193,166-199c4-1,246,201,537,449c292,249,556,474,588,500
		c47,40,65,49,96,49c41,0,53-10,975-800c125-107,231-196,235-198c10-3,176,184,176,198c0,9-1375,1190-1386,1190
		C2546,4020,2234,3755,1855,3430z"/>
	<path class="st0" d="M2078,3011l-467-396l-1-1307V0h215h215v528v529l26,24l26,24h459h458l23-23l23-23l3-529l3-530h204h205v1308
		v1308l-397,340c-219,186-427,364-463,395l-65,57L2078,3011z M3034,1824c40-41,39-96-5-136l-29-28h-456h-456l-29,29
		c-21,22-29,39-29,66s8,44,29,66l29,29h460h459L3034,1824z"/>
	<path class="st0" d="M263,2029c-30-15-48-33-62-63c-21-42-21-55-21-1004V0h615h615v1025v1025H858C318,2050,304,2049,263,2029z
		 M619,1625c23-22,26-34,29-125c8-181-16-240-97-240c-84,0-104,43-99,215l3,127l34,30c28,25,39,29,69,24C578,1653,605,1639,619,1625
		z M1107,1638c30-25,43-76,43-171c0-120-6-151-38-182c-33-34-90-34-129-1c-28,24-28,26-31,154c-4,142,7,188,51,211
		C1029,1662,1086,1656,1107,1638z M613,814c32-32,41-82,35-215c-4-99-4-102-36-130c-36-32-69-36-111-14c-40,20-51,61-51,192
		c0,154,20,192,101,193C577,840,595,833,613,814z M1113,814c32-32,41-82,35-215c-4-99-4-102-36-130c-36-32-69-36-111-14
		c-40,20-51,61-51,192c0,154,20,192,101,193C1077,840,1095,833,1113,814z"/>
	<path class="st0" d="M3670,1025V0h635h635v962c0,951,0,962-21,1004c-15,31-32,48-63,63c-41,20-57,21-614,21h-572V1025z M4114,1649
		c46-22,58-66,54-211c-3-128-3-130-31-154c-58-50-146-19-161,57c-13,68-7,223,12,259C4014,1653,4063,1672,4114,1649z M4630,1625
		c23-23,25-34,28-135c3-61,1-126-3-146c-21-113-169-114-190-1c-4,19-5,84-3,145c2,93,6,113,23,132C4527,1667,4586,1668,4630,1625z
		 M4121,830c38-21,49-62,49-183c0-131-11-172-51-192c-42-22-75-18-111,14c-32,28-32,31-36,130c-6,133,3,183,35,215
		C4035,842,4085,849,4121,830z M4623,814c34-34,40-69,35-205c-3-111-3-111-36-140c-51-46-118-34-147,26c-18,39-21,237-4,282
		C4495,842,4576,862,4623,814z"/>
	<path class="st0" d="M2230,455V0h315h315v455v455h-315h-315V455z"/>
</g>
</svg>
