<?xml version="1.0" encoding="utf-8"?>
<!-- Generator: Adobe Illustrator 25.2.1, SVG Export Plug-In . SVG Version: 6.00 Build 0)  -->
<svg version="1.1" id="Capa_1" xmlns="http://www.w3.org/2000/svg" xmlns:xlink="http://www.w3.org/1999/xlink" x="0px" y="0px"
	 viewBox="0 0 512 512" style="enable-background:new 0 0 512 512;" xml:space="preserve">
<style type="text/css">
	.st0{fill:#FFB800;}
</style>
<g transform="translate(0.000000,512.000000) scale(0.100000,-0.100000)">
	<path class="st0" d="M1667,4869c-57-14-134-56-183-101c-41-38-114-162-114-194c0-12,191-14,1190-14s1190,2,1190,14c0,7-16,45-35,83
		c-43,86-103,144-193,186l-67,32l-875,2C2091,4878,1688,4874,1667,4869z"/>
	<path class="st0" d="M1360,4320v-80h215c216,0,216,0,240-25l25-24v-591v-591l-25-24c-24-25-24-25-240-25h-215v-400v-400h216
		c257,0,279-5,349-75c63-63,75-100,75-243v-111l153-78c124-64,154-83,161-105c21-60,3-77-161-161l-153-78v-54v-55h880h880v445
		c0,369-2,445-14,445c-7,0-45,16-83,35c-86,43-144,103-186,193l-32,67v495v495l32,67c42,90,100,150,186,193c38,19,76,35,83,35
		c12,0,14,63,14,365v365H2560H1360V4320z"/>
	<path class="st0" d="M669,3855c154-124,285-225,291-225s137,101,291,225l281,225H960H388L669,3855z"/>
	<path class="st0" d="M240,3556v-436h720h720v436c0,348-3,434-12,427c-7-6-163-130-347-277c-255-203-340-266-361-266
		s-106,63-361,266c-184,147-340,271-346,277C243,3990,240,3904,240,3556z"/>
	<path class="st0" d="M3760,3507c-49-16-133-102-148-153c-9-30-12-164-12-474s3-444,12-474c16-55,99-138,154-154c58-17,890-17,948,0
		c55,16,138,99,154,154c17,58,17,890,0,946c-6,22-31,62-55,88c-72,81-69,80-577,79C3945,3518,3783,3514,3760,3507z M4720,3280v-80
		h-80h-80v80v80h80h80V3280z M4404,3162c91-42,149-100,194-190c35-72,37-81,37-172s-2-100-37-172c-45-91-103-147-196-191
		c-61-29-76-32-162-32s-101,3-160,31c-95,46-153,101-197,192c-36,72-38,81-38,171c0,87,3,102,32,163c40,85,97,147,172,186
		c78,42,122,52,213,48C4323,3193,4354,3185,4404,3162z"/>
	<path class="st0" d="M4160,3027c-49-16-133-102-148-153c-28-94-8-169,63-239c102-103,243-101,338,5c90,100,90,220,0,320
		C4348,3032,4255,3057,4160,3027z"/>
	<path class="st0" d="M265,1975l-25-24v-511V929l25-24l24-25h751h751l24,25l25,24v228c0,179,3,233,14,248c8,11,55,40,105,65
		c50,24,91,47,91,50s-41,26-91,50c-50,25-97,54-105,65c-10,14-14,57-14,168c0,144-1,149-25,172l-24,25h-751H289L265,1975z
		 M1680,1760v-80h-640H400v80v80h640h640V1760z M1520,1440v-80h-480H560v80v80h480h480V1440z M1680,1120v-80h-640H400v80v80h640h640
		V1120z"/>
	<path class="st0" d="M2000,984c0-87-18-133-75-189c-70-70-92-75-350-75h-218l5-91c5-78,11-100,42-163c43-88,102-146,194-189l67-32
		h895h895l67,32c93,44,151,100,196,191l37,76l3,248l4,248h-881h-881V984z M2634,868c86-26,166-136,166-228c0-124-116-240-240-240
		s-240,116-240,240c0,63,23,114,75,165C2465,876,2540,895,2634,868z"/>
	<path class="st0" d="M2505,695c-50-49-15-135,55-135c41,0,80,39,80,80s-39,80-80,80C2541,720,2520,711,2505,695z"/>
</g>
</svg>
