<?xml version="1.0" encoding="utf-8"?>
<!-- Generator: Adobe Illustrator 25.2.1, SVG Export Plug-In . SVG Version: 6.00 Build 0)  -->
<svg version="1.1" id="Capa_1" xmlns="http://www.w3.org/2000/svg" xmlns:xlink="http://www.w3.org/1999/xlink" x="0px" y="0px"
	 viewBox="0 0 512 512" style="enable-background:new 0 0 512 512;" xml:space="preserve">
<style type="text/css">
	.st0{fill:#FFB800;}
</style>
<g transform="translate(0.000000,512.000000) scale(0.100000,-0.100000)">
	<path class="st0" d="M3988,5099c-23-12-46-35-58-59c-20-39-20-56-20-1880c0-1825,0-1841,20-1880c13-26,34-47,60-60
		c37-19,58-20,370-20s333,1,370,20c26,13,47,34,60,60c20,39,20,55,20,1880s0,1841-20,1880c-13,26-34,47-60,60c-37,19-58,20-372,20
		C4046,5119,4023,5118,3988,5099z"/>
	<path class="st0" d="M2788,4479c-23-12-46-35-58-59c-20-39-20-56-20-1570s0-1531,20-1570c13-26,34-47,60-60c37-19,58-20,370-20
		s333,1,370,20c26,13,47,34,60,60c20,39,20,56,20,1570s0,1531-20,1570c-13,26-34,47-60,60c-37,19-58,20-372,20
		C2846,4499,2823,4498,2788,4479z"/>
	<path class="st0" d="M1588,3879c-23-12-46-35-58-59c-20-39-20-57-20-1270c0-1214,0-1231,20-1270c13-26,34-47,60-60
		c37-19,58-20,370-20s333,1,370,20c26,13,47,34,60,60c20,39,20,56,20,1270s0,1231-20,1270c-13,26-34,47-60,60c-37,19-58,20-372,20
		C1646,3899,1623,3898,1588,3879z"/>
	<path class="st0" d="M388,3279c-23-12-46-35-58-59c-20-38-20-57-20-970s0-932,20-970c13-26,34-47,60-60c37-19,58-20,370-20
		s333,1,370,20c26,13,47,34,60,60c20,38,20,57,20,970s0,932-20,970c-13,26-34,47-60,60c-37,19-58,20-372,20
		C446,3299,423,3298,388,3279z"/>
	<path class="st0" d="M3055,886c-84-21-147-57-211-121c-177-176-177-453,1-630c258-259,695-118,757,244c24,141-22,281-127,387
		C3363,879,3206,924,3055,886z"/>
	<path class="st0" d="M78,579C35,557,0,498,0,450c0-50,35-107,80-130c39-20,56-20,1187-20h1148v150v150H1265C140,599,114,599,78,579
		z"/>
	<path class="st0" d="M3905,450V300h548c529,0,549,1,587,20c45,23,80,80,80,130s-35,107-80,130c-38,19-58,20-587,20h-548V450z"/>
</g>
</svg>
