<?xml version="1.0" encoding="utf-8"?>
<!-- Generator: Adobe Illustrator 25.2.1, SVG Export Plug-In . SVG Version: 6.00 Build 0)  -->
<svg version="1.1" id="Capa_1" xmlns="http://www.w3.org/2000/svg" xmlns:xlink="http://www.w3.org/1999/xlink" x="0px" y="0px"
	 viewBox="0 0 512 512" style="enable-background:new 0 0 512 512;" xml:space="preserve">
<g transform="translate(0.000000,512.000000) scale(0.100000,-0.100000)">
	<path d="M2405,5106c-507-101-810-611-653-1096c87-270,295-471,575-557c78-23,104-26,233-26s155,3,233,26c291,89,495,293,584,584
		c23,78,26,104,26,233s-3,155-26,233c-89,291-296,498-584,583C2683,5118,2511,5127,2405,5106z"/>
	<path d="M1800,3244c-124-60-275-157-355-228l-50-44l25-10c383-146,1130-422,1142-422c11,0,913,334,1133,420l30,12l-49,44
		c-74,68-228,166-356,228c-63,31-121,56-128,56s-49-20-95-44c-327-177-722-179-1062-6c-54,27-103,50-109,50S1863,3275,1800,3244z"/>
	<path d="M879,2777c-62-41-69-69-69-274v-183h45c211,0,400-152,444-358c14-69,15-514,0-584c-16-77-74-180-129-232
		c-82-77-205-126-315-126h-45V850c0-183,7-216,51-257c14-12,339-139,784-306L2405,2l3,1131c1,622-1,1134-5,1138
		c-5,4-322,124-706,268c-515,192-710,261-741,261C928,2800,901,2792,879,2777z"/>
	<path d="M3415,2535l-700-263l-3-1136L2710,0l77,29c778,288,1453,547,1472,564c44,41,51,74,51,257v170h-45c-211,0-400,152-444,358
		c-15,69-15,514,0,584c19,88,58,158,124,223c88,87,201,135,320,135h45v183c0,205-7,233-69,274C4176,2821,4170,2819,3415,2535z"/>
	<path d="M663,2005c-102-31-176-96-222-195c-22-46-26-69-26-140c0-76,4-93,33-152c38-77,92-130,171-166c46-22,74-27,162-30
		c128-5,176,13,209,78c18,36,20,58,20,270s-2,234-20,270c-31,61-78,80-192,79C747,2019,686,2013,663,2005z"/>
	<path d="M4188,2000c-23-12-46-36-58-60c-18-36-20-59-20-270c0-212,2-234,20-270c33-65,81-83,210-78c95,3,112,6,172,36
		c77,38,130,92,167,171c22,47,26,70,26,141s-4,94-26,141c-37,79-90,133-167,171c-61,30-75,33-177,36C4240,2020,4220,2017,4188,2000z
		"/>
</g>
</svg>
