<?xml version="1.0" encoding="utf-8"?>
<!-- Generator: Adobe Illustrator 25.2.1, SVG Export Plug-In . SVG Version: 6.00 Build 0)  -->
<svg version="1.1" id="Capa_1" xmlns="http://www.w3.org/2000/svg" xmlns:xlink="http://www.w3.org/1999/xlink" x="0px" y="0px"
	 viewBox="0 0 512 512" style="enable-background:new 0 0 512 512;" xml:space="preserve">
<style type="text/css">
	.st0{fill:#F35C5C;}
</style>
<g transform="translate(0.000000,512.000000) scale(0.100000,-0.100000)">
	<path class="st0" d="M2510.8,5115.5c-64.2-12.3-133.3-51.8-213.6-122.2c-158-138.3-172.8-143.2-348.1-106.2
		c-119.7,24.7-234.6,23.5-296.3-4.9c-86.4-39.5-138.3-116-197.5-295c-45.7-139.5-70.4-166.7-195.1-207.4
		c-312.3-102.5-382.7-208.6-322.2-488.9c9.9-49.4,19.8-116,19.8-148.1c1.2-63-9.9-82.7-128.4-216c-166.7-190.1-163-335.8,17.3-538.2
		c87.6-98.8,122.2-159.3,114.8-204.9c-2.5-17.3-14.8-83.9-25.9-145.7c-40.7-228.4-2.5-334.5,149.4-411.1
		c48.1-23.5,132.1-59.3,188.9-77.8c119.7-42,123.4-45.7,187.6-222.2c55.6-154.3,98.8-222.2,166.7-262.9c79-45.7,144.4-49.4,321-17.3
		c185.2,34.6,182.7,34.6,333.3-92.6c224.7-191.3,344.4-187.6,580.2,18.5c54.3,46.9,113.6,88.9,130.9,92.6
		c18.5,4.9,100-4.9,180.2-18.5c169.1-30.9,242-27.2,318.5,17.3c65.4,39.5,116,117.3,165.4,256.8c66.7,192.6,65.4,190.1,243.2,249.4
		c153.1,50.6,224.7,98.8,267.9,180.2c32.1,61.7,34.6,75.3,29.6,160.5c-3.7,50.6-16,138.3-25.9,195.1
		c-24.7,128.4-18.5,143.2,101.2,285.2c104.9,123.5,128.4,170.4,135.8,262.9c7.4,92.6-28.4,166.7-139.5,293.8
		c-117.3,134.6-121,148.1-97.5,272.8c27.2,151.8,34.6,258,18.5,313.6c-28.4,108.6-122.2,176.5-330.8,245.7
		c-124.7,40.7-149.4,67.9-195.1,207.4c-59.3,179-111.1,255.5-197.5,295c-61.7,28.4-176.5,29.6-296.3,4.9
		c-175.3-37-190.1-32.1-348.1,106.2C2705.8,5095.8,2608.3,5134,2510.8,5115.5z M2874.9,4461.2c408.6-111.1,737-424.7,861.7-820.9
		c109.9-349.4,59.3-733.3-135.8-1035.7c-193.8-301.2-496.3-500-849.3-556.8c-716-117.3-1383.9,422.2-1422.1,1149.3
		c-32.1,611.1,374.1,1145.6,971.6,1277.7C2447.8,4506.9,2733,4500.7,2874.9,4461.2z"/>
	<path class="st0" d="M2418.2,4288.4c-381.5-59.3-691.3-309.9-825.9-667.9c-43.2-113.6-59.3-218.5-58-369.1
		c2.5-482.7,348.1-897.5,827.1-995c135.8-27.2,350.6-18.5,480.2,18.5c439.5,127.2,743.2,528.4,744.4,983.9
		c1.2,482.7-308.6,886.4-771.6,1004.9C2699.6,4293.3,2520.6,4303.2,2418.2,4288.4z M2608.3,3869.9c9.9-6.2,51.8-77.8,92.6-158
		c85.2-165.4,51.8-144.4,283.9-176.5c123.5-17.3,155.5-38.3,155.5-101.2c0-34.6-17.3-58-117.3-158l-118.5-118.5l27.2-158
		c29.6-176.5,24.7-207.4-34.6-230.9c-30.9-11.1-51.8-4.9-186.4,65.4l-150.6,77.8l-151.8-77.8c-133.3-69.1-154.3-76.5-185.2-65.4
		c-60.5,23.5-65.4,56.8-34.6,232.1l27.2,155.5l-117.3,118.5c-101.2,101.2-118.5,124.7-118.5,159.3c0,63,32.1,83.9,155.5,101.2
		c232.1,32.1,198.8,11.1,283.9,176.5c40.7,80.2,82.7,151.8,92.6,158c9.9,6.2,30.9,11.1,48.1,11.1S2598.4,3876.1,2608.3,3869.9z"/>
	<path class="st0" d="M1044.2,1047.8C871.4,693.5,745.4,421.9,745.4,400.9c0-43.2,50.6-91.4,95.1-91.4c19.8,0,123.5,42,232.1,93.8
		c108.6,50.6,201.2,88.9,204.9,85.2c4.9-4.9,25.9-91.4,46.9-193.8c22.2-101.2,45.7-203.7,53.1-225.9c21-69.1,117.3-92.6,163-40.7
		c11.1,12.3,163,313.6,339.5,669.1l318.5,646.9l-32.1,34.6c-74.1,80.2-85.2,83.9-200,63c-65.4-12.3-144.4-18.5-216-14.8
		c-96.3,3.7-124.7,11.1-193.8,44.4c-74.1,37-193.8,145.7-193.8,176.5c0,6.2-3.7,11.1-9.9,11.1
		C1347.9,1658.9,1208.4,1383.6,1044.2,1047.8z"/>
	<path class="st0" d="M3726.8,1605.8c-116-160.5-311.1-214.8-580.2-163c-106.2,19.8-119.7,16-192.6-64.2l-33.3-34.6l323.4-654.3
		c177.8-359.2,332.1-660.5,342-669.1c39.5-32.1,118.5-21,144.4,21c8.6,13.6,35.8,118.5,59.3,232.1c24.7,113.6,48.1,209.9,53.1,214.8
		c3.7,4.9,96.3-33.3,204.9-85.2c108.6-51.8,212.3-93.8,232.1-93.8c44.4,0,95.1,48.1,95.1,92.6c0,32.1-590.1,1258-604.9,1255.5
		C3766.3,1657.7,3746.5,1634.2,3726.8,1605.8z"/>
</g>
</svg>
