<?xml version="1.0" encoding="utf-8"?>
<!-- Generator: Adobe Illustrator 25.2.1, SVG Export Plug-In . SVG Version: 6.00 Build 0)  -->
<svg version="1.1" id="Capa_1" xmlns="http://www.w3.org/2000/svg" xmlns:xlink="http://www.w3.org/1999/xlink" x="0px" y="0px"
	 viewBox="0 0 500 420.7" style="enable-background:new 0 0 500 420.7;" xml:space="preserve">
<style type="text/css">
	.st0{fill:#E0E0E0;}
	.st1{fill:#EBEBEB;}
	.st2{fill:#FAFAFA;}
	.st3{fill:#F5F5F5;}
	.st4{fill:#FFFFFF;}
	.st5{fill:none;}
	.st6{fill:#263238;}
	.st7{fill:#FAA930;}
	.st8{fill:#EB996E;}
	.st9{fill:#FFBE9D;}
	.st10{opacity:0.3;}
	.st11{fill:#455A64;}
	.st12{opacity:0.7;}
	.st13{opacity:0.4;}
</style>
<g id="freepik--background-complete--inject-9">
	<rect x="135.2" y="0.9" class="st0" width="104.6" height="109"/>
	<rect x="128.1" y="0.9" class="st1" width="104.6" height="109"/>
	<rect x="142.1" y="15.6" class="st2" width="76.5" height="79.7"/>
	<path class="st0" d="M142.1,95.8c-0.6,0.8-1.2,1.5-1.9,2.2c-1.2,1.3-3,3-4.9,4.9s-3.7,3.6-5,4.8c-0.7,0.7-1.4,1.3-2.2,1.9
		c0.6-0.8,1.2-1.5,1.9-2.2c1.2-1.3,3-3,4.9-4.9s3.7-3.6,5-4.8C140.6,97,141.3,96.3,142.1,95.8z"/>
	<path class="st0" d="M218.6,95.6c0.8,0.6,1.5,1.2,2.2,1.9c1.3,1.2,3,3,4.9,4.9s3.6,3.7,4.8,5c0.7,0.7,1.3,1.4,1.9,2.2
		c-0.8-0.6-1.5-1.2-2.2-1.9c-1.3-1.2-3-3-4.9-4.9s-3.6-3.7-4.8-5C219.8,97.1,219.1,96.4,218.6,95.6z"/>
	<path class="st0" d="M218.4,15.8c0.6-0.8,1.2-1.5,1.9-2.2c1.2-1.3,3-3,4.9-4.9s3.7-3.6,5-4.8c0.7-0.7,1.4-1.3,2.2-1.9
		c-0.6,0.8-1.2,1.5-1.9,2.2c-1.2,1.3-3,3-4.9,4.9s-3.7,3.6-5,4.8C219.9,14.6,219.2,15.2,218.4,15.8z"/>
	<path class="st0" d="M141.9,16c-0.8-0.6-1.5-1.2-2.2-1.9c-1.3-1.2-3-2.9-4.9-4.9c-1.9-1.9-3.6-3.7-4.8-5c-0.7-0.7-1.3-1.4-1.9-2.2
		c0.8,0.6,1.5,1.2,2.2,1.9c1.3,1.2,3,2.9,4.9,4.9c1.9,1.9,3.6,3.7,4.8,5C140.8,14.5,141.4,15.2,141.9,16z"/>
	<path class="st0" d="M218.4,95.3c0,0,0-0.1,0-0.4s0-0.6,0-1.1c0-1,0-2.4,0-4.3c0-3.8,0-9.3-0.1-16.2c0-14-0.1-33.8-0.1-57.7
		l0.3,0.2h-76.2l0,0l0.3-0.3c0,29.3,0,56.6,0,79.7l-0.2-0.3l55.2,0.1l15.5,0.1h4.1h1.1h0.4h-1.4h-4.1l-15.4,0.1l-55.4,0.1H142v-0.2
		c0-23.1,0-50.4,0-79.7v-0.3h0.3h76.2h0.3v0.3c-0.1,23.9-0.1,43.8-0.1,57.8c0,7,0,12.4-0.1,16.2c0,1.8,0,3.3,0,4.2
		c0,0.5,0,0.8,0,1.1C218.5,95,218.4,95.3,218.4,95.3z"/>
	
		<rect x="188.2" y="52.3" transform="matrix(0.5158 -0.8567 0.8567 0.5158 39.9328 191.2345)" class="st0" width="1.9" height="16"/>
	<path class="st1" d="M182.7,53.6c1.1,0.7,1.5,2.2,0.8,3.3l0,0c-0.7,1.1-2.2,1.5-3.3,0.8l-0.7-0.4c-1.1-0.7-1.5-2.2-0.8-3.3l0,0
		c0.7-1.1,2.2-1.5,3.3-0.8L182.7,53.6z"/>
	<path class="st1" d="M176.1,36.5c6.5,3.9,8.6,12.3,4.7,18.8S168.5,63.9,162,60s-8.6-12.3-4.7-18.8l0,0
		C161.3,34.7,169.7,32.6,176.1,36.5z"/>
	<path class="st2" d="M176.6,36.8l-0.5-0.3c-1.6-1-3.5-1.6-5.3-1.9c-2,8-7.2,15.7-12.9,21.4c1.1,1.6,2.5,2.9,4.2,3.9l0.7,0.4
		C169.5,54.3,175.3,45.9,176.6,36.8z"/>
	<path class="st0" d="M195.6,64.2c-1.5,2.5-0.7,5.7,1.8,7.2s5.7,0.7,7.2-1.8s0.7-5.7-1.8-7.2l0,0C200.3,60.9,197.1,61.7,195.6,64.2
		C195.6,64.1,195.6,64.2,195.6,64.2z M203.2,68.8c-1,1.7-3.3,2.3-5,1.3s-2.3-3.3-1.3-5c1-1.7,3.3-2.3,5-1.3l0,0
		C203.7,64.8,204.3,67,203.2,68.8L203.2,68.8z"/>
	<path class="st0" d="M166.2,46.7c0.1-0.2,2,0.2,2,0.2s1.1-1.6,1.3-1.6s0.5,2,0.5,2c0.7,0.2,1.3,0.4,1.9,0.7c0,0.2-1.7,1.1-1.7,1.1
		s0.1,1.9-0.1,2c-0.2,0.1-1.5-1.3-1.5-1.3c-0.6,0.2-1.3,0.4-2,0.5c-0.2-0.1,0.8-1.9,0.8-1.9S166,46.9,166.2,46.7z"/>
	<path class="st0" d="M169.7,39.4c0.1-0.3,2-0.3,2-0.3s0.7-1.8,0.9-1.8s0.9,1.8,0.9,1.8c0.7,0,1.3,0.1,2,0.3
		c0.1,0.2-1.5,1.4-1.5,1.4s0.5,1.9,0.3,2s-1.8-1-1.8-1c-0.6,0.4-1.2,0.7-1.8,0.9c-0.2-0.1,0.4-2,0.4-2S169.6,39.7,169.7,39.4z"/>
	<path class="st0" d="M161.2,53.3c-0.2,0.2,0.7,1.9,0.7,1.9s-1.2,1.4-1.2,1.7c0.1,0.2,2-0.1,2-0.1s1,1.6,1.2,1.6s0.6-1.9,0.6-1.9
		s1.9-0.4,1.9-0.7c0-0.2-1.7-1.1-1.7-1.1c0.1-0.7,0.1-1.4,0-2c-0.2-0.2-1.6,1.2-1.6,1.2S161.4,53.1,161.2,53.3z"/>
	<path class="st3" d="M263.4,150.8c0,0,12.4,1.2,6.7,28.4c-5.7,27.3-10.9,41.5-10.9,41.5s-0.7,6.2,4.3,5.7
		c4.9-0.4,14.8-4.9,18.4,0.3c3.8,5.4,1,12.1-6.4,19.4c-7.4,7.3-23.1,23.9-24.5,25.4s-2.3,4.5,1.1,4.8s27.2-3.6,28.4,7.8
		c1.2,11.4-22.8,28.4-25.4,30.3s-2.9,3.3-2.3,4.8s8.6-0.5,15.4-1.4c6.9-0.8,14.8-0.6,14.9,6s-12.1,24-49.4,38.2l-17.7,5.4L202.2,355
		c-28-28.4-31.8-49.3-29-55.3c2.9-6,10.3-2.8,16.2,0.8s12.1,8.8,13.4,7.7c1.3-1.2,1.5-2.5-0.1-5.3s-16.3-28.2-10.5-38.1
		s25.9,3.6,29.1,4.8c3.2,1.2,3.6-2,2.9-3.9c-0.6-1.9-8-23.6-11.7-33.3s-3.4-17.1,2.3-20.3c5.5-3.2,12.6,5,16.9,7.4
		c4.3,2.4,6.3-3.4,6.3-3.4s1.1-15.1,7.3-42.2s18.2-22.9,18.2-22.9"/>
	<path class="st0" d="M258.3,175.2c0,0.2,0,0.3-0.1,0.5c-0.1,0.4-0.2,0.8-0.3,1.5l-1.2,5.6l-4.5,20.6c-3.8,17.5-9,41.5-14.7,68.1
		s-10.9,50.7-14.9,68c-2,8.7-3.6,15.7-4.8,20.6c-0.6,2.4-1,4.3-1.3,5.6c-0.2,0.6-0.3,1.1-0.4,1.4c0,0.2-0.1,0.3-0.2,0.5
		c0-0.2,0-0.3,0.1-0.5c0.1-0.4,0.2-0.8,0.3-1.5l1.2-5.6l4.5-20.6c3.8-17.4,9-41.5,14.7-68.1s10.9-50.6,14.9-68
		c2-8.7,3.6-15.7,4.8-20.6c0.6-2.4,1-4.3,1.3-5.6l0.4-1.5C258.2,175.5,258.2,175.4,258.3,175.2z"/>
	<path class="st0" d="M268.3,233.5c-1.2,1.1-2.5,2.2-3.9,3.1l-9.5,7.4c-3.7,2.9-7.1,5.5-9.6,7.3c-1.2,0.9-2.3,1.6-3,2.1
		c-0.4,0.3-0.8,0.5-1.2,0.7c0-0.1,1.5-1.2,3.9-3.1l9.4-7.4c3.7-2.9,7.1-5.4,9.6-7.2c1.3-0.9,2.3-1.6,3-2.1
		C267.4,233.9,267.8,233.7,268.3,233.5z"/>
	<path class="st0" d="M239.6,253.2c-0.2,0.1-5.3-7-11.6-15.8c-6.2-8.9-11.1-16.1-11-16.2c0.1-0.1,5.3,7,11.6,15.8
		C234.8,245.8,239.8,253.1,239.6,253.2z"/>
	<path class="st0" d="M231.8,300.6c-0.4-0.2-0.8-0.4-1.2-0.7c-0.7-0.5-1.8-1.2-3-2.2c-2.5-1.9-6-4.5-9.6-7.7s-6.8-6.2-9-8.4
		c-1.1-1.1-2-2.1-2.6-2.7c-0.3-0.3-0.6-0.7-0.9-1.1c1.3,1.1,2.6,2.2,3.8,3.4c2.3,2.1,5.5,5.1,9.1,8.2s7,5.9,9.4,7.8
		C229.2,298.2,230.5,299.4,231.8,300.6z"/>
	<path class="st0" d="M261.6,288.5c-1.4,0.8-2.8,1.4-4.3,1.9c-2.7,1.1-6.4,2.6-10.5,4.2s-7.9,3-10.6,4c-1.5,0.6-2.9,1.1-4.5,1.5
		c1.4-0.8,2.8-1.4,4.3-1.9c2.7-1.1,6.4-2.6,10.5-4.2s7.9-3,10.6-4C258.6,289.4,260.1,288.9,261.6,288.5z"/>
	<path class="st0" d="M260,331.2c-0.5,0.3-0.9,0.5-1.5,0.7l-4.1,1.7c-3.5,1.4-8.2,3.2-13.6,5.2c-5.3,2-10.1,3.8-13.6,5l-4.2,1.5
		c-0.5,0.2-1,0.4-1.6,0.4c0.5-0.3,0.9-0.5,1.5-0.7l4.1-1.7c3.5-1.4,8.2-3.2,13.6-5.2c5.3-2,10.1-3.8,13.6-5l4.2-1.5
		C259,331.4,259.5,331.3,260,331.2z"/>
	<path class="st0" d="M222.4,345.1c-0.5-0.3-1-0.6-1.4-1c-0.9-0.7-2.2-1.7-3.7-2.9c-3.1-2.5-7.3-6.1-11.8-10.2s-8.4-8-11.2-10.9
		c-1.4-1.4-2.5-2.6-3.2-3.5c-0.4-0.4-0.8-0.9-1.1-1.3c0.5,0.3,0.9,0.7,1.3,1.1l3.4,3.3c2.9,2.8,6.8,6.6,11.3,10.7s8.6,7.7,11.6,10.3
		l3.6,3.1C221.6,344.3,222.1,344.7,222.4,345.1z"/>
	
		<rect x="384.9" y="322.1" transform="matrix(0.6128 -0.7903 0.7903 0.6128 -118.6927 467.0333)" class="st0" width="64.6" height="65.1"/>
	
		<rect x="406" y="338.5" transform="matrix(0.6112 -0.7915 0.7915 0.6112 -123.2577 491.1287)" class="st1" width="64.5" height="65"/>
	<path class="st4" d="M441.3,385.4l-3.1,4l-16.9-13.1l16.9-21.8l16.5,12.8l-3.1,4.1l-11.5-8.9l-3.7,4.7l10.1,7.9l-3,3.9l-10.1-7.9
		l-3.9,5L441.3,385.4z"/>
	<path class="st1" d="M406.8,360.8c0,0.2-7.9,0.2-17.6,0s-17.6-0.4-17.6-0.6s7.9-0.2,17.6,0C399,360.4,406.8,360.6,406.8,360.8z"/>
	<path class="st1" d="M418.2,346.1c0,0.2-7.9,0.2-17.6,0s-17.6-0.4-17.6-0.6s7.9-0.2,17.6,0S418.2,346,418.2,346.1z"/>
	<path class="st1" d="M429.6,331.4c0,0.2-7.9,0.2-17.6,0s-17.6-0.4-17.6-0.6s7.9-0.2,17.6,0C421.8,331,429.6,331.2,429.6,331.4z"/>
	<path class="st1" d="M420.5,316.4c-2.4,0.3-4.9,0.3-7.3,0.2c-2.5,0.1-4.9-0.1-7.3-0.4c2.4-0.2,4.9-0.3,7.4-0.2
		C415.7,315.9,418.1,316,420.5,316.4z"/>
	<rect x="299.2" y="226.8" class="st1" width="65.1" height="64.6"/>
	<rect x="327.7" y="226.8" class="st3" width="65.1" height="64.6"/>
	<path class="st4" d="M346.5,259.9c0-8.3,6.4-14.3,15-14.3c4.3-0.2,8.5,1.6,11.3,4.9l-4.1,3.8c-1.7-2.1-4.3-3.3-6.9-3.2
		c-4.9,0-8.8,3.9-8.8,8.8c0,4.9,3.9,8.8,8.8,8.8c2.7,0,5.3-1.2,6.9-3.3l4.1,3.8c-2.6,3.2-6.6,4.9-11.4,4.9
		C352.9,274.2,346.5,268.2,346.5,259.9z"/>
	<path class="st0" d="M327.4,270.3c0.1,0.1-6.1,5-13.9,10.8s-14.1,10.5-14.2,10.3c-0.1-0.1,6.1-5,13.9-10.8
		C320.9,274.8,327.3,270.2,327.4,270.3z"/>
	<path class="st0" d="M327.4,251.7c0.1,0.1-6.1,5-13.9,10.8s-14.1,10.5-14.2,10.3s6.1-5,13.9-10.8
		C320.9,256.2,327.3,251.6,327.4,251.7z"/>
	<path class="st0" d="M327.4,233.1c0.1,0.1-6.1,5-13.9,10.8s-14.1,10.5-14.2,10.3c-0.1-0.1,6.1-5,13.9-10.8
		C320.9,237.6,327.3,232.9,327.4,233.1z"/>
	<path class="st0" d="M311,226.8c-1.8,1.7-3.7,3.2-5.7,4.6c-1.9,1.5-3.9,2.9-6,4.2c1.8-1.7,3.7-3.2,5.7-4.6
		C306.8,229.4,308.9,228,311,226.8z"/>
	<polygon class="st0" points="440.4,55.1 440.4,166.9 296,166.9 290.8,55.8 	"/>
	<rect x="290.8" y="55.7" class="st4" width="144.4" height="111.2"/>
	<path class="st0" d="M435.8,167.4H290.2V55.2h145.5L435.8,167.4L435.8,167.4z M291.3,166.3h143.3v-110H291.3V166.3z"/>
	<rect x="306.4" y="67.1" class="st4" width="113.1" height="85.1"/>
	<path class="st0" d="M419.6,67.1H419h-1.6h-6.2L388,67.2l-81.6,0.1l0.3-0.3c0,25.5,0,54.5,0,85.1l0,0l-0.3-0.3l113.1,0.1l-0.2,0.2
		c0.1-25.7,0.1-47,0.1-61.8c0-7.4,0-13.2,0.1-17.2c0-2,0-3.5,0-4.5S419.6,67.1,419.6,67.1c0-0.1,0,0.4,0,1.5c0,1,0,2.5,0,4.5
		c0,4,0,9.8,0.1,17.2c0,14.9,0.1,36.2,0.1,61.9v0.2h-0.2H306.4h-0.3v-0.3l0,0c0-30.6,0-59.5,0-85.1v-0.3h0.3l81.8,0.1l23.2,0.1h6.1
		h2.1L419.6,67.1z"/>
	<path class="st0" d="M290.8,55.5c0.9,0.4,1.7,0.9,2.4,1.5c1.5,1,3.5,2.4,5.6,4c2.2,1.6,4.1,3.1,5.4,4.3c0.8,0.6,1.5,1.2,2.1,1.9
		c-0.8-0.5-1.6-1-2.4-1.6l-5.5-4.1l-5.5-4.1C292.2,56.7,291.5,56.1,290.8,55.5z"/>
	<path class="st0" d="M435.2,55.7c-2.4,2.1-5,4.1-7.7,5.9c-2.6,2-5.2,3.8-8,5.5c2.4-2.1,5-4.1,7.7-5.9
		C429.8,59.2,432.5,57.4,435.2,55.7z"/>
	<line class="st5" x1="435.2" y1="166.9" x2="419" y2="152.2"/>
	<path class="st0" d="M419,152.2c2.9,2.2,5.7,4.6,8.3,7.1c2.8,2.4,5.4,4.9,7.9,7.5c-2.9-2.2-5.7-4.6-8.3-7.1
		C424.1,157.4,421.5,154.9,419,152.2z"/>
	<path class="st0" d="M290.8,166.9c2.4-2.5,4.9-4.9,7.6-7.2c2.5-2.4,5.2-4.7,7.9-6.8c-2.4,2.5-4.9,4.9-7.6,7.2
		C296.2,162.5,293.6,164.8,290.8,166.9z"/>
	<path class="st1" d="M358.5,113.1c-0.1-1.2-0.2-2.4-0.1-3.6c0.1-1.4,0-2.8,0-4.2c-0.1-5-3.4-8.1-8.3-8c-2.3,0.2-4.5,1.1-6.4,2.5
		c-8.7,6-5.5,19.1,0,25.9c1.8,2.2,4,4,6.4,5.4c3,1.7,8,1.8,10.1-1.1c1.6-2.3,2-5.3,0.8-7.9C359.8,119.2,358.9,116.2,358.5,113.1z"/>
	<path class="st1" d="M360.3,93.4c-0.9,2.7-3.3,4.4-5.4,3.7c-2.1-0.7-3.2-3.4-2.3-6.2c0.9-2.7,3.3-4.4,5.4-3.7
		C360.1,88,361.2,90.7,360.3,93.4z"/>
	<path class="st1" d="M350.3,92.9c0,2-1.3,3.6-2.9,3.6s-2.8-1.7-2.8-3.6c0-2,1.3-3.6,2.9-3.6S350.3,90.9,350.3,92.9z"/>
	<path class="st1" d="M343.4,94.5c0.8,1.6,0.4,3.4-0.9,4s-2.9-0.2-3.7-1.8c-0.8-1.6-0.4-3.4,0.9-4S342.6,92.9,343.4,94.5z"/>
	<path class="st1" d="M338.3,98.6c0.8,1,0.7,2.6-0.3,3.4s-2.6,0.7-3.4-0.3c-0.7-0.9-0.7-2.1-0.1-3C335.3,97.7,337,97.6,338.3,98.6z"
		/>
	<path class="st1" d="M336,104.1c1,0.6,1.3,1.9,0.7,2.9c-0.6,1-1.9,1.3-2.9,0.7c-0.8-0.5-1.2-1.5-0.9-2.4
		C333.5,104.1,334.8,103.6,336,104.1z"/>
	<path class="st1" d="M372.7,113.1c0.1-1.2,0.2-2.4,0.1-3.6c-0.1-1.4,0-2.8,0-4.2c0.1-5,3.4-8.1,8.3-8c2.3,0.2,4.5,1.1,6.4,2.5
		c8.7,6,5.5,19.1,0,25.9c-1.8,2.2-4,4-6.4,5.4c-3,1.7-8,1.8-10.1-1.1c-1.6-2.3-1.9-5.3-0.8-7.9C371.4,119.3,372.3,116.2,372.7,113.1
		z"/>
	<path class="st1" d="M370.9,93.4c0.9,2.7,3.3,4.4,5.4,3.7s3.1-3.4,2.3-6.2c-0.9-2.7-3.3-4.4-5.4-3.7S370,90.7,370.9,93.4z"/>
	<path class="st1" d="M380.9,92.9c0,2,1.3,3.6,2.9,3.6s2.8-1.7,2.8-3.6c0-2-1.3-3.6-2.9-3.6C382.1,89.3,380.8,90.9,380.9,92.9z"/>
	<path class="st1" d="M387.8,94.5c-0.8,1.6-0.4,3.4,0.9,4s2.9-0.2,3.7-1.8c0.8-1.6,0.4-3.4-0.9-4S388.6,92.9,387.8,94.5z"/>
	<path class="st1" d="M392.9,98.6c-1.3,0.8-1.7,2.4-1,3.7c0.8,1,2.5,1.1,3.8,0.1c1.2-0.5,1.8-2,1.3-3.2s-2-1.8-3.2-1.3
		C393.4,98.1,393.1,98.3,392.9,98.6L392.9,98.6z"/>
	<path class="st1" d="M395.2,104.1c-1.2,0.2-2.1,1.4-1.9,2.7c0.1,1.5,1.3,2.6,2.8,2.6c1.5-0.1,2.6-1.3,2.6-2.8
		c-0.1-1.5-1.3-2.6-2.8-2.6C395.7,103.9,395.5,104,395.2,104.1L395.2,104.1z"/>
</g>
<g id="freepik--Floor--inject-9">
	<path class="st6" d="M500,421c0,0.2-111.9,0.3-250,0.3S0,421.1,0,421s111.9-0.3,250-0.3S500,420.8,500,421z"/>
</g>
<g id="freepik--Character--inject-9">
	<path class="st7" d="M46.3,308.4c1.8,9.6-8.4,20.9-9.4,25c-0.9,4.2-0.5,8.8,2.2,12.2c2.4,2.8,5.9,4.5,9.5,4.9
		c3.7,0.3,7.3,0.2,10.9-0.4l33.8-4.1"/>
	<path class="st7" d="M136.9,220l26.2,17.5l-0.3,64.4c0,0,1.8,32.9-0.5,38.4s-116,14-116,14s-1.3-42.4,0-63.7
		c1.3-21.2,37.9-80.5,37.9-80.5L136.9,220z"/>
	<path class="st8" d="M157.8,351.9c0,0,39.8-25.2,50.4-21.2s36.5,44.9,36.5,44.9l-15,27.8l-33.6-25.2c0,0,0.7,27-23.7,32.1
		C147.9,415.4,157.8,351.9,157.8,351.9z"/>
	<path class="st9" d="M166.9,241.3l0.7,1c2.6,3.3,11.1,14.6,14,21.6c3.4,8.3,10.1,23.7,13.9,29.3c3.7,5.6,24,24.1,29.3,41.3
		c4.1,13.2,6.8,24.8,6.8,24.8l-27.4,12c0,0-30.4-36.8-33.8-44.3c-3.4-7.5-7.1-14.3-7.1-14.3l-3-42.4"/>
	<path class="st3" d="M45.7,348.8c0,0-6.2,6.3-5.6,12.7c0.6,6.4,0,20.7,0,20.7s2.5,43.5,44.4,38.3l39.9-3.7c0,0,22.1,0.6,33.3-8.5
		s14.6-55.1,10.3-59.5l-3.3-2.7c0,0-0.1-3.7-2.3-5C160.2,339.9,45.7,348.8,45.7,348.8z"/>
	<path class="st6" d="M45.7,348.8l0.6-0.1l1.7-0.2l6.7-0.6l25.3-2l38.7-2.8l23.5-1.6c4.1-0.3,8.3-0.5,12.6-0.7
		c2.2-0.1,4.3-0.2,6.5-0.2c0.3,0,0.6,0,0.9,0.1c0.2,0.1,0.3,0.1,0.4,0.2c0.1,0.1,0.2,0.2,0.4,0.3c0.4,0.4,0.8,0.9,1,1.4
		c0.5,1,0.8,2.2,0.8,3.3l-0.1-0.2l3.3,2.7l0,0c0.7,0.9,1.1,2,1.2,3.2c0.2,1.1,0.3,2.2,0.4,3.3c0.2,2.2,0.2,4.5,0.2,6.7
		c-0.1,4.6-0.4,9.2-1,13.8c-0.6,4.7-1.4,9.4-2.5,14c-1,4.8-2.7,9.4-4.9,13.8c-0.8,1.6-1.9,3.1-3.2,4.3c-0.7,0.6-1.4,1.2-2.1,1.7
		c-0.7,0.5-1.4,1-2.2,1.4c-3.1,1.7-6.4,2.9-9.7,3.8c-6.6,1.7-13.4,2.5-20.2,2.4l0,0l-31.4,2.9l-7.4,0.7c-2.5,0.2-4.9,0.5-7.3,0.5
		c-4.7,0.1-9.4-0.7-13.8-2.2c-4.2-1.5-8-3.8-11.2-6.8c-3-2.8-5.4-6.1-7.4-9.7c-1.8-3.3-3.1-6.8-4.1-10.3c-0.9-3.2-1.5-6.6-1.8-9.9
		l0,0c0.2-5.5,0.4-10.5,0.3-14.8c0-2.2-0.1-4.1-0.2-6c-0.1-1.7,0.2-3.4,0.8-4.9c0.8-2.1,2-4.1,3.4-5.9
		C44.6,349.9,45.2,349.3,45.7,348.8l-0.4,0.4c-0.3,0.3-0.6,0.7-1.1,1.4c-1.4,1.8-2.5,3.8-3.3,5.9c-0.6,1.5-0.8,3.2-0.7,4.9
		c0.2,1.8,0.2,3.8,0.3,6c0.1,4.3,0,9.3-0.3,14.8l0,0c0.6,7,2.7,13.8,6,20.1c1.9,3.6,4.4,6.8,7.3,9.6c3.2,3,6.9,5.2,11,6.7
		c4.4,1.5,9,2.2,13.6,2.1c2.4,0,4.8-0.3,7.2-0.5l7.4-0.7l31.4-2.9l0,0c6.7,0.1,13.4-0.7,20-2.3c3.3-0.8,6.6-2.1,9.6-3.7
		c0.8-0.4,1.5-0.9,2.2-1.4s1.4-1,2-1.6c1.2-1.2,2.2-2.7,3.1-4.2c2.2-4.3,3.8-8.9,4.8-13.6c1.1-4.6,1.9-9.3,2.5-14
		c0.6-4.6,0.9-9.1,1-13.7c0-2.2,0-4.5-0.2-6.7c-0.1-1.1-0.2-2.2-0.4-3.2c-0.1-1-0.5-2-1.1-2.9l0,0l-3.3-2.7l-0.1-0.1V346
		c-0.1-1.1-0.3-2.1-0.8-3.1c-0.2-0.5-0.5-0.9-0.9-1.2c-0.1-0.1-0.2-0.2-0.3-0.2s-0.2-0.2-0.3-0.2c-0.3,0-0.5-0.1-0.8-0.1
		c-2.2,0-4.4,0.1-6.5,0.2c-4.3,0.2-8.5,0.4-12.6,0.7l-23.4,1.5l-38.7,2.7l-25.2,1.9l-6.7,0.5l-1.7,0.1H45.7z"/>
	<path class="st9" d="M72.3,413.4c0,0-10-12.8-6.7-26.8s16.6-38.3,38.4-42.2c21.8-3.9,31.2-0.9,40.3,5.9
		c9.1,6.8,14.7,13.3,25.2,16.6c10.6,3.3,40.7,16.4,40.7,16.4l-3.9,30.1c0,0-43.2-0.1-53.3-2.2c-6-1.2-12-3-17.7-5.1
		c-3.2,7.1-9.9,12-17.6,13.1C104.9,420.8,82,424.1,72.3,413.4z"/>
	<path class="st7" d="M163.1,237.5c6,5.3,11.4,11.3,15.8,18c6.2,9.8,13.4,28.8,13.4,28.8s-30.9,22.6-33.3,22.1
		c-2.4-0.5-9.3-40.8-9.3-40.8L163.1,237.5z"/>
	<path class="st6" d="M162.6,324.9c-0.1-0.2-0.1-0.5-0.1-0.7c0-0.5-0.1-1.1-0.1-2c-0.1-1.8-0.2-4.2-0.4-7.2
		c-0.3-6.1-0.8-14.4-1.5-23.7c-0.7-9.2-1.6-17.6-2.2-23.6c-0.3-3-0.6-5.4-0.8-7.1c-0.1-0.8-0.1-1.4-0.2-2c0-0.2,0-0.5,0-0.7
		c0.1,0.2,0.1,0.4,0.1,0.7c0.1,0.5,0.2,1.1,0.3,1.9c0.3,1.7,0.6,4.1,1,7.1c0.8,6,1.7,14.4,2.4,23.6s1.1,17.6,1.4,23.7
		c0.1,3,0.2,5.5,0.2,7.2v2C162.7,324.4,162.6,324.6,162.6,324.9z"/>
	<path class="st6" d="M86.6,420.2c-1.3,0.1-2.6-0.1-3.8-0.4c-3.4-0.9-6.5-2.6-9-5.1c-1.7-1.7-3.2-3.6-4.4-5.7
		c-1.4-2.4-2.4-5-3.2-7.7c-0.9-2.9-1.4-5.9-1.7-9c-0.1-1.6,0-3.3,0.4-4.9l0.5-2.4c0.2-0.8,0.4-1.6,0.7-2.4c0.9-3.2,2.1-6.2,3.6-9.1
		c0.7-1.4,1.5-2.8,2.3-4.1c0.7-1.3,1.6-2.5,2.5-3.7c3.1-4.1,6.7-7.9,10.6-11.3c3.6-3.1,7.5-5.9,11.7-8.2c0,0-0.3,0.2-0.8,0.6
		l-2.3,1.6c-2,1.4-4.9,3.5-8.2,6.4c-3.9,3.4-7.4,7.1-10.5,11.3c-0.9,1.1-1.7,2.4-2.5,3.7c-0.8,1.3-1.6,2.6-2.2,4
		c-1.5,2.9-2.7,5.9-3.6,9.1c-0.2,0.8-0.4,1.6-0.7,2.4c-0.2,0.8-0.3,1.6-0.5,2.4c-0.3,1.6-0.4,3.1-0.4,4.7c0.2,3,0.7,6,1.6,8.9
		c0.7,2.6,1.7,5.2,3.1,7.6c1.2,2.1,2.6,4,4.3,5.7c2.4,2.5,5.5,4.3,8.8,5.2C84.1,419.9,85.3,420.1,86.6,420.2z"/>
	<path class="st6" d="M75.1,367c-0.4,0.2-0.9,0.3-1.4,0.3c-0.9,0.2-2.2,0.3-3.7,0.5c-8.3,0.7-16.7-0.1-24.7-2.6
		c-1.5-0.5-2.7-0.9-3.6-1.2c-0.4-0.2-0.9-0.3-1.3-0.6c0.5,0.1,0.9,0.2,1.3,0.4c0.8,0.3,2.1,0.6,3.6,1.1c8,2.2,16.3,3.1,24.6,2.6
		c1.6-0.1,2.9-0.2,3.7-0.3C74.2,367,74.7,367,75.1,367z"/>
	<path class="st6" d="M54.8,412.4c0,0-0.1-0.1-0.4-0.3c-0.3-0.3-0.7-0.7-0.9-1c-1.1-1.3-2.1-2.8-2.8-4.3c-2.5-5.2-3.5-10.9-3-16.6
		c0.6-5.7,1.9-11.2,3.9-16.5c0.7-2,1.4-3.7,1.8-4.8c0.2-0.6,0.5-1.2,0.7-1.7c-0.1,0.6-0.3,1.2-0.5,1.8l-1.6,4.9
		c-1.9,5.3-3.1,10.9-3.7,16.5c-0.5,5.6,0.5,11.3,2.8,16.4C52.1,408.7,53.3,410.6,54.8,412.4z"/>
	<rect x="196.8" y="355.4" class="st7" width="65.7" height="65.3"/>
	<g class="st10">
		<rect x="196.8" y="355.4" width="65.7" height="65.3"/>
	</g>
	<rect x="225.5" y="355.4" class="st7" width="65.7" height="65.3"/>
	<path class="st4" d="M264.7,396.8h-12.9l-2.5,6h-6.6l12.4-27.9h6.4l12.4,27.9h-6.8L264.7,396.8z M262.6,391.9l-4.4-10.7l-4.4,10.7
		H262.6z"/>
	<path class="st6" d="M225.2,399.3c0.1,0.1-6.2,5-14,10.9c-7.9,5.9-14.3,10.6-14.3,10.4c0-0.1,6.2-5,14-10.9
		C218.7,403.9,225.1,399.2,225.2,399.3z"/>
	<path class="st6" d="M225.2,380.5c0.1,0.1-6.2,5-14,10.9c-7.9,5.9-14.3,10.6-14.3,10.4c0-0.1,6.2-5,14-10.9
		C218.7,385.1,225.1,380.4,225.2,380.5z"/>
	<path class="st6" d="M225.2,361.8c0.1,0.1-6.2,5-14,10.9c-7.9,5.9-14.3,10.6-14.3,10.4c0-0.1,6.2-5,14-10.9
		S225.1,361.6,225.2,361.8z"/>
	<path class="st6" d="M208.7,355.4c-1.8,1.7-3.7,3.3-5.8,4.7c-1.9,1.6-4,3-6.1,4.2c1.8-1.7,3.7-3.3,5.8-4.7
		C204.5,358,206.5,356.6,208.7,355.4z"/>
	<path class="st9" d="M187.2,373.6c0,0,40.4,11,43,9.7c2.6-1.3,24.6-13.4,27.6-11.9c1.7,0.9,3.5-0.5,0,6.9
		c-2.5,5.2-12.5,24.2-18.2,35c-2.4,4.6-7.4,7.2-12.6,6.6l-58.7-7.2L187.2,373.6z"/>
	<path class="st8" d="M119.2,380.6c0.1,0,0.2,1.7,0.8,4.3c0.4,1.6,0.8,3.1,1.4,4.6c0.7,1.8,1.6,3.5,2.6,5.2c1.1,1.6,2.2,3.2,3.6,4.7
		c1.1,1.2,2.2,2.3,3.4,3.3c2.1,1.7,3.6,2.6,3.5,2.7c-0.4-0.1-0.8-0.3-1.1-0.5c-0.4-0.2-0.8-0.5-1.2-0.7c-0.5-0.3-1-0.7-1.5-1.1
		c-1.3-1-2.5-2.1-3.6-3.3c-1.3-1.5-2.5-3-3.6-4.7c-1-1.7-1.9-3.4-2.6-5.3c-0.6-1.5-1-3.1-1.3-4.7c-0.1-0.6-0.2-1.2-0.3-1.8
		c-0.1-0.5-0.1-0.9-0.1-1.4C119.2,381.4,119.1,381,119.2,380.6z"/>
	<path class="st8" d="M135.2,405.8c-0.4,0-0.9-0.1-1.3-0.2c-0.8-0.2-2-0.4-3.5-0.8c-3.8-0.9-7.5-2.5-10.7-4.8
		c-1.8-1.3-3.3-2.9-4.4-4.8c-0.9-1.5-1.5-3.2-1.9-5c-0.2-1.2-0.3-2.4-0.2-3.6c0-0.4,0.1-0.9,0.2-1.3c0,1.6,0.1,3.2,0.4,4.8
		c0.4,1.7,1,3.3,1.9,4.8c1.1,1.8,2.6,3.3,4.3,4.6c3.2,2.2,6.7,3.8,10.4,4.8l3.4,1C134.4,405.4,134.8,405.6,135.2,405.8z"/>
	<path class="st9" d="M84.2,210.1c0,0-28.6,7.8-33.1,25.9s-17.4,71.7-2.5,88.4s58.2,19,58.2,19l28.4-10.8l-52.9-32
		c0,0,5.5-27.6,6.4-33C89.6,262.1,84.2,210.1,84.2,210.1z"/>
	<path class="st7" d="M86.3,209.7c0,0-33.5,5.1-40.6,34.4s-5.1,34.7-4.1,35.6s5.9-4.2,17.4-1.6s21.8,20.6,29.5,15.1
		c7.7-5.6,6.8-51.8,6.8-51.8L86.3,209.7z"/>
	<path class="st6" d="M83.7,295.2c0,0,0.2,0.1,0.6,0.2c0.5,0.2,1.1,0.2,1.6,0c0.8-0.2,1.6-0.7,2.1-1.4c0.7-0.9,1.1-2,1.1-3.2
		c0-1.4-0.1-2.8-0.3-4.3c-0.1-1.5-0.3-3.2-0.4-4.9c-0.2-3.5-0.4-7.3-0.5-11.3c-0.2-6.9,0-13.7,0.6-20.5c0.2-2.6,0.4-4.7,0.6-6.2
		l0.2-1.7c0-0.2,0.1-0.4,0.1-0.6c0,0.2,0,0.4,0,0.6c0,0.5-0.1,1-0.1,1.7c-0.1,1.5-0.3,3.6-0.5,6.2c-0.3,5.2-0.6,12.5-0.4,20.5
		c0.1,4,0.3,7.8,0.5,11.3c0.1,1.7,0.2,3.4,0.3,4.9c0.2,1.4,0.2,2.9,0.2,4.3c0,1.2-0.5,2.4-1.2,3.4c-0.6,0.7-1.4,1.2-2.3,1.4
		c-0.6,0.1-1.2,0.1-1.7-0.1C84,295.4,83.8,295.3,83.7,295.2z"/>
	<path class="st9" d="M111.4,335.1c0,0-9.2,10.8-2.8,21.2c0,0-1.9,24.4,2.8,25.3c4.3,0.8,6.8-8.6,6.8-8.6s-3.2,19.4,4.5,16.3
		c0,0,8.6,1.8,12.1-13.5c0,0,6.8-2.7,8.1-6.8c1.4-4.1,0-12.6,0-12.6l-2.9-8.8l6.1,5.6c1.8-4.5,0.7-9.7-2.7-13.1
		c-5.9-6.3-9.8-8.3-9.8-8.3L111.4,335.1z"/>
	<path class="st8" d="M133.9,331.7c0.2,0.1,0.3,0.1,0.4,0.2c0.3,0.2,0.7,0.4,1.2,0.8c1.5,1,2.9,2.2,4.2,3.4c0.9,0.8,1.8,1.7,2.8,2.7
		c1.1,1.1,2.1,2.3,3,3.6c2,3.3,2.4,7.3,1,10.9l-0.1,0.3l-0.2-0.2l-6.1-5.6l0.4-0.3c0.9,2.8,1.9,5.7,2.9,8.8l0,0
		c0.3,1.8,0.5,3.6,0.6,5.5c0.1,2,0.1,3.9-0.2,5.9c-0.1,1-0.5,2-1.1,2.9c-0.6,0.8-1.3,1.6-2.1,2.3c-1.6,1.3-3.4,2.4-5.4,3.2l0.2-0.2
		l-0.6,2.3c-0.2,0.8-0.5,1.5-0.8,2.3c-0.9,2.5-2.3,4.7-4.1,6.6c-1.8,1.8-4.4,2.8-7,2.6h0.2c-0.9,0.4-1.9,0.5-2.8,0.1
		c-0.8-0.4-1.5-1.2-1.8-2.1c-0.6-1.6-0.9-3.3-0.9-5.1c-0.1-3.2,0.1-6.4,0.6-9.5l0.5,0.1c-0.8,2.6-2.1,5.1-3.8,7.2
		c-0.4,0.5-1,0.9-1.6,1.2c-0.6,0.3-1.3,0.4-2,0.2c-0.6-0.3-1.1-0.8-1.3-1.4c-0.3-0.5-0.5-1.1-0.6-1.7c-0.5-2.1-0.8-4.3-0.9-6.4
		c-0.1-2-0.1-3.8-0.1-5.5c0-3.3,0.2-5.9,0.3-7.7c0.1-0.9,0.1-1.5,0.2-2c0-0.2,0-0.4,0.1-0.5s0-0.2,0-0.2v0.8c0,0.5,0,1.2-0.1,2
		c-0.1,1.8-0.2,4.4-0.1,7.7c0,1.7,0,3.5,0.2,5.5c0.1,2.1,0.4,4.3,0.9,6.3c0.2,0.6,0.4,1.1,0.6,1.6s0.6,0.9,1.1,1.2
		c0.5,0.2,1.1,0.1,1.6-0.2c0.5-0.3,1-0.7,1.4-1.1c1.7-2.1,2.9-4.5,3.6-7.1l0.5,0.1c-0.5,3.1-0.7,6.3-0.6,9.4c0,1.7,0.3,3.3,0.9,4.9
		c0.3,0.8,0.8,1.4,1.5,1.8c0.8,0.3,1.6,0.2,2.3-0.1h0.1h0.1c1.2,0.1,2.4,0,3.5-0.5s2.1-1.1,3-2c1.8-1.8,3.1-4,4-6.4
		c0.3-0.8,0.6-1.5,0.8-2.3l0.6-2.2v-0.1l0.1-0.1c1.9-0.8,3.6-1.8,5.2-3.1c0.8-0.6,1.5-1.3,2-2.1c0.5-0.8,0.9-1.7,1-2.7
		c0.3-1.9,0.4-3.8,0.2-5.7c-0.1-1.9-0.3-3.7-0.5-5.5l0,0c-1-3-2-6-2.9-8.8l-0.3-0.9l0.7,0.7l6.1,5.6l-0.4,0.1
		c1.4-3.5,1-7.4-0.9-10.5c-0.8-1.3-1.8-2.5-2.9-3.5c-1-1-1.9-1.9-2.7-2.7c-1.3-1.2-2.7-2.4-4.1-3.5c-0.5-0.4-0.9-0.6-1.1-0.8
		C134.1,331.9,134,331.8,133.9,331.7z"/>
	<path class="st8" d="M135.2,354.8c0.3,1,0.4,2,0.4,3c0.2,1.9,0.3,4.5,0.3,7.4s-0.2,5.5-0.3,7.4c0,1-0.2,2-0.4,3
		c-0.1-1-0.1-2.1,0-3.1c0.1-1.9,0.2-4.5,0.2-7.4s-0.1-5.5-0.2-7.4C135.1,356.8,135.1,355.8,135.2,354.8z"/>
	<path class="st8" d="M127.6,356.7c0.2,0.4,0.3,0.8,0.3,1.3c0.2,1.2,0.4,2.4,0.6,3.6c0.9,8-0.2,16.1-3.1,23.6
		c-0.4,1.1-0.9,2.2-1.5,3.3c-0.2,0.4-0.4,0.8-0.7,1.2c-0.1,0,0.7-1.8,1.7-4.6c2.7-7.5,3.7-15.5,3.1-23.4
		C127.9,358.6,127.5,356.8,127.6,356.7z"/>
	<path class="st8" d="M119,362.3c0.4,1.9,0.5,3.9,0.3,5.8c-0.1,1.9-0.5,3.9-1.2,5.7c-0.2,0,0.4-2.6,0.6-5.7
		C118.9,364.9,118.8,362.3,119,362.3z"/>
	<path class="st8" d="M111.9,338.8c-0.8,0.5-1.5,1.1-2.2,1.7c-1.6,1.7-2.5,3.8-2.7,6.1c-0.2,2.3,0.2,4.6,1,6.7
		c0.6,1.7,1.1,2.6,1,2.7c-0.6-0.8-1.1-1.6-1.4-2.5c-0.9-2.2-1.3-4.6-1.1-6.9c0.2-2.4,1.3-4.6,3-6.3c0.5-0.5,1.1-0.9,1.8-1.2
		C111.6,338.8,111.9,338.7,111.9,338.8z"/>
	<path class="st8" d="M83.9,301.2c0,0.1-1.3-0.6-3.4-1.2c-1.2-0.4-2.5-0.6-3.8-0.7c-1.6-0.1-3.2-0.1-4.7,0.1
		c-1.6,0.2-3.1,0.6-4.6,1.2c-1.2,0.5-2.4,1.1-3.5,1.7c-1.9,1.2-2.8,2.2-2.9,2.1c-0.1-0.1,0.2-0.3,0.6-0.7c0.3-0.3,0.5-0.5,0.8-0.8
		c0.4-0.3,0.8-0.6,1.2-0.9c1.1-0.8,2.3-1.4,3.5-1.9c3-1.2,6.3-1.7,9.6-1.3c1.3,0.2,2.6,0.4,3.9,0.9c0.5,0.2,1,0.3,1.4,0.6
		c0.4,0.2,0.7,0.3,1,0.5C83.6,300.9,83.9,301.1,83.9,301.2z"/>
	<path class="st9" d="M134.9,224.1l0.1-11.4c14.8-1.9,23.5-14,24.5-31.1c0.5-9.1,0.9-10.2,0.3-29.8c-0.5-12.3-2.9-24.5-6.8-36.1
		c0,0-12-15-34.7-13.3s-34.4,32.1-34.4,32.1s0.2,46.3,1.5,55.6s1.1,12.7,1.1,12.7l0.9,15c-0.4,14.2,10.8,26.1,25,26.7l0,0
		C126.2,245,133.9,235.5,134.9,224.1z"/>
	<path class="st9" d="M85,163.4c-0.4-0.2-15.9-4.8-15.5,11s16.2,12.2,16.2,11.8S85,163.4,85,163.4z"/>
	<path class="st8" d="M80.8,180.3c-0.1,0-0.3,0.2-0.7,0.4c-0.7,0.3-1.4,0.3-2.1,0.1c-1.7-0.6-3.2-3.2-3.3-6.1
		c-0.1-1.4,0.2-2.7,0.7-4c0.3-1,1-1.9,2-2.2c0.7-0.2,1.4,0.1,1.7,0.7c0.2,0.4,0.1,0.8,0.2,0.8s0.3-0.3,0.2-0.9
		c-0.1-0.4-0.3-0.7-0.7-1c-0.4-0.3-1-0.4-1.5-0.4c-1.3,0.3-2.4,1.2-2.8,2.5c-0.6,1.4-0.9,2.9-0.8,4.4c0.2,3.2,1.9,6.1,4.2,6.7
		c0.9,0.2,1.8,0.1,2.5-0.5C80.7,180.7,80.8,180.4,80.8,180.3z"/>
	<path class="st6" d="M147.1,165.4c0,1.9-1.5,3.4-3.4,3.5c-1.8,0.1-3.4-1.2-3.5-3.1v-0.1c0-1.9,1.5-3.4,3.3-3.5
		c1.8-0.2,3.4,1.2,3.6,3C147.1,165.3,147.1,165.3,147.1,165.4z"/>
	<path class="st6" d="M147.2,159.2c-0.4,0.5-3-1.5-6.8-1.5c-3.7,0-6.5,1.8-6.9,1.4c-0.2-0.2,0.2-1,1.4-1.9c1.6-1.1,3.5-1.7,5.5-1.7
		c1.9,0,3.8,0.6,5.4,1.8C147.1,158.2,147.5,159,147.2,159.2z"/>
	<path class="st6" d="M110,165.4c0,1.9-1.5,3.4-3.3,3.5s-3.4-1.2-3.5-3.1v-0.1c0-1.9,1.4-3.4,3.3-3.5
		C108.3,162.1,109.8,163.5,110,165.4C110,165.3,110,165.4,110,165.4z"/>
	<path class="st6" d="M110.7,159.7c-0.4,0.5-3-1.5-6.8-1.5c-3.7,0-6.5,1.8-6.9,1.4c-0.2-0.2,0.2-1,1.4-1.9c1.6-1.1,3.5-1.7,5.5-1.7
		c1.9,0,3.8,0.6,5.4,1.8C110.5,158.6,110.9,159.5,110.7,159.7z"/>
	<path class="st6" d="M107.8,146.4c-0.2,0.8-2.4,0.9-4.9,1.7s-4.4,1.9-5,1.4c-0.3-0.3-0.1-1,0.6-1.8c2-2.1,5-3,7.8-2.3
		C107.3,145.6,107.8,146.1,107.8,146.4z"/>
	<path class="st6" d="M148.1,146.5c-0.3,0.7-1.6,0.8-2.8,0.3c-1.2-0.6-1.9-1.6-1.6-2.3c0.3-0.7,1.6-0.8,2.8-0.3
		S148.4,145.8,148.1,146.5z"/>
	<path class="st6" d="M120.5,186.8c0.1,0.2-0.4,0.6-1.4,0.7c-2.7,0.3-5.2-1.6-5.7-4.3c-0.1-1,0.1-1.6,0.3-1.6c0.5,0,0.8,2.1,2.7,3.5
		C118.2,186.5,120.3,186.3,120.5,186.8z"/>
	<path class="st8" d="M135.1,212.7c0,0-19,0.3-23.5-3c0,0,3.3,9.1,23.5,8.1V212.7z"/>
	<path class="st6" d="M78.9,162.7c-0.5,2.1-0.6,4.3-0.1,6.4c0.7,2,2.7,3.8,4.8,3.4c2.7-0.5,3.7-3.9,4-6.6c0.9-7.7,1.5-15.5,1.8-23.3
		c0-2.2,0.5-5,2.7-5.4c1.2-0.3,2.5,0.4,3.7,0.7c2.5,0.6,5.2-0.2,6.9-2.2c0.3,3,4.3,4.3,7,3.1c2.7-1.3,4.3-4,5.7-6.6
		c-0.2,1.7-0.1,3.3,0.4,4.9c0.5,1.6,2,2.8,3.7,2.8c1.9-0.1,3.2-1.9,4.1-3.6c2.2-4.1,3.7-8.5,4.5-13.1c1.4,7.1,5.5,13.4,11.5,17.5
		l2-6c0.7,1.2,1.7,2.3,2.8,3.2s2.7,1.1,4,0.5c1.2-0.6,1.7-2.1,1.1-3.3c0-0.1-0.1-0.2-0.2-0.3c0.5,2.7,4.1,4,6.5,2.6
		c2.3-1.6,3.2-4.6,2.1-7.2c-0.8,13,0,26,2.5,38.8c3.8-6.6,7.6-13.5,7.9-21.1c0.2-5.5-1.4-10.9-1-16.3c0.2-3.7,1.4-7.4,1.4-11.1
		c-0.1-5.6-2.6-11-6.8-14.7s-9.6-5.8-15.3-5.9c-4.2-0.1-8.4,0.8-12.5,0.2c-3.5-0.5-6.8-2.1-10.2-2.9c-7.2-1.7-14.8-0.3-20.9,3.9
		c0,0-7.3,4.2-16.2,14.7c0,0-16.3,0.5-15.5,23.3c0.7,22.8,2.4,25.5,2.4,25.5L78.9,162.7z"/>
	<path class="st6" d="M87.8,118.6c-0.1,0-0.3-1-1.1-2.5c-2.2-4-6.9-5.9-11.2-4.7c-1.6,0.4-2.5,1-2.6,0.9s0.2-0.2,0.6-0.5
		c0.6-0.4,1.2-0.7,1.9-0.9c4.6-1.5,9.6,0.6,11.7,4.9c0.3,0.6,0.6,1.3,0.7,2C87.9,118.1,87.9,118.3,87.8,118.6z"/>
	<path class="st6" d="M89.8,118.1c-0.3-0.1-0.5-0.3-0.7-0.5c-0.6-0.5-1.1-1.1-1.6-1.7c-3.2-4.2-3.5-9.9-0.8-14.4
		c0.4-0.7,0.9-1.3,1.4-1.8c0.4-0.4,0.6-0.6,0.6-0.6s-0.8,0.9-1.7,2.6c-2.4,4.4-2.1,9.8,0.8,14C89,117.2,89.9,118,89.8,118.1z"/>
	<path class="st6" d="M127.6,167.2c0.2-0.1,0.7,0.8,1.2,2.1c0.3,0.7,0.5,1.5,0.8,2.4l0.4,1.5c0.2,0.6,0.3,1.2,0.4,1.8
		c0.1,0.8-0.2,1.5-0.7,2.1c-0.5,0.5-1.1,0.8-1.8,0.9c-0.6,0.1-1.2,0-1.7-0.1c-0.4-0.2-0.8-0.4-1.2-0.7c-1.3-1-1.7-1.9-1.5-2
		c0.1-0.2,1,0.4,2.2,1c0.6,0.3,1.3,0.4,2,0.3c0.3-0.1,0.6-0.2,0.9-0.5c0.2-0.3,0.3-0.6,0.3-0.9c0-0.5-0.1-0.9-0.3-1.4
		c-0.1-0.5-0.2-1-0.3-1.5c-0.2-0.9-0.4-1.8-0.5-2.5C127.4,168.2,127.4,167.3,127.6,167.2z"/>
	<path class="st11" d="M79.3,142.6c-0.1-0.4-0.2-0.7-0.2-1.1c-0.1-0.7-0.2-1.8-0.3-3.1c-0.3-3.4-0.2-6.8,0.5-10.2
		c0.7-3.4,2.5-6.5,5-8.9c0.8-0.7,1.6-1.3,2.6-1.8c0.3-0.2,0.7-0.3,1.1-0.4c-1.2,0.7-2.3,1.5-3.3,2.5c-2.4,2.4-4,5.4-4.7,8.7
		c-0.7,3.3-0.9,6.7-0.7,10C79.4,139.8,79.4,141.2,79.3,142.6z"/>
	<path class="st11" d="M93.1,136.7c-0.7-0.7-1.4-1.4-1.9-2.3c-2.6-4-3.8-8.9-3.3-13.6c0.1-1,0.3-2,0.6-2.9c0.1,0-0.1,1.1-0.2,2.9
		c-0.1,2.3,0.1,4.6,0.7,6.9s1.4,4.4,2.6,6.5C92.5,135.8,93.2,136.6,93.1,136.7z"/>
	<path class="st11" d="M127.4,122.7c0-0.2-0.1-0.4-0.1-0.5c0-0.4,0-0.9-0.1-1.6c0-1.9-0.2-3.8-0.4-5.7c-0.4-2.8-1.4-5.4-3.1-7.7
		c-1-1.3-2.3-2.4-3.7-3.1c-1.6-0.8-3.3-1.3-5.1-1.4c-3.4-0.3-6.9,0.4-10,1.8c-1.4,0.6-2.7,1.4-3.9,2.3c-1,0.8-2,1.7-2.9,2.6
		c-1.3,1.4-2.4,2.9-3.3,4.6c-0.7,1.2-0.9,1.9-1,1.9c0-0.2,0.1-0.4,0.2-0.5c0.2-0.5,0.4-1,0.6-1.4c0.8-1.7,1.9-3.4,3.2-4.8
		c0.9-1,1.9-1.9,2.9-2.7c1.2-0.9,2.5-1.7,3.9-2.4c3.2-1.5,6.7-2.2,10.3-1.9c1.8,0.2,3.6,0.7,5.3,1.5c1.5,0.8,2.9,1.9,3.9,3.3
		c1.7,2.4,2.7,5.1,3.1,8c0.2,1.9,0.3,3.8,0.3,5.8c0,0.7,0,1.2-0.1,1.6C127.4,122.3,127.4,122.5,127.4,122.7z"/>
	<path class="st11" d="M145.6,126.2c-0.1-0.2-0.1-0.4-0.2-0.5c-0.1-0.4-0.2-0.9-0.4-1.6c-0.3-1.4-0.7-3.4-1.4-5.8
		c-0.8-2.8-1.9-5.6-3.3-8.1c-1.8-3.1-4.5-5.6-7.7-7.2c-3.3-1.5-6.8-2.2-10.4-2.1c-2.9,0.1-5.9,0.4-8.7,1.1c-2.4,0.5-4.4,1.1-5.8,1.5
		l-1.6,0.4c-0.2,0.1-0.4,0.1-0.6,0.1c0.2-0.1,0.3-0.2,0.5-0.2l1.5-0.5c1.3-0.4,3.3-1,5.8-1.6c2.9-0.7,5.8-1.1,8.8-1.2
		c3.7-0.1,7.3,0.6,10.7,2.2c3.3,1.6,6.1,4.2,7.9,7.4c1.5,2.6,2.6,5.4,3.3,8.3c0.7,2.4,1,4.4,1.3,5.8c0.1,0.7,0.2,1.2,0.3,1.6
		C145.6,125.8,145.6,126,145.6,126.2z"/>
	<path class="st11" d="M154.5,129.1c-0.1,0,0.1-1.8,0.4-4.6c0.4-3.6,0-7.3-1.2-10.8c-0.7-1.9-1.8-3.5-3.3-4.9
		c-1.2-1.1-2.7-1.8-4.3-2.2c-1.5-0.3-3-0.3-4.5,0.1c0,0,0.1-0.1,0.3-0.2c0.3-0.1,0.6-0.2,0.9-0.3c1.1-0.3,2.3-0.3,3.4-0.1
		c1.7,0.3,3.2,1.1,4.6,2.2c1.6,1.4,2.8,3.1,3.5,5c1.2,3.5,1.6,7.3,1,11c-0.2,1.4-0.3,2.5-0.5,3.3
		C154.8,128.3,154.7,128.7,154.5,129.1z"/>
	<path class="st8" d="M103.5,176.6c-0.2,0-0.2-0.4-0.1-0.8s0.3-0.7,0.4-0.7c0.2,0,0.2,0.4,0.1,0.8
		C103.8,176.3,103.6,176.6,103.5,176.6z"/>
	<path class="st8" d="M110.1,175.2c-0.1,0-0.3-0.1-0.4-0.4c-0.1-0.3,0-0.5,0.1-0.6c0.1,0,0.3,0.1,0.4,0.4
		C110.3,174.9,110.2,175.2,110.1,175.2z"/>
	<path class="st8" d="M106.7,179.2c-0.2,0-0.3-0.3-0.4-0.7s0-0.8,0.2-0.8s0.3,0.3,0.4,0.7S106.9,179.2,106.7,179.2z"/>
	<path class="st8" d="M98.4,178.5c-0.2,0-0.2-0.4,0-0.9c0.2-0.4,0.4-0.7,0.5-0.7c0.2,0.1,0.2,0.4,0,0.8
		C98.7,178.2,98.5,178.5,98.4,178.5z"/>
	<path class="st8" d="M142.5,175.1c-0.2,0-0.3-0.3-0.4-0.7s0-0.7,0.2-0.7s0.3,0.3,0.4,0.7S142.7,175.1,142.5,175.1z"/>
	<path class="st8" d="M148.7,174.9c-0.2,0-0.3-0.3-0.3-0.8s0.1-0.8,0.3-0.8s0.3,0.4,0.3,0.8S148.9,174.9,148.7,174.9z"/>
	<path class="st8" d="M153.9,174.6c-0.2,0-0.4-0.3-0.4-0.7c-0.1-0.4,0-0.8,0.1-0.8s0.4,0.3,0.4,0.7S154.1,174.6,153.9,174.6z"/>
	<path class="st8" d="M145.8,180.2c-0.1,0-0.2-0.4,0-0.9c0.2-0.4,0.4-0.7,0.5-0.7s0.2,0.4,0,0.8
		C146.1,179.9,145.9,180.2,145.8,180.2z"/>
	<path class="st8" d="M151.6,179.4c-0.2,0-0.3-0.2-0.4-0.6s0-0.6,0.2-0.7c0.2,0,0.3,0.2,0.4,0.6S151.8,179.4,151.6,179.4z"/>
	<path class="st6" d="M135.5,223c0.1,0.3,0.1,0.6,0.1,0.9c0.1,0.9,0.1,1.7,0.1,2.6c-0.1,3.2-0.9,6.3-2.2,9.1c-2,4.3-5.4,7.8-9.6,9.9
		c-2.5,1.2-5.3,1.9-8,1.9c-3,0-5.9-0.6-8.7-1.7c-5.4-2.1-10.2-5.3-14.1-9.5c-3.2-3.4-5.5-7.6-6.6-12.1c-0.8-3.1-0.9-6.3-0.3-9.4
		c0.2-0.8,0.4-1.7,0.6-2.5c0.2-0.6,0.3-0.8,0.3-0.8c0,0.3-0.1,0.6-0.2,0.9c-1,3.8-1,7.9,0,11.7c1.2,4.5,3.4,8.6,6.6,11.9
		c3.9,4.1,8.6,7.3,13.9,9.3c2.7,1.1,5.6,1.6,8.5,1.7c2.7,0,5.4-0.6,7.8-1.8c4.2-2,7.5-5.4,9.5-9.6c1.3-2.8,2.1-5.9,2.3-9
		c0.1-1.1,0.1-2,0.1-2.5C135.4,223.6,135.4,223.3,135.5,223z"/>
	<g class="st12">
		<polyline class="st4" points="132,298.8 124.9,295.1 112.6,301.6 114.9,287.8 104.9,278.1 118.7,276.1 124.9,263.6 131.1,276.1 
			144.9,278.1 134.9,287.8 136,294.6 		"/>
	</g>
	<g class="st12">
		<polygon class="st4" points="128.6,300.9 134.6,303 134,297.2 		"/>
	</g>
	<path class="st6" d="M140.8,287.7c-0.1,0.5-0.3,1-0.6,1.5c-0.6,1.3-1.4,2.6-2.2,3.7c-5.7,8-15.4,12.1-25.1,10.8
		c-1.4-0.2-2.8-0.5-4.2-1c-0.5-0.1-1-0.3-1.5-0.6c1.9,0.5,3.8,0.9,5.7,1.2c9.5,1.1,19-2.9,24.7-10.6
		C138.9,291,139.9,289.4,140.8,287.7z"/>
	<g class="st13">
		<path d="M162.2,304c-0.1,2.9,5-2.9,5.5-5.7c0.5-2.8-0.5-5.7-1.3-8.4l-8.6-27.2C157.8,262.6,162.4,298.4,162.2,304z"/>
	</g>
</g>
<g id="freepik--Plant--inject-9">
	<path class="st7" d="M461.5,350.8c3.2,1.5,5.7,4.3,6.8,7.7c1.1,3.4,1.4,6.9,0.9,10.4c-0.8,6.8-4.6,13.6-8.8,19
		c-5.7-5-7-13.7-7.4-18.1C452.4,362.8,455.5,349.7,461.5,350.8"/>
	<path class="st7" d="M467,399.2c-0.8-3.9,0.6-8,3.6-10.7c3.1-2.6,7-3.8,11-3.4c1.8,0.1,3.8,0.7,4.8,2.2c0.9,1.5,0.9,3.3,0.1,4.9
		c-0.9,1.5-2.1,2.7-3.6,3.5C478,398.8,472.7,400.9,467,399.2"/>
	<path class="st6" d="M459.7,419.9c0-0.5,0.1-0.9,0.2-1.4c0.2-1,0.4-2.2,0.7-3.8c0.6-4.2,2-8.3,3.9-12c2-3.8,5-6.9,8.6-9.2
		c1.1-0.7,2.3-1.2,3.5-1.6c0.3-0.1,0.7-0.2,1-0.3c0.2,0,0.4-0.1,0.4,0c-5.7,1.8-10.4,5.9-13.1,11.3c-1.9,3.7-3.2,7.7-4,11.9
		c-0.3,1.6-0.6,2.9-0.8,3.7C460,419.1,459.9,419.5,459.7,419.9z"/>
	<path class="st6" d="M459.9,360.9c0.1,0.2,0.1,0.4,0.1,0.6c0,0.5,0,1,0.1,1.7c0.1,1.5,0.2,3.7,0.3,6.4c0.2,5.4,0.3,12.9,0.3,21.2
		c0,8.3-0.2,15.8-0.5,21.2c-0.1,2.7-0.2,4.9-0.3,6.4c0,0.7-0.1,1.3-0.1,1.7c0,0.2,0,0.4-0.1,0.6c0-0.2,0-0.4,0-0.6c0-0.5,0-1,0-1.8
		c0-1.6,0.1-3.8,0.2-6.4c0.1-5.4,0.3-12.9,0.3-21.2c0-8.3,0-15.8-0.1-21.2c0-2.7-0.1-4.9-0.1-6.4c0-0.7,0-1.3,0-1.8
		C459.9,361.4,459.9,361.2,459.9,360.9z"/>
	<path class="st7" d="M457.2,403.3c-1.4-8.3-6.7-15.5-14.3-19.2c-1.9-0.9-4.4-1.5-6-0.1s-1.2,4-0.5,5.9c3.4,8.4,11.6,13.9,20.6,13.9
		"/>
	<path class="st6" d="M443.8,390.5c0.4,0.1,0.8,0.3,1.2,0.5c0.4,0.2,0.8,0.4,1.4,0.7c0.5,0.3,1.1,0.6,1.7,1.1c0.7,0.5,1.4,1,2,1.5
		c0.7,0.6,1.5,1.2,2.1,1.9c1.5,1.6,2.9,3.3,4,5.2c1.1,1.9,2,3.9,2.7,6c0.3,0.9,0.5,1.8,0.7,2.8c0.2,0.8,0.3,1.6,0.3,2.5
		c0.1,0.7,0.1,1.4,0.1,2.1c0,0.5,0,1,0,1.6c0,0.4-0.1,0.9-0.2,1.3c-0.1,0,0.1-1.9-0.2-4.9c-0.1-0.8-0.2-1.6-0.4-2.4
		c-0.2-0.9-0.4-1.8-0.7-2.7c-0.7-2.1-1.6-4-2.6-5.9c-1.1-1.8-2.4-3.6-3.9-5.1c-0.6-0.7-1.3-1.3-2.1-1.9c-0.7-0.6-1.3-1.1-1.9-1.5
		C445.4,391.4,443.7,390.6,443.8,390.5z"/>
</g>
<g id="freepik--Blocks--inject-9">
	<rect x="313.8" y="291.4" class="st7" width="65.1" height="64.6"/>
	<g class="st10">
		<rect x="313.8" y="291.4" width="65.1" height="64.6"/>
	</g>
	<rect x="342.2" y="291.4" class="st7" width="65.1" height="64.6"/>
	<path class="st4" d="M388.2,330.8c0,4.8-3.8,7.5-11,7.5h-14.3v-27.6h13.5c6.9,0,10.4,2.9,10.4,7.2c0.1,2.6-1.4,4.9-3.7,6.1
		C386.2,324.8,388.3,327.6,388.2,330.8z M369.2,315.6v6.5h6.3c3.1,0,4.8-1.1,4.8-3.3s-1.7-3.2-4.8-3.2H369.2z M381.7,330.1
		c0-2.3-1.8-3.4-5.1-3.4h-7.4v6.8h7.4C380,333.5,381.7,332.5,381.7,330.1L381.7,330.1z"/>
	<path class="st6" d="M342,334.9c0.1,0.1-6.1,5-13.9,10.8S314,356.2,313.9,356c-0.1-0.1,6.1-5,13.9-10.8
		C335.5,339.4,341.9,334.8,342,334.9z"/>
	<path class="st6" d="M342,316.3c0.1,0.1-6.1,5-13.9,10.8s-14.1,10.5-14.2,10.3c-0.1-0.1,6.1-5,13.9-10.8
		C335.5,320.8,341.9,316.2,342,316.3z"/>
	<path class="st6" d="M342,297.7c0.1,0.1-6.1,5-13.9,10.8S314,319,313.9,318.8c-0.1-0.1,6.1-5,13.9-10.8
		C335.5,302.2,341.9,297.6,342,297.7z"/>
	<path class="st6" d="M325.6,291.4c-1.8,1.7-3.7,3.2-5.7,4.6c-1.9,1.6-3.9,2.9-6,4.2c1.8-1.7,3.7-3.2,5.7-4.6
		C321.4,294,323.4,292.6,325.6,291.4z"/>
	<rect x="300.2" y="356" class="st6" width="65.1" height="64.6"/>
	<rect x="328.7" y="356" class="st11" width="65.1" height="64.6"/>
	<path class="st4" d="M349.2,375.4h12.6c9,0,15.2,5.4,15.2,13.8s-6.2,13.8-15.2,13.8h-12.6V375.4z M361.4,397.7
		c5.5,0,9.1-3.3,9.1-8.6s-3.6-8.5-9.1-8.5h-5.8v17.1H361.4z"/>
	<path class="st11" d="M328.4,399.6c0.1,0.1-6.1,5-13.9,10.8s-14.1,10.5-14.2,10.3s6.1-5,13.9-10.8
		C321.9,404,328.3,399.4,328.4,399.6z"/>
	<path class="st11" d="M328.4,380.9c0.1,0.1-6.1,5-13.9,10.8s-14.1,10.5-14.2,10.3s6.1-5,13.9-10.8
		C321.9,385.4,328.3,380.8,328.4,380.9z"/>
	<path class="st11" d="M328.4,362.3c0.1,0.1-6.1,5-13.9,10.8s-14.1,10.5-14.2,10.3s6.1-5,13.9-10.8
		C321.9,366.8,328.3,362.2,328.4,362.3z"/>
	<path class="st11" d="M312,356c-3.7,3.2-7.6,6.2-11.7,8.8C303.9,361.6,307.8,358.7,312,356z"/>
</g>
</svg>
