<?xml version="1.0" encoding="utf-8"?>
<!-- Generator: Adobe Illustrator 25.2.1, SVG Export Plug-In . SVG Version: 6.00 Build 0)  -->
<svg version="1.1" id="Capa_1" xmlns="http://www.w3.org/2000/svg" xmlns:xlink="http://www.w3.org/1999/xlink" x="0px" y="0px"
	 viewBox="0 0 500 500" style="enable-background:new 0 0 500 500;" xml:space="preserve">
<style type="text/css">
	.st0{fill:#E0E0E0;}
	.st1{fill:#FFFFFF;}
	.st2{fill:#F0F0F0;}
	.st3{fill:#FAFAFA;}
	.st4{fill:#FFBDA7;}
	.st5{fill:#455A64;}
	.st6{fill:#37474F;}
	.st7{fill:#FAA930;}
	.st8{opacity:0.2;enable-background:new    ;}
	.st9{fill:#F0997A;}
	.st10{fill:#263238;}
	.st11{fill:#B16668;}
	.st12{fill:#C8856A;}
	.st13{fill:#EBEBEB;}
	.st14{opacity:0.4;enable-background:new    ;}
	.st15{opacity:0.3;enable-background:new    ;}
	.st16{opacity:0.3;}
	.st17{fill:#AF6152;}
	.st18{opacity:0.55;fill:#FFFFFF;enable-background:new    ;}
	.st19{opacity:0.35;fill:#FAA930;enable-background:new    ;}
	.st20{opacity:0.35;fill:#FFFFFF;enable-background:new    ;}
	.st21{fill:#FFA8A7;}
	.st22{fill:#F28F8F;}
	.st23{opacity:0.5;enable-background:new    ;}
	.st24{opacity:0.15;enable-background:new    ;}
	.st25{fill:#F5F5F5;}
	.st26{opacity:0.1;enable-background:new    ;}
	.st27{opacity:0.4;fill:#FFFFFF;enable-background:new    ;}
	.st28{opacity:0.6;fill:#FFFFFF;enable-background:new    ;}
	.st29{opacity:0.7;fill:#FFFFFF;enable-background:new    ;}
	.st30{opacity:0.2;fill:#FFFFFF;enable-background:new    ;}
	.st31{opacity:0.25;enable-background:new    ;}
	.st32{opacity:0.1;fill:#FFFFFF;enable-background:new    ;}
</style>
<g id="freepik--Plants--inject-26">
	<g id="freepik--plants--inject-26">
		<path class="st0" d="M479.7,221.9c-2.2,3.8-5.4,9-8.4,14.6c-4.5,8.4-8.6,17.8-8,24.8v0.7l0,0l-0.5,10.6l-0.1,1.5l-2.5-1.5
			l-6.2-3.6c-2.3-11.5-2.3-23.3-0.1-34.8c2.4-13.9,12.2-29.2,20.4-30.1C481.8,203.5,485,212.5,479.7,221.9z"/>
		<path class="st1" d="M457.3,268.7c0.2-0.1,0.3-0.3,0.3-0.5c-3.2-25.8,7.4-49.6,18.2-58.2c0.2-0.2,0.2-0.5,0.1-0.7c0,0,0,0,0,0
			c-0.2-0.2-0.5-0.3-0.7-0.1c0,0,0,0,0,0c-11,8.7-21.8,32.9-18.5,59.1c0,0.3,0.3,0.5,0.5,0.4c0,0,0,0,0,0L457.3,268.7z"/>
		<path class="st2" d="M489.1,238.2c-0.9,5-9.9,10.9-15.9,19c-5.4,7.3-7.8,14.7-7.6,18.7l0,0l-3-1.7l-2.5-1.5
			c-1.4-18.3,5.4-29,11.2-36.1c1.8-2,3.9-3.7,6.4-4.8C485.6,228.6,490.1,232.2,489.1,238.2z"/>
		<path class="st1" d="M462.8,272.6c0.2-0.1,0.3-0.3,0.3-0.5c0.3-20.9,12.3-32.4,18.6-35.5c0.2-0.1,0.4-0.4,0.2-0.6
			c-0.1-0.2-0.4-0.4-0.6-0.2c0,0,0,0,0,0c-7,3.4-18.9,15-19.2,36.3c0,0.3,0.2,0.5,0.5,0.5C462.6,272.7,462.7,272.7,462.8,272.6z"/>
	</g>
	<g id="freepik--plants--inject-26_1_">
		<path class="st0" d="M51.2,267.5l-9,4.6c0.8-25.6-14.9-45.1-22.4-55.4c-7.6-10.5,3.9-16,13.2-11.1s16.4,16.6,18.8,31.5
			C54,249.8,51.9,263.7,51.2,267.5z"/>
		<path class="st1" d="M47.6,266.5h0.1c0.3,0,0.6-0.2,0.6-0.5c0.7-32.2-9.3-48.9-21.3-57.7c-0.2-0.2-0.6-0.1-0.8,0.1c0,0,0,0,0,0
			c-0.2,0.2-0.1,0.6,0.1,0.8c11.8,8.7,21.5,25,20.8,56.7C47.1,266.3,47.3,266.5,47.6,266.5z"/>
		<path class="st2" d="M5.8,236.1c0.1,1.8,1.5,3.2,2.8,4.4s2.8,2.5,3,4.3c0.6,3.6-3.8,6.6-3,10.2c0.4,1.5,1.4,2.7,2.8,3.4
			c1.1,0.6,2.2,1.2,3.4,1.6c0.6,0.2,1.1,0.4,1.7,0.5c1.8,0.3,3.4,1.1,4.6,2.4c1.8,2.2,1.4,5.4,2,8.2c0.7,3.4,2.5,5.4,7,7.2l15.9-8
			c4-3.7,5.7-10.4,2.4-15.1c-2-2.8-6-3.4-7.8-6.2c-1.7-2.5-0.5-6-1.4-8.9s-3.8-4-6.6-4.6s-5.7,0.4-8.4-0.7s-5.1-2.8-7.9-3.7
			c-2.7-0.9-5.7-0.6-8.1,1C6.8,232.9,5.9,234.4,5.8,236.1z"/>
		<path class="st1" d="M34,251.4c0-0.1-0.1-0.1-0.1-0.2c-6.8-10.6-17.9-16.1-21.7-17.1c-0.2-0.1-0.4,0-0.5,0.2
			c-0.1,0.2,0,0.4,0.2,0.5c0,0,0.1,0,0.1,0c3.6,1,14,6,20.6,15.8c-5.8-2.3-12.2-2-17.8,0.7c-0.2,0.1-0.3,0.4-0.2,0.5c0,0,0,0,0,0
			c0.1,0.1,0.2,0.2,0.3,0.2c0.1,0,0.2,0,0.2,0c5.7-2.7,12.4-2.8,18.1-0.2c3.9,6.3,5.7,13.6,5,21c0,0.2,0.1,0.4,0.3,0.4l0,0
			c0.2,0,0.4-0.1,0.4-0.4C39.8,265.4,38,257.8,34,251.4z"/>
	</g>
</g>
<g id="freepik--Floor--inject-26">
	<ellipse id="freepik--floor--inject-26" class="st3" cx="250" cy="339.1" rx="244.1" ry="141"/>
</g>
<g id="freepik--Shadows--inject-26">
	<path id="freepik--Shadow--inject-26" class="st0" d="M86.9,382.6c-34-19.6-34-51.5,0-71.1s89.1-19.6,123.1,0s34,51.5,0,71.1
		S120.9,402.2,86.9,382.6z"/>
	<path id="freepik--shadow--inject-26" class="st0" d="M177.2,337.1c-33.5-19.3-33.5-50.7,0-70s87.8-19.3,121.2,0s33.5,50.7,0,70
		S210.6,356.5,177.2,337.1z"/>
	<path id="freepik--shadow--inject-26_1_" class="st0" d="M329.7,356c-34.8-20.1-34.7-52.6,0-72.7s91.1-20.1,125.8,0
		s34.7,52.6,0,72.6S364.5,376,329.7,356z"/>
</g>
<g id="freepik--character-3--inject-26">
	<g id="freepik--Character--inject-26">
		<g id="freepik--Bottom--inject-26">
			<path class="st4" d="M388.6,326.7c0,0,29.6-11.2,33.3-14.2c3-2.5,1.2-8.7,5.5-9.7c4.9-1.2,8.4,1.5,11.5,4.5
				c3,2.8,6.8,4.1,14.1,1.5s14.4-6.3,17.3-4.8s1,3.8-11.8,9.9c-7.3,3.5-16.7,7.6-22.7,10c-4.3,1.7-8.4,3.9-12.1,6.7
				c-6,4.5-12.1,8.7-18.5,12.5c-18.5,11.4-29.4,14.4-44,11.5L388.6,326.7z"/>
			<path class="st5" d="M416.3,316.1c5.9,3.4,8.7,7.1,9.1,13.7c0,0-4,3.1-10.3,7.4c-7.5,5.2-25.8,17.1-38,18.3
				c-18.9,1.9-25.4-2.9-25.4-2.9L416.3,316.1z"/>
			<path class="st6" d="M421.8,319.8c-9.7,16.8-33.3,27.2-40.7,28c2.6-2.2,6.5-9.7,10.1-17.9l25.1-14.4
				C418.4,316.6,420.2,318.1,421.8,319.8z"/>
			<path class="st6" d="M477.2,302.5c0.3-1.2,0-2.5-0.7-3.5c-2.3-2.6-5.1-4.6-8.2-6c-2.8-1.3-5.8-1.9-8.8-1.7
				c-5.8,0.4-10.8,4.8-16.6,5.2c-4.3,0.3-8.2-2-12.5-3.1c-1.3-0.3-2.7-0.4-4.1-0.4c-1.1,0.1-3,0.9-3.4,1.9c-0.6,1.2-0.7,2.6-0.3,3.8
				c0.3,0.8,1.9,2.3,3,3.2c1.6,1.2,3.5,1.5,5.9,2.2C437.6,305.9,464.1,306.5,477.2,302.5z"/>
			<path class="st7" d="M421.8,310.8c0,0.5-0.1,1.1-0.1,1.6c-0.1,0.7,0.3,1,0.9,1.4c2.4,1.7,5.5,1.5,8.3,1.1c2.2-0.4,4.4-1,6.5-0.6
				c2.6,0.5,4.6,2.5,6.5,4.3c0.4,0.4,0.7,0.9,1,1.4c0,0,14.9-6.6,21.7-10.3c3.5-1.9,7.4-3.6,10.1-6.6c0.1-0.2-0.7-1.2-0.7-1.3
				c-0.9-1-2.1-1.7-3.4-2c-2.1-0.6-4.4-0.7-6.6-0.5c-3.4,0.5-6.6,1.4-9.9,2.1c-3,0.6-6,1-9,1.3c-3.3,0.3-6.6,0.4-9.9,0.2
				c-3.1-0.1-6.2-0.8-9-2c-1.1-0.5-2.2-1.2-3.1-2c-0.5-0.6-1-1.2-1.4-1.9c-0.5-0.7-0.7-1.8-1.2-0.9c-1.1,2.3-1.4,5.9-1.2,8.5
				c0.1,1.8,0.3,3.6,0.4,5.4C421.8,310.4,421.8,310.6,421.8,310.8z"/>
			<path class="st8" d="M421.8,310.8c0,0.5-0.1,1.1-0.1,1.6c-0.1,0.7,0.3,1,0.9,1.4c2.4,1.7,5.5,1.5,8.3,1.1c2.2-0.4,4.4-1,6.5-0.6
				c2.6,0.5,4.6,2.5,6.5,4.3c0.4,0.4,0.7,0.9,1,1.4c0,0,14.9-6.6,21.7-10.3c3.5-1.9,7.4-3.6,10.1-6.6c0.1-0.2-0.7-1.2-0.7-1.3
				c-0.9-1-2.1-1.7-3.4-2c-2.1-0.6-4.4-0.7-6.6-0.5c-3.4,0.5-6.6,1.4-9.9,2.1c-3,0.6-6,1-9,1.3c-3.3,0.3-6.6,0.4-9.9,0.2
				c-3.1-0.1-6.2-0.8-9-2c-1.1-0.5-2.2-1.2-3.1-2c-0.5-0.6-1-1.2-1.4-1.9c-0.5-0.7-0.7-1.8-1.2-0.9c-1.1,2.3-1.4,5.9-1.2,8.5
				c0.1,1.8,0.3,3.6,0.4,5.4C421.8,310.4,421.8,310.6,421.8,310.8z"/>
			<path class="st3" d="M460.7,300.4c2.8,3.9,2.8,10.9,2.8,10.9s4.8-2.1,9.5-4.8c4.5-2.6,4.3-4.1,4.3-4.1c-0.2-0.8-0.7-1.5-1.3-2
				c-1.7-1.4-3.9-2.1-6.1-1.9C466.7,298.8,463.6,299.4,460.7,300.4z"/>
			<path class="st3" d="M460.9,309c0.3,1.1,0.4,2.3,0.3,3.5c-0.4,0.3-0.9,0.6-1.5,0.7c0-1.2-0.1-2.4-0.4-3.6
				C459,308.6,460.5,308,460.9,309z"/>
			<path class="st3" d="M456.3,311.2c0.4,1.1,0.5,2.3,0.3,3.5c-0.4,0.3-1,0.6-1.5,0.7c0.1-1.2-0.1-2.4-0.4-3.5
				C454.5,310.8,456,310.2,456.3,311.2z"/>
			<path class="st3" d="M451.8,313.3c0.3,1.1,0.4,2.3,0.3,3.4c-0.4,0.4-0.9,0.6-1.5,0.8c0-1.2-0.1-2.4-0.4-3.6
				C449.9,312.9,451.5,312.4,451.8,313.3z"/>
			<path class="st0" d="M422.6,296.3c0-0.5,0.2-1,0.5-1.4c0,0,1.5,3.2,6.8,5c5.1,1.7,12.3,2.6,22.8,0.1s16.5-4.8,21.2-2.9
				s3.4,5.4,3.4,5.4s-2.2-4.3-8.9-3.5c-6.4,0.8-15.8,4.3-24.5,4.6C434.7,303.9,425.5,302.7,422.6,296.3z"/>
			<path class="st5" d="M316.9,313.9c2.9-10.4,11.5-18,24.4-28.8c11-9.2,31.2-24.1,31.2-24.1l0,0l57.7-11.5c2.4,10.5,10,18,10,32.6
				c0,10.6-1.7,25.7-20.3,39.5c-11.3,8.4-20.3,15-28.4,20.1c-8.5,5.4-27.9,16.1-38.6,11.3c-8.2-3.8-9.6-10.9-9.3-16.9l0,0
				c-1.3,0.1-2.6,0.2-3.8,0.2c-1.4,0-2.7,0-3.7,0c-3.8-0.1-7.6-1-11.1-2.8C318,330.1,314.5,322.3,316.9,313.9z"/>
			<path class="st6" d="M339.8,336.4c1.2,0,2.5-0.1,3.8-0.2c1.9-11.6,45.8-45.4,45.8-45.4c-3.1-1.5-10.1-5.3-12.5-9.5
				c1,5.4,4.1,8.2,7.1,10.4c-4.6,4.1-24.1,20.6-29.3,25.5C349.2,322.4,342.4,329.1,339.8,336.4z"/>
		</g>
		<g id="freepik--Top--inject-26">
			<path class="st4" d="M383.3,184.9c-6.3,0.6-14.5,2.5-20.2,14.2c-7.4,15-17.4,35.4-18.7,52.8c-0.7,9,14.7-2.3,14.7-2.3l13.2-21.7
				L383.3,184.9z"/>
			<path class="st9" d="M355.8,230.9c2.5-2.6,4.6-5.4,6.4-8.5c-3.4-8.1,2.6-17.1,9.6-23l5.1,10.5l-4.6,18L359,249.7
				c0,0-14,10.4-14.6,3.3c0-0.3,0-0.7,0-1c0.1-1.5,0.3-3.1,0.5-4.6C346.3,239.5,352.7,234,355.8,230.9z"/>
			<g id="freepik--Chest--inject-26">
				<path class="st7" d="M369.9,231.1c0.2,3.2,0.8,18.4,0.8,18.4c-0.9,5.6-2.5,11.2-4.8,16.4c14.5,14.2,53.5,24.7,73.7,9.4
					c-3.2-13.4-7.4-25-7.2-29.9l3.6-25.3c0,0-6.6-11.9-5.4-31.2c0,0-16.5-5.6-28.3-5.6c-6.4-0.1-12.9,0.5-19.2,1.6
					c-3.2,2.9-7.8,9.1-13.3,17C363.5,211.5,360.6,223.1,369.9,231.1z"/>
			</g>
			<path class="st4" d="M387.2,199.2c-1.6,1.3-3.3,2.5-5.1,3.4c-1.5,0.7-2.9,1.5-4.1,2.5c-2.8,2.3-5,5.2-6.4,8.5
				c-3.2,7.6-7.6,12.1-12,16.5s-12,8.9-14.3,17.4c-1.6,5.7-1.2,11.7,2.2,14.4c1.4,1.2,9-0.8,14.2-5.5c6.7-6.1,14.3-22.3,16.5-26.1
				c1.8-3.1,5.1-4.8,7.1-7.7c2-2.9,3.2-6.3,3.5-9.8c0.1-1.9,0-3.9,0.2-5.8c0.2-2.2,0.8-4.5,0.6-6.7c0-0.4-0.1-0.8-0.4-1.2
				c-0.2-0.3-0.6-0.5-1-0.5c-0.2,0.1-0.4,0.2-0.6,0.3L387.2,199.2z"/>
			<path class="st9" d="M374.2,217.2c0.3-2.5,1.1-5,2.2-7.2c0.5-1.1,1.5-1.4,2.3-2.2c0.6-0.6,0.9-1.5,1.5-2.2c0.8-0.6,1.7-1,2.7-1.2
				c0.9-0.3,1.7-0.9,2.3-1.7c0.6-0.6,1.4-1.3,2.2-1.1c0.6,0.2,1,0.6,1.1,1.2c0.1,0.6,0.2,1.1,0.1,1.7c-0.2,3.3-0.3,6.6-0.2,9.9
				c0,0.3,0,0.6,0.1,0.8c-0.5,2.6-1.6,5.1-3.1,7.3c-2,2.9-5.3,4.6-7.1,7.7c-0.3,0.6-0.8,1.4-1.2,2.4c-0.9-2.5-1.6-5.1-2.2-7.8
				C374.2,222.4,374,219.8,374.2,217.2z"/>
			<path class="st4" d="M430.8,189c7.6,2.2,15.4,7,13.2,22.1c-2,14.2-15.2,48.2-17.4,52.8c-3.5,7.4-8.1,12.1-12.8,13.2
				c-2.8,0.5-5.7-0.1-8-1.8c-9.8-6.8-18.9-27-22.7-35.3c-2.5-4.9-4.3-10.2-5.5-15.5c-0.6-2.4-0.8-4.9-0.6-7.3c0.3-2.4,1-4.7,2.1-6.9
				c0.5-1.1,1.4-1.3,2.2-2.1c0.6-0.6,0.8-1.5,1.4-2.1c0.7-0.6,1.6-1,2.5-1.1c0.9-0.3,1.6-0.9,2.2-1.6c0.6-0.6,1.3-1.3,2.1-1.1
				c0.5,0.2,0.9,0.6,1.1,1.1c0.1,0.5,0.2,1.1,0.1,1.6c-0.2,3.1-0.3,6.3-0.2,9.4c0,2,0.5,4,1.3,5.8c0.2,0.3,0.4,0.7,0.8,0.8
				c0.3,0,0.6,0,0.8-0.2c0.2-0.2,0.4-0.4,0.5-0.6c0.6-1,1.1-2.2,1.6-3.2c0.7-1.3,1.7-2.4,2.9-3.2c0.5-0.3,1-0.4,1.5-0.4
				c0.5,0,1.1,0.3,1.3,0.8c0.2,0.7,0,1.5-0.4,2.1c-1.5,3.3-1.8,6-2.5,9.5c-0.3,1.6-1.4,3.7-1.8,5.2c-0.6,2,1.5,5.6,2.7,7.6
				c2.5,4.2,5.6,8,9.2,11.2l7.3-27.9c0,0,1-13.6,6.3-24.4C425.5,190.2,430.8,189,430.8,189z"/>
			<path class="st9" d="M408.5,249.6c4.7,2.1,8.7,6.5,9.5,9c0,0,0.5-7.9-8.7-12.1L408.5,249.6z"/>
			<g id="freepik--Head--inject-26">
				<path class="st6" d="M375.2,176.9c2.6-8.5,4.2-21.6,4.2-21.6l-1.7-0.5c-7.5-4-7.1-13.8-5.3-18.9c4.1-11.4,16.4-15.6,24-16.1
					c14.5-0.8,21.5,3,23,10.4c2-0.2,4.6,1.4,6.3,3.6c3.5,4.8,5,27.5,2,42.4c-2.2,1.7-4.8,2.8-7.5,3.4
					C413.6,181,390.1,185.8,375.2,176.9z"/>
				<path class="st4" d="M418.2,167.7c2.6,0.4,4.6-1,6.1-2.8c3.4-4,3.5-7.9,1.8-10.5c-1.4-2.1-4.8-3.3-7-1.8
					c-2.4,1.6-2.5,2.9-3.3,4.7s-4.5,1.8-5.6-5.3c-1.1-6.6-2.3-12.6-5.6-15.4c-5-4.3-10.3-3.3-12.1-0.6c-2.1-3-5.1-4.1-8.4-2.2
					s-5.5,6.9-6.2,19.5c-0.7,12.8,2.6,20.7,5.6,22.7c2.3,1.6,4.8,2.2,9.6,2.2l-0.2,6.8c0,0-10.6,10.7,0.1,11.3
					c8.8,0.7,17.1-3.9,21.4-11.6l0.7-18.8C415.7,166.9,416.9,167.6,418.2,167.7z"/>
				<path class="st10" d="M381,147.9l4.5-2.3c-0.5-1.2-2-1.8-3.2-1.2c0,0-0.1,0-0.1,0.1C380.9,145.1,380.4,146.6,381,147.9z"/>
				<path class="st10" d="M396.4,145.9l4.5,2.9c0.8-1.2,0.6-2.8-0.6-3.6c0,0-0.1-0.1-0.1-0.1C399,144.3,397.3,144.6,396.4,145.9z"/>
				<path class="st6" d="M402.3,137.7c0.9,1.6,1.3,4.3,1.5,7c0.2,2.1,0.4,7.1,1.9,10.1c1,2.5,3.3,4.2,5.9,4.6c1.7,0.3,3.4,0.1,5-0.5
					c1-0.4,3.8-2.4,3.4-5.3c-0.6,0.6-1.2,1.1-2,1.4c-0.6,0.2-1.2,0.4-1.8,0.4c-1.9,0-3.7-1-4.7-2.6c-1.9-2.8-1.7-6.5-2.3-9.7
					c-0.7-4-1.4-8.6-5-10.6c-4.3-2.4-10.9-1-11.8,3.4c2.8-2.4,7-2,9.4,0.8C402,137.2,402.1,137.4,402.3,137.7z"/>
				<path class="st11" d="M399.4,164.1l-7,2.2c0.6,1.9,2.7,3,4.6,2.3c0.1,0,0.2-0.1,0.3-0.1C399.2,167.9,399.9,166.1,399.4,164.1z"
					/>
				<path class="st9" d="M395.3,168.8c0.2-2,1.9-3.4,3.9-3.4c0.1,0,0.2,0,0.4,0c0,1.4-0.9,2.7-2.2,3.2
					C396.7,168.8,396,168.9,395.3,168.8z"/>
				<polygon class="st9" points="392.5,149.2 391.5,161.8 384.6,159.5 				"/>
				<path class="st9" d="M393,178.2c4.6-0.3,9.2-1.3,13.5-3c1.6-0.7,3.7-3.6,5.4-6.8c0,0-1.2,6.3-4.5,8.5
					c-5.1,3.3-14.4,4.1-14.4,4.1L393,178.2z"/>
				<path class="st10" d="M381.4,151.2c-0.4,1,0.3,1.4,1.3,1.8s1.9,0.6,2.2-0.4c0.4-1,0-2.1-1-2.5c-1-0.4-2.1,0-2.5,1
					C381.5,151.1,381.5,151.1,381.4,151.2z"/>
				<path class="st10" d="M384.8,150.4c-0.4-0.3-0.9-0.5-1.4-0.6c-0.5-0.1-1-0.2-1.5-0.1c-0.5,0-1,0.2-1.5,0.4c0,0-0.1,0.1,0,0.1
					c0.4-0.1,0.9-0.1,1.4-0.1c0.6,0,1.1,0.1,1.6,0.2c0.6,0.2,1.3,0.4,1.8,0.8c0.2,0.1,0.6,0.3,0.6,0.4s0.1-0.1,0.1-0.1
					C385.7,151,385.3,150.7,384.8,150.4z"/>
				<path class="st10" d="M400,152.5c0.2,1.1-0.6,1.3-1.6,1.5s-1.9,0.3-2.1-0.8c-0.2-1,0.4-2.1,1.5-2.3c0,0,0,0,0,0
					C398.8,150.8,399.8,151.5,400,152.5z"/>
				<path class="st10" d="M396.8,151.2c0.5-0.2,1-0.3,1.5-0.3c0.5,0,1,0,1.5,0.1c0.5,0.1,1,0.4,1.4,0.6c0,0,0,0.1,0,0.1
					c-0.4-0.1-0.9-0.2-1.3-0.3c-0.6-0.1-1.1-0.1-1.7,0c-0.7,0-1.3,0.2-2,0.4l-0.6,0.2c-0.1,0-0.1-0.1,0-0.2
					C395.9,151.6,396.3,151.3,396.8,151.2z"/>
			</g>
		</g>
	</g>
</g>
<g id="freepik--character-2--inject-26">
	<g id="freepik--character--inject-26">
		<g id="freepik--bottom--inject-26">
			<path class="st12" d="M265.8,319.9l9.7-17.5l17.9,11.3L270,339.5c0,0-11.1-1.4-12.7-7.3S262.7,321.7,265.8,319.9z"/>
			<path class="st10" d="M252.7,326.5c-1,0.7-1.9,1.6-2.6,2.7c-0.8,1.1-0.7,6.4-1.5,8.8s-1.4,3.1-2.6,6.1c-1.4,3.4-3.9,6.4-1.5,15.2
				s6.6,13.2,10.2,15.5c1.3,0.8,2.9,1.2,4.4,1.3c0,0,4.9-1.6,4.2-4.5S252.7,326.5,252.7,326.5z"/>
			<path class="st5" d="M273.5,336.8c-0.2,0.9-1.5,2.2-2,3c-1.8,2.4-2.7,5.7-3.4,8.6c-3.3,13.8,1.9,21-5.7,26
				c-2.2,1.3-6.7,0.8-13.2-8.2c-3.3-4.6-5-13.8-3.5-18s3.5-6.8,4.4-9.9s0.7-9.1,2.6-11.8c1.2-1.5,2.7-2.7,4.5-3.6
				c1.4-0.8,4.3-1.7,5.7-2.4s2.1-1.6,3-0.5l-1.6,1.9c-2.5,3.3-1.9,3.8-1.9,5.6c-0.2,1.9-0.5,3.8-1.1,5.7c1.8-2.1,2.6-4,4.5-3.6
				s2.1,0.3,4.7,3S273.6,336,273.5,336.8z"/>
			<path class="st6" d="M249.1,366.2c-3.3-4.6-5-13.8-3.5-18c0.5-1.4,1.1-2.7,1.7-4c-0.1,0.3-0.2,0.6-0.2,0.8
				c-0.1,0.5-0.2,1.1-0.3,1.6c-0.4,2.1-0.2,4.3,0.5,6.3c0.7,1.8,2.4,6.1,4.7,6.3c1.3,0.1,2.5-1.1,3-2.6c0.2-0.6,0.6-2.3,0.6-2.3
				c2.1,0.6,4.2,1.5,6,2.7c3.3,2.4,3.2,2.9,3.2,2.9c-0.2,1-0.3,2-0.2,3c0.2,1.1,0.5,2.1,1.1,3c0.3,0.3,0.5,0.5,0.8,0.7
				c-0.2,3.2-1.2,5.7-4.4,7.8C260.1,375.7,255.6,375.1,249.1,366.2z"/>
			<path class="st6" d="M268,348.4c-0.9,3.6-1.3,7.3-1.3,11.1c-1.4,3.5-2.5,3.4-2.6,1.5s2.6-9.4,4.7-15.6
				C268.5,346.4,268.3,347.5,268,348.4z"/>
			<path class="st6" d="M260.4,325.9c-0.1-1.8,0.5-3.6,1.5-5c0.3-0.1,0.7-0.3,0.9-0.4c1.5-0.8,2.1-1.6,3-0.5l-1.6,1.9
				c-2.5,3.3-1.9,3.8-1.9,5.6c-0.2,1.9-0.5,3.8-1.1,5.7c-1.6,6-3,7.9-3.9,13.6s0.1,9.5-0.7,9.8s-2.4-0.4-2.6-5s2.2-12.2,3.7-15.7
				S260.6,328.4,260.4,325.9z"/>
			<path class="st13" d="M255.4,354.8c0.1,0.1,0.2,0.1,0.3,0.2c4,1,6.1,2,8.9,5.6c0.2,0.2,0.6,0.3,0.8,0.1c0.2-0.2,0.3-0.6,0.1-0.8
				c-3-3.8-5.3-5-9.5-6c-0.3-0.1-0.6,0.1-0.7,0.4C255.2,354.5,255.2,354.7,255.4,354.8L255.4,354.8z"/>
			<path class="st13" d="M256.2,350.1c0.1,0.1,0.2,0.1,0.3,0.2c3.8,0.8,7.1,3,9.4,6.1c0.2,0.3,0.5,0.3,0.8,0.1c0,0,0,0,0,0
				c0.2-0.2,0.3-0.6,0.1-0.8c-2.4-3.4-6-5.7-10-6.5c-0.3-0.1-0.6,0.1-0.7,0.4c0,0,0,0,0,0C256.1,349.7,256.1,349.9,256.2,350.1z"/>
			<path class="st13" d="M256.3,344.9c0.1,0.1,0.2,0.2,0.3,0.2c4.5,1.2,7.1,2.7,10.5,6.9c0.2,0.3,0.6,0.3,0.9,0.1c0,0,0,0,0,0
				c0.3-0.2,0.3-0.6,0.1-0.9c-3.5-4.4-6.4-6.1-11.1-7.4c-0.3-0.1-0.7,0.1-0.8,0.4C256.1,344.4,256.2,344.7,256.3,344.9L256.3,344.9z
				"/>
			<path class="st13" d="M257.3,340.4c0.1,0.1,0.2,0.2,0.3,0.2c4.4,1.2,7,2.6,10.2,6.8c0.2,0.3,0.6,0.3,0.9,0.1
				c0.3-0.2,0.3-0.6,0.1-0.9c-3.4-4.3-6.2-5.9-10.9-7.2c-0.3-0.1-0.7,0.1-0.8,0.4C257.1,340,257.1,340.3,257.3,340.4z"/>
			<path class="st13" d="M259,336.1c0.1,0.1,0.2,0.2,0.3,0.2c4.4,1.2,7,2.6,10.2,6.8c0.2,0.3,0.6,0.3,0.9,0.1
				c0.3-0.2,0.3-0.6,0.1-0.9c-3.4-4.3-6.2-5.9-10.9-7.2c-0.3-0.1-0.7,0.1-0.8,0.4c0,0,0,0,0,0C258.9,335.7,258.9,336,259,336.1z"/>
			<polygon class="st12" points="270.7,321.5 282.2,331.6 288.7,336 280.6,350.2 259.4,339.1 			"/>
			<path class="st7" d="M248.9,256.1c0,0,43.3-5.6,61.7-4.8c18.8,0.8,20,15,15,23.4c-9.6,16.2-42.1,50.2-42.1,50.2
				s-10.3-5.2-13.2-14.4l7.7-16.1l-22.7,6.4l-11.2-8.1l-0.7-5.9L248.9,256.1z"/>
			<path class="st14" d="M248.9,256.1c0,0,43.3-5.6,61.7-4.8c18.8,0.8,20,15,15,23.4c-9.6,16.2-42.1,50.2-42.1,50.2
				s-10.3-5.2-13.2-14.4l7.7-16.1l-22.7,6.4l-11.2-8.1l-0.7-5.9L248.9,256.1z"/>
			<path class="st7" d="M248.9,256.1l-74.9,9.8c0,0-1.4,17.8,5.1,34c4.6,11.6,14.9,20,27.1,22.3c7.4,1.3,14.9,2.2,22.5,2.6
				c3.5,2.9,7.4,5.4,11.5,7.3c5.8,2.6,31.4,14.4,31.4,14.4s7.5-5.9,7.2-18.8l-23.6-26.9c-5.3-7-7.2-9.2-10.2-10.8
				C250.1,281,249.1,266.2,248.9,256.1z"/>
			<path class="st15" d="M248.9,256.1l-74.9,9.8c0,0-1.4,17.8,5.1,34c4.6,11.6,14.9,20,27.1,22.3c7.4,1.3,14.9,2.2,22.5,2.6
				c3.5,2.9,7.4,5.4,11.5,7.3c5.8,2.6,31.4,14.4,31.4,14.4s7.5-5.9,7.2-18.8l-23.6-26.9c-5.3-7-7.2-9.2-10.2-10.8
				C250.1,281,249.1,266.2,248.9,256.1z"/>
			<g class="st16">
				<path d="M282.2,280.6c-3.6,5-7,10.1-10,15.4l5.8-1.6c7-15.2,8.5-19.6,19.1-26.5C297,267.9,289.5,270.5,282.2,280.6z"/>
				<path d="M223.4,316c0,0-0.2,3.8,5.2,8.8c3.5,2.9,7.4,5.4,11.5,7.3c5.8,2.6,31.4,14.4,31.4,14.4s1.4-0.6,3.6-4.3
					c-6.6-1.8-28.4-11.2-35.4-14.5C227.2,321.8,223.4,316,223.4,316z"/>
				<path d="M251.7,296.3c2.4,3,3.6,4.5,3.6,4.5l3.6-1.1c0,0-6.1-7.2-10.1-11c-0.7-0.7-1.5-1.4-2.3-1.9c2.3-5.4,2.5-14.3,2.5-14.3
					c-0.9,4.7-2.9,9.1-5.9,12.9c-3.4-0.9-6.9-1.1-10.3-0.5c-7.2,1-28.2,3.8-28.2,3.8s20.1-1.1,30.5-1.1S249.3,293.3,251.7,296.3z"/>
			</g>
			<path class="st10" d="M315.5,344.5c5,2.2,8,4.3,10.3,7.4s2.8,6.3,0.5,9.9s-6.6,7.8-11.4,7.4s-7.8-1.8-12.2-4.4L315.5,344.5z"/>
			<path class="st5" d="M274.9,347.4c-0.1,1.5,6.2,4.8,12.7,8.2c7,3.6,8.7,5.9,14.4,9c6.5,3.5,9,3.8,14.2,2.5s11.8-8.4,7.6-15.3
				c-3.4-5.7-8-7.3-15.1-9.5c-5.6-1.6-11.1-3.6-16.4-6c-5-2.2-9.1-5.9-10.2-4.7c0.7,0.4,6,3.9,4.9,4.8c-0.3,0.5-1,0.3-2.3-0.3
				c-0.6-0.3-1.2-0.4-1.8-0.2c-0.6,0.4-1.1,0.9-1.4,1.5c-0.7,1.3-1.2,2.6-1.8,4c-0.4,0.9-0.2,0.4-0.6,1.3s-1.3,2.6-1.2,3.6
				c0,0.6,0.5,0.8,0.9,1.1s1.1,0.7,1.5,1c0.2,0.1,0.5,0.6,0.4,0.8s-1.1,0.2-1.5,0s-1-0.4-1.5-0.5S276.1,347.9,274.9,347.4z"/>
			<path class="st6" d="M299.8,363.3c0.9,0.5,6.9,3.5,8.8,1.9c2.1-1.8-2.6-4.8-2.6-4.8s-0.6-4.6,5.1-11.1c0.9,0.8,4.9,0.9,4.9-1.5
				s-6.5-5.4-6.6-5.5c6.7,2.1,11.1,3.8,14.5,9.3c4.2,6.9-2.4,14.1-7.6,15.3s-7.7,1-14.2-2.5C301.4,364.1,300.3,363.7,299.8,363.3z"
				/>
			<path class="st6" d="M306.6,360c2.5,0.9,0.7,3.1-3,2.3c-5.5-1.3-10-4.6-16-6.8c-6.5-3.4-13.2-6.6-12.7-8.2
				c1.2,0.5,3.7,1.6,3.7,1.6c0.5,0.2,1.8,0.8,1.8,0.8c5,2.4,10.4,6,15.8,7.7C300.9,358.8,304.1,359.1,306.6,360z"/>
			<path class="st6" d="M310.7,350.2c-2.2-1.4-2.6-2.6-7-4.8s-11.9-6.9-16.5-9.9c-1.7-1.2-3.4-2.6-5-4c0.8-0.9,3.7,0.1,6.5,2
				s4.5,3.1,7.3,4.7c5.4,3.5,11.6,6,14.7,8.1S313,351.6,310.7,350.2z"/>
			<path class="st2" d="M311.1,349.6c0,0.1-0.1,0.1-0.1,0.2c-2.6,3.1-4.3,6.9-4.7,11c0,0.3-0.3,0.6-0.6,0.6c-0.3,0-0.5-0.3-0.5-0.6
				c0,0,0,0,0-0.1c1-7.6,4.9-11.6,5.1-11.8c0.2-0.2,0.5-0.3,0.7-0.1c0,0,0,0,0.1,0.1C311.2,349.1,311.2,349.4,311.1,349.6z"/>
			<path class="st2" d="M306.7,346.2c0,0.1-0.1,0.1-0.1,0.2c-3,3.8-5,8.2-5.8,13c0,0.3-0.3,0.6-0.7,0.6c-0.3,0-0.5-0.3-0.5-0.6
				c0,0,0,0,0,0c0.8-5,2.9-9.8,6.2-13.7c0.2-0.2,0.6-0.2,0.8,0c0,0,0,0,0,0C306.8,345.7,306.8,346,306.7,346.2z"/>
			<path class="st2" d="M296.4,358.7c-0.1,0.2-0.3,0.4-0.5,0.4c-0.3,0-0.5-0.3-0.5-0.6c0,0,0,0,0-0.1c0.6-8,6-15.4,6.3-15.7
				c0.2-0.2,0.5-0.2,0.8,0c0,0,0,0,0,0c0.2,0.3,0.2,0.7-0.1,0.9c-0.1,0.1-5.3,7.3-5.9,14.8C296.5,358.5,296.5,358.6,296.4,358.7z"/>
			<path class="st2" d="M292.4,355.9c-0.1,0.2-0.3,0.4-0.5,0.4c-0.3,0-0.6-0.2-0.6-0.5c0,0,0,0,0-0.1c0.4-5.6,2.7-10.8,6.5-14.9
				c0.2-0.2,0.5-0.2,0.7,0c0,0,0,0,0.1,0.1c0.2,0.3,0.1,0.7-0.1,0.9c-3.5,3.8-5.7,8.7-6.1,13.9C292.5,355.7,292.5,355.8,292.4,355.9
				z"/>
			<path class="st13" d="M287.1,353.5c-0.1,0.2-0.3,0.4-0.5,0.4c-0.3,0-0.5-0.2-0.6-0.5c0,0,0-0.1,0-0.1c0.3-8.4,6.5-14.7,6.7-14.9
				c0.2-0.2,0.5-0.3,0.7-0.1c0,0,0,0,0.1,0.1c0.2,0.3,0.1,0.7-0.1,0.9c-0.1,0.1-6,6.1-6.3,13.9C287.2,353.3,287.2,353.4,287.1,353.5
				z"/>
		</g>
		<g id="freepik--top--inject-26">
			<g id="freepik--Arm--inject-26">
				<path class="st12" d="M252.1,192.8c3.4,5.4,16.2,24.4,16.2,24.4c4.1-4.4,9-9.9,13.1-14.6c5.5-6.2,7.6-7.5,10.7-17.3
					c0.8-2.5,2.8-5.2,3.8-6.7c1.4-2.2,2.4-4.7,2.9-7.3c0.2-1.3,3.4-0.8,3.9,3.4c0.3,2.1-0.4,4.2-0.5,6.3c0,0.6-0.4,2,0.4,1.9
					c4.9-0.5,8.7-5.9,14.6-9.7c2.2-1.3,7.6-2.6,8.6,0.5c0.1,0.8-0.5,1.2-0.7,1.9c0,0.1,0,0.2,0,0.3c0,0.3,0,0.6,0.1,0.9
					c0.1,0.6,0.4,1.2,0.5,1.8c0.2,0.9,0,1.9-0.4,2.8c-0.4,0.6-0.7,1.2-1,1.9c0.1,1.3-0.1,2.6-0.6,3.8c-0.6,1-1.2,2-2,2.9
					c-0.4,0.6-0.7,1.3-1,2c-0.7,1.2-1.5,2.2-2.5,3.1c-3.2,3.3-6.9,6.2-10.9,8.5c-1.8,1-3.8,1.8-5.5,2.9c-1.3,0.8-2.5,1.9-3.5,3.1
					c-1.2,1.5-2.3,3.2-3.2,4.9l0,0.1c-8.3,13.3-9.2,18.2-17.8,28.7c-7.2,8.4-12,4.5-22.1-5.9c-12.5-12.8-19.2-20.2-19.2-20.2
					l-1.6-41.3C241.8,178.5,248.7,187.3,252.1,192.8z"/>
				<path class="st17" d="M301.9,186.2c0.6,4.4-0.9,8.7-4,11.8C302.3,197,304.4,191.3,301.9,186.2z"/>
				<path class="st7" d="M230.4,174.2c7.1,1.5,12.6,4.5,21.1,16.7s16.8,25.5,16.8,25.5l7.5-7.7c-2.4,1.2-2.3,11.4,1.2,16.1
					c2.2,2.9,5.4,4.9,9,5.7c-2.2,4-4.7,7.8-7.4,11.4c-3.9,4.9-6.3,6.1-9.4,6s-6.6-2.1-14.5-10.2s-20.6-21.1-20.6-21.1L230.4,174.2z"
					/>
				<path class="st18" d="M230.4,174.2c7.1,1.5,12.6,4.5,21.1,16.7s16.8,25.5,16.8,25.5l7.5-7.7c-2.4,1.2-2.3,11.4,1.2,16.1
					c2.2,2.9,5.4,4.9,9,5.7c-2.2,4-4.7,7.8-7.4,11.4c-3.9,4.9-6.3,6.1-9.4,6s-6.6-2.1-14.5-10.2s-20.6-21.1-20.6-21.1L230.4,174.2z"
					/>
				<path class="st19" d="M268.3,216.5c-4,4.1-6.9,11.4-6.8,15.2c-1.5-4.5,0.4-12,5.5-17.3L268.3,216.5z"/>
				<path class="st19" d="M282.7,235.9c-0.9-0.2-1.8-0.5-2.6-0.9c-1.7-0.8-3.3-1.9-4.6-3.2c-2.5-2.6-4.1-5.9-4.4-9.5
					c0-0.2-0.2-0.1-0.2,0c0.1,3.9,1.6,7.6,4.4,10.4c1.4,1.4,3,2.5,4.8,3.3c0.7,0.3,1.5,0.6,2.2,0.8c0.2-0.3,0.3-0.5,0.5-0.8
					L282.7,235.9z"/>
			</g>
			<g id="freepik--chest--inject-26">
				<path class="st10" d="M241.5,200.7c-0.3-20-4.6-25.7-14.7-27.2l-16.7-2.4c-5,0.8-22.3,5.7-28.1,7.5c-3.8,1.1-5.6,9-6.9,21.3
					c-1,10-1.4,18.4-1.6,32.2c-0.1,11.6-0.3,24.8,2.6,41.1c13.7,5.7,53.9,2.2,70.5-15.6c-1.1-4.2-6-11.8-6.5-20.2
					C241.4,220.1,241.6,207,241.5,200.7z"/>
				<path class="st7" d="M181.7,178.3l12.6-4c0,0,2.1,5.3,6.6,15.6s4.5,14.8,4.3,32.4s1.9,48.6,3.8,55.9
					c-7.8,0.8-14.9,11.8-34.7,7.6c0,0-3.5-20.5-2.9-55.2C171.7,212.6,172.7,183.1,181.7,178.3z"/>
				<path class="st20" d="M181.7,178.3l12.6-4c0,0,2.1,5.3,6.6,15.6s4.5,14.8,4.3,32.4s1.9,48.6,3.8,55.9
					c-7.8,0.8-14.9,11.8-34.7,7.6c0,0-3.5-20.5-2.9-55.2C171.7,212.6,172.7,183.1,181.7,178.3z"/>
				<path class="st7" d="M205.1,206.6c-1.4-15.9-8-16.9-9.7-11.8c-5.4-8.8-5.4-16.2-5.2-19.1c1.7-2.7,3-4.9,3.5-5.9
					c0.7-1.3,1.5-1,1.5-1l-0.1,4c0,0,0.8,4.6,5.3,10.6C203.7,187.8,204.7,193.2,205.1,206.6z"/>
				<path class="st18" d="M205.1,206.6c-1.4-15.9-8-16.9-9.7-11.8c-5.4-8.8-5.4-16.2-5.2-19.1c1.7-2.7,3-4.9,3.5-5.9
					c0.7-1.3,1.5-1,1.5-1l-0.1,4c0,0,0.8,4.6,5.3,10.6C203.7,187.8,204.7,193.2,205.1,206.6z"/>
				<path class="st7" d="M217.6,173.7c7,3,12,11.1,13.2,22.1s1.7,39,2.6,47.2s5.6,22.9,5.6,22.9s8.9-3.3,11.5-10.1
					c-3.8-5.4-7.3-12.8-7.8-19.7s1-28.8,0.2-37.2s-1.2-20-11-24.3c-4.2-1.8-14.3-2.8-14.3-2.8L217.6,173.7z"/>
				<path class="st20" d="M217.6,173.7c7,3,12,11.1,13.2,22.1s1.7,39,2.6,47.2s5.6,22.9,5.6,22.9s8.9-3.3,11.5-10.1
					c-3.8-5.4-7.3-12.8-7.8-19.7s1-28.8,0.2-37.2s-1.2-20-11-24.3c-4.2-1.8-14.3-2.8-14.3-2.8L217.6,173.7z"/>
				<path class="st7" d="M231.4,202.1c-0.7-8.1-4.8-22.6-13.4-25.9c-0.3-0.8-0.4-1.7-0.4-2.6l0.2-5.9c2.2,1,4.2,2.2,6.1,3.6
					c3.7,2.6,11,12.7,12.5,19C232.9,187,231.2,192.1,231.4,202.1z"/>
				<path class="st18" d="M231.4,202.1c-0.7-8.1-4.8-22.6-13.4-25.9c-0.3-0.8-0.4-1.7-0.4-2.6l0.2-5.9c2.2,1,4.2,2.2,6.1,3.6
					c3.7,2.6,11,12.7,12.5,19C232.9,187,231.2,192.1,231.4,202.1z"/>
				<g id="freepik--head--inject-26">
					<path class="st10" d="M217.3,163.9c0.8-5.7,6.1-11.7,8.5-16.7c2.3-4.8,3.6-8.5,3.1-13c-0.2-2.6-2-6.1-4-6.8
						c1.9-9.9-5.6-14.2-9.5-15c-1.8-0.3-3.7-0.7-5.4-1.2c-2.2-0.8-2.7-2.5-4.5-3.9c-3-2.4-8-2.3-9.8,1.6c-2.1-2.5-4.7-2.3-7.8-1.4
						c-2.7,0.7-4.3,3.4-3.8,6.1c-4.2-2.2-7.9,0.9-8.1,3.3c-0.2,1.8,0.2,3.3-0.9,4.9c-1.2,1.8-3.7,1.9-4.5,0.5
						c-0.3,2.6,0.7,4.4,3.5,4.2c-0.9,1.5-1.1,3.2-0.6,4.9c0.7,2.1,2.7,3.4,4.9,3.4c0.2,2.9,2,5.4,4.7,6.6c4.2,1.8,8.9,2.3,13.4,3.1
						l5.4,0.9c0.3,0.1,1.9,0.1,2.1,0.4L217.3,163.9z"/>
					<path class="st12" d="M223.9,156.4c-3.9,2.5-6.3,0.3-6.3,0.3l0.5,19.6c1.7,3.2,3.9,7.6,0.8,13.5c-3.9-0.1-21.1-5.8-23.8-16.8
						l-0.1-2.8c-2.2,0.1-4.5,0.1-6.7-0.1c-4.4-0.4-7.9-3.9-9.3-8.6c-1.6-6.2-2-12.6-1.2-18.9c0.2-1.5,0.3-3.1,0.1-4.6
						c-0.6-4.1,0.1-6.5,1-10c4.7-4.1,15.9-5.8,26.6,0.2c-1,6.3,1.6,11.1,6.2,13.4c-0.1,1.7-0.2,5.9,2.6,5.8c2-0.1,2-2.6,4-4.9
						s6.7-3,8.7,0.1C229.6,146.9,228.1,153.6,223.9,156.4z"/>
					<path class="st17" d="M194.9,170.2c7-1.1,12.3-2,15.7-7.2c1.6-2.7,2.9-5.5,3.9-8.4c0,0-0.5,6.2-2.6,10.5
						c-1.6,3.3-6,6.2-16.9,7.5L194.9,170.2z"/>
					<path class="st10" d="M197.4,142.9c0.1,1.1,1,1.9,2.1,1.8c1.1-0.1,1.9-1,1.8-2.1c-0.1-1.1-1-1.9-2.1-1.8
						C198.1,140.8,197.3,141.8,197.4,142.9C197.4,142.9,197.4,142.9,197.4,142.9z"/>
					<path class="st10" d="M197.7,136.4l4.5,1.6c0.4-1.3-0.2-2.7-1.5-3.2C199.5,134.5,198.2,135.1,197.7,136.4
						C197.7,136.4,197.7,136.4,197.7,136.4z"/>
					<path class="st10" d="M180.8,138.4l4.5-1.9c-0.4-1.2-1.8-1.8-3-1.4c0,0-0.1,0-0.1,0C180.9,135.7,180.3,137.1,180.8,138.4z"/>
					<path class="st10" d="M182.1,142.9c0.2,1.1,1.2,1.8,2.3,1.7c1.1-0.2,1.8-1.2,1.7-2.3c-0.2-1.1-1.2-1.8-2.3-1.7
						C182.6,140.8,181.9,141.8,182.1,142.9C182,142.9,182,142.9,182.1,142.9z"/>
					<path class="st17" d="M185.1,150.1l7,2.8l1.6-13.5C191.1,138.5,188.1,144.8,185.1,150.1z"/>
					<path class="st17" d="M198.6,155.4l-8.2,2.1c0.5,2.2,2.7,3.7,4.9,3.2c0,0,0.1,0,0.1,0C197.7,160.1,199.1,157.7,198.6,155.4z"/>
					<path class="st21" d="M197.7,156.8c0.3,0,0.7,0,1,0c-0.1,1.8-1.4,3.4-3.2,3.9c-0.4,0.1-0.9,0.1-1.4,0.1
						C194,158.7,195.6,156.9,197.7,156.8z"/>
				</g>
			</g>
			<g id="freepik--arm--inject-26_1_">
				<g id="freepik--Laptop--inject-26">
					<g id="freepik--arm--inject-26">
						<path class="st12" d="M251.8,296c-2.7-3.7-6.7-8.9-10.4-10.8c-0.8-0.5-1.7-0.9-2.6-1.3c1.4,0,2.8,0,4.2-0.2
							c1.4-0.2,2.7-0.8,3.8-1.7c0.4-0.4,0.8-1,0.4-1.5c-0.1-0.1-0.3-0.3-0.5-0.3c-2.9-0.5-5.2-1.4-7.8-2c-1.2-0.4-2.4-0.5-3.6-0.5
							c-1.1,0.1-2.3,0.3-3.4,0.5c-5.1,0.9-9.7-0.2-16-4.4S187.5,251,187.5,251l0.7,29.3l18.1,10.4l0,0l0.2,0.1
							c1.4,0.8,2.6,2.2,6.1,3.9c4.1,2,10,1.3,13.8,1.7s9.9,3.1,13.2,5.1s8.3-2.8,10-1.9S254.5,299.7,251.8,296z"/>
						<path class="st17" d="M237.4,281.6c-1.8-0.4-3.7-0.4-5.5,0c2.3,0.5,4.6,1.3,6.8,2.3c1.4,0,2.8,0,4.2-0.2
							c1.2-0.2,2.4-0.7,3.4-1.4C243.9,283.4,239.9,282.2,237.4,281.6z"/>
					</g>
				</g>
				<path class="st12" d="M204.7,265.4c-10.1-8.6-21.1-17.6-21.1-17.6l4.5-33.3c0,0,2.8-15.7-0.4-24.7c-3.4-9.4-7-10.8-7-10.8
					c-3.7,1.2-7.1,3-10.2,5.3c-4.1,3.4-6.3,11.4-7.7,22.9c-1.2,10.1-3.7,35.3-4.2,41.2c-0.6,7.5,0,14.3,7.3,19.1
					c9.2,6,29.9,17.1,29.9,17.1L204.7,265.4z"/>
				<path class="st7" d="M181.7,178.3c-8.2,2.3-12.4,3.7-16.2,13.1s-4.3,26.9-5.8,40.9s-3.1,23.8-1,28.4c1.1,2.5,3.1,5,10.4,9.5
					c10.5,6.4,17.4,9.8,17.4,9.8s1.8-13.5,10.9-21.5L184,247.8c0,0,4.2-30.1,5.1-37.9S191.6,185.5,181.7,178.3z"/>
				<path class="st18" d="M181.7,178.3c-8.2,2.3-12.4,3.7-16.2,13.1s-4.3,26.9-5.8,40.9s-3.1,23.8-1,28.4c1.1,2.5,3.1,5,10.4,9.5
					c10.5,6.4,17.4,9.8,17.4,9.8s1.8-13.5,10.9-21.5L184,247.8c0,0,4.2-30.1,5.1-37.9S191.6,185.5,181.7,178.3z"/>
				<path class="st19" d="M184,247.8c-4.7-2.4-14.2-0.7-16.3,0.9c2.6-4.1,9-5.3,16.7-4.1L184,247.8z"/>
				<path class="st19" d="M184.7,258.6c-1.5,1-2.8,2.4-3.6,4c-0.9,1.5-1.6,3.1-2.1,4.8c-0.6,1.9-0.9,3.9-1,5.9c0,0.6-0.1,1.3-0.1,2
					l0.9,0.5c-0.1-2.7,0.2-5.4,1-8c0.5-1.6,1.2-3.2,2-4.7c0.9-1.4,1.9-2.8,3-4.2C184.8,258.8,184.8,258.6,184.7,258.6z"/>
			</g>
		</g>
	</g>
</g>
<g id="freepik--character-1--inject-26">
	<g id="freepik--character--inject-26_1_">
		<g id="freepik--bottom--inject-26_1_">
			<path class="st21" d="M171.9,363l8.1-19.5l23.1,9.1c-10.6,12.1-21.9,26.8-24.2,31.9c0,0-12.2-1.8-14.6-7.7S168.9,365.3,171.9,363
				z"/>
			<path class="st10" d="M159,371.4c-1,0.9-1.8,1.9-2.4,3.1c-0.7,1.2,0,6.7-0.6,9.4s-1.1,3.4-2.1,6.7c-1.1,3.7-3.4,7.1,0.1,16.1
				s8.4,13,12.5,15c1.5,0.6,3.1,0.9,4.7,0.8c0,0,4.9-2.3,3.9-5.2S159,371.4,159,371.4z"/>
			<path class="st7" d="M181.9,379.9c-0.1,1-1.3,2.5-1.8,3.3c-1.6,2.7-2.2,6.3-2.6,9.4c-1.9,14.8,4.4,21.8-3,27.8
				c-2.2,1.6-6.9,1.6-14.8-7.1c-4-4.4-6.8-13.9-5.7-18.4s2.8-7.5,3.5-10.9s-0.3-9.6,1.4-12.7c1.1-1.7,2.5-3.2,4.2-4.2
				c1.3-1,4.3-2.3,5.6-3.2s2.1-1.9,3.1-0.9l-1.5,2.1c-2.3,3.7-1.5,4.2-1.3,6.1c0,2-0.1,4.1-0.5,6.1c1.6-2.4,2.2-4.5,4.2-4.3
				s2.2,0.1,5.3,2.5S182,379,181.9,379.9z"/>
			<path class="st14" d="M181.9,379.9c-0.1,1-1.3,2.5-1.8,3.3c-1.6,2.7-2.2,6.3-2.6,9.4c-1.9,14.8,4.4,21.8-3,27.8
				c-2.2,1.6-6.9,1.6-14.8-7.1c-4-4.4-6.8-13.9-5.7-18.4s2.8-7.5,3.5-10.9s-0.3-9.6,1.4-12.7c1.1-1.7,2.5-3.2,4.2-4.2
				c1.3-1,4.3-2.3,5.6-3.2s2.1-1.9,3.1-0.9l-1.5,2.1c-2.3,3.7-1.5,4.2-1.3,6.1c0,2-0.1,4.1-0.5,6.1c1.6-2.4,2.2-4.5,4.2-4.3
				s2.2,0.1,5.3,2.5S182,379,181.9,379.9z"/>
			<path class="st15" d="M159.8,413.4c-4-4.4-6.8-13.9-5.7-18.4c0.4-1.5,0.8-2.9,1.4-4.4c0,0.3-0.1,0.6-0.1,0.9
				c0,0.6-0.1,1.1-0.1,1.7c-0.2,2.3,0.2,4.5,1.2,6.6c1,1.8,3.2,6.2,5.7,6.1c1.4,0,2.5-1.5,2.9-3.1c0.2-0.7,0.4-2.5,0.4-2.5
				c2.3,0.4,4.5,1.1,6.6,2.1c3.7,2.1,3.6,2.6,3.6,2.6c-0.1,1-0.1,2.1,0.1,3.1c0.3,1.1,0.8,2.1,1.6,3c0.3,0.3,0.6,0.5,1,0.7
				c0.1,3.4-0.6,6.1-3.7,8.6C172.4,422.1,167.6,422,159.8,413.4z"/>
			<path class="st6" d="M177.5,392.6c-0.5,3.9-0.5,7.8,0,11.7c-1.1,3.8-2.2,3.8-2.6,1.9s1.7-10.1,3.1-16.9
				C177.8,390.5,177.7,391.6,177.5,392.6z"/>
			<path class="st6" d="M166.9,370c-0.3-1.9,0-3.8,1-5.4c0.3-0.2,0.6-0.4,0.9-0.5c1.5-1,2.1-1.9,3.1-0.9l-1.5,2.1
				c-2.3,3.7-1.5,4.2-1.3,6.1c0,2-0.1,4.1-0.5,6.1c-1,6.4-2.2,8.6-2.5,14.7s1.2,10,0.4,10.4s-2.6-0.1-3.2-4.9s0.9-13,2.1-16.9
				S167.4,372.5,166.9,370z"/>
			<path class="st13" d="M165,400.8c0.1,0.1,0.2,0.1,0.3,0.1c4.3,0.5,6.6,1.4,10,4.9c0.2,0.2,0.6,0.2,0.8,0c0.2-0.2,0.2-0.6,0-0.8
				c0,0,0,0,0,0c-3.6-3.6-6.1-4.6-10.7-5.2c-0.3,0-0.6,0.2-0.7,0.5C164.8,400.4,164.9,400.6,165,400.8z"/>
			<path class="st13" d="M165.4,395.7c0.1,0.1,0.2,0.1,0.3,0.1c4.4,0.7,6.9,1.7,10.5,5.4c0.2,0.2,0.6,0.2,0.8,0c0,0,0,0,0,0
				c0.2-0.2,0.2-0.6,0-0.9c-3.8-3.8-6.5-5-11.2-5.7c-0.3,0-0.7,0.2-0.7,0.5C165.2,395.4,165.2,395.6,165.4,395.7L165.4,395.7z"/>
			<path class="st13" d="M164.9,390.2c0.1,0.1,0.2,0.1,0.3,0.2c4.9,0.8,7.8,2,11.8,6c0.3,0.3,0.7,0.3,1,0c0,0,0,0,0,0
				c0.3-0.3,0.3-0.7,0-1c0,0,0,0,0,0c-4.2-4.2-7.4-5.6-12.5-6.4c-0.4-0.1-0.7,0.2-0.8,0.6c0,0,0,0,0,0
				C164.6,389.8,164.7,390.1,164.9,390.2z"/>
			<path class="st13" d="M165.3,385.5c0.1,0.1,0.2,0.1,0.3,0.1c4.8,0.7,7.6,2,11.5,5.9c0.3,0.3,0.7,0.3,0.9,0s0.3-0.7,0-0.9l0,0
				c-4.1-4.1-7.2-5.5-12.2-6.3c-0.4,0-0.7,0.2-0.8,0.6C165.1,385.1,165.2,385.3,165.3,385.5L165.3,385.5z"/>
			<path class="st13" d="M166.7,380.8c0.1,0.1,0.2,0.1,0.3,0.2c4.8,0.7,7.6,2,11.5,5.9c0.3,0.3,0.7,0.3,0.9,0s0.3-0.7,0-0.9
				c-4.1-4.1-7.2-5.5-12.2-6.3c-0.4-0.1-0.7,0.2-0.8,0.5C166.5,380.4,166.5,380.6,166.7,380.8L166.7,380.8z"/>
			<path class="st5" d="M145.5,296.3c0,0,49.5-5.9,68.9-5.7c19.8,0.1,21.6,15,16.7,24.1c-9.5,17.4-40.1,53-40.1,53
				s-12.3-3.7-15.7-13.3l6.4-17.2l-38.4,5.3l-7-5L145.5,296.3z"/>
			<path class="st6" d="M194.9,350.6c-4.2-5.4-7.1-6.7-14.8-9.3l-4.9,13.1c3.4,9.6,15.7,13.3,15.7,13.3s3.5-4.1,8.6-10.2
				C198.2,355.1,196.6,352.8,194.9,350.6z"/>
			<path class="st6" d="M184.4,320.9c-2.5,3.7-4.6,7-6.5,10.2s-7.5,4.7-13.3,3.5c-7.2-1.5-15.4-5.1-20.1-7.1
				c4.1-8,0.8-16.5,0.8-16.5c1.1,6.3-1.9,11.8-4.2,15l-2.6,3l1.4,10l2.8,3.4l33-4.5l0,0l5.4-0.7c6.8-16.2,9.4-23.4,17.9-26.7
				C198.9,310.5,191.7,309.9,184.4,320.9z"/>
			<path class="st21" d="M211.6,418.1l-17.4-18.5l17-14.8c8,12.4,15.8,24.2,20.8,28.7c0,0-3.4,11.3-9.8,12S213,421.7,211.6,418.1z"
				/>
			<path class="st10" d="M215.7,429.2c0.6,1.2,1.4,2.3,2.3,3.2c1,1,6.5,1.8,8.9,3.1s3,1.9,5.9,3.8c3.2,2,6,5.2,15.6,4.2
				s14.8-4.6,17.8-8c1-1.3,1.7-2.8,2-4.4c0,0-0.9-5.4-4-5.2S215.7,429.2,215.7,429.2z"/>
			<path class="st7" d="M230,409.4c0.9,0.3,2.1,1.9,2.7,2.6c2.2,2.3,5.5,3.8,8.4,5c13.8,5.8,22.2,1.5,26,10.3
				c1,2.5-0.4,7.1-10.8,12.3c-5.3,2.7-15.2,2.9-19.2,0.6s-6.4-4.7-9.6-6.3s-9.4-2.3-11.9-4.7c-1.4-1.5-2.4-3.3-3-5.2
				c-0.6-1.5-2.1-6.8-2.1-6.8c3,3.2,5.8,1.9,7.7,2.2c2,0.5,3.9,1.2,5.7,2.1c-1.9-2.2-3.7-3.4-3-5.2s0.7-2.1,3.9-4.4
				S229.2,409.1,230,409.4z"/>
			<path class="st14" d="M230,409.4c0.9,0.3,2.1,1.9,2.7,2.6c2.2,2.3,5.5,3.8,8.4,5c13.8,5.8,22.2,1.5,26,10.3
				c1,2.5-0.4,7.1-10.8,12.3c-5.3,2.7-15.2,2.9-19.2,0.6s-6.4-4.7-9.6-6.3s-9.4-2.3-11.9-4.7c-1.4-1.5-2.4-3.3-3-5.2
				c-0.6-1.5-2.1-6.8-2.1-6.8c3,3.2,5.8,1.9,7.7,2.2c2,0.5,3.9,1.2,5.7,2.1c-1.9-2.2-3.7-3.4-3-5.2s0.7-2.1,3.9-4.4
				S229.2,409.1,230,409.4z"/>
			<path class="st15" d="M256.4,439.6c-5.3,2.7-15.2,2.9-19.2,0.6c-1.3-0.8-2.6-1.6-3.8-2.5c0.3,0.1,0.6,0.3,0.8,0.4
				c0.5,0.2,1.1,0.4,1.6,0.5c2.1,0.8,4.4,1,6.6,0.6c1.9-0.5,6.8-1.4,7.4-3.8c0.3-1.4-0.8-2.8-2.2-3.6c-0.6-0.4-2.3-1.1-2.3-1.1
				c1-2.1,2.2-4.1,3.8-5.8c3-3,3.5-2.8,3.5-2.8c1,0.4,2,0.6,3.1,0.7c1.1,0,2.3-0.2,3.3-0.7c0.3-0.2,0.6-0.5,0.9-0.8
				c3.3,0.8,5.7,2.2,7.3,5.9C268.1,429.8,266.8,434.4,256.4,439.6z"/>
			<path class="st6" d="M241.1,417c3.6,1.5,7.4,2.6,11.3,3.2c3.4,2,3.1,3.2,1.1,3s-9.3-4.3-15.5-7.5
				C239.1,416.1,240.1,416.6,241.1,417z"/>
			<path class="st6" d="M216.4,421.2c-1.8-0.1-3.3,0-4.8-0.9c-1-0.5-1.6-2.8-1.5-3.8l1.6,1.7c2.8,1.2,4.7,0.9,6.6,1.2
				c2,0.5,3.9,1.2,5.7,2.1c5.9,2.7,7.7,4.4,13.5,6.3s9.9,1.5,10.1,2.4s-0.8,2.4-5.6,1.8s-12.3-4.3-15.7-6.5S219,421.4,216.4,421.2z"
				/>
			<path class="st13" d="M245.6,431.2c0.1-0.1,0.2-0.2,0.2-0.3c1.7-4,3.1-5.9,7.4-8.3c0.3-0.2,0.4-0.5,0.2-0.8
				c-0.2-0.3-0.5-0.4-0.8-0.2c0,0,0,0,0,0c-4.5,2.5-6.1,4.7-7.9,8.9c-0.1,0.3,0,0.6,0.3,0.8c0,0,0,0,0,0
				C245.2,431.4,245.4,431.4,245.6,431.2z"/>
			<path class="st13" d="M240.8,429.5c0.1-0.1,0.2-0.2,0.2-0.3c1.8-4.1,3.5-6.2,8-8.7c0.3-0.2,0.4-0.5,0.2-0.8c0,0,0,0,0,0
				c-0.2-0.3-0.5-0.4-0.8-0.3c0,0,0,0,0,0c-4.7,2.6-6.6,5-8.5,9.3c-0.1,0.3,0,0.7,0.3,0.8c0,0,0,0,0,0
				C240.4,429.6,240.7,429.6,240.8,429.5z"/>
			<path class="st13" d="M235.4,428.5c0.1-0.1,0.2-0.2,0.2-0.3c2-4.5,4-7,9-9.7c0.3-0.2,0.5-0.6,0.3-0.9c-0.2-0.3-0.6-0.5-0.9-0.3
				c0,0-0.1,0-0.1,0c-5.2,2.9-7.4,5.6-9.5,10.3c-0.2,0.3,0,0.7,0.3,0.9C235,428.7,235.3,428.7,235.4,428.5L235.4,428.5z"/>
			<path class="st13" d="M231,426.9c0.1-0.1,0.2-0.2,0.2-0.3c2-4.4,3.9-6.8,8.7-9.5c0.3-0.2,0.4-0.6,0.3-0.9
				c-0.2-0.3-0.6-0.4-0.9-0.2c-5.1,2.8-7.2,5.5-9.3,10.1c-0.2,0.3,0,0.7,0.3,0.9C230.5,427,230.8,427,231,426.9L231,426.9z"/>
			<path class="st13" d="M226.8,424.3c0.1-0.1,0.2-0.2,0.2-0.3c2-4.4,3.9-6.8,8.8-9.5c0.3-0.2,0.4-0.6,0.2-0.9s-0.6-0.4-0.9-0.2
				c-5.1,2.9-7.2,5.5-9.3,10.1c-0.2,0.3,0,0.7,0.3,0.9c0,0,0,0,0,0C226.3,424.4,226.6,424.4,226.8,424.3z"/>
			<path class="st5" d="M220.6,397.8c-4.4,7.8-16.1,14.3-16.1,14.3s-5-4.5-17-14.3c-8.5-6.9-15.4-13.7-20.4-22
				c-14.3-2.9-41.2-5.6-66.8-16c-18.3-7.4-25.5-20.7-23.9-44.2s72.6-17.6,72.6-17.6l-10.6,31c0,0,31.9,12.1,42.7,16.6
				c5,2,6.4,2,12.3,10.2C206.9,374.5,220.6,397.8,220.6,397.8z"/>
			<path class="st5" d="M220.6,397.8c-4.4,7.8-16.1,14.3-16.1,14.3s-5-4.5-17-14.3c-8.5-6.9-15.4-13.7-20.4-22
				c-14.3-2.9-41.2-5.6-66.8-16c-18.3-7.4-25.5-20.7-23.9-44.2s72.6-17.6,72.6-17.6l-10.6,31c0,0,31.9,12.1,42.7,16.6
				c5,2,6.4,2,12.3,10.2C206.9,374.5,220.6,397.8,220.6,397.8z"/>
			<path class="st6" d="M208,409.9c0.3-0.2,0.6-0.4,0.9-0.6c-6.4-6-22.5-21.6-27.4-28.2c-1.7-2.3-3-4.3-4.2-6.1
				c-2.7-4.2-4.6-7-7.9-7.8c-0.7-0.2-2.4-0.5-5-1c-13.1-2.7-47.9-9.8-60-16.4l-1-0.6c4.1-4.1,3.7-12,0.5-16.8
				c-3.4-5.2-6-15.4-4.1-20.5l-1-0.4c-2.2,5.8,1,16.6,4.2,21.5c3,4.5,3.3,12-0.6,15.6c-11.6-7.2-17.4-19.9-16.9-36.8h-1.1
				c-0.6,18.3,6.2,31.8,19.5,39c12.2,6.6,47.2,13.8,60.3,16.5c2.5,0.5,4.2,0.9,4.9,1c2.9,0.7,4.6,3.3,7.2,7.3
				c1.2,1.8,2.5,3.9,4.2,6.2C185.8,388.7,202.1,404.4,208,409.9z"/>
		</g>
		<g id="freepik--top--inject-26_1_">
			<g id="freepik--Hair--inject-26">
				<path class="st10" d="M90.8,164.8c-6.3-2-12.5-3.1-18.5,2.8c-2.8,2.8-3.6,6.1-3.3,9.8c0.2,1.9,1.2,3.9,0.7,5.8
					c-0.7,1.9-1.8,3.6-3.1,5c-2.9,3.7-4.4,7.2-4.1,12c0.2,3.7,3,5.5,4.1,8.6c0.9,3.1,0.5,6.5-1.1,9.3c-1.3,1.9-2.1,4-2.4,6.2
					c-0.5,3.1,0.4,6.2,2.4,8.7c2.5,2.9,6.6,3.8,10.1,4.6c3.1,0.9,6.4,0.7,9.3-0.6c2-1,4.7-2.9,5.5-5.1s0.4-5.4-0.4-7.7
					c-0.7-2-1.4-3.9-0.8-6.1s1.9-4,2.7-6.1c0.7-1.8,1-3.8,0.7-5.7c-0.5-2.8-1.3-5.5-2.4-8.1c-1.4-3.1-2.5-5.3-2.3-8.9s2.8-6,3.6-9.3
					c0.4-2,0.1-4.9,0-7S91.8,167.5,90.8,164.8z"/>
				<path class="st7" d="M92.3,164.1c-4.2-2.6-11.7,6.1-7.3,10.5L92.3,164.1z"/>
			</g>
			<path class="st21" d="M124.9,222.2c9.4-0.1,14.6,5.2,17.7,15.9s10,40.7,10,40.7c5.8,6,15.6,15,15.6,15l-20.1,2.1l-16.7-10.6
				l-4.3-35.2L124.9,222.2z"/>
			<g id="freepik--chest--inject-26_1_">
				<path class="st6" d="M78.8,268.9c1.6-22.9,1.5-32.7,3.8-40.2c3.5-1,11-3.1,11-3.1c8.1-1.7,16.2-2.8,24.4-3.4l6.9,0.1
					c4.9,4.7,18.2,15.2,22.4,24.7c3.2,7.9,0.9,17.1-5.7,22.5c0.1,6.8,0,16.1,0,16.1s2.7,4.8,6.5,10.4c-1.1,11.2-13.9,22.6-33.9,28.1
					c-12.8,3.5-26.4,2.1-38.3-3.9C76,320.1,77.3,291.5,78.8,268.9z"/>
				<path class="st10" d="M126,272.1c0,0-5.4,7.3-16.8,6.5c-11.8-0.8-14.4-10.4-14.4-10.4s0,12.7,14.1,13.7
					C121.8,282.8,126,272.1,126,272.1z"/>
			</g>
			<path class="st6" d="M127.7,167.5c8.4,0.1,12.9,10.5,6.9,20.6c-10.5,17.9-34.8,11.4-34.8,11.4L95.6,214c0,0-3.9-4-8.9-9.6
				c-9-10.1-7.7-25.2-1.6-28.5c-1.3-13.9,27.1-23.4,39.5-11.4C125.7,165.3,126.8,166.4,127.7,167.5z"/>
			<path class="st21" d="M128.1,171.8c3.6,1.9,6.8,11.4,6.1,27.6c-0.4,9.4-2.6,13.8-6.7,16.2c-2,1.2-6.4,2-11,1.7l0.2,6.2
				c0,0,17.1,16.2,2.9,17.9c-14.8,1.8-23.9-15.7-23.9-15.7L95.2,203c-0.8,1.4-5.4,3.6-8.8-0.4c-4-4.6-3.4-10.4-0.2-12.7
				s7.4-0.5,9.2,3.4c3.7,1.3,8.3-2.6,7.4-16.6c4.2-3.9,10.3,0.8,15.8-0.1C122.7,175.9,123.7,169.8,128.1,171.8z"/>
			<path class="st7" d="M88.4,200.7c-0.1,1,0.6,2,1.7,2.1c1,0.1,2-0.6,2.1-1.7s-0.6-2-1.7-2.1c0,0,0,0,0,0
				C89.4,198.9,88.5,199.7,88.4,200.7z"/>
			<path class="st22" d="M116.6,217.4c-11.3-1.9-17.8-6.1-19.2-10.6c0,0,1,5.9,4.3,8.3c4.6,3.4,15,5.3,15,5.3L116.6,217.4z"/>
			<path class="st11" d="M121.7,203.9l-7.6-1.1c-0.4,2,0.9,3.9,2.8,4.3c0.1,0,0.1,0,0.2,0C119.3,207.4,121.3,206,121.7,203.9z"/>
			<path class="st22" d="M118.8,207c-0.5,0.2-1.1,0.2-1.7,0.1c-1.4-0.2-2.5-1.2-2.9-2.5C116.2,204.3,118,205.3,118.8,207z"/>
			<path class="st10" d="M110.3,191.8c0.1,1.2,1.1-0.6,2.2-0.7s2.1,1.6,2,0.4c-0.1-1.2-1.2-2-2.3-1.9
				C111.1,189.7,110.2,190.7,110.3,191.8L110.3,191.8z"/>
			<path class="st10" d="M125.8,190.4c0.1,1.2,1.1-0.6,2.2-0.7c1.2-0.1,2.1,1.6,2,0.4c-0.1-1.2-1.2-2-2.3-1.9
				C126.6,188.4,125.8,189.3,125.8,190.4L125.8,190.4z"/>
			<path class="st10" d="M130.3,184.5l-4.7-2.1c0.5-1.3,2-1.9,3.3-1.4c0.1,0,0.1,0,0.2,0.1C130.3,181.6,130.9,183.2,130.3,184.5z"/>
			<path class="st10" d="M108.6,185.9l4.5-2.7c-0.6-1.2-2.2-1.7-3.4-1.1c0,0-0.1,0-0.1,0.1C108.3,182.9,107.9,184.6,108.6,185.9z"/>
			<polygon class="st22" points="119.3,188.9 120.5,200.1 127.1,197.1 			"/>
			<path id="freepik--arm--inject-26_2_" class="st21" d="M82.6,228.7c-16.8,5.2-17.1,11.4-20.2,31.8S56,296.2,56,296.2
				c-0.6,3-1.3,6.1-1.9,9.1c-1.2,6.2-2.2,12.4-3.7,18.5c-0.5,2.1-1,4.8-2.7,6.4c-1.2,1.1-2.5,2-4.1,2.6c-1.6,0.6-2,0.5-5.2,0.8
				c-1.8,0-3.5,0.2-5.3,0.6c-1,0.4-2,0.7-3.1,0.8c-1-0.1-2.1-0.1-3.1,0c-1.1,0.3-2.1,0.8-2.9,1.5c-1.2,0.9-2.6,1.6-4,2.1
				c-3.2-0.4-4.1,1.1-3,2.6c1.3,1.8,4.1,2.7,6.2,3.1c6,1.1,9.4,1.7,15.5,1.4c2-0.1,5-0.6,6.5,1.2s-2,1.9-3.1,2
				c-1.6,0.1-3.1,0.5-4.5,1.3c-3.5,1.8-3.5,6.2,0.9,5c2.9-0.8,3.8-0.4,6.8-0.5s6.3-0.5,8.8-2.1c1.1-0.8,2.1-1.6,3-2.5
				c1.3-1.1,3.2-2,4-3.5c1.2-2.1,1.8-4.5,2-6.9c0.1-1.3,0.3-2.6,0.8-3.9c0.8-2.1,1-4.1,1.7-6.2s1.5-4.2,2.3-6.3
				c1.7-4.5,3.6-9,5.3-13.5c1.5-3.5,2.6-7.2,3.4-10.9c1.5-8.3,7.2-32.8,7.2-32.8S96.5,238.8,82.6,228.7z"/>
		</g>
	</g>
</g>
<g id="freepik--Hearts--inject-26">
	<path id="freepik--Heart--inject-26" class="st7" d="M341.9,139.9c-2.1-0.5-4.1-1.1-6.1-2c-2.9-1.3-5.7-3-6.7-6.4
		c-0.4-1.4-0.3-3,0.3-4.4l0-0.1c0.7-1.5,2-2.7,3.7-3.2c2.1-1,4.6-0.6,6.3,1c0.5-2.3,2.3-4,4.5-4.5c1.6-0.5,3.4-0.3,4.9,0.6
		c1.4,0.7,2.4,2,2.9,3.4c1.1,3.4-0.2,6.4-1.8,9.1c-1.1,1.8-2.4,3.5-3.8,5.1l-1.6,2L341.9,139.9z"/>
	<g id="freepik--heart--inject-26_2_">
		<path id="freepik--heart--inject-26" class="st7" d="M359.5,115.9c-1.9-1.8-3.6-3.8-5.1-5.9c-2.2-3.1-4.1-6.6-3.1-10.9
			c0.4-1.8,1.5-3.4,3.1-4.4l0.1-0.1c1.7-1.2,3.8-1.6,5.9-1.1c2.8,0.3,5.2,2.3,5.9,5c1.9-2.1,4.9-2.8,7.5-1.8c2,0.5,3.8,1.8,4.8,3.7
			c1,1.6,1.3,3.5,0.9,5.4c-1,4.3-4.3,6.6-7.6,8.4c-2.3,1.2-4.7,2.2-7.2,3l-3,1L359.5,115.9z"/>
		<path id="freepik--heart--inject-26_1_" class="st18" d="M359.5,115.9c-1.9-1.8-3.6-3.8-5.1-5.9c-2.2-3.1-4.1-6.6-3.1-10.9
			c0.4-1.8,1.5-3.4,3.1-4.4l0.1-0.1c1.7-1.2,3.8-1.6,5.9-1.1c2.8,0.3,5.2,2.3,5.9,5c1.9-2.1,4.9-2.8,7.5-1.8c2,0.5,3.8,1.8,4.8,3.7
			c1,1.6,1.3,3.5,0.9,5.4c-1,4.3-4.3,6.6-7.6,8.4c-2.3,1.2-4.7,2.2-7.2,3l-3,1L359.5,115.9z"/>
	</g>
	<g id="freepik--heart--inject-26_3_">
		<path class="st7" d="M350.8,161.4c-0.9-1-1.6-2.2-2.3-3.4c-0.9-1.8-1.7-3.7-0.9-5.8c0.3-0.9,1-1.6,1.9-2.1l0.1-0.1
			c1-0.5,2.1-0.6,3.1-0.2c1.4,0.3,2.5,1.5,2.7,2.9c1.1-1,2.7-1.1,4-0.5c1,0.4,1.8,1.2,2.2,2.2c0.4,0.9,0.4,1.9,0.1,2.8
			c-0.8,2.2-2.6,3.1-4.5,3.9c-1.3,0.5-2.6,0.9-3.9,1.1l-1.6,0.3L350.8,161.4z"/>
		<path class="st18" d="M350.8,161.4c-0.9-1-1.6-2.2-2.3-3.4c-0.9-1.8-1.7-3.7-0.9-5.8c0.3-0.9,1-1.6,1.9-2.1l0.1-0.1
			c1-0.5,2.1-0.6,3.1-0.2c1.4,0.3,2.5,1.5,2.7,2.9c1.1-1,2.7-1.1,4-0.5c1,0.4,1.8,1.2,2.2,2.2c0.4,0.9,0.4,1.9,0.1,2.8
			c-0.8,2.2-2.6,3.1-4.5,3.9c-1.3,0.5-2.6,0.9-3.9,1.1l-1.6,0.3L350.8,161.4z"/>
	</g>
</g>
<g id="freepik--speech-bubbles--inject-26">
	<path id="freepik--speech-bubble--inject-26" class="st0" d="M196,97l-0.3-12c0,0,20,0.6,16.6-24.3c-1.7-12.1-11-24.6-47-19.9
		c-43.5,5.7-38.3,27.6-33.8,35.3c4.7,8,23.8,12.2,55.2,10.5L196,97z"/>
	<path id="freepik--speech-bubble--inject-26_1_" class="st0" d="M87.2,151.5l9.8-9.2c7.3,1.2,14.7,1.5,22.1,1
		c19.7-1.2,30.8-9.8,27.9-21.4c-3.5-13.8-16.1-18.1-39.6-17.2c-29.4,1.2-40,19.8-19.5,34.8L87.2,151.5z"/>
</g>
<g id="freepik--Books--inject-26">
	<g id="freepik--books--inject-26">
		<path id="freepik--shadow--inject-26_2_" class="st0" d="M418,417.8l-39.1-22.6c-0.6-0.2-0.9-0.8-0.7-1.4c0.1-0.3,0.4-0.6,0.7-0.7
			l54.6-31.5c1.2-0.6,2.5-0.6,3.7,0l39.1,22.6c0.6,0.2,0.9,0.8,0.7,1.4c-0.1,0.3-0.4,0.6-0.7,0.7l-54.6,31.5
			C420.5,418.3,419.2,418.3,418,417.8z"/>
		<g id="freepik--Book--inject-26">
			<path class="st7" d="M381.9,394.2l1.5-0.8l-1.3-0.3C381.7,393.4,381.7,393.9,381.9,394.2z"/>
			<path class="st23" d="M381.9,394.2l1.5-0.8l-1.3-0.3C381.7,393.4,381.7,393.9,381.9,394.2z"/>
			<path class="st7" d="M421.3,414.1c-0.9,0.5-2.1,0.5-3,0l-34-19.6l50.9-28.9l1.2-0.7l34,19.2c0.5,0.2,0.7,0.7,0.6,1.2
				c-0.1,0.3-0.3,0.5-0.6,0.6L421.3,414.1z"/>
			<path class="st7" d="M408.5,377.5l-11.9,6.8l-7.7-4.4l-8.9,5.1v6c0,0.8,0.9,1.9,1.2,1.7c0.6,0.1,1.2,0.3,1.7,0.6
				c0.9,0.5,1.7,1.1,2.5,1.8l27.2-15.2L408.5,377.5z"/>
			<path class="st24" d="M408.5,377.5l-11.9,6.8l-7.7-4.4l-8.9,5.1v6c0,0.8,0.9,1.9,1.2,1.7c0.6,0.1,1.2,0.3,1.7,0.6
				c0.9,0.5,1.7,1.1,2.5,1.8l27.2-15.2L408.5,377.5z"/>
			<path class="st6" d="M385,385.8v6.5l-0.1-0.1c-0.4-0.3-0.9-0.4-1.5-0.5c-0.3,0-0.7,0-1,0.2v-7.6L385,385.8z"/>
			<path class="st0" d="M386.6,394.4c0-0.4-0.2-0.8-0.4-1.1c-0.1-0.2-0.3-0.3-0.4-0.5l-0.1-0.1l-0.2-0.2l-0.2-0.1l-0.3-0.2v-6.4
				l1.7,1L386.6,394.4L386.6,394.4z"/>
			<path class="st14" d="M380.1,391c0,0.8,0.9,1.9,1.2,1.7l0,0l1.2-0.8V387l-1.2-2l-0.6-0.2l-0.5,0.3V391z"/>
			<path class="st13" d="M419.8,405.9v7.4c-0.3,0-0.7-0.1-1-0.2l-3.7-2.1l-28.4-16.4v-7.7L419.8,405.9z"/>
			<path class="st25" d="M469.5,378.1v5.6c0,0.7-0.4,1.4-1,1.8l-44,25.4l-3.7,2.2c-0.3,0.2-0.7,0.2-1,0.2v-6.5L469.5,378.1z"/>
			<path class="st7" d="M435.2,356l-50.9,29.4v0.6c0,0.4-0.5,0.5-1.2,0.1s-1.2-0.9-1.2-1.5l-0.1-0.6l51.9-29.9l0.2-0.1
				c0.1,0.1,0.1,0.2,0.1,0.3v0.3C434,355,434.5,355.6,435.2,356z"/>
			<path class="st26" d="M435.2,356l-50.9,29.4v0.6c0,0.4-0.5,0.5-1.2,0.1s-1.2-0.9-1.2-1.5l-0.1-0.6l51.9-29.9l0.2-0.1
				c0.1,0.1,0.1,0.2,0.1,0.3v0.3C434,355,434.5,355.6,435.2,356z"/>
			<path class="st7" d="M418.3,405L385,385.8c-0.4-0.2-0.8-0.4-1-0.3l0.2-0.1l51-29.3l0.6-0.3c0.5-0.2,1.1-0.1,1.6,0.2l33,19
				c0.5,0.2,0.7,0.7,0.6,1.2c-0.1,0.3-0.3,0.5-0.6,0.6L421.3,405C420.4,405.5,419.2,405.5,418.3,405z"/>
			<path class="st7" d="M433.9,354l-0.2,0.1L381.9,384c0-0.1-0.1-0.1-0.1-0.1l-0.2-0.1l-0.4-0.2l-0.5-0.3c-0.2-0.1-0.4-0.1-0.6,0
				l-0.1,0c-0.1,0.1-0.1,0.1-0.1,0.2c-0.1,0.1-0.1,0.2-0.1,0.3c0,0.1-0.1,0.2-0.1,0.3c0,0.1-0.1,0.3-0.1,0.4c0,0.1,0,0.2,0,0.2
				c0,0.1,0,0.1,0,0.2c0,0.1,0,0.3,0,0.5V384c0.1-1,0.7-1.8,1.5-2.3l49.1-28.3c0.8-0.5,1.8-0.6,2.7-0.2l0.6,0.4l0,0l0.3,0.2l0,0
				C433.8,353.8,433.9,353.9,433.9,354z"/>
			<path class="st7" d="M418.3,414.1l-2-1.2l-30.8-17.8c0-0.4-0.2-0.8-0.5-1.1c-0.4-0.5-0.8-0.9-1.3-1.2c-0.4-0.3-0.9-0.4-1.5-0.5
				c-0.4,0-0.7,0.1-1,0.3c-0.4-0.8-0.6-1.7-0.6-2.5h-1.2c0,1.6,0.5,3.2,1.2,3.6l0.6,0.3c0.3,0.2,0.6,0.2,0.6,0v-0.3
				c0-0.4,0.5-0.3,1.2,0s1.2,1,1.2,1.3v0.3c0,0.2,0.5,0.6,1,0.9l29.8,17.2l3.2,1.9l0,0c0.5,0.2,1,0.4,1.5,0.4v-1.3
				C419.2,414.4,418.7,414.3,418.3,414.1z"/>
			<path class="st15" d="M418.3,414.1l-2-1.2l-30.8-17.8c0-0.4-0.2-0.8-0.5-1.1c-0.4-0.5-0.8-0.9-1.3-1.2c-0.4-0.3-0.9-0.4-1.5-0.5
				c-0.4,0-0.7,0.1-1,0.3c-0.4-0.8-0.6-1.7-0.6-2.5h-1.2c0,1.6,0.5,3.2,1.2,3.6l0.6,0.3c0.3,0.2,0.6,0.2,0.6,0v-0.3
				c0-0.4,0.5-0.3,1.2,0s1.2,1,1.2,1.3v0.3c0,0.2,0.5,0.6,1,0.9l29.8,17.2l3.2,1.9l0,0c0.5,0.2,1,0.4,1.5,0.4v-1.3
				C419.2,414.4,418.7,414.3,418.3,414.1z"/>
			<path class="st7" d="M418.3,405L418.3,405l-2-1.2l-23.6-13.6l-7.6-4.4c-0.5-0.3-1-0.4-1-0.3l0,0v0.4c0,0.4-0.5,0.4-1.2,0
				c-0.5-0.2-0.8-0.7-0.9-1.2v-0.4c0-0.2,0-0.3-0.2-0.4l-0.2-0.1l-0.4-0.2l-0.5-0.3c-0.2-0.1-0.4-0.1-0.6,0l-0.1,0
				c0,0-0.1,0.1-0.1,0.1c0,0,0,0,0,0.1c-0.1,0.1-0.1,0.2-0.1,0.3c0,0.1-0.1,0.2-0.1,0.3c0,0.1-0.1,0.3-0.1,0.4c0,0.1,0,0.2,0,0.2
				c0,0.1,0,0.1,0,0.2c0,0.1,0,0.3,0,0.5v4.6h1.2v-4.6c0-0.1,0-0.2,0-0.4v-0.3l0,0c0.2,1,0.9,1.8,1.8,2.2c0.4,0.3,0.9,0.4,1.4,0.4
				c0.4,0,0.8-0.1,1-0.4l0.1,0.1l0.2,0.1l29.8,17.2l3.2,1.9l0,0c0.5,0.2,1,0.3,1.5,0.3v-1.3C419.3,405.3,418.8,405.2,418.3,405z"/>
			<path class="st15" d="M418.3,405L418.3,405l-2-1.2l-23.6-13.6l-7.6-4.4c-0.5-0.3-1-0.4-1-0.3l0,0v0.4c0,0.4-0.5,0.4-1.2,0
				c-0.5-0.2-0.8-0.7-0.9-1.2v-0.4c0-0.2,0-0.3-0.2-0.4l-0.2-0.1l-0.4-0.2l-0.5-0.3c-0.2-0.1-0.4-0.1-0.6,0l-0.1,0
				c0,0-0.1,0.1-0.1,0.1c0,0,0,0,0,0.1c-0.1,0.1-0.1,0.2-0.1,0.3c0,0.1-0.1,0.2-0.1,0.3c0,0.1-0.1,0.3-0.1,0.4c0,0.1,0,0.2,0,0.2
				c0,0.1,0,0.1,0,0.2c0,0.1,0,0.3,0,0.5v4.6h1.2v-4.6c0-0.1,0-0.2,0-0.4v-0.3l0,0c0.2,1,0.9,1.8,1.8,2.2c0.4,0.3,0.9,0.4,1.4,0.4
				c0.4,0,0.8-0.1,1-0.4l0.1,0.1l0.2,0.1l29.8,17.2l3.2,1.9l0,0c0.5,0.2,1,0.3,1.5,0.3v-1.3C419.3,405.3,418.8,405.2,418.3,405z"/>
			<path class="st7" d="M471,375.8v1.4c0,0.4-0.3,0.7-0.6,0.9l0,0l-45.8,26.5l-3.2,1.9l0,0c-0.5,0.2-1,0.4-1.5,0.4v-1.3
				c0.5,0,1.1-0.1,1.5-0.4l2-1.2l0,0l47-27.1C470.7,376.5,471,376.1,471,375.8z"/>
			<path class="st8" d="M471,375.8v1.4c0,0.4-0.3,0.7-0.6,0.9l0,0l-45.8,26.5l-3.2,1.9l0,0c-0.5,0.2-1,0.4-1.5,0.4v-1.3
				c0.5,0,1.1-0.1,1.5-0.4l2-1.2l0,0l47-27.1C470.7,376.5,471,376.1,471,375.8z"/>
			<path class="st7" d="M471,384.9v1.4c0,0.4-0.3,0.7-0.6,0.9l0,0l-45.8,26.5l-3.2,1.9l0,0c-0.5,0.2-1,0.4-1.5,0.4v-1.3
				c0.5,0,1.1-0.1,1.5-0.4l2-1.2l0,0l47-27.1C470.7,385.6,471,385.3,471,384.9z"/>
			<path class="st8" d="M471,384.9v1.4c0,0.4-0.3,0.7-0.6,0.9l0,0l-45.8,26.5l-3.2,1.9l0,0c-0.5,0.2-1,0.4-1.5,0.4v-1.3
				c0.5,0,1.1-0.1,1.5-0.4l2-1.2l0,0l47-27.1C470.7,385.6,471,385.3,471,384.9z"/>
		</g>
		<g id="freepik--book--inject-26">
			<polygon class="st7" points="384.9,380.2 419.4,400 472.3,369.7 437.1,350.4 			"/>
			<polygon class="st27" points="384.9,380.2 419.4,400 472.3,369.7 437.1,350.4 			"/>
			<path class="st25" d="M419.8,398.6l-33.4-19.3c0.8-2.3,0.8-1.9-0.2-5l33.2,19.1C419.4,393.5,420,392.4,419.8,398.6z"/>
			<path class="st7" d="M417.9,391c1.8,1.1,2.9,3,3,5.1v2.9c0,1.9-1.3,2.6-3,1.7l-33-19v-1.5l32.5,18.7c1,0.6,1.8,0.1,1.8-1v-2.5
				c-0.1-1.2-0.7-2.4-1.8-3.1l-32.5-18.7V372L417.9,391z"/>
			<path class="st28" d="M417.9,391c1.8,1.1,2.9,3,3,5.1v2.9c0,1.9-1.3,2.6-3,1.7l-33-19v-1.5l32.5,18.7c1,0.6,1.8,0.1,1.8-1v-2.5
				c-0.1-1.2-0.7-2.4-1.8-3.1l-32.5-18.7V372L417.9,391z"/>
			<path class="st7" d="M384.9,372l52.9-30.3l33,19c1.8,1.1,2.9,3,3,5.1v2.9c0.1,0.7-0.3,1.5-0.9,1.9L420,400.9
				c0.6-0.4,0.9-1.2,0.9-1.9v-2.9c-0.1-2.1-1.2-4-3-5.1L384.9,372z"/>
			<path class="st27" d="M384.9,372l52.9-30.3l33,19c1.8,1.1,2.9,3,3,5.1v2.9c0.1,0.7-0.3,1.5-0.9,1.9L420,400.9
				c0.6-0.4,0.9-1.2,0.9-1.9v-2.9c-0.1-2.1-1.2-4-3-5.1L384.9,372z"/>
			<path class="st7" d="M420,393.2c0.5,0.9,0.8,1.9,0.9,2.9v2.9c0.1,0.7-0.3,1.5-0.9,1.9l52.9-30.4c0.6-0.4,0.9-1.2,0.9-1.9v-2.9
				c0-1-0.3-2-0.9-2.9L420,393.2z"/>
			<path class="st29" d="M420,393.2c0.5,0.9,0.8,1.9,0.9,2.9v2.9c0.1,0.7-0.3,1.5-0.9,1.9l52.9-30.4c0.6-0.4,0.9-1.2,0.9-1.9v-2.9
				c0-1-0.3-2-0.9-2.9L420,393.2z"/>
			<path class="st5" d="M465.9,366.8c1,4.2,1,4.8,0,7.8l-2.4,1.4c0.9-3.1,1-3.6,0-7.8L465.9,366.8z"/>
			<path class="st5" d="M430.8,387.1c1,4.2,0.9,4.7,0,7.8l-2.5,1.4c1-3.1,1-3.6,0-7.8L430.8,387.1z"/>
		</g>
	</g>
</g>
<g id="freepik--Notebooks--inject-26">
	<g id="freepik--notebooks--inject-26">
		<path id="freepik--shadow--inject-26_3_" class="st0" d="M313.8,441l39.2-22.6c0.6-0.2,0.9-0.8,0.7-1.4c-0.1-0.3-0.4-0.6-0.7-0.7
			l-54.6-31.5c-1.1-0.6-2.5-0.6-3.6,0l-39.2,22.6c-0.6,0.2-0.9,0.8-0.7,1.4c0.1,0.3,0.4,0.6,0.7,0.7l54.6,31.5
			C311.3,441.6,312.7,441.6,313.8,441z"/>
		<path id="freepik--shadow--inject-26_4_" class="st0" d="M346,437.9l39.2-22.6c0.6-0.2,0.9-0.8,0.7-1.4c-0.1-0.3-0.4-0.6-0.7-0.7
			l-54.6-31.5c-1.1-0.6-2.5-0.6-3.6,0l-39.1,22.6c-0.6,0.2-0.9,0.8-0.7,1.4c0.1,0.3,0.4,0.6,0.7,0.7l54.6,31.5
			C343.5,438.5,344.9,438.5,346,437.9z"/>
		<g id="freepik--Notebook--inject-26">
			<polygon class="st7" points="259.7,406.1 260.2,406.4 260.7,406.6 276.2,415.6 313.7,437.2 351.7,415.2 351.7,415.6 313.7,437.6 
				260.4,406.8 259.9,406.5 259.7,406.4 			"/>
			<polygon class="st26" points="259.7,406.1 260.2,406.4 260.7,406.6 276.2,415.6 313.7,437.2 351.7,415.2 351.7,415.6 
				313.7,437.6 260.4,406.8 259.9,406.5 259.7,406.4 			"/>
			<path class="st7" d="M260.2,406.4l0.5,0.3l15.6,9l37.4,21.6l38.1-22l-0.3-0.2l-1.3-0.7l-51.4-29.7l-0.5-0.3l-0.5-0.3l-38.1,22
				L260.2,406.4z"/>
			<polygon class="st7" points="259.7,406.4 259.7,406.1 313.7,437.2 313.7,437.6 			"/>
			<polygon class="st27" points="259.7,406.4 259.7,406.1 313.7,437.2 313.7,437.6 			"/>
			<polygon class="st13" points="260.1,403 313.5,433.8 351.4,411.9 351.4,415 313.5,436.9 260.2,406.1 			"/>
			<polygon class="st3" points="260.2,406.1 260.1,403 313.5,433.8 313.5,436.9 			"/>
			<polygon class="st7" points="259.7,402.4 260.2,402.7 260.7,403 276.2,412 313.7,433.6 351.7,411.6 351.7,412 313.7,434 
				260.4,403.2 259.9,402.9 259.7,402.8 			"/>
			<polygon class="st26" points="259.7,402.4 260.2,402.7 260.7,403 276.2,412 313.7,433.6 351.7,411.6 351.7,412 313.7,434 
				260.4,403.2 259.9,402.9 259.7,402.8 			"/>
			<path class="st7" d="M260.2,402.7l0.5,0.3l15.6,9l37.4,21.6l38.1-22l-0.3-0.2l-1.3-0.7L298.7,381l-0.5-0.3l-0.5-0.3l-38.1,22
				L260.2,402.7z"/>
			<path class="st30" d="M260.2,402.7l0.5,0.3l15.6,9l37.4,21.6l38.1-22l-0.3-0.2l-1.3-0.7L298.7,381l-0.5-0.3l-0.5-0.3l-38.1,22
				L260.2,402.7z"/>
			<polygon class="st7" points="259.7,402.8 259.7,402.4 313.7,433.6 313.7,434 			"/>
			<polygon class="st27" points="259.7,402.8 259.7,402.4 313.7,433.6 313.7,434 			"/>
			<g id="freepik--notebook--inject-26">
				<path class="st6" d="M312.4,431.4c-0.2-0.1-0.3-0.3-0.2-0.5c0-0.1,0.1-0.2,0.2-0.2c0.4-0.2,0.9-0.2,1.3,0
					c0.2,0.1,0.3,0.3,0.2,0.5c0,0.1-0.1,0.2-0.2,0.2C313.3,431.7,312.8,431.7,312.4,431.4z"/>
				<path class="st7" d="M308.7,435.7c-0.2,0.9,0.4,1.8,1.4,2c0.5,0.1,1,0,1.4-0.4c0.3-0.2,0.5-0.4,0.8-0.6l-0.5-0.2
					c-0.2,0.2-0.4,0.3-0.6,0.4c-0.4,0.3-1,0.4-1.5,0.2c-0.4-0.3-0.6-0.8-0.6-1.4c0.1-1.6,0.9-3.1,2.3-4c0.3-0.2,0.6-0.3,0.9-0.3
					c0.2,0,0.4,0,0.6,0.1l0,0c0.2,0,0.4,0,0.6-0.1c-0.1-0.1-0.2-0.3-0.4-0.3c-0.3-0.2-0.7-0.2-1.1-0.2c-0.3,0.1-0.6,0.2-0.9,0.3
					C309.7,432.3,308.8,433.9,308.7,435.7z"/>
				<path class="st6" d="M309.1,429.6c-0.2-0.1-0.3-0.3-0.2-0.5c0-0.1,0.1-0.2,0.2-0.2c0.4-0.2,0.9-0.2,1.3,0
					c0.2,0.1,0.3,0.3,0.2,0.5c0,0.1-0.1,0.2-0.2,0.2C310.1,429.8,309.6,429.8,309.1,429.6z"/>
				<path class="st7" d="M305.5,433.9c-0.2,0.9,0.4,1.8,1.4,2c0.5,0.1,1,0,1.4-0.4c0.3-0.2,0.5-0.4,0.8-0.6l-0.5-0.2
					c-0.2,0.2-0.4,0.3-0.6,0.4c-0.4,0.3-1,0.4-1.5,0.2c-0.4-0.3-0.7-0.8-0.6-1.4c0.1-1.6,0.9-3.1,2.3-4c0.3-0.2,0.6-0.3,0.9-0.3
					c0.2,0,0.4,0,0.6,0.1l0,0c0.2,0,0.4,0,0.6-0.1c-0.1-0.1-0.2-0.3-0.4-0.3c-0.3-0.2-0.7-0.2-1.1-0.2c-0.3,0.1-0.6,0.2-0.9,0.3
					C306.5,430.4,305.6,432.1,305.5,433.9z"/>
				<path class="st6" d="M305.9,427.7c-0.2-0.1-0.3-0.3-0.2-0.5c0-0.1,0.1-0.2,0.2-0.2c0.4-0.2,0.9-0.2,1.3,0
					c0.2,0.1,0.3,0.3,0.2,0.5c0,0.1-0.1,0.2-0.2,0.2C306.8,427.9,306.3,427.9,305.9,427.7z"/>
				<path class="st7" d="M302.2,432c-0.1,0.9,0.5,1.8,1.4,2c0.5,0.1,1-0.1,1.3-0.4c0.3-0.2,0.5-0.4,0.8-0.6l-0.4-0.2
					c-0.2,0.2-0.4,0.3-0.6,0.4c-0.4,0.3-1,0.4-1.5,0.2c-0.4-0.3-0.7-0.8-0.6-1.4c0.1-1.6,0.9-3.1,2.3-4c0.3-0.2,0.6-0.3,0.9-0.3
					c0.2,0,0.4,0,0.6,0.1l0,0c0.2,0,0.4,0,0.6-0.1c-0.1-0.1-0.2-0.3-0.4-0.3c-0.3-0.2-0.7-0.2-1.1-0.2c-0.3,0.1-0.6,0.2-0.9,0.3
					C303.2,428.5,302.3,430.2,302.2,432z"/>
				<path class="st6" d="M302.7,425.8c-0.2-0.1-0.3-0.3-0.2-0.5c0-0.1,0.1-0.2,0.2-0.2c0.4-0.2,0.9-0.2,1.3,0
					c0.2,0.1,0.3,0.3,0.2,0.5c0,0.1-0.1,0.2-0.2,0.2C303.6,426,303.1,426,302.7,425.8z"/>
				<path class="st7" d="M299,430.1c-0.1,0.7,0.3,1.4,0.8,1.8c0.6,0.3,1.4,0.3,2-0.2c0.3-0.2,0.5-0.4,0.8-0.6l-0.4-0.2
					c-0.2,0.1-0.4,0.3-0.6,0.4c-0.5,0.5-1.3,0.5-1.8,0c-0.3-0.3-0.4-0.7-0.3-1.1c0.1-1.6,0.9-3.1,2.3-4c0.3-0.2,0.6-0.3,0.9-0.3
					c0.2,0,0.4,0,0.6,0.1l0,0c0.2,0,0.4,0,0.6-0.1c-0.1-0.1-0.2-0.3-0.4-0.3c-0.3-0.2-0.7-0.2-1.1-0.2c-0.3,0.1-0.6,0.2-0.9,0.3
					C300,426.6,299.1,428.3,299,430.1z"/>
				<path class="st6" d="M299.4,424c-0.2-0.1-0.3-0.3-0.2-0.5c0-0.1,0.1-0.2,0.2-0.2c0.4-0.2,0.9-0.2,1.3,0c0.2,0.1,0.3,0.3,0.2,0.5
					c0,0.1-0.1,0.2-0.2,0.2C300.3,424.2,299.8,424.2,299.4,424z"/>
				<path class="st7" d="M295.8,428.2c-0.1,0.7,0.3,1.4,0.8,1.8c0.6,0.3,1.4,0.3,2-0.2c0.3-0.2,0.5-0.4,0.8-0.6l-0.4-0.2
					c-0.2,0.1-0.4,0.3-0.6,0.4c-0.5,0.5-1.3,0.5-1.8,0c-0.3-0.3-0.4-0.7-0.3-1.1c0.1-1.6,0.9-3.1,2.3-4c0.3-0.2,0.6-0.3,0.9-0.3
					c0.2,0,0.4,0,0.6,0.1l0,0c0.2,0,0.4,0,0.6-0.1c-0.1-0.1-0.2-0.3-0.4-0.3c-0.3-0.2-0.7-0.2-1.1-0.2c-0.3,0.1-0.6,0.2-0.9,0.3
					C296.8,424.8,295.8,426.4,295.8,428.2z"/>
				<path class="st6" d="M296.2,422.1c-0.2-0.1-0.3-0.3-0.2-0.5c0-0.1,0.1-0.2,0.2-0.2c0.4-0.2,0.9-0.2,1.3,0
					c0.2,0.1,0.3,0.3,0.2,0.5c0,0.1-0.1,0.2-0.2,0.2C297.1,422.3,296.6,422.3,296.2,422.1z"/>
				<path class="st7" d="M292.5,426.4c-0.1,0.7,0.3,1.4,0.8,1.8c0.6,0.3,1.4,0.3,2-0.2c0.3-0.2,0.5-0.4,0.8-0.6l-0.4-0.2
					c-0.2,0.1-0.4,0.3-0.6,0.4c-0.5,0.5-1.3,0.5-1.8,0c-0.3-0.3-0.4-0.7-0.3-1.1c0.1-1.6,0.9-3.1,2.3-4c0.3-0.2,0.6-0.3,0.9-0.3
					c0.2,0,0.4,0,0.6,0.1l0,0c0.2,0,0.4,0,0.6-0.1c-0.1-0.1-0.2-0.3-0.4-0.3c-0.3-0.2-0.7-0.2-1.1-0.2c-0.3,0.1-0.6,0.2-0.9,0.3
					C293.6,422.9,292.6,424.6,292.5,426.4z"/>
				<path class="st6" d="M293,420.2c-0.2-0.1-0.3-0.3-0.2-0.5c0-0.1,0.1-0.2,0.2-0.2c0.4-0.2,0.9-0.2,1.3,0c0.2,0.1,0.3,0.3,0.2,0.5
					c0,0.1-0.1,0.2-0.2,0.2C293.9,420.4,293.4,420.4,293,420.2z"/>
				<path class="st7" d="M289.3,424.5c-0.1,0.7,0.3,1.4,0.8,1.8c0.6,0.3,1.4,0.3,2-0.2c0.3-0.2,0.5-0.4,0.8-0.6l-0.4-0.2
					c-0.2,0.1-0.4,0.3-0.6,0.4c-0.5,0.5-1.3,0.5-1.8,0c-0.3-0.3-0.4-0.7-0.3-1.1c0.1-1.6,0.9-3.1,2.3-4c0.3-0.2,0.6-0.3,0.9-0.3
					c0.2,0,0.4,0,0.6,0.1l0,0c0.2,0,0.4,0,0.6-0.1c-0.1-0.1-0.2-0.3-0.4-0.3c-0.3-0.2-0.7-0.2-1.1-0.2c-0.3,0.1-0.6,0.2-0.9,0.3
					C290.3,421,289.4,422.7,289.3,424.5z"/>
				<path class="st6" d="M289.7,418.4c-0.2-0.1-0.3-0.3-0.2-0.5c0-0.1,0.1-0.2,0.2-0.2c0.4-0.2,0.9-0.2,1.3,0
					c0.2,0.1,0.3,0.3,0.2,0.5c0,0.1-0.1,0.2-0.2,0.2C290.6,418.6,290.1,418.6,289.7,418.4z"/>
				<path class="st7" d="M286,422.6c-0.1,0.7,0.3,1.4,0.8,1.8c0.6,0.3,1.4,0.2,2-0.2c0.3-0.2,0.5-0.4,0.8-0.6l-0.4-0.2
					c-0.2,0.1-0.4,0.3-0.6,0.4c-0.5,0.4-1.3,0.3-1.7-0.2c-0.2-0.3-0.3-0.7-0.3-1c0.1-1.6,0.9-3.1,2.3-4c0.3-0.2,0.6-0.3,0.9-0.3
					c0.2,0,0.4,0,0.6,0.1l0,0c0.2,0,0.4,0,0.6-0.1c-0.1-0.1-0.2-0.2-0.4-0.3c-0.3-0.2-0.7-0.2-1.1-0.2c-0.3,0.1-0.6,0.2-0.9,0.3
					C287,419.2,286.1,420.8,286,422.6z"/>
				<path class="st6" d="M286.5,416.5c-0.2-0.1-0.3-0.3-0.2-0.5c0-0.1,0.1-0.2,0.2-0.2c0.4-0.2,0.9-0.2,1.3,0
					c0.2,0.1,0.3,0.3,0.2,0.5c0,0.1-0.1,0.2-0.2,0.2C287.4,416.7,286.9,416.7,286.5,416.5z"/>
				<path class="st7" d="M282.8,420.8c-0.2,0.9,0.5,1.8,1.4,2c0.5,0.1,1,0,1.4-0.4c0.3-0.2,0.5-0.4,0.8-0.6l-0.5-0.2
					c-0.2,0.1-0.4,0.3-0.6,0.4c-0.5,0.5-1.3,0.4-1.8-0.1c-0.3-0.3-0.4-0.7-0.3-1.1c0.1-1.6,0.9-3.1,2.3-4c0.3-0.2,0.6-0.3,0.9-0.3
					c0.2,0,0.4,0,0.6,0.1l0,0c0.2,0,0.4,0,0.6-0.1c-0.1-0.1-0.2-0.3-0.4-0.3c-0.3-0.2-0.7-0.2-1.1-0.2c-0.3,0.1-0.6,0.2-0.9,0.3
					C283.8,417.3,282.9,419,282.8,420.8z"/>
				<path class="st6" d="M283.2,414.6c-0.2-0.1-0.3-0.3-0.2-0.5c0-0.1,0.1-0.2,0.2-0.2c0.4-0.2,0.9-0.2,1.3,0
					c0.2,0.1,0.3,0.3,0.2,0.5c0,0.1-0.1,0.2-0.2,0.2C284.1,414.8,283.7,414.8,283.2,414.6z"/>
				<path class="st7" d="M279.6,418.9c-0.2,0.9,0.5,1.8,1.4,2c0.5,0.1,1,0,1.4-0.4c0.3-0.2,0.5-0.4,0.8-0.6l-0.5-0.2
					c-0.2,0.1-0.4,0.3-0.6,0.4c-0.5,0.5-1.3,0.4-1.8-0.1c-0.3-0.3-0.4-0.7-0.3-1.1c0.1-1.6,0.9-3.1,2.3-4c0.3-0.2,0.6-0.3,0.9-0.3
					c0.2,0,0.4,0,0.6,0.1l0,0c0.2,0,0.4,0,0.6-0.1c-0.1-0.1-0.2-0.3-0.4-0.3c-0.3-0.2-0.7-0.2-1.1-0.2c-0.3,0.1-0.6,0.2-0.9,0.3
					C280.6,415.4,279.6,417.1,279.6,418.9z"/>
				<path class="st6" d="M280,412.7c-0.2-0.1-0.3-0.3-0.2-0.5c0-0.1,0.1-0.2,0.2-0.2c0.4-0.2,0.9-0.2,1.3,0c0.2,0.1,0.3,0.3,0.2,0.5
					c0,0.1-0.1,0.2-0.2,0.2C280.9,413,280.4,413,280,412.7z"/>
				<path class="st7" d="M276.3,417c-0.1,0.7,0.3,1.4,0.8,1.8c0.6,0.3,1.4,0.3,2-0.2c0.3-0.2,0.5-0.4,0.8-0.6l-0.5-0.2
					c-0.2,0.1-0.4,0.3-0.6,0.4c-0.5,0.5-1.3,0.4-1.8-0.1c-0.3-0.3-0.4-0.7-0.3-1.1c0.1-1.6,0.9-3.1,2.3-4c0.3-0.2,0.6-0.3,0.9-0.3
					c0.2,0,0.4,0,0.6,0.1l0,0c0.2,0,0.4,0,0.6-0.1c-0.1-0.1-0.2-0.3-0.4-0.3c-0.3-0.2-0.7-0.2-1.1-0.2c-0.3,0.1-0.6,0.2-0.9,0.3
					C277.4,413.5,276.4,415.2,276.3,417z"/>
				<path class="st6" d="M276.8,410.9c-0.2-0.1-0.3-0.3-0.2-0.5c0-0.1,0.1-0.2,0.2-0.2c0.4-0.2,0.9-0.2,1.3,0
					c0.2,0.1,0.3,0.3,0.2,0.5c0,0.1-0.1,0.2-0.2,0.2C277.7,411.1,277.2,411.1,276.8,410.9z"/>
				<path class="st7" d="M273.1,415.2c-0.2,0.9,0.4,1.8,1.4,2c0.5,0.1,1,0,1.4-0.4c0.3-0.2,0.5-0.4,0.8-0.6l-0.5-0.2
					c-0.2,0.2-0.4,0.3-0.6,0.4c-0.4,0.3-1,0.4-1.5,0.2c-0.4-0.3-0.6-0.8-0.6-1.4c0.1-1.6,0.9-3.1,2.3-4c0.3-0.2,0.6-0.3,0.9-0.3
					c0.2,0,0.4,0,0.6,0.1l0,0c0.2,0,0.4,0,0.6-0.1c-0.1-0.1-0.2-0.3-0.4-0.3c-0.3-0.2-0.7-0.2-1.1-0.2c-0.3,0.1-0.6,0.2-0.9,0.3
					C274.1,411.7,273.2,413.4,273.1,415.2z"/>
				<path class="st6" d="M273.5,409c-0.2-0.1-0.3-0.3-0.2-0.5c0-0.1,0.1-0.2,0.2-0.2c0.4-0.2,0.9-0.2,1.3,0c0.2,0.1,0.3,0.3,0.2,0.5
					c0,0.1-0.1,0.2-0.2,0.2C274.4,409.2,273.9,409.2,273.5,409z"/>
				<path class="st7" d="M269.9,413.3c-0.2,0.9,0.4,1.8,1.4,2c0.5,0.1,1,0,1.4-0.4c0.3-0.2,0.5-0.4,0.8-0.6l-0.4-0.2
					c-0.2,0.2-0.4,0.3-0.6,0.4c-0.4,0.3-1,0.4-1.5,0.2c-0.4-0.3-0.6-0.8-0.6-1.4c0.1-1.6,0.9-3.1,2.3-4c0.3-0.2,0.6-0.3,0.9-0.3
					c0.2,0,0.4,0,0.6,0.1l0,0c0.2,0,0.4,0,0.6-0.1c-0.1-0.1-0.2-0.3-0.4-0.3c-0.3-0.2-0.7-0.2-1.1-0.2c-0.3,0.1-0.6,0.2-0.9,0.3
					C270.9,409.8,269.9,411.5,269.9,413.3z"/>
				<path class="st6" d="M270.3,407.1c-0.2-0.1-0.3-0.3-0.2-0.5c0-0.1,0.1-0.2,0.2-0.2c0.4-0.2,0.9-0.2,1.3,0
					c0.2,0.1,0.3,0.3,0.2,0.5c0,0.1-0.1,0.2-0.2,0.2C271.2,407.3,270.7,407.3,270.3,407.1z"/>
				<path class="st7" d="M266.6,411.4c-0.1,0.7,0.3,1.4,0.8,1.8c0.6,0.3,1.4,0.3,2-0.2c0.3-0.2,0.5-0.4,0.8-0.6l-0.4-0.2
					c-0.2,0.1-0.4,0.3-0.6,0.4c-0.5,0.5-1.3,0.4-1.8,0c-0.3-0.3-0.4-0.7-0.3-1.1c0.1-1.6,0.9-3.1,2.3-4c0.3-0.2,0.6-0.3,0.9-0.3
					c0.2,0,0.4,0,0.6,0.1l0,0c0.2,0,0.4,0,0.6-0.1c-0.1-0.1-0.2-0.3-0.4-0.3c-0.3-0.2-0.7-0.2-1.1-0.2c-0.3,0.1-0.6,0.2-0.9,0.3
					C267.6,408,266.7,409.6,266.6,411.4z"/>
				<path class="st6" d="M267,405.3c-0.2-0.1-0.3-0.3-0.2-0.5c0-0.1,0.1-0.2,0.2-0.2c0.4-0.2,0.9-0.2,1.3,0c0.2,0.1,0.3,0.3,0.2,0.5
					c0,0.1-0.1,0.2-0.2,0.2C267.9,405.5,267.4,405.5,267,405.3z"/>
				<path class="st7" d="M263.4,409.5c-0.1,0.7,0.3,1.4,0.8,1.8c0.6,0.3,1.4,0.3,2-0.2c0.3-0.2,0.5-0.4,0.8-0.6l-0.4-0.2
					c-0.2,0.1-0.4,0.3-0.6,0.4c-0.5,0.5-1.3,0.4-1.8,0c-0.3-0.3-0.4-0.7-0.3-1.1c0.1-1.6,0.9-3.1,2.3-4c0.3-0.2,0.6-0.3,0.9-0.3
					c0.2,0,0.4,0,0.6,0.1l0,0c0.2,0,0.4,0,0.6-0.1c-0.1-0.1-0.2-0.3-0.4-0.3c-0.3-0.2-0.7-0.2-1.1-0.2c-0.3,0.1-0.6,0.2-0.9,0.3
					C264.4,406.1,263.5,407.7,263.4,409.5z"/>
				<path class="st6" d="M263.8,403.4c-0.2-0.1-0.3-0.3-0.2-0.5c0-0.1,0.1-0.2,0.2-0.2c0.4-0.2,0.9-0.2,1.3,0
					c0.2,0.1,0.3,0.3,0.2,0.5c0,0.1-0.1,0.2-0.2,0.2C264.7,403.6,264.2,403.6,263.8,403.4z"/>
				<path class="st7" d="M260.1,407.7c-0.1,0.7,0.3,1.4,0.8,1.8c0.6,0.3,1.4,0.3,2-0.2c0.3-0.2,0.5-0.4,0.8-0.6l-0.4-0.2
					c-0.2,0.1-0.4,0.3-0.6,0.4c-0.5,0.5-1.3,0.4-1.8,0c-0.3-0.3-0.4-0.7-0.3-1.1c0.1-1.6,0.9-3.1,2.3-4c0.3-0.2,0.6-0.3,0.9-0.3
					c0.2,0,0.4,0,0.6,0.1l0,0c0.2,0,0.4,0,0.6-0.1c-0.1-0.1-0.2-0.3-0.4-0.3c-0.3-0.2-0.7-0.2-1.1-0.2c-0.3,0.1-0.6,0.2-0.9,0.3
					C261.2,404.2,260.2,405.9,260.1,407.7z"/>
				<path class="st14" d="M260.1,407.7c-0.1,0.7,0.3,1.4,0.8,1.8c0.6,0.3,1.4,0.3,2-0.2c0.2-0.1,0.3-0.2,0.5-0.4c0,0.2,0,0.4,0,0.6
					c-0.1,0.7,0.3,1.4,0.8,1.8c0.6,0.3,1.4,0.3,2-0.2c0.2-0.1,0.3-0.2,0.5-0.4c0,0.2,0,0.4,0,0.6c-0.1,0.7,0.3,1.4,0.8,1.8
					c0.6,0.3,1.4,0.3,2-0.2c0.2-0.1,0.3-0.2,0.5-0.4c0,0.2,0,0.4,0,0.6c-0.2,0.9,0.4,1.8,1.4,2c0.5,0.1,1,0,1.4-0.4
					c0.2-0.1,0.3-0.2,0.5-0.4c0,0.2,0,0.4,0,0.6c-0.2,0.9,0.4,1.8,1.4,2c0.5,0.1,1,0,1.4-0.4c0.2-0.1,0.3-0.2,0.5-0.4
					c0,0.2,0,0.4,0,0.6c-0.1,0.7,0.3,1.4,0.8,1.8c0.6,0.3,1.4,0.3,2-0.2c0.2-0.1,0.3-0.2,0.5-0.4c0,0.2,0,0.4,0,0.6
					c-0.2,0.9,0.5,1.8,1.4,2c0.5,0.1,1,0,1.4-0.4c0.2-0.1,0.3-0.2,0.5-0.4c0,0.2,0,0.4,0,0.6c-0.2,0.9,0.5,1.8,1.4,2
					c0.5,0.1,1,0,1.4-0.4c0.2-0.1,0.3-0.2,0.5-0.4c0,0.2,0,0.4,0,0.6c-0.1,0.7,0.3,1.4,0.8,1.8c0.6,0.3,1.4,0.2,2-0.2
					c0.2-0.1,0.3-0.2,0.5-0.4c0,0.2,0,0.4,0,0.6c-0.1,0.7,0.3,1.4,0.8,1.8c0.6,0.3,1.4,0.3,2-0.2c0.2-0.1,0.3-0.2,0.5-0.4
					c0,0.2,0,0.4,0,0.6c-0.1,0.7,0.3,1.4,0.8,1.8c0.6,0.3,1.4,0.3,2-0.2c0.2-0.1,0.3-0.2,0.5-0.4c0,0.2,0,0.4,0,0.6
					c-0.1,0.7,0.3,1.4,0.8,1.8c0.6,0.3,1.4,0.3,2-0.2c0.2-0.1,0.3-0.2,0.5-0.4c0,0.2,0,0.4,0,0.6c-0.1,0.7,0.3,1.4,0.8,1.8
					c0.6,0.3,1.4,0.3,2-0.2c0.2-0.1,0.3-0.2,0.5-0.4c0,0.2,0,0.4,0,0.6c0,0.9,0.7,1.7,1.7,1.7c0.2,0,0.4,0,0.7-0.1
					c0.2-0.1,0.3-0.2,0.5-0.4c0,0.2,0,0.4,0,0.6c-0.2,0.9,0.4,1.8,1.4,2c0.5,0.1,1,0,1.4-0.4c0.2-0.1,0.3-0.2,0.5-0.4
					c0,0.2,0,0.4,0,0.6c-0.2,0.9,0.4,1.8,1.4,2c0.5,0.1,1,0,1.4-0.4c0.3-0.2,0.5-0.4,0.8-0.6l-0.5-0.2c-0.2,0.2-0.4,0.3-0.6,0.4
					c-0.4,0.3-1,0.4-1.5,0.2c-0.4-0.3-0.6-0.8-0.6-1.4c0.1-1.6,0.9-3.1,2.3-4c0.3-0.2,0.6-0.3,0.9-0.3c0.2,0,0.4,0,0.6,0.1l0,0
					c0.2,0,0.4,0,0.6-0.1c-0.1-0.1-0.2-0.3-0.4-0.3c-0.3-0.2-0.7-0.2-1.1-0.2c-0.3,0.1-0.6,0.2-0.9,0.3c-1.2,0.8-2.1,2-2.4,3.5
					l-0.2-0.1c-0.2,0.2-0.4,0.3-0.6,0.4c-0.4,0.3-1,0.4-1.5,0.2c-0.4-0.3-0.7-0.8-0.6-1.4c0.1-1.6,0.9-3.1,2.3-4
					c0.3-0.2,0.6-0.3,0.9-0.3c0.2,0,0.4,0,0.6,0.1l0,0c0.2,0,0.4,0,0.6-0.1c-0.1-0.1-0.2-0.3-0.4-0.3c-0.3-0.2-0.7-0.2-1.1-0.2
					c-0.3,0.1-0.6,0.2-0.9,0.3c-1.2,0.8-2.1,2-2.4,3.5l-0.2-0.1c-0.2,0.2-0.4,0.3-0.6,0.4c-0.4,0.3-1,0.4-1.5,0.2
					c-0.4-0.3-0.7-0.8-0.6-1.4c0.1-1.6,0.9-3.1,2.3-4c0.3-0.2,0.6-0.3,0.9-0.3c0.2,0,0.4,0,0.6,0.1l0,0c0.2,0,0.4,0,0.6-0.1
					c-0.1-0.1-0.2-0.3-0.4-0.3c-0.3-0.2-0.7-0.2-1.1-0.2c-0.3,0.1-0.6,0.2-0.9,0.3c-1.2,0.8-2.1,2-2.4,3.5l-0.2-0.1
					c-0.2,0.1-0.4,0.3-0.6,0.4c-0.5,0.5-1.3,0.5-1.8,0c-0.3-0.3-0.4-0.7-0.3-1.1c0.1-1.6,0.9-3.1,2.3-4c0.3-0.2,0.6-0.3,0.9-0.3
					c0.2,0,0.4,0,0.6,0.1l0,0c0.2,0,0.4,0,0.6-0.1c-0.1-0.1-0.2-0.3-0.4-0.3c-0.3-0.2-0.7-0.2-1.1-0.2c-0.3,0.1-0.6,0.2-0.9,0.3
					c-1.2,0.8-2.1,2-2.4,3.5l-0.2-0.1c-0.2,0.1-0.4,0.3-0.6,0.4c-0.5,0.5-1.3,0.5-1.8,0c-0.3-0.3-0.4-0.7-0.3-1.1
					c0.1-1.6,0.9-3.1,2.3-4c0.3-0.2,0.6-0.3,0.9-0.3c0.2,0,0.4,0,0.6,0.1l0,0c0.2,0,0.4,0,0.6-0.1c-0.1-0.1-0.2-0.3-0.4-0.3
					c-0.3-0.2-0.7-0.2-1.1-0.2c-0.3,0.1-0.6,0.2-0.9,0.3c-1.2,0.8-2.1,2-2.4,3.5l-0.2-0.1c-0.2,0.1-0.4,0.3-0.6,0.4
					c-0.5,0.5-1.3,0.5-1.8,0c-0.3-0.3-0.4-0.7-0.3-1.1c0.1-1.6,0.9-3.1,2.3-4c0.3-0.2,0.6-0.3,0.9-0.3c0.2,0,0.4,0,0.6,0.1l0,0
					c0.2,0,0.4,0,0.6-0.1c-0.1-0.1-0.2-0.3-0.4-0.3c-0.3-0.2-0.7-0.2-1.1-0.2c-0.3,0.1-0.6,0.2-0.9,0.3c-1.2,0.8-2.1,2-2.4,3.5
					l-0.2-0.1c-0.2,0.1-0.4,0.3-0.6,0.4c-0.5,0.5-1.3,0.5-1.8,0c-0.3-0.3-0.4-0.7-0.3-1.1c0.1-1.6,0.9-3.1,2.3-4
					c0.3-0.2,0.6-0.3,0.9-0.3c0.2,0,0.4,0,0.6,0.1l0,0c0.2,0,0.4,0,0.6-0.1c-0.1-0.1-0.2-0.3-0.4-0.3c-0.3-0.2-0.7-0.2-1.1-0.2
					c-0.3,0.1-0.6,0.2-0.9,0.3c-1.2,0.8-2.1,2-2.4,3.5l-0.2-0.1c-0.2,0.1-0.4,0.3-0.6,0.4c-0.5,0.4-1.3,0.3-1.7-0.2
					c-0.2-0.3-0.3-0.7-0.3-1c0.1-1.6,0.9-3.1,2.3-4c0.3-0.2,0.6-0.3,0.9-0.3c0.2,0,0.4,0,0.6,0.1l0,0c0.2,0,0.4,0,0.6-0.1
					c-0.1-0.1-0.2-0.2-0.4-0.3c-0.3-0.2-0.7-0.2-1.1-0.2c-0.3,0.1-0.6,0.2-0.9,0.3c-1.2,0.8-2.1,2-2.4,3.5l-0.2-0.1
					c-0.2,0.1-0.4,0.3-0.6,0.4c-0.5,0.5-1.3,0.4-1.8-0.1c-0.3-0.3-0.4-0.7-0.3-1.1c0.1-1.6,0.9-3.1,2.3-4c0.3-0.2,0.6-0.3,0.9-0.3
					c0.2,0,0.4,0,0.6,0.1l0,0c0.2,0,0.4,0,0.6-0.1c-0.1-0.1-0.2-0.3-0.4-0.3c-0.3-0.2-0.7-0.2-1.1-0.2c-0.3,0.1-0.6,0.2-0.9,0.3
					c-1.2,0.8-2.1,2-2.4,3.5l-0.2-0.1c-0.2,0.1-0.4,0.3-0.6,0.4c-0.5,0.5-1.3,0.4-1.8-0.1c-0.3-0.3-0.4-0.7-0.3-1.1
					c0.1-1.6,0.9-3.1,2.3-4c0.3-0.2,0.6-0.3,0.9-0.3c0.2,0,0.4,0,0.6,0.1l0,0c0.2,0,0.4,0,0.6-0.1c-0.1-0.1-0.2-0.3-0.4-0.3
					c-0.3-0.2-0.7-0.2-1.1-0.2c-0.3,0.1-0.6,0.2-0.9,0.3c-1.2,0.8-2.1,2-2.4,3.5l-0.2-0.1c-0.2,0.1-0.4,0.3-0.6,0.4
					c-0.5,0.5-1.3,0.4-1.8-0.1c-0.3-0.3-0.4-0.7-0.3-1.1c0.1-1.6,0.9-3.1,2.3-4c0.3-0.2,0.6-0.3,0.9-0.3c0.2,0,0.4,0,0.6,0.1l0,0
					c0.2,0,0.4,0,0.6-0.1c-0.1-0.1-0.2-0.3-0.4-0.3c-0.3-0.2-0.7-0.2-1.1-0.2c-0.3,0.1-0.6,0.2-0.9,0.3c-1.2,0.8-2.1,2-2.4,3.5
					l-0.2-0.1c-0.2,0.2-0.4,0.3-0.6,0.4c-0.4,0.3-1,0.4-1.5,0.2c-0.4-0.3-0.6-0.8-0.6-1.4c0.1-1.6,0.9-3.1,2.3-4
					c0.3-0.2,0.6-0.3,0.9-0.3c0.2,0,0.4,0,0.6,0.1l0,0c0.2,0,0.4,0,0.6-0.1c-0.1-0.1-0.2-0.3-0.4-0.3c-0.3-0.2-0.7-0.2-1.1-0.2
					c-0.3,0.1-0.6,0.2-0.9,0.3c-1.2,0.8-2.1,2-2.4,3.5l-0.2-0.1c-0.2,0.2-0.4,0.3-0.6,0.4c-0.4,0.3-1,0.4-1.5,0.2
					c-0.4-0.3-0.6-0.8-0.6-1.4c0.1-1.6,0.9-3.1,2.3-4c0.3-0.2,0.6-0.3,0.9-0.3c0.2,0,0.4,0,0.6,0.1l0,0c0.2,0,0.4,0,0.6-0.1
					c-0.1-0.1-0.2-0.3-0.4-0.3c-0.3-0.2-0.7-0.2-1.1-0.2c-0.3,0.1-0.6,0.2-0.9,0.3c-1.2,0.8-2.1,2-2.4,3.5l-0.2-0.1
					c-0.2,0.1-0.4,0.3-0.6,0.4c-0.5,0.5-1.3,0.4-1.8,0c-0.3-0.3-0.4-0.7-0.3-1.1c0.1-1.6,0.9-3.1,2.3-4c0.3-0.2,0.6-0.3,0.9-0.3
					c0.2,0,0.4,0,0.6,0.1l0,0c0.2,0,0.4,0,0.6-0.1c-0.1-0.1-0.2-0.3-0.4-0.3c-0.3-0.2-0.7-0.2-1.1-0.2c-0.3,0.1-0.6,0.2-0.9,0.3
					c-1.2,0.8-2.1,2-2.4,3.5l-0.2-0.1c-0.2,0.1-0.4,0.3-0.6,0.4c-0.5,0.5-1.3,0.4-1.8,0c-0.3-0.3-0.4-0.7-0.3-1.1
					c0.1-1.6,0.9-3.1,2.3-4c0.3-0.2,0.6-0.3,0.9-0.3c0.2,0,0.4,0,0.6,0.1l0,0c0.2,0,0.4,0,0.6-0.1c-0.1-0.1-0.2-0.3-0.4-0.3
					c-0.3-0.2-0.7-0.2-1.1-0.2c-0.3,0.1-0.6,0.2-0.9,0.3c-1.2,0.8-2.1,2-2.4,3.5l-0.2-0.1c-0.2,0.1-0.4,0.3-0.6,0.4
					c-0.5,0.5-1.3,0.4-1.8,0c-0.3-0.3-0.4-0.7-0.3-1.1c0.1-1.6,0.9-3.1,2.3-4c0.3-0.2,0.6-0.3,0.9-0.3c0.2,0,0.4,0,0.6,0.1l0,0
					c0.2,0,0.4,0,0.6-0.1c-0.1-0.1-0.2-0.3-0.4-0.3c-0.3-0.2-0.7-0.2-1.1-0.2c-0.3,0.1-0.6,0.2-0.9,0.3
					C260.7,403.8,259.9,405.7,260.1,407.7z"/>
			</g>
		</g>
		<g id="freepik--notebook--inject-26_1_">
			<path class="st7" d="M331.6,380.6L293.2,403l-0.5,0.9v0.7c0,0.4,0.2,0.7,0.5,0.9l50,28.9c0.3,0.1,0.6,0.2,0.9,0.2
				c0.3,0,0.6-0.1,0.9-0.2l37.8-21.8v-0.7L331.6,380.6z"/>
			<path class="st8" d="M331.6,380.6L293.2,403l-0.5,0.9v0.7c0,0.4,0.2,0.7,0.5,0.9l50,28.9c0.3,0.1,0.6,0.2,0.9,0.2
				c0.3,0,0.6-0.1,0.9-0.2l37.8-21.8v-0.7L331.6,380.6z"/>
			<path class="st7" d="M344.1,433.9c-0.3,0-0.6-0.1-0.9-0.2l-50-28.9c-0.5-0.2-0.7-0.8-0.5-1.3c0.1-0.2,0.3-0.4,0.5-0.5l37.2-23.1
				l52.5,31.9L345,433.7C344.7,433.8,344.4,433.9,344.1,433.9z"/>
			<path class="st25" d="M330.4,377.9l-36.9,21.3l-0.2,0.4v4.3l0,0c0,0.2,0.1,0.3,0.2,0.4l50,28.9c0.4,0.2,0.9,0.2,1.2,0l36.9-21.3
				v-4.3L330.4,377.9z"/>
			<path class="st0" d="M344.1,429v4.3c-0.2,0-0.4,0-0.6-0.1l-50-28.9c-0.1-0.1-0.2-0.2-0.2-0.4v-4.3c0,0.2,0.1,0.3,0.2,0.4l50,28.9
				C343.7,429,343.9,429,344.1,429z"/>
			<path class="st7" d="M331.6,378.2L293.2,399l-0.5,0.9v0.7c0,0.4,0.2,0.7,0.5,0.9l50,28.9c0.3,0.1,0.6,0.2,0.9,0.2
				c0.3,0,0.6-0.1,0.9-0.2l37.8-21.8v-0.7L331.6,378.2z"/>
			<path class="st8" d="M331.6,378.2L293.2,399l-0.5,0.9v0.7c0,0.4,0.2,0.7,0.5,0.9l50,28.9c0.3,0.1,0.6,0.2,0.9,0.2
				c0.3,0,0.6-0.1,0.9-0.2l37.8-21.8v-0.7L331.6,378.2z"/>
			<path class="st7" d="M344.1,429.9c-0.3,0-0.6-0.1-0.9-0.2l-50-28.9c-0.3-0.2-0.5-0.5-0.5-0.9c0-0.4,0.2-0.7,0.5-0.9l37.2-21.5
				l52.5,30.3L345,429.6C344.7,429.8,344.4,429.9,344.1,429.9z"/>
			<path class="st10" d="M377,406.8c-0.2,0.1-0.3,0.3-0.2,0.5c0,0.1,0.1,0.2,0.2,0.2c0.4,0.2,0.8,0.2,1.2,0c0.2-0.1,0.3-0.3,0.2-0.5
				c0-0.1-0.1-0.2-0.2-0.2C377.8,406.6,377.4,406.6,377,406.8z"/>
			<path class="st10" d="M373.5,404.8c-0.2,0.1-0.3,0.3-0.2,0.5c0,0.1,0.1,0.2,0.2,0.2c0.4,0.2,0.8,0.2,1.2,0
				c0.2-0.1,0.3-0.3,0.2-0.5c0-0.1-0.1-0.2-0.2-0.2C374.3,404.6,373.8,404.6,373.5,404.8z"/>
			<path class="st10" d="M370,402.8c-0.2,0.1-0.3,0.3-0.2,0.4c0,0.1,0.1,0.2,0.2,0.2c0.4,0.2,0.8,0.2,1.2,0c0.2-0.1,0.3-0.3,0.2-0.4
				c0-0.1-0.1-0.2-0.2-0.2C370.8,402.6,370.4,402.6,370,402.8z"/>
			<path class="st10" d="M366.5,400.7c-0.2,0.1-0.3,0.3-0.2,0.4c0,0.1,0.1,0.2,0.2,0.2c0.4,0.2,0.8,0.2,1.2,0
				c0.2-0.1,0.3-0.3,0.2-0.4c0-0.1-0.1-0.2-0.2-0.2C367.2,400.5,366.8,400.5,366.5,400.7z"/>
			<path class="st10" d="M362.9,398.7c-0.2,0.1-0.3,0.3-0.2,0.5c0,0.1,0.1,0.2,0.2,0.2c0.4,0.2,0.8,0.2,1.2,0
				c0.2-0.1,0.3-0.3,0.2-0.5c0-0.1-0.1-0.2-0.2-0.2C363.7,398.5,363.3,398.5,362.9,398.7z"/>
			<path class="st10" d="M359.4,396.7c-0.2,0.1-0.3,0.3-0.2,0.5c0,0.1,0.1,0.2,0.2,0.2c0.4,0.2,0.8,0.2,1.2,0
				c0.2-0.1,0.3-0.3,0.2-0.5c0-0.1-0.1-0.2-0.2-0.2C360.2,396.5,359.8,396.5,359.4,396.7z"/>
			<path class="st10" d="M355.9,394.6c-0.2,0.1-0.3,0.3-0.2,0.5c0,0.1,0.1,0.2,0.2,0.2c0.4,0.2,0.8,0.2,1.2,0
				c0.2-0.1,0.3-0.3,0.2-0.5c0-0.1-0.1-0.2-0.2-0.2C356.7,394.4,356.3,394.4,355.9,394.6z"/>
			<path class="st10" d="M352.4,392.6c-0.2,0.1-0.3,0.3-0.2,0.5c0,0.1,0.1,0.2,0.2,0.2c0.4,0.2,0.8,0.2,1.2,0
				c0.2-0.1,0.3-0.3,0.2-0.5c0-0.1-0.1-0.2-0.2-0.2C353.2,392.4,352.7,392.4,352.4,392.6z"/>
			<path class="st10" d="M348.9,390.6c-0.2,0.1-0.3,0.3-0.2,0.5c0,0.1,0.1,0.2,0.2,0.2c0.4,0.2,0.8,0.2,1.2,0c0.3-0.2,0.3-0.5,0-0.7
				C349.7,390.4,349.2,390.4,348.9,390.6z"/>
			<path class="st10" d="M345.2,388.5c-0.2,0.1-0.3,0.3-0.2,0.4c0,0.1,0.1,0.2,0.2,0.2c0.4,0.2,0.8,0.2,1.2,0
				c0.2-0.1,0.3-0.3,0.2-0.4c0-0.1-0.1-0.2-0.2-0.2C346,388.3,345.5,388.3,345.2,388.5z"/>
			<path class="st10" d="M341.5,386.3c-0.2,0.1-0.3,0.3-0.2,0.5c0,0.1,0.1,0.2,0.2,0.2c0.4,0.2,0.8,0.2,1.2,0
				c0.2-0.1,0.3-0.3,0.2-0.5c0-0.1-0.1-0.2-0.2-0.2C342.3,386.1,341.8,386.1,341.5,386.3z"/>
			<path class="st10" d="M337.8,384.2c-0.2,0.1-0.3,0.3-0.2,0.5c0,0.1,0.1,0.2,0.2,0.2c0.4,0.2,0.8,0.2,1.2,0
				c0.2-0.1,0.3-0.3,0.2-0.5c0-0.1-0.1-0.2-0.2-0.2C338.6,384,338.1,384,337.8,384.2z"/>
			<path class="st10" d="M334.1,382c-0.2,0.1-0.3,0.3-0.2,0.4c0,0.1,0.1,0.2,0.2,0.2c0.4,0.2,0.8,0.2,1.2,0c0.2-0.1,0.3-0.3,0.2-0.4
				c0-0.1-0.1-0.2-0.2-0.2C334.9,381.9,334.5,381.9,334.1,382z"/>
			<path class="st10" d="M330.4,379.9c-0.2,0.1-0.3,0.3-0.2,0.5c0,0.1,0.1,0.2,0.2,0.2c0.4,0.2,0.8,0.2,1.2,0
				c0.2-0.1,0.3-0.3,0.2-0.5c0-0.1-0.1-0.2-0.2-0.2C331.2,379.7,330.8,379.7,330.4,379.9z"/>
			<path class="st7" d="M380.8,404.6c-0.5-0.3-1.1-0.2-1.6,0.1c-1,0.7-1.7,1.7-2,2.8c0.1,0,0.3,0.1,0.4,0c0.3-1,0.9-1.9,1.8-2.5
				c0.2-0.1,0.5-0.2,0.7-0.2c0.2,0,0.3,0,0.4,0.1c0.4,0.3,0.7,0.9,0.6,1.4c0,0.1,0,0.2,0,0.4l0.4,0.2c0-0.2,0-0.4,0-0.6
				C381.6,405.8,381.3,405.1,380.8,404.6z"/>
			<path class="st10" d="M381.5,407.3c0,0,0,0.1,0,0.1h-0.1L381.5,407.3z"/>
			<path class="st7" d="M377.2,402.6c-0.5-0.3-1.1-0.2-1.6,0.1c-1,0.7-1.7,1.7-2,2.8c0.1,0,0.3,0.1,0.4,0c0.3-1,0.9-1.9,1.8-2.5
				c0.2-0.1,0.5-0.2,0.7-0.2c0.1,0,0.3,0,0.4,0.1c0.4,0.4,0.7,0.9,0.6,1.5c0,0.1,0,0.2,0,0.4l0.4,0.2c0-0.2,0-0.4,0-0.6
				C378.1,403.7,377.8,403,377.2,402.6z"/>
			<path class="st7" d="M373.7,400.6c-0.5-0.3-1.1-0.2-1.6,0.1c-1,0.7-1.7,1.7-2,2.8c0.1,0,0.3,0.1,0.4,0c0.3-1,0.9-1.9,1.8-2.5
				c0.2-0.1,0.5-0.2,0.7-0.2c0.1,0,0.3,0,0.4,0.1c0.4,0.4,0.7,0.9,0.6,1.5c0,0.1,0,0.2,0,0.4l0.4,0.2c0-0.2,0-0.4,0-0.6
				C374.6,401.7,374.3,401,373.7,400.6z"/>
			<path class="st7" d="M370.2,398.5c-0.5-0.3-1.1-0.2-1.6,0.1c-1,0.7-1.7,1.7-2,2.8c0.1,0,0.3,0.1,0.4,0c0.3-1,0.9-1.9,1.8-2.5
				c0.2-0.1,0.5-0.2,0.7-0.2c0.1,0,0.3,0,0.4,0.1c0.4,0.3,0.7,0.9,0.6,1.5c0,0.1,0,0.2,0,0.4l0.4,0.2c0-0.2,0-0.4,0-0.6
				C371.1,399.7,370.8,399,370.2,398.5z"/>
			<path class="st7" d="M366.7,396.5c-0.5-0.3-1.1-0.2-1.6,0.1c-1,0.7-1.7,1.7-2,2.8c0.1,0,0.3,0,0.4,0c0.3-1,0.9-1.9,1.8-2.5
				c0.2-0.1,0.5-0.2,0.7-0.2c0.1,0,0.3,0,0.4,0.1c0.4,0.3,0.7,0.9,0.6,1.5c0,0.1,0,0.2,0,0.3l0.4,0.2c0-0.2,0-0.4,0-0.6
				C367.5,397.6,367.2,396.9,366.7,396.5z"/>
			<path class="st7" d="M363.2,394.5c-0.5-0.2-1.1-0.2-1.6,0.1c-1,0.7-1.7,1.7-2,2.8c0.1,0,0.3,0.1,0.4,0.1c0.3-1,0.9-1.9,1.8-2.5
				c0.2-0.1,0.5-0.2,0.7-0.2c0.1,0,0.3,0,0.4,0.1c0.4,0.3,0.7,0.9,0.6,1.5c0,0.1,0,0.2,0,0.3l0.4,0.2c0-0.2,0-0.4,0-0.6
				C364,395.6,363.7,394.9,363.2,394.5z"/>
			<path class="st7" d="M359.6,392.5c-0.5-0.2-1.1-0.2-1.6,0.1c-1,0.7-1.7,1.7-2,2.8c0.1,0,0.3,0.1,0.4,0.1c0.3-1,0.9-1.9,1.8-2.5
				c0.2-0.1,0.5-0.2,0.7-0.2c0.2,0,0.3,0,0.4,0.1c0.4,0.3,0.7,0.9,0.6,1.4c0,0.1,0,0.2,0,0.4l0.4,0.2c0-0.2,0-0.4,0-0.6
				C360.5,393.6,360.2,392.9,359.6,392.5z"/>
			<path class="st7" d="M356.1,390.4c-0.5-0.3-1.1-0.2-1.6,0.1c-1,0.7-1.7,1.7-2,2.8c0.1,0,0.3,0.1,0.4,0c0.3-1,0.9-1.9,1.8-2.5
				c0.2-0.1,0.5-0.2,0.7-0.2c0.1,0,0.3,0,0.4,0.1c0.4,0.3,0.7,0.9,0.6,1.4c0,0.1,0,0.2,0,0.4l0.4,0.2c0-0.2,0-0.4,0-0.6
				C357,391.5,356.7,390.9,356.1,390.4z"/>
			<path class="st7" d="M352.6,388.4c-0.5-0.3-1.1-0.2-1.6,0.1c-1,0.7-1.7,1.7-2,2.8c0.1,0,0.3,0.1,0.4,0c0.3-1,0.9-1.9,1.8-2.5
				c0.2-0.1,0.5-0.2,0.7-0.2c0.1,0,0.3,0,0.4,0.1c0.4,0.4,0.7,0.9,0.6,1.5c0,0.1,0,0.2,0,0.4l0.4,0.2c0-0.2,0-0.4,0-0.6
				C353.4,389.5,353.2,388.8,352.6,388.4z"/>
			<path class="st7" d="M348.9,386.3c-0.5-0.3-1.1-0.2-1.6,0.1c-1,0.7-1.7,1.7-2,2.8c0.1,0,0.3,0.1,0.4,0c0.3-1,0.9-1.9,1.8-2.5
				c0.2-0.1,0.5-0.2,0.7-0.2c0.1,0,0.3,0,0.4,0.1c0.4,0.4,0.7,0.9,0.6,1.5c0,0.1,0,0.2,0,0.4l0.4,0.2c0-0.2,0-0.4,0-0.6
				C349.8,387.4,349.5,386.7,348.9,386.3z"/>
			<path class="st7" d="M345.2,384.1c-0.5-0.2-1.1-0.2-1.6,0.1c-1,0.7-1.7,1.7-2,2.8c0.1,0.1,0.3,0.1,0.4,0.1c0.3-1,0.9-1.9,1.8-2.5
				c0.2-0.1,0.5-0.2,0.7-0.2c0.1,0,0.3,0,0.4,0.1c0.4,0.3,0.7,0.9,0.6,1.5c0,0.1,0,0.2,0,0.3l0.4,0.2c0-0.2,0-0.4,0-0.6
				C346.1,385.2,345.8,384.6,345.2,384.1z"/>
			<path class="st7" d="M341.5,382c-0.5-0.3-1.1-0.2-1.6,0.1c-1,0.7-1.7,1.7-2,2.8c0.1,0,0.3,0.1,0.4,0c0.3-1,0.9-1.9,1.8-2.5
				c0.2-0.1,0.5-0.2,0.7-0.2c0.2,0,0.3,0,0.4,0.1c0.4,0.3,0.7,0.9,0.6,1.4c0,0.1,0,0.2,0,0.4l0.4,0.2c0-0.2,0-0.4,0-0.6
				C342.4,383.1,342.1,382.4,341.5,382z"/>
			<path class="st7" d="M337.8,379.9c-0.5-0.3-1.1-0.2-1.6,0.1c-1,0.7-1.7,1.7-2,2.8c0.1,0,0.3,0.1,0.4,0c0.3-1,0.9-1.9,1.8-2.5
				c0.2-0.1,0.5-0.2,0.7-0.2c0.1,0,0.3,0,0.4,0.1c0.4,0.3,0.7,0.9,0.6,1.5c0,0.1,0,0.2,0,0.4l0.4,0.2c0-0.2,0-0.4,0-0.6
				C338.7,381,338.4,380.3,337.8,379.9z"/>
			<path class="st7" d="M334.1,377.7c-0.5-0.3-1.1-0.2-1.6,0.1c-1,0.7-1.7,1.7-2,2.8c0.1,0,0.3,0.1,0.4,0c0.3-1,0.9-1.9,1.8-2.5
				c0.2-0.1,0.5-0.2,0.7-0.2c0.1,0,0.3,0,0.4,0.1c0.4,0.3,0.7,0.9,0.6,1.5c0,0.1,0,0.2,0,0.3l0.4,0.2c0-0.2,0-0.4,0-0.6
				C335,378.9,334.7,378.2,334.1,377.7z"/>
			<g class="st16">
				<path d="M380.8,404.6c-0.5-0.3-1.1-0.2-1.6,0.1c-1,0.7-1.7,1.7-2,2.8c0.1,0,0.3,0.1,0.4,0c0.3-1,0.9-1.9,1.8-2.5
					c0.2-0.1,0.5-0.2,0.7-0.2c0.2,0,0.3,0,0.4,0.1c0.4,0.3,0.7,0.9,0.6,1.4c0,0.1,0,0.2,0,0.4l0.4,0.2c0-0.2,0-0.4,0-0.6
					C381.6,405.8,381.3,405.1,380.8,404.6z"/>
				<path d="M377.2,402.6c-0.5-0.3-1.1-0.2-1.6,0.1c-1,0.7-1.7,1.7-2,2.8c0.1,0,0.3,0.1,0.4,0c0.3-1,0.9-1.9,1.8-2.5
					c0.2-0.1,0.5-0.2,0.7-0.2c0.1,0,0.3,0,0.4,0.1c0.4,0.4,0.7,0.9,0.6,1.5c0,0.1,0,0.2,0,0.4l0.4,0.2c0-0.2,0-0.4,0-0.6
					C378.1,403.7,377.8,403,377.2,402.6z"/>
				<path d="M373.7,400.6c-0.5-0.3-1.1-0.2-1.6,0.1c-1,0.7-1.7,1.7-2,2.8c0.1,0,0.3,0.1,0.4,0c0.3-1,0.9-1.9,1.8-2.5
					c0.2-0.1,0.5-0.2,0.7-0.2c0.1,0,0.3,0,0.4,0.1c0.4,0.4,0.7,0.9,0.6,1.5c0,0.1,0,0.2,0,0.4l0.4,0.2c0-0.2,0-0.4,0-0.6
					C374.6,401.7,374.3,401,373.7,400.6z"/>
				<path d="M370.2,398.5c-0.5-0.3-1.1-0.2-1.6,0.1c-1,0.7-1.7,1.7-2,2.8c0.1,0,0.3,0.1,0.4,0c0.3-1,0.9-1.9,1.8-2.5
					c0.2-0.1,0.5-0.2,0.7-0.2c0.1,0,0.3,0,0.4,0.1c0.4,0.3,0.7,0.9,0.6,1.5c0,0.1,0,0.2,0,0.4l0.4,0.2c0-0.2,0-0.4,0-0.6
					C371.1,399.7,370.8,399,370.2,398.5z"/>
				<path d="M366.7,396.5c-0.5-0.3-1.1-0.2-1.6,0.1c-1,0.7-1.7,1.7-2,2.8c0.1,0,0.3,0,0.4,0c0.3-1,0.9-1.9,1.8-2.5
					c0.2-0.1,0.5-0.2,0.7-0.2c0.1,0,0.3,0,0.4,0.1c0.4,0.3,0.7,0.9,0.6,1.5c0,0.1,0,0.2,0,0.3l0.4,0.2c0-0.2,0-0.4,0-0.6
					C367.5,397.6,367.2,396.9,366.7,396.5z"/>
				<path d="M363.2,394.5c-0.5-0.2-1.1-0.2-1.6,0.1c-1,0.7-1.7,1.7-2,2.8c0.1,0,0.3,0.1,0.4,0.1c0.3-1,0.9-1.9,1.8-2.5
					c0.2-0.1,0.5-0.2,0.7-0.2c0.1,0,0.3,0,0.4,0.1c0.4,0.3,0.7,0.9,0.6,1.5c0,0.1,0,0.2,0,0.3l0.4,0.2c0-0.2,0-0.4,0-0.6
					C364,395.6,363.7,394.9,363.2,394.5z"/>
				<path d="M359.6,392.5c-0.5-0.2-1.1-0.2-1.6,0.1c-1,0.7-1.7,1.7-2,2.8c0.1,0,0.3,0.1,0.4,0.1c0.3-1,0.9-1.9,1.8-2.5
					c0.2-0.1,0.5-0.2,0.7-0.2c0.2,0,0.3,0,0.4,0.1c0.4,0.3,0.7,0.9,0.6,1.4c0,0.1,0,0.2,0,0.4l0.4,0.2c0-0.2,0-0.4,0-0.6
					C360.5,393.6,360.2,392.9,359.6,392.5z"/>
				<path d="M356.1,390.4c-0.5-0.3-1.1-0.2-1.6,0.1c-1,0.7-1.7,1.7-2,2.8c0.1,0,0.3,0.1,0.4,0c0.3-1,0.9-1.9,1.8-2.5
					c0.2-0.1,0.5-0.2,0.7-0.2c0.1,0,0.3,0,0.4,0.1c0.4,0.3,0.7,0.9,0.6,1.4c0,0.1,0,0.2,0,0.4l0.4,0.2c0-0.2,0-0.4,0-0.6
					C357,391.5,356.7,390.9,356.1,390.4z"/>
				<path d="M334.1,377.7c-0.5-0.3-1.1-0.2-1.6,0.1c-1,0.7-1.7,1.7-2,2.8c0.1,0,0.3,0.1,0.4,0c0.3-1,0.9-1.9,1.8-2.5
					c0.2-0.1,0.5-0.2,0.7-0.2c0.1,0,0.3,0,0.4,0.1c0.4,0.3,0.7,0.9,0.6,1.5c0,0.1,0,0.2,0,0.3l0.4,0.2c0-0.2,0-0.4,0-0.6
					C335,378.9,334.7,378.2,334.1,377.7z"/>
				<path d="M334.1,377.7c-0.5-0.3-1.1-0.2-1.6,0.1c-1,0.7-1.7,1.7-2,2.8c0.1,0,0.3,0.1,0.4,0c0.3-1,0.9-1.9,1.8-2.5
					c0.2-0.1,0.5-0.2,0.7-0.2c0.1,0,0.3,0,0.4,0.1c0.4,0.3,0.7,0.9,0.6,1.5c0,0.1,0,0.2,0,0.3l0.4,0.2c0-0.2,0-0.4,0-0.6
					C335,378.9,334.7,378.2,334.1,377.7z"/>
				<path d="M334.1,377.7c-0.5-0.3-1.1-0.2-1.6,0.1c-1,0.7-1.7,1.7-2,2.8c0.1,0,0.3,0.1,0.4,0c0.3-1,0.9-1.9,1.8-2.5
					c0.2-0.1,0.5-0.2,0.7-0.2c0.1,0,0.3,0,0.4,0.1c0.4,0.3,0.7,0.9,0.6,1.5c0,0.1,0,0.2,0,0.3l0.4,0.2c0-0.2,0-0.4,0-0.6
					C335,378.9,334.7,378.2,334.1,377.7z"/>
				<path d="M334.1,377.7c-0.5-0.3-1.1-0.2-1.6,0.1c-1,0.7-1.7,1.7-2,2.8c0.1,0,0.3,0.1,0.4,0c0.3-1,0.9-1.9,1.8-2.5
					c0.2-0.1,0.5-0.2,0.7-0.2c0.1,0,0.3,0,0.4,0.1c0.4,0.3,0.7,0.9,0.6,1.5c0,0.1,0,0.2,0,0.3l0.4,0.2c0-0.2,0-0.4,0-0.6
					C335,378.9,334.7,378.2,334.1,377.7z"/>
				<path d="M334.1,377.7c-0.5-0.3-1.1-0.2-1.6,0.1c-1,0.7-1.7,1.7-2,2.8c0.1,0,0.3,0.1,0.4,0c0.3-1,0.9-1.9,1.8-2.5
					c0.2-0.1,0.5-0.2,0.7-0.2c0.1,0,0.3,0,0.4,0.1c0.4,0.3,0.7,0.9,0.6,1.5c0,0.1,0,0.2,0,0.3l0.4,0.2c0-0.2,0-0.4,0-0.6
					C335,378.9,334.7,378.2,334.1,377.7z"/>
				<path d="M334.1,377.7c-0.5-0.3-1.1-0.2-1.6,0.1c-1,0.7-1.7,1.7-2,2.8c0.1,0,0.3,0.1,0.4,0c0.3-1,0.9-1.9,1.8-2.5
					c0.2-0.1,0.5-0.2,0.7-0.2c0.1,0,0.3,0,0.4,0.1c0.4,0.3,0.7,0.9,0.6,1.5c0,0.1,0,0.2,0,0.3l0.4,0.2c0-0.2,0-0.4,0-0.6
					C335,378.9,334.7,378.2,334.1,377.7z"/>
			</g>
		</g>
	</g>
</g>
<g id="freepik--Backpack--inject-26">
	<g id="freepik--backpack--inject-26">
		<path class="st6" d="M108.5,422.5c4-5.4,13.9-18.5,20-29.9c5.6-10.3,2.6-21.2,2.2-27.7c-0.4,18.5-14.2,36.6-27.5,53.3
			c-3.2,4-5.7,3.7-8.3,2.2l-1.5,2.1C93.4,422.5,103,429.2,108.5,422.5z"/>
		<path class="st10" d="M112.6,322.5c-3.2,1.7-8.8,4.7-8.8,4.7l1.9,1.1c0,0,2.7-2.3,4-1.5l18.5,10.7c1.3,0.5,1.9,2.1,1.4,3.4
			c0,0,0,0,0,0c0,0,3-3.3,2-6.7s-1.6-2.9-6.1-5.6S114.7,321.6,112.6,322.5z"/>
		<path class="st6" d="M127.3,344.7c2.5-1.7,4.7-4,4.7-6.7s0.7-5.5-2.3-7.3s-12.1-7.4-14-8.1c-0.9-0.5-2.1-0.5-3,0
			c0,0,0.7-0.3,3,1.1s12.2,6.9,13.3,7.7c1.4,1.2,1.9,3.2,1.3,5c-0.8,1.4-1.8,2.6-3,3.5L127.3,344.7z"/>
		<path class="st7" d="M116.1,326.6c-16.5-9.6-39.6-3.9-51.4,12.6L32,384.7c-0.5,0.6-0.7,1.4-0.7,2.2c0,1.3,0,6.9,0,7.7
			c0,1.3,0.7,2.6,1.9,3.2L86,428.3c2,1.1,4.5,0.6,5.9-1.3l32.7-45.5c4.5-6.1,6.9-13.4,6.9-21c0-1.2,0-5.9,0-7
			C131.7,342.4,125.8,332.1,116.1,326.6z"/>
		<path class="st8" d="M116.1,326.6c-16.5-9.6-39.6-3.9-51.4,12.6L32,384.7c-0.5,0.6-0.7,1.4-0.7,2.2c0,1.3,0,6.9,0,7.7
			c0,1.3,0.7,2.6,1.9,3.2L86,428.3c2,1.1,4.5,0.6,5.9-1.3l32.7-45.5c4.5-6.1,6.9-13.4,6.9-21c0-1.2,0-5.9,0-7
			C131.7,342.4,125.8,332.1,116.1,326.6z"/>
		<path class="st24" d="M32,384.7c-0.5,0.6-0.7,1.4-0.7,2.2c0,1.3,0,6.9,0,7.7c0,1.3,0.7,2.6,1.9,3.2L86,428.3
			c0.9,0.5,1.9,0.7,2.9,0.5V365H46.2L32,384.7z"/>
		<path class="st7" d="M32,384.7l32.7-45.5c11.9-16.5,34.9-22.2,51.5-12.7s20.3,30.7,8.4,47.2l-32.7,45.5c-1.4,1.8-3.9,2.4-5.9,1.3
			l-52.8-30.5c-1.8-1-2.4-3.2-1.5-4.9C31.8,385,31.9,384.9,32,384.7z"/>
		<path class="st31" d="M88.2,420.4c-0.6,0-1.3-0.2-1.8-0.5l-52.8-30.5c-1.4-0.7-1.9-2.4-1.1-3.8c0.1-0.1,0.1-0.3,0.2-0.4l32.7-45.5
			c7.7-10.6,19.9-16.8,33-16.9c6.1,0,12.1,1.5,17.4,4.5c7.3,4.1,12.5,11.2,14.2,19.4c1.9,9-0.2,18.5-6.1,26.6l-32.7,45.5
			C90.5,419.8,89.4,420.4,88.2,420.4z"/>
		<path class="st31" d="M88.2,420.4c1.2,0,2.3-0.6,3.1-1.5l32.7-45.5c3.3-4.4,5.4-9.6,6.4-15c-0.1-0.5-0.2-1-0.3-1.5
			c-1.8-8.2-7-15.3-14.3-19.4c-5.3-3-11.3-4.5-17.4-4.5c-13.1,0.1-25.3,6.4-33,17L36,390.8l50.4,29.1
			C86.9,420.2,87.6,420.4,88.2,420.4z"/>
		<path class="st7" d="M109.5,394.9l-17.6,24.4c-1.4,1.8-3.9,2.4-5.9,1.3l-52.8-30.5c-1.8-0.9-2.4-3.1-1.5-4.9
			c0.1-0.2,0.2-0.3,0.3-0.5l2.1-2.9L86,411.8c2,1.1,4.5,0.6,5.9-1.3l16.6-23.2c6.8-10,9.9-51.8-14.2-65.2c-3.5-2.1-7.3-3.4-11.4-4
			c7.2,0.5,14.1,3.2,19.9,7.6C124.2,341.9,119.5,381.5,109.5,394.9z"/>
		<path class="st7" d="M88.9,412.4c-1,0.2-2,0-2.9-0.5l-52.8-30.5c-1.2-0.6-1.9-1.8-1.9-3.2v8.7c0,1.3,0.7,2.6,1.9,3.2L86,420.6
			c0.9,0.5,1.9,0.7,2.9,0.5L88.9,412.4z"/>
		<path class="st24" d="M88.9,412.4c-1,0.2-2,0-2.9-0.5l-52.8-30.5c-1.2-0.6-1.9-1.8-1.9-3.2v8.7c0,1.3,0.7,2.6,1.9,3.2L86,420.6
			c0.9,0.5,1.9,0.7,2.9,0.5L88.9,412.4z"/>
		<path class="st7" d="M94.3,322.1c-16.4-9.1-27.3-1.8-33.4,11s-9.4,16.8-15.1,24.2L32,376c-1.2,1.6-0.9,3.9,0.7,5.1
			c0.1,0.1,0.3,0.2,0.4,0.3L86,411.8c2,1.1,4.5,0.6,5.9-1.3l16.6-23.2C115.3,377.4,118.4,335.6,94.3,322.1z"/>
		<path class="st26" d="M94.3,322.1c-16.4-9.1-27.3-1.8-33.4,11s-9.4,16.8-15.1,24.2L32,376c-1.2,1.6-0.9,3.9,0.7,5.1
			c0.1,0.1,0.3,0.2,0.4,0.3L86,411.8c2,1.1,4.5,0.6,5.9-1.3l16.6-23.2C115.3,377.4,118.4,335.6,94.3,322.1z"/>
		<path class="st7" d="M95.9,377.5l-37.8-21.8c-2-1.1-4.6-0.6-6,1.2l-9.5,12.7c-0.5,0.6-0.7,1.4-0.8,2.1c0,0.8,0,3.5,0,4.2
			c0,1.3,0.7,2.6,1.9,3.2l38.2,22c2,1.1,4.6,0.6,5.9-1.3l9.2-12.9c0.5-0.6,0.7-1.4,0.7-2.2c0-0.8,0-3.5,0-4.3
			C97.8,379.3,97.1,378.1,95.9,377.5z"/>
		<path class="st8" d="M95.9,377.5l-37.8-21.8c-2-1.1-4.6-0.6-6,1.2l-9.5,12.7c-0.5,0.6-0.7,1.4-0.8,2.1c0,0.8,0,3.5,0,4.2
			c0,1.3,0.7,2.6,1.9,3.2l38.2,22c2,1.1,4.6,0.6,5.9-1.3l9.2-12.9c0.5-0.6,0.7-1.4,0.7-2.2c0-0.8,0-3.5,0-4.3
			C97.8,379.3,97.1,378.1,95.9,377.5z"/>
		<path class="st7" d="M43.8,375L82,397c2,1.1,4.6,0.6,5.9-1.3l9.2-12.8c1.2-1.6,0.9-3.9-0.7-5.1c-0.1-0.1-0.3-0.2-0.4-0.3
			l-37.8-21.8c-2-1.1-4.6-0.6-6,1.2l-9.5,12.7c-1.2,1.5-0.9,3.8,0.6,5C43.4,374.8,43.6,374.9,43.8,375z"/>
		<path class="st32" d="M43.8,375L82,397c2,1.1,4.6,0.6,5.9-1.3l9.2-12.8c1.2-1.6,0.9-3.9-0.7-5.1c-0.1-0.1-0.3-0.2-0.4-0.3
			l-37.8-21.8c-2-1.1-4.6-0.6-6,1.2l-9.5,12.7c-1.2,1.5-0.9,3.8,0.6,5C43.4,374.8,43.6,374.9,43.8,375z"/>
		<path class="st1" d="M51.2,373l-1.1-0.8c-0.8-0.6-2.7-2.1-2.7-4.1c0-1.1,0.9-2.1,2-2.1c0.9,0,1.7,0.6,2,1.4
			c0.4-0.7,1.1-1.2,1.9-1.1c1.1,0,2,1,2,2.1c0,0,0,0,0,0c-0.1,1.9-2.1,3.3-3,3.8L51.2,373z"/>
		<path class="st1" d="M52.9,376.3l0.1-0.9c0.1-0.7,0.4-2.3,1.6-2.9c0.7-0.3,1.5,0,1.9,0.7c0.2,0.5,0.2,1.1-0.2,1.5
			c0.8-0.1,1.4,0.5,1.5,1.3c0,0.6-0.3,1.1-0.8,1.3c-1.2,0.6-2.7-0.2-3.2-0.5L52.9,376.3z"/>
		<polygon class="st3" points="49.9,360 94.9,385.9 95.8,384.7 50.8,358.8 		"/>
		<path class="st6" d="M95.7,385.9H94l-0.8,6.4c0,1.5,3.4,1.5,3.4,0L95.7,385.9z"/>
		<path class="st5" d="M96.3,385.1c0,0.8-0.7,1.5-1.5,1.5c-0.8,0-1.5-0.7-1.5-1.5s0.7-1.5,1.5-1.5c0,0,0,0,0,0
			C95.7,383.7,96.3,384.3,96.3,385.1C96.3,385.1,96.3,385.1,96.3,385.1z"/>
		<path class="st6" d="M88,334.9l-7,4.1c-0.8,0.4-1.1,1.4-0.8,2.2l2.6,6.7c0.4,0.9,1.4,1.4,2.3,1c0,0,0,0,0,0l8-3.2
			c0.9-0.4,1.4-1.4,1-2.3c0,0,0-0.1,0-0.1l-3.6-7.6c-0.4-0.9-1.5-1.3-2.4-0.9C88.1,334.9,88.1,334.9,88,334.9z"/>
		<path class="st5" d="M84.5,347.4c-0.1,0-0.1,0-0.1-0.1l-2.6-6.7c0-0.1,0-0.1,0.1-0.2l7.1-4.1h0.1c0.1,0,0.1,0,0.1,0.1l3.6,7.6
			c0,0,0,0.1,0,0.1c0,0,0,0.1-0.1,0.1L84.5,347.4L84.5,347.4z"/>
		<path class="st7" d="M84.5,343.9L84.5,343.9c-0.4-0.2-0.5-0.6-0.4-0.9l1.4-3.3c0.1-0.4,0.5-0.5,0.9-0.4c0,0,0,0,0,0l0,0
			c0.4,0.2,0.5,0.6,0.4,0.9c0,0,0,0,0,0l-1.4,3.3C85.3,343.9,84.9,344.1,84.5,343.9C84.5,343.9,84.5,343.9,84.5,343.9z"/>
		<path class="st7" d="M87.3,344.9L87.3,344.9c-0.4-0.1-0.5-0.5-0.4-0.9c0,0,0,0,0,0l1.4-3.3c0.1-0.4,0.5-0.5,0.9-0.4c0,0,0,0,0,0
			l0,0c0.4,0.2,0.5,0.6,0.4,0.9c0,0,0,0,0,0l-1.4,3.3C88.1,344.9,87.7,345.1,87.3,344.9C87.3,344.9,87.3,344.9,87.3,344.9z"/>
	</g>
</g>
</svg>
