<?xml version="1.0" encoding="utf-8"?>
<!-- Generator: Adobe Illustrator 25.2.1, SVG Export Plug-In . SVG Version: 6.00 Build 0)  -->
<svg version="1.1" id="Capa_1" xmlns="http://www.w3.org/2000/svg" xmlns:xlink="http://www.w3.org/1999/xlink" x="0px" y="0px"
	 viewBox="0 0 500 500" style="enable-background:new 0 0 500 500;" xml:space="preserve">
<style type="text/css">
	.st0{fill:#EBEBEB;}
	.st1{fill:#E0E0E0;}
	.st2{fill:#F5F5F5;}
	.st3{fill:#FAFAFA;}
	.st4{fill:#FFFFFF;}
	.st5{opacity:0.6;}
	.st6{fill:#263238;}
	.st7{fill:#455A64;}
	.st8{fill:#FAA930;}
	.st9{fill:#FFBE9D;}
	.st10{fill:#EB996E;}
	.st11{opacity:0.3;}
</style>
<g id="freepik--background-complete--inject-88">
	<path class="st0" d="M36.4,327.2c0,0-10.2,7.8-0.4,18.1c0.2,0.2,0.4,0.3,0.7,0.3l89.3-0.5c0,0,7.6-8.6,1.3-18.4L36.4,327.2z"/>
	<path class="st1" d="M106.2,335.3c0,0.1-11.1,0.2-24.8,0.2s-24.8-0.1-24.8-0.2s11.1-0.2,24.8-0.2S106.2,335.2,106.2,335.3z"/>
	<path class="st1" d="M92.3,338.5c0,0.1-5.2,0.2-11.7,0.2s-11.7-0.1-11.7-0.2s5.2-0.2,11.7-0.2C87.1,338.3,92.3,338.4,92.3,338.5z"
		/>
	<path class="st1" d="M115.3,344.7c-0.1,0,0.2-1,0.5-2.7c0.7-4.3,0.7-8.7-0.1-13c-0.3-1.6-0.6-2.7-0.5-2.7c0.1,0.2,0.2,0.4,0.3,0.7
		c0.1,0.4,0.3,1.1,0.5,1.9c1,4.3,1,8.8,0.1,13.1c-0.1,0.7-0.3,1.3-0.5,1.9C115.5,344.3,115.4,344.5,115.3,344.7z"/>
	<path class="st1" d="M122,326.5c0.2,0.2,0.3,0.4,0.4,0.6s0.3,0.5,0.4,0.8c0.2,0.4,0.3,0.7,0.5,1.1c0.4,1,0.6,2,0.9,3
		c0.2,1.2,0.4,2.5,0.4,3.8s-0.1,2.5-0.3,3.8c-0.2,1-0.4,2-0.8,3c-0.1,0.4-0.3,0.8-0.4,1.1c-0.1,0.3-0.2,0.5-0.4,0.8
		c-0.1,0.2-0.2,0.5-0.4,0.7c0,0,0.4-1,1-2.7c0.3-1,0.6-2,0.7-3c0.2-1.2,0.3-2.5,0.3-3.7s-0.1-2.5-0.4-3.7c-0.2-1-0.4-2-0.8-2.9
		C122.4,327.5,121.9,326.5,122,326.5z"/>
	<path class="st1" d="M50.5,344.8c-0.2-0.2-0.3-0.4-0.4-0.6c-0.2-0.2-0.3-0.5-0.4-0.7c-0.2-0.3-0.3-0.7-0.5-1
		c-0.4-0.9-0.7-1.9-0.9-2.8c-0.2-1.2-0.3-2.4-0.3-3.6s0.2-2.4,0.4-3.6c0.2-1,0.5-1.9,0.9-2.8c0.2-0.4,0.4-0.7,0.5-1s0.3-0.5,0.4-0.7
		c0.1-0.2,0.3-0.4,0.4-0.6c0,0-0.5,0.9-1.1,2.4c-0.4,0.9-0.6,1.8-0.9,2.8c-0.2,1.2-0.4,2.3-0.4,3.5s0.1,2.4,0.3,3.5
		c0.2,0.9,0.5,1.9,0.8,2.8C50,343.9,50.6,344.8,50.5,344.8z"/>
	<path class="st1" d="M40.9,347c-0.2-0.2-0.3-0.4-0.5-0.7c-0.2-0.3-0.3-0.6-0.5-0.8c-0.2-0.3-0.4-0.7-0.5-1.1c-0.4-1-0.8-2.1-1-3.2
		c-0.3-1.3-0.5-2.7-0.5-4c0-1.4,0.1-2.7,0.3-4.1c0.2-1.1,0.5-2.2,0.9-3.2c0.1-0.4,0.3-0.8,0.5-1.2c0.1-0.3,0.3-0.6,0.4-0.9
		c0.1-0.2,0.3-0.5,0.4-0.7c0.1,0-0.5,1.1-1.1,2.8c-0.4,1-0.6,2.1-0.8,3.2c-0.2,1.3-0.3,2.7-0.3,4s0.2,2.7,0.5,4
		c0.2,1.1,0.5,2.1,0.9,3.1C40.3,346,40.9,347,40.9,347z"/>
	<path class="st0" d="M122.7,372.2v17.1H89.6v-17.1H122.7z"/>
	<path class="st1" d="M15.9,380.9c0,0.2,0,0.3,0,0.5c0.3,5.2,4.6,9.2,9.8,9.2h98.5v-1.2h-23.4c-4.7,0-8.5-3.8-8.5-8.5l0,0l0,0
		c0-4.7,3.8-8.5,8.5-8.5l0,0h23.4v-1.8l-98.5,0.3c-5.4,0-9.8,4.5-9.8,9.9C15.9,380.7,15.9,380.8,15.9,380.9z"/>
	<path class="st1" d="M122.7,381c0,0.1-6.8,0.2-15.2,0.2s-15.2-0.1-15.2-0.2s6.8-0.2,15.2-0.2S122.7,380.9,122.7,381z"/>
	<path class="st1" d="M122.2,384.8c0,0.1-6.4,0.2-14.4,0.2s-14.4-0.1-14.4-0.2s6.4-0.2,14.4-0.2S122.2,384.7,122.2,384.8z"/>
	<path class="st1" d="M122.7,388.3c0,0.1-5.8,0.2-12.9,0.2s-12.9-0.1-12.9-0.2s5.8-0.2,12.9-0.2
		C116.9,388.2,122.7,388.2,122.7,388.3z"/>
	<path class="st1" d="M122.7,377.5c0,0.1-6.7,0.2-14.9,0.2s-14.9-0.1-14.9-0.2s6.7-0.2,14.9-0.2S122.7,377.4,122.7,377.5z"/>
	<path class="st1" d="M122.2,374c0,0.1-5.9,0.2-13.2,0.2c-7.3,0-13.2-0.1-13.2-0.2s5.9-0.2,13.2-0.2
		C116.3,373.9,122.2,373.9,122.2,374z"/>
	<path class="st2" d="M27.8,371c-0.8,0.8-1.4,1.6-2.1,2.5c-1.5,2.2-2.2,4.7-2.2,7.4c0.1,2.6,0.9,5.1,2.4,7.2
		c0.7,0.9,1.4,1.7,2.1,2.4c-0.3-0.2-0.5-0.3-0.7-0.5c-0.6-0.5-1.2-1.1-1.6-1.8c-3.4-4.4-3.4-10.5-0.2-14.9c0.5-0.7,1-1.3,1.6-1.8
		C27.3,371.4,27.5,371.2,27.8,371z"/>
	<path class="st2" d="M24.4,370.6c-0.8,0.8-1.5,1.6-2.1,2.5c-3.1,4.4-3,10.3,0.2,14.6c0.7,0.9,1.4,1.7,2.1,2.4
		c-0.3-0.1-0.5-0.3-0.7-0.5c-0.6-0.5-1.2-1.1-1.6-1.8c-3.4-4.4-3.4-10.5-0.2-15c0.5-0.7,1-1.3,1.6-1.8C24,371,24.2,370.8,24.4,370.6
		z"/>
	<path class="st2" d="M91.4,371c-0.8,0.8-1.4,1.6-2.1,2.5c-1.5,2.2-2.2,4.7-2.2,7.4c0.1,2.6,0.9,5.2,2.4,7.3
		c0.7,0.9,1.4,1.7,2.1,2.4c-0.3-0.2-0.5-0.3-0.7-0.5c-0.6-0.5-1.2-1.1-1.6-1.8c-3.4-4.4-3.4-10.5-0.2-14.9c0.5-0.7,1-1.3,1.6-1.8
		C90.9,371.4,91.1,371.2,91.4,371z"/>
	<path class="st2" d="M88,370.6c-0.8,0.8-1.5,1.6-2.1,2.5c-3.1,4.4-3,10.3,0.2,14.6c0.7,0.9,1.4,1.7,2.1,2.4
		c-0.3-0.1-0.5-0.3-0.7-0.5c-0.6-0.5-1.2-1.1-1.6-1.8c-3.4-4.4-3.4-10.5-0.2-15c0.5-0.7,1-1.3,1.6-1.8C87.5,371,87.8,370.8,88,370.6
		z"/>
	<path class="st2" d="M39,383.3c0-2.3,0-4.6-0.1-6.9c0-0.6-0.1-1.2-0.2-1.8c-0.2-0.6-0.7-1-1.3-1.1c-0.9-0.4-2.2,0.3-2.8,1.3
		c-0.5,1.1-0.8,2.2-0.7,3.4c0,1.8,0.1,3.7,0.3,5.5c0,0.9,0.3,1.7,0.6,2.5c0.4,0.8,1.2,1.3,2.1,1.3c0.9-0.2,1.6-0.8,1.9-1.6
		C39,385,39.1,384.1,39,383.3z"/>
	<path class="st2" d="M77.2,381.3c0,0.1-7.1,0.2-15.9,0.2s-15.9-0.1-15.9-0.2s7.1-0.2,15.9-0.2S77.2,381.2,77.2,381.3z"/>
	<polygon class="st2" points="32.4,370.3 32.2,354.1 41,354.1 41.3,370.3 	"/>
	<path class="st1" d="M40.5,357c-1.4,0.2-2.7,0.2-4.1,0.2c-1.4,0.1-2.7,0-4.1-0.2c1.4-0.2,2.7-0.2,4.1-0.2S39.1,356.8,40.5,357z"/>
	<path class="st1" d="M40.5,359.5c-1.4,0.2-2.7,0.2-4.1,0.2c-1.4,0.1-2.7,0-4.1-0.2c1.4-0.2,2.7-0.2,4.1-0.2S39.1,359.3,40.5,359.5z
		"/>
	<path class="st1" d="M40.5,362c-1.4,0.2-2.7,0.2-4.1,0.2c-1.4,0.1-2.7,0-4.1-0.2c1.4-0.2,2.7-0.2,4.1-0.2S39.1,361.8,40.5,362z"/>
	<path class="st1" d="M40.5,364.5c-1.4,0.2-2.7,0.2-4.1,0.2c-1.4,0.1-2.7,0-4.1-0.2c1.4-0.2,2.7-0.2,4.1-0.2S39.1,364.3,40.5,364.5z
		"/>
	<path class="st1" d="M40.5,367c-1.4,0.2-2.7,0.2-4.1,0.2c-1.4,0.1-2.7,0-4.1-0.2c1.4-0.2,2.7-0.2,4.1-0.2S39.1,366.8,40.5,367z"/>
	<path class="st0" d="M31.7,353.7h97.7c1.1,5.8,1.1,11.7,0,17.5H32.2V370h5.9c1.6,0,2.8-1.3,2.8-2.8v-9.7c0-1.6-1.3-2.8-2.8-2.8
		h-6.3v-1H31.7z"/>
	<path class="st3" d="M54.8,362.4h1.6c0.1,0,0.1,0,0.2,0c0.1,0.1,0.2,0.2,0.2,0.3v0.1c0,0.1-0.1,0.3-0.1,0.4c-0.2,0.7-0.5,1.3-1,1.8
		c-0.3,0.4-0.8,0.7-1.4,0.7h-0.2c-0.5-0.1-0.9-0.4-1.1-0.8c-0.3-0.6-0.5-1.3-0.5-2c0-0.5,0.1-0.9,0.2-1.4c0.2-0.7,0.5-1.3,1-1.9
		c0.4-0.5,0.9-0.7,1.5-0.8c0.2,0,0.4,0,0.6,0.1c0.5,0.3,0.8,0.7,1,1.2c0,0.1,0,0.1,0,0.2s0,0.1,0,0.2c-0.1,0.1-0.2,0.2-0.3,0.2h-0.1
		c-0.1,0-0.2-0.1-0.2-0.2l0,0c0-0.1-0.1-0.3-0.2-0.4c-0.2-0.3-0.5-0.5-0.8-0.5c-0.2,0-0.4,0.1-0.5,0.2c-0.4,0.3-0.7,0.8-0.9,1.3
		c-0.2,0.6-0.4,1.2-0.4,1.8c0,0.5,0.1,1,0.3,1.4c0.1,0.4,0.5,0.6,0.9,0.6c0.3,0,0.6-0.2,0.8-0.5c0.4-0.4,0.7-1,0.8-1.5
		c-0.8,0-1.1,0-1.2,0c-0.3,0-0.4-0.2-0.4-0.4v-0.1C54.6,362.5,54.7,362.4,54.8,362.4z"/>
	<path class="st3" d="M60.4,359.3v0.1c0.1,0.2,0.4,2.3,1.1,6.1v0.1c0,0.1,0,0.1,0,0.2c-0.1,0.1-0.2,0.2-0.3,0.2l0,0
		c-0.1,0-0.2-0.1-0.3-0.2l-0.4-2h-2l-1,2v0.1c-0.1,0.1-0.2,0.2-0.3,0.2s-0.1,0-0.2-0.1c-0.1-0.1-0.2-0.2-0.1-0.3v-0.1l0.3-0.7
		c1.4-3.1,2.2-4.9,2.5-5.4c0.1-0.1,0.2-0.2,0.3-0.2C60.2,359.1,60.3,359.2,60.4,359.3z M60,360.6l-1.1,2.3h1.5L60,360.6z"/>
	<path class="st3" d="M65.8,365.9h-2.9c-0.1,0-0.1,0-0.2-0.1c-0.1-0.1-0.2-0.2-0.2-0.3l0,0c0-0.1,0.3-2.1,0.8-6c0.8-5.8,0-0.1,0-0.1
		c0-0.1,0.2-0.2,0.3-0.2s0.1,0,0.2,0c0.1,0.1,0.2,0.2,0.2,0.3c0,0.3-0.1,0.8-0.2,1.7c-0.3,2.6-0.5,3.9-0.5,4.1h2.6
		c0.1,0,0.1,0,0.2,0s0.2,0.2,0.2,0.3v0.1C66.2,365.8,66,365.9,65.8,365.9z"/>
	<path class="st3" d="M69.9,359.3v0.1c0.1,0.2,0.4,2.3,1.1,6.1v0.1c0,0.1,0,0.1,0,0.2c-0.1,0.1-0.2,0.2-0.3,0.2h-0.1
		c-0.1,0-0.2-0.1-0.3-0.2l-0.4-2H68l-1,2v0.1c-0.1,0.1-0.2,0.2-0.3,0.2c-0.1,0-0.1,0-0.2-0.1s-0.2-0.2-0.2-0.3v-0.1l0.3-0.7
		c1.4-3.1,2.2-4.9,2.5-5.4c0.1-0.1,0.2-0.2,0.3-0.2C69.7,359.1,69.8,359.2,69.9,359.3z M69.4,360.6l-1.1,2.3h1.5L69.4,360.6z"/>
	<path class="st3" d="M74.6,362.7c0.2,0.6,0.4,1.1,0.5,1.5c0.3,0.8,0.5,1.3,0.5,1.3c0,0.1,0,0.1-0.1,0.2s-0.2,0.2-0.3,0.2
		c-0.1,0-0.3-0.1-0.3-0.2s0-0.1,0-0.2c-0.2-0.4-0.4-1.1-0.8-2.1l-1.7,2.3c-0.1,0.1-0.2,0.2-0.3,0.2c-0.1,0-0.1,0-0.2,0
		c-0.1-0.1-0.2-0.2-0.2-0.3v-0.1c0-0.1,0.1-0.2,0.2-0.3c0.6-0.7,1.2-1.6,1.9-2.6l-0.2-0.6c-0.6-1.7-0.9-2.5-0.9-2.6s0-0.1,0-0.2
		c0.1-0.1,0.2-0.2,0.3-0.2c0.1,0,0.3,0.1,0.3,0.2l1,2.7l2-2.7c0.1-0.1,0.2-0.2,0.3-0.2c0.1,0,0.1,0,0.2,0c0.1,0.1,0.2,0.2,0.2,0.3
		c0,0.1,0,0.1,0,0.2L74.6,362.7z"/>
	<path class="st3" d="M81.9,359.1L81.9,359.1c0.2,0.1,0.3,0.2,0.3,0.3c-0.5,3.8-0.8,5.9-0.8,6.2c-0.1,0.6-0.3,1.1-0.6,1.6
		c-0.7,0.9-1.9,1.2-2.9,0.7c-0.4-0.2-0.8-0.5-1-0.9c0-0.1,0-0.1,0-0.2s0-0.1,0-0.2c0.1-0.1,0.2-0.2,0.3-0.2c0.1,0,0.2,0.1,0.3,0.2
		c0.3,0.5,0.9,0.8,1.5,0.9c0.5,0,0.9-0.2,1.2-0.6c0.4-0.5,0.6-1.2,0.6-1.8c-0.1,0.2-0.3,0.3-0.4,0.5c-0.3,0.2-0.7,0.4-1.1,0.3H79
		c-0.5-0.1-0.9-0.4-1.1-0.8c-0.4-0.6-0.5-1.3-0.5-2c0-0.4,0-0.7,0-1.1c0-0.6,0.2-1.4,0.4-2.5c0-0.2,0.2-0.3,0.3-0.3
		c0.1,0,0.1,0,0.2,0c0.1,0.1,0.2,0.2,0.2,0.3c0,0.5-0.1,0.9-0.2,1.3c-0.1,0.7-0.2,1.4-0.2,2.1c0,0.5,0.1,1.1,0.3,1.6
		c0.2,0.5,0.5,0.7,0.9,0.7h0.1c0.4-0.1,0.7-0.4,0.9-0.7c0.4-0.5,0.6-1,0.7-1.6l0.5-3.3v-0.1C81.4,359.1,81.6,359,81.9,359.1
		C81.8,359.1,81.8,359.1,81.9,359.1z"/>
	<path class="st2" d="M125.8,371.4c-0.1,0-0.2-4-0.2-9s0.1-9,0.2-9s0.2,4,0.2,9C125.9,367.4,125.9,371.4,125.8,371.4z"/>
	<path class="st1" d="M45.8,371.4c-0.1,0-0.2-4-0.2-9s0.1-9,0.2-9s0.2,4,0.2,9S45.9,371.4,45.8,371.4z"/>
	<path class="st2" d="M127.5,371.4c-0.1,0-0.2-4-0.2-9s0.1-9,0.2-9s0.2,4,0.2,9S127.6,371.4,127.5,371.4z"/>
	<path class="st1" d="M44.2,371.4c-0.1,0-0.2-4-0.2-9s0.1-9,0.2-9s0.2,4,0.2,9S44.3,371.4,44.2,371.4z"/>
	<path class="st1" d="M102.1,356.4L102.1,356.4l10.3,8.3l0.1,0.1h-0.1l-1.4,0.4l-8.7,2.3l0,0l-7.9-3.3l-2.2-1l-0.6-0.3l-0.1-0.1l0,0
		l0,0l0.2,0.1l0.6,0.2l2.2,0.9l7.9,3.3l0,0l8.7-2.3l1.4-0.4v0.1L102.1,356.4L102.1,356.4L102.1,356.4"/>
	<polygon class="st1" points="111.5,363.4 112,364 112.8,363.8 112.5,364.5 112.9,365.2 112.1,365.1 111.6,365.6 111.4,364.9 
		110.7,364.6 111.4,364.2 	"/>
	<polygon class="st1" points="101.6,366.7 102,367 102.4,366.9 102.3,367.4 102.5,367.8 102,367.7 101.7,368.1 101.6,367.7 
		101.1,367.5 101.6,367.2 	"/>
	<polygon class="st1" points="90.6,362.2 91.2,362.3 91.6,361.8 91.8,362.4 92.4,362.6 91.8,362.9 91.8,363.5 91.3,363.1 
		90.7,363.3 91,362.7 	"/>
	<polygon class="st1" points="116.1,356.6 116.7,356.6 117.1,356.1 117.3,356.7 117.8,356.9 117.3,357.2 117.3,357.9 116.8,357.5 
		116.2,357.6 116.5,357.1 	"/>
	<polygon class="st1" points="101.6,356.1 102,356.2 102.2,355.9 102.3,356.2 102.7,356.4 102.4,356.6 102.4,357 102.1,356.7 
		101.7,356.8 101.8,356.5 	"/>
	<path class="st1" d="M117,357c0,0-3.3-0.1-7.5-0.2s-7.5-0.4-7.5-0.4s3.3,0.1,7.5,0.2S117,356.9,117,357z"/>
	<path class="st1" d="M120.7,353.5H21.6c-1.3-2.9-1.6-5.7,0-8.2h99.1C122,347.9,122,350.9,120.7,353.5z"/>
	<rect x="42.1" y="347.6" class="st0" width="53.7" height="3"/>
	<path class="st1" d="M25.4,353.6c-0.3-0.3-0.6-0.6-0.8-1c-0.5-0.9-0.8-1.9-0.9-2.9s0-2.1,0.4-3c0.1-0.4,0.3-0.8,0.6-1.1
		c-0.1,0.4-0.2,0.8-0.4,1.2c-0.5,1.9-0.3,4,0.5,5.8C25.1,352.8,25.3,353.2,25.4,353.6z"/>
	<path class="st1" d="M27.6,353.6c-0.3-0.3-0.6-0.6-0.8-1c-1-1.8-1.2-4-0.5-6c0.1-0.4,0.3-0.8,0.6-1.1c-0.1,0.4-0.2,0.8-0.3,1.2
		c-0.3,1-0.4,1.9-0.3,2.9s0.3,1.9,0.8,2.8C27.2,352.8,27.4,353.2,27.6,353.6z"/>
	<path class="st2" d="M116.7,353.4c0.4-1.3,0.6-2.7,0.7-4c0-1.4-0.3-2.7-0.7-4C118.2,347.8,118.2,350.9,116.7,353.4L116.7,353.4z"/>
	<path class="st2" d="M114.9,353.4c-0.1,0,0.3-1.8,0.3-4s-0.4-3.9-0.3-4c0.5,1.3,0.7,2.6,0.7,4S115.4,352.1,114.9,353.4z"/>
	<rect x="14" y="25.5" class="st4" width="204.5" height="225.4"/>
	<path class="st1" d="M218.5,250.9c0-2.2-0.1-90.8-0.3-225.4l0.3,0.3H14l0,0l0.3-0.3c0,83,0,160.4,0,225.4l-0.2-0.3L218.5,250.9
		L14,251.2h-0.2V251c0-65,0-142.4,0-225.4v-0.3h0.3h204.5h0.3v0.2C218.6,160.1,218.5,248.7,218.5,250.9z"/>
	<path class="st0" d="M55,84.2c0,0-16.5-16.2-16.3-16.6s19,10.6,19,10.6L55,84.2"/>
	<path class="st1" d="M49.1,73.1c0.2,0.3,0.3,0.6,0.3,0.9c0,0.7,0,1.5-0.2,2.2c-0.1,0.4-0.1,0.8-0.1,1.2c0,0.3,0.1,0.6,0.2,0.9
		c0.1,0.3,0.3,0.5,0.5,0.8c0,0-0.3-0.2-0.6-0.7c-0.2-0.3-0.3-0.6-0.3-1s0-0.8,0.1-1.2c0.2-0.7,0.3-1.5,0.3-2.2
		C49.2,73.5,49,73.2,49.1,73.1z"/>
	<path class="st1" d="M46.1,71.3c0,0,0.1,0,0.2,0.1c0.1,0.1,0.2,0.3,0.2,0.5s-0.1,0.5-0.2,0.7c-0.1,0.3-0.2,0.5-0.2,0.8
		c-0.1,0.7,0,1.4,0.2,2.1c0,0-0.2-0.2-0.3-0.6c-0.2-0.5-0.2-1.1-0.1-1.6c0.1-0.6,0.4-1.1,0.4-1.5C46.3,71.7,46.2,71.5,46.1,71.3z"/>
	<path class="st1" d="M43.5,69.9c-0.1,0.4-0.2,0.9-0.3,1.3c0,0.5,0.1,0.9,0.1,1.4c-0.3-0.4-0.4-0.9-0.4-1.4
		C42.9,70.7,43.1,70.2,43.5,69.9z"/>
	<path class="st1" d="M41.1,68.7c0,0,0.1,0,0.2,0.2c0.1,0.2,0.1,0.4,0.1,0.6s-0.1,0.4-0.3,0.5c-0.1,0.1-0.2,0.1-0.2,0.1
		s0.2-0.3,0.2-0.7S41.1,68.7,41.1,68.7z"/>
	<path class="st4" d="M48.3,76.7c0,0.1-0.5-0.1-1-0.6c-0.3-0.2-0.5-0.6-0.6-1c0.1,0,0.3,0.4,0.8,0.8C48,76.4,48.4,76.7,48.3,76.7z"
		/>
	<path class="st4" d="M50.6,78.9c0,0.1-0.3,0-0.6-0.3c-0.2-0.3-0.3-0.6-0.2-0.6s0.2,0.2,0.4,0.5C50.4,78.7,50.6,78.8,50.6,78.9z"/>
	<path class="st4" d="M45.1,73.5c-0.1,0-0.4-0.2-0.7-0.6s-0.7-0.6-0.7-0.6s0.4,0.1,0.8,0.5C44.9,73.1,45.1,73.4,45.1,73.5z"/>
	<path class="st4" d="M42.2,70.9c0,0-0.2-0.1-0.3-0.3c-0.1-0.2-0.2-0.4-0.2-0.4c0.1,0,0.2,0.1,0.3,0.3
		C42.2,70.7,42.2,70.9,42.2,70.9z"/>
	<path class="st4" d="M40.3,69.1c0,0.1-0.1,0.1-0.2,0.1C40,69.2,40,69.1,40,69C40,69,40.1,69,40.3,69.1C40.3,69,40.3,69.1,40.3,69.1
		z"/>
	<path class="st1" d="M198.4,168.4c-2.3-0.3-4.7,0-7-0.2c-2.4,0-4.6-1-6.3-2.8c1.9-0.1,3.5-1.2,4.4-2.8c-2.6,1.6-5.9,1.5-8.4-0.3
		c-2.8-2.2-3.7-6.1-6-8.8c-3.3-3.7-8.8-4.5-13.1-1.9l-3,2.8c2.3-0.8,4.9,0.6,6.2,2.6c1.1,2.2,1.7,4.5,1.7,7c0,2.4,0.5,4.8,1.4,7.1
		l1.1-3.2c1.5,3.4,4,6.2,7,8.3c5.6,3.3,12.7,2.3,18.6-0.1c2.5-1,5-2.2,7.7-2.5s5.7,0.6,7,3C207.6,172.1,203.3,169.1,198.4,168.4z"/>
	<path class="st1" d="M61.6,74c1.4-0.7,3-1,4.6-1c0.5,0,1,0.1,1.4-0.2c0.2-0.3,0.3-0.5,0.4-0.9c0.5-1.3,2-2,3.4-2.2
		c1.1-0.1,2.2-0.1,3.3,0.1c0.2,0,0.5,0.1,0.7,0.3c0.1,0.2,0.2,0.5,0.2,0.8c-0.1,1-0.4,2.1-0.8,3c1.3-0.6,2.1-2.2,3.3-2.9
		c1.7-1,3.9-0.4,5.8,0.3c1.5,0.4,2.9,1.1,4.2,2c0.8,0.6,1.5,1.4,2.3,2.1s1.8,1.1,2.8,1.1c-0.3,0.3-0.7,0.6-1.1,0.8
		c1.1,0.5,2.1,1.1,3,1.8c0.9,0.7,1.5,1.8,1.6,3s-0.7,2.3-1.8,2.7l2.6-0.6c1.7,1.5,2.6,3.8,2.2,6.1c0.6-0.2,1.2-0.6,1.7-1
		c-0.4,1.1-0.9,2.1-1.5,3c0.6-0.6,1.6,0,2.2,0.6c0.6,0.7,1.2,1.4,1.8,2.2c0.5,0.9,1.1,1.7,1.8,2.4c0.7,0.7,1.7,1.1,2.7,1.1
		c-0.5,0.4-1.2,0.6-1.8,0.6c-1.1-0.3-2.1-0.6-3.1-1c2.8,2.6,5.1,5.5,7,8.7c2.6,4.8,0.4,9,3.5,10.8c1.5,1.1,3.4,1.6,5.3,1.5l-3.7,1
		l-14.5-9.1L92,98.9L86.8,88l-18.9-9.6l-5.6-0.8L61.6,74z"/>
	<path class="st1" d="M56.5,75c-0.6-0.1-1.2-0.1-1.8,0c-1.1,0.4-2.1,1.1-2.9,2c0.4-0.2,0.9-0.3,1.3-0.2c-2.3,0.9-3.8,3.1-3.8,5.6
		c0,1.2,0.5,2.4,0.4,3.6c0,1.5-0.7,2.9-1.9,3.8c0.8,0.1,1.5-0.2,2.1-0.7c0.5-0.6,0.9-1.2,1.2-1.9c-0.1,0.8-0.3,1.5-0.7,2.1
		c1-0.4,1.4-1.6,1.8-2.6c0.9-1.8,1.9-3.5,3-5.1c1.3-2.1,2.7-2.9,3.6-5.2l0.3-1C58.7,75.3,57.1,75,56.5,75z"/>
	<path class="st0" d="M48.1,142.2c0,0.2,1,16.1,1,16.1l10.9,5.9l1-5.1l-5.6-1.7l-1.6-2.4c-0.7-1.7-1.1-3.5-1.3-5.3
		c0.1-1.6,0.4-3.2,0.7-4.7l1.4-1.3l5.2,0.4l6.9,2.4l7.2-3.6l3.8-10l-9.5,1.2l0.9,2.6l-17.2,1.6L48.1,142.2z"/>
	<path class="st0" d="M128.9,156.4c0.5-0.1,4.6,7.2,4.5,9.2c0,2.1,0.2,5.9,1.3,7.4s14.2,14.2,14.9,15.2s3.7,2.3,4.8,4.4
		c1.1,2.2,3.1,4.6,3,6s-6,21.1-5.8,23.2l7.1-3.5c-0.1-3.6,0.6-7.2,2-10.6c2.3-4.7,6.9-15,6.9-15s-6.7-6.8-8.6-10.3s-2.8-5.3-2.4-7.3
		c1-2.8,2.2-5.4,3.6-8c1.8-3.5,2.4-7.6,1.7-11.5l-1-5.7l-30.9,5.9L128.9,156.4z"/>
	<path class="st2" d="M162.2,151.9c-0.9-2-5.7-8.4-7.5-10.8c-1.8-2.4-8.4-7.7-16.5-9.9s-20.4-8.5-21.2-9.3c-0.8-0.9-3.9-2.7-5.1-5.5
		c-1.3-2.8-7-8.2-10.3-10s-6.3-9.6-8.3-13.3c-1.9-3.7-4.6-8.3-7.6-10.9c-3.1-3-7.1-4.9-11.5-5.5c-3.9-0.5-7.8-0.5-11.6,0
		c0,0,2.1-7.4,1.1-7.3S57,77.2,57,77.2s-7.2,12.6-7.3,14.2s0.7,4.5,0,5.9c-1.3,3.3-2.3,6.7-3.2,10.1c-0.4,1.6-0.1,3.2,0.9,4.5
		c1.3,1.6,3.9,2.7,5.3,1.4s1.1-0.8,1.1-0.8s1.7,0,2-0.5c0.2-1,0.3-2,0.3-3.1c2.1-1.7,4-3.6,5.9-5.5c1.3-1.4,2-2.4,2-2.4
		c0.9-0.3,1.7-0.9,2.3-1.5c0.5-0.9,1-1.8,1.3-2.7c0,0,1.5-0.8,2.1-0.1c1.1,1.1,1.7,2.6,1.6,4.2c-0.1,2.3,0,16.5,0,16.5
		s-3.3,5.2-3.8,8.1c-0.5,2.9-0.4,7.5,0.1,8.7s4.3,5.3,4.9,6c-0.1,0.3-0.3,0.5-0.3,0.5s-12.6,7.8-13.5,8.7s-2.9,5.9-2.9,5.9l4.6,15
		l6.7,6l2.2-6.2c0,0-1.2,1.5-1.7,0.9c-0.5-0.8-0.8-1.7-1-2.7c-2.2-1.8-3.7-4.3-4.2-7.2c-0.2-1.8-0.6-3.6-1-5.3l1.9-3
		c0,0,5.4-1.3,8.3-1.7c1.8-0.3,3.5-1,5-2c0,0,2.7,0.6,4-0.1c1-0.3,2.1-0.6,3.2-0.8l8.4,6.2c0,0,17.9,6.2,24.4,7.8
		c3.8,0.8,7.4,1.9,11,3.2c-0.2,0.7-0.3,1.4-0.2,2.1c0.3,1.8,6.4,19,6.6,20.2c0.1,1.2,2.3,3.7,2.3,6.1c0,2.5,0.8,5.6,0,6.7
		c-0.8,1.2-14.7,16.3-15.5,18.3h7.9c1.5-3.3,3.7-6.2,6.5-8.6c4.1-3.2,12.9-10.4,12.9-10.4s-3.1-9-3.2-13c-0.2-4-0.2-6,1.1-7.7
		c1.1-1.5,9.3-8,11-9.3l0,0l0.1-0.1l0.2-0.1l0,0c1.2-1,2.3-2.1,3.2-3.4c0.8-1.3,1.3-2.7,1.4-4.2C162.3,159,162.8,153.3,162.2,151.9z
		"/>
	<path class="st1" d="M57.6,90.7c-0.9,0-1.9,0.1-2.8,0.2c-0.3,0.1-0.7,0.2-0.9,0.4c-0.2,0.2-0.3,0.5-0.4,0.7
		c-0.1,0.5-0.3,0.8-0.4,0.7c0,0,0.1-0.3,0.2-0.8c0.1-0.3,0.2-0.6,0.4-0.8c0.3-0.3,0.6-0.4,1-0.5c0.7-0.1,1.3-0.1,2-0.1
		C57.1,90.6,57.4,90.7,57.6,90.7z"/>
	<path class="st1" d="M59.2,88.2c0,0-0.3,0.4-0.6,0.8s-0.6,0.8-0.7,0.7c-0.1,0,0.1-0.5,0.5-0.9C58.7,88.4,59.1,88.1,59.2,88.2z"/>
	<path class="st1" d="M49.7,110.9c-0.1,0.3-0.5,0.2-0.7,0.2c-0.3,0-0.5-0.2-0.7-0.4c-0.1-0.3,0-0.6,0.2-0.8c0.2-0.2,0.4-0.5,0.5-0.7
		c0.2-0.4,0.1-0.9,0.3-1.3c0-0.1,0.1-0.2,0.2-0.1l0.1,0.1c0.1,0.2,0.1,0.5,0.1,0.8L49.7,110.9"/>
	<path class="st1" d="M50.9,106.9c0,0,0.1,0,0.2,0.1c0.1,0.1,0.2,0.3,0.2,0.5c0,0.6,0,1.2,0,1.8c0,0.6-0.1,1.2-0.2,1.8
		c0,0.2-0.1,0.4-0.2,0.5c-0.1,0.1-0.2,0.1-0.2,0.1s0.3-1.1,0.3-2.5c0-0.7,0.1-1.4,0.1-1.8C51.1,107.2,51,107.1,50.9,106.9
		C50.9,106.9,50.9,106.9,50.9,106.9z"/>
	<path class="st1" d="M55.1,108.4c-0.1,0.2-0.1,0.4-0.2,0.6c-0.1,0.4-0.3,0.9-0.4,1.4s-0.3,1.1-0.4,1.5c0,0.2-0.1,0.4-0.3,0.6
		c0-0.2,0-0.4,0.1-0.6c0.1-0.4,0.2-0.9,0.3-1.5c0.1-0.5,0.3-1,0.5-1.4C54.9,108.6,55.1,108.4,55.1,108.4z"/>
	<path class="st1" d="M63,87.1c0,0,0.2,0.1,0.4,0.3l1.1,0.8l1.6,1.2c0.7,0.5,1.3,1.1,1.7,1.8c0.4,0.7,0.6,1.5,0.7,2.4
		c0,0.7,0,1.3-0.2,2c-0.1,0.4-0.2,0.9-0.4,1.3c-0.1,0.2-0.1,0.3-0.2,0.4c0,0,0.2-0.7,0.5-1.8c0.1-0.6,0.2-1.3,0.2-1.9
		c0-0.8-0.3-1.5-0.7-2.2c-0.4-0.7-1-1.3-1.6-1.7l-1.6-1.2l-1-0.8C63.2,87.3,63.1,87.2,63,87.1z"/>
	<polygon class="st1" points="69.6,169.9 72.7,171.9 72.7,180.1 67.4,176.3 	"/>
	<path class="st2" d="M63.9,69.5c-1.7,1.7-3.3,3.5-4.7,5.4c-0.6,0.7-1,1.5-1.3,2.4c-0.2,0.9,0.1,1.9,0.9,2.4l0.5-0.3
		c2.1-0.6,3.9-2.1,4.9-4.1C65.1,73.4,65,71.2,63.9,69.5z"/>
	<path class="st1" d="M61.2,78.5c0,0,0.3-0.2,0.8-0.6c0.7-0.6,1.2-1.3,1.6-2.1l0,0c0.4-0.8,0.6-1.6,0.6-2.4c0-0.5,0-1-0.1-1.4
		c-0.1-0.5-0.2-1-0.4-1.5h0.2c-0.2,0.3-0.3,0.6-0.5,0.9c-0.8,1.1-1.6,2.1-2.6,3.1c-0.8,0.8-1.5,1.6-2.1,2.5
		c-0.2,0.3-0.4,0.7-0.5,1.1c-0.1,0.3,0,0.6,0.1,0.9c0.1,0.2,0.2,0.3,0.4,0.4c0.1,0,0.1,0,0.2,0c-0.1,0.1-0.1,0.1-0.2,0.1
		c-0.2,0-0.4-0.2-0.5-0.4c-0.2-0.3-0.2-0.6-0.1-1c0.1-0.4,0.2-0.8,0.4-1.2c0.6-0.9,1.3-1.8,2.1-2.6c0.9-1,1.8-2,2.6-3.1
		c0.2-0.3,0.4-0.6,0.5-0.9l0.1-0.2l0.1,0.2c0.2,0.5,0.4,1,0.4,1.5c0.1,0.5,0.1,1,0.1,1.5s-0.1,0.9-0.2,1.4c-0.1,0.4-0.2,0.8-0.4,1.1
		l0,0c-0.4,0.8-1,1.6-1.7,2.2c-0.2,0.2-0.4,0.3-0.6,0.4S61.2,78.5,61.2,78.5z"/>
	<path class="st1" d="M59.2,148.9l0.3-0.2l0.8-0.6l3.1-2l4.6-3l2.7-1.7c0.5-0.3,1-0.6,1.4-0.9c0.5-0.3,0.8-0.8,1-1.3
		c0.1-0.5,0.1-1.1,0-1.7c-0.1-0.5-0.3-1.1-0.6-1.6c-0.6-0.9-1-1.9-1.4-2.9c-0.2-0.5-0.2-1-0.2-1.5s0.1-0.9,0.3-1.4
		c0.3-0.9,0.6-1.7,0.9-2.4c0.6-1.4,1.2-2.5,1.6-3.3l0.5-0.9c0.1-0.1,0.1-0.2,0.2-0.3c0,0.1-0.1,0.2-0.2,0.3l-0.5,0.9
		c-0.4,0.8-1,1.9-1.6,3.3c-0.3,0.7-0.6,1.5-0.9,2.4c-0.2,0.4-0.2,0.9-0.3,1.3c0,0.5,0.1,1,0.2,1.4c0.4,1,0.9,1.9,1.4,2.8
		c0.3,0.5,0.5,1,0.6,1.6c0.2,0.6,0.2,1.2,0,1.8s-0.6,1.1-1.1,1.4c-0.5,0.3-1,0.6-1.4,0.9l-2.7,1.7l-4.6,2.9l-3.2,1.9l-0.8,0.5
		L59.2,148.9z"/>
	<path class="st1" d="M94.6,135.8c0,0.1,0,0.2-0.1,0.2c0,0.2-0.1,0.4-0.3,0.7c-0.2,0.6-0.6,1.4-1.1,2.5c-0.5,1-1.1,2.2-1.8,3.6
		c-0.4,0.7-0.7,1.3-1.1,2c-0.4,0.8-0.9,1.4-1.6,2c-0.7,0.5-1.5,0.8-2.3,1s-1.6,0.3-2.3,0.4c-0.7,0.1-1.4,0.2-2.1,0.4
		c-0.6,0.2-1.2,0.5-1.7,0.7s-1,0.3-1.5,0.3c-0.4,0-0.8-0.1-1.1-0.2c-0.2-0.1-0.5-0.1-0.7-0.1h-0.2c0,0,0.1,0,0.2-0.1
		c0.2,0,0.5,0,0.7,0.1c0.4,0.1,0.7,0.2,1.1,0.2c0.5,0,1-0.1,1.4-0.3c0.5-0.2,1.1-0.5,1.7-0.7c0.7-0.2,1.4-0.4,2.1-0.5
		s1.5-0.2,2.3-0.4s1.6-0.5,2.2-1s1.1-1.2,1.5-1.9s0.8-1.4,1.1-2c0.7-1.3,1.3-2.5,1.8-3.5s0.9-1.8,1.1-2.4l0.3-0.7
		C94.5,135.9,94.5,135.9,94.6,135.8z"/>
	<path class="st1" d="M148.3,199.9c0-0.1-0.1-0.2-0.1-0.3c-0.1-0.2-0.2-0.5-0.3-0.9c-0.2-0.8-0.6-2-1-3.4c-0.2-0.7-0.5-1.5-0.7-2.4
		c-0.3-0.9-0.5-1.9-0.7-2.8c-0.3-2.1-0.5-4.4-0.7-6.8l0,0c0.3-1.1,0.6-2.2,1-3.2c0.2-0.6,0.5-1.1,0.9-1.5c0.4-0.5,0.8-0.9,1.3-1.3
		l7.3-5.8c1.1-0.9,2.2-1.7,3.2-2.6c0.8-0.8,1.6-1.7,2.2-2.7c0.5-0.8,0.9-1.7,1.1-2.7c0.2-0.7,0.3-1.4,0.4-2.2
		c0.1-0.6,0.1-1.1,0.2-1.4v-0.4c0-0.1,0-0.1,0-0.1s0,0,0,0.1v0.4c0,0.3-0.1,0.8-0.1,1.4c-0.1,0.7-0.2,1.5-0.3,2.2
		c-0.2,1-0.6,1.9-1.1,2.7c-0.2,0.2-0.3,0.5-0.5,0.7s-0.3,0.5-0.5,0.7c-0.4,0.5-0.8,1-1.2,1.4c-1,0.9-2,1.7-3.2,2.6l-7.3,5.8
		c-0.5,0.4-0.9,0.8-1.2,1.3s-0.6,1-0.8,1.5c-0.4,1.1-0.7,2.1-1,3.2l0,0c0.2,2.5,0.4,4.8,0.7,6.8c0.1,1,0.4,1.9,0.7,2.8
		c0.2,0.9,0.5,1.7,0.7,2.4c0.4,1.5,0.7,2.6,1,3.4c0.1,0.4,0.2,0.7,0.2,0.9C148.1,200,148.3,199.9,148.3,199.9z"/>
	<polygon class="st1" points="121,218.9 118.1,223.4 127.9,223.4 128.9,218.9 	"/>
	<path class="st1" d="M53.7,91.5c0.1,0.6,0.6,1.2,1.2,1.4c0.1,0,0.2,0,0.3,0s0.2-0.1,0.2-0.1c0.5-0.5,0.8-1.1,0.7-1.8
		c0-0.1-0.1-0.3-0.2-0.4c-0.1,0-0.1,0-0.2,0c-0.2,0-0.4,0-0.6,0c-0.3,0-0.6,0.1-0.9,0.2C54,91,53.8,91.2,53.7,91.5"/>
	<path class="st1" d="M60.7,76.6c0,0-0.6,0.7-1.3,1.7c-0.3,0.5-0.6,1-0.9,1.6l-0.1,0.2v-0.2c0-0.2-0.1-0.2-0.1-0.3
		c0,0,0.1,0,0.2,0.2h-0.1c0.2-0.6,0.5-1.2,0.8-1.7C59.6,77.6,60.1,77,60.7,76.6z"/>
	<path class="st1" d="M61.6,78c-0.5,0.2-0.9,0.4-1.3,0.7c-0.6,0.5-1.1,1-1.1,1c0.2-0.5,0.6-0.9,1-1.2c0.3-0.2,0.6-0.4,1-0.5
		C61.4,77.9,61.6,77.9,61.6,78z"/>
	<polygon class="st1" points="151.9,219.8 149.5,223.4 158.7,223.6 158.6,218.5 	"/>
	<path class="st1" d="M131.2,178.9c0-0.1-0.1-0.2-0.1-0.3l-0.3-0.8l-1.1-3.1l-0.7-2.1c-0.3-0.8-0.5-1.6-0.8-2.5l-0.4-1.3l-0.2-0.7
		c-0.1-0.2-0.1-0.5-0.2-0.7c-0.1-0.5,0-1,0.1-1.5c0.3-1.6,0.8-3.1,1.5-4.4c0.2-0.4,0.5-0.8,0.7-1.3c0.2-0.4,0.3-0.9,0.4-1.3
		c0.1-0.9,0.1-1.8,0.2-2.6c0-0.8,0-1.6,0-2.2c0-1.1-0.1-2.2-0.3-3.2c-0.1-0.4-0.2-0.7-0.2-0.9s-0.1-0.3-0.1-0.3
		c0.1,0.1,0.1,0.2,0.1,0.3c0.1,0.2,0.2,0.5,0.2,0.9c0.2,1.1,0.4,2.2,0.4,3.3c0,0.7,0,1.4,0,2.2c0,0.9-0.1,1.7-0.2,2.6
		c-0.1,0.5-0.2,0.9-0.4,1.4s-0.4,0.9-0.7,1.3c-0.5,0.9-0.9,1.8-1.1,2.8c-0.1,0.5-0.3,1-0.4,1.5s-0.1,1-0.1,1.5
		c0.2,0.9,0.5,1.9,0.8,2.7c0.3,0.8,0.5,1.7,0.7,2.5c0.3,0.8,0.5,1.5,0.7,2.1c0.4,1.3,0.8,2.3,1,3.1l0.3,0.9
		C131.2,178.6,131.2,178.8,131.2,178.9z"/>
	<path class="st0" d="M155.1,87.1c-0.9-3.5-5-5.9-8.4-4.8c-3,1-5.7,5.1-6,8.5c-0.3-2.5-1.4-4.8-3.1-6.6c-1.9-1.9-4.6-2.7-7.2-2.2
		c-2.7,0.9-4.7,3.4-5.1,6.2c-0.6,2.8-0.1,5.8,1.4,8.3c3.2,4.6,13.5,13.8,13.5,13.8s9.5-9,12.9-14C155.1,93.7,155.8,90.4,155.1,87.1z
		"/>
	<path class="st0" d="M163.1,110.5c-0.6-1.9-2.5-2.9-4.3-2.5c-1.7,0.8-2.9,2.5-3.1,4.4c-0.2-1.3-0.7-2.5-1.6-3.4
		c-1-1-2.4-1.4-3.7-1.1c-1.4,0.5-2.4,1.7-2.6,3.2c-0.3,1.5,0,3,0.7,4.3c1.6,2.4,7,7.1,7,7.1c2.4-2.2,4.6-4.7,6.7-7.2
		C163.1,113.9,163.4,112.1,163.1,110.5z"/>
	<path class="st0" d="M101.9,184.2c-0.6-1.9-2.5-2.9-4.3-2.5c-1.7,0.8-2.9,2.5-3.1,4.4c-0.2-1.3-0.7-2.5-1.6-3.4
		c-1-1-2.4-1.4-3.7-1.1c-1.4,0.5-2.4,1.7-2.6,3.2c-0.3,1.5,0,3,0.7,4.3c1.6,2.4,7,7.1,7,7.1c2.4-2.2,4.6-4.7,6.7-7.2
		C101.9,187.6,102.3,185.9,101.9,184.2z"/>
	<path class="st0" d="M114.4,171.8c-0.4-1.3-1.7-2-3-1.7c-1.2,0.6-2,1.7-2.1,3c-0.1-0.9-0.5-1.7-1.1-2.3c-0.7-0.7-1.6-0.9-2.5-0.8
		c-1,0.3-1.7,1.2-1.8,2.2c-0.2,1,0,2.1,0.5,2.9c1.5,1.8,3,3.4,4.8,4.9c1.6-1.5,3.2-3.2,4.6-5C114.4,174.2,114.7,173,114.4,171.8z"/>
	<path class="st0" d="M97.2,172.7c-0.2-0.6-0.8-1-1.5-0.8c-0.6,0.3-1,0.9-1.1,1.5c-0.1-0.4-0.3-0.8-0.6-1.1
		c-0.3-0.3-0.8-0.5-1.3-0.4c-0.5,0.2-0.8,0.6-0.9,1.1s0,1,0.2,1.5c0.7,0.9,1.5,1.7,2.4,2.4c0.8-0.8,1.6-1.6,2.3-2.5
		C97.2,173.9,97.3,173.3,97.2,172.7z"/>
	<path class="st0" d="M169.1,97c-0.2-0.6-0.8-1-1.5-0.8c-0.6,0.3-1,0.8-1.1,1.5c-0.1-0.4-0.3-0.8-0.6-1.1c-0.3-0.3-0.8-0.5-1.3-0.4
		c-0.5,0.2-0.8,0.6-0.9,1.1c-0.1,0.5,0,1,0.3,1.5c0.7,0.9,1.5,1.7,2.4,2.4c0.8-0.8,1.6-1.6,2.3-2.5C169,98.3,169.2,97.6,169.1,97z"
		/>
	<rect x="95.2" y="19" class="st0" width="42.2" height="11.2"/>
	<polygon class="st0" points="350.8,272.5 342,347.5 390.5,376.9 406.9,376.9 440,347.5 438.4,273.3 	"/>
	<g class="st5">
		<path class="st4" d="M418.5,317.8c-2-4-7.2-5.7-11.5-4.4c-4.3,1.3-7.4,5-9,9.1c-1.6-4.1-4.9-7.8-9.1-9.1s-9.5,0.4-11.5,4.4
			c-1,2.3-1.2,4.8-0.5,7.2c0.7,2.4,1.9,4.6,3.3,6.6c4.6,6.5,10.7,11.9,17.8,15.5l0,0c7.1-3.7,13.2-9,17.8-15.5
			c1.5-2,2.6-4.2,3.3-6.6C419.8,322.6,419.6,320,418.5,317.8z"/>
	</g>
	<path class="st1" d="M397.1,376.6c-0.1,0,0.1-19.2,0.5-42.9c0.4-23.7,0.8-42.8,0.9-42.8s-0.1,19.2-0.5,42.9
		C397.7,357.4,397.2,376.6,397.1,376.6z"/>
	<path class="st1" d="M398.2,324.8c-1.1,0.4-2.3,0.3-3.4-0.1c0.6-0.1,1.1-0.1,1.7,0C397.1,324.6,397.6,324.6,398.2,324.8z"/>
	<path class="st1" d="M403.3,310.3c-0.7,0.8-1.5,1.4-2.5,1.7c-0.9,0.5-1.9,0.8-2.9,0.8c0-0.1,1.3-0.4,2.8-1.1
		C402.2,311.1,403.3,310.2,403.3,310.3z"/>
	<path class="st1" d="M401.2,314.8c0,0.1-0.6,0.1-1.4,0.1c-0.8-0.1-1.4-0.2-1.4-0.3c0-0.1,0.6-0.1,1.4-0.1S401.2,314.7,401.2,314.8z
		"/>
	<path class="st0" d="M326.8,417.2c10.1,5.1,21.6,7.1,32.8,5.6c11.4-1.4,22.7-7.4,28.2-17.6c2.7-5,3.9-10.7,4.8-16.4
		c0.6-4.4,0.4-9-0.7-13.3c-0.6-2.6-1.8-5.1-3.5-7.1c-6.6-8.8-15.5-15.6-25.7-19.7c-16.2-5.3-33.8-4.4-49.3,2.7
		c-7.7,3.6-13.9,9.1-17.1,17.8c-1.1,3.3-1.5,6.9-1,10.3c0.6,5.3,2.4,10.4,5.3,14.9C305,401,310.9,409.1,326.8,417.2z"/>
	<g class="st5">
		<path class="st4" d="M375,387.6c-1.5-9.8-8.5-17.9-16.5-23.9c-8.2-6.2-18-10.8-28.3-11.2c-9.4-0.3-19.3,3.5-25.1,10.8l0,0
			c-4.1,4.8-6.2,12-4.7,18.2s5.2,11.6,9.2,16.6c7,8.3,16.3,14.3,26.6,17.4c10.4,3.3,22.7,1.9,30.8-5.6
			C373.2,404.2,376.1,395.9,375,387.6z"/>
	</g>
	<path class="st0" d="M358.2,387.4c-1.1-3.6-5.4-7.5-9.1-8c-3.9-0.5-7.8,0.1-11.4,1.7c-3.6,1.7-6.2,4.9-7,8.8
		c-0.6,4.1,1.1,8.2,4.4,10.8c3.3,2.5,7.5,3.5,11.5,2.8c3.8-0.6,7.2-2.6,9.5-5.6C358.5,395,359.3,391,358.2,387.4z"/>
	<path class="st0" d="M324.4,388.4c0.3,1.4-0.2,2.8-1.2,3.8s-2.3,1.6-3.7,1.9c-3.1,0.9-6.5,0.8-9-1.4c-1-0.8-1.7-2-1.9-3.2
		c-0.8-4,2.9-6.5,6.4-6.5c2.1,0,4.2,0.5,6.1,1.4c1.6,0.6,2.8,1.9,3.3,3.6C324.4,388.1,324.4,388.2,324.4,388.4z"/>
	<path class="st0" d="M336.6,372.4c-1,0.8-2.3,1.1-3.5,0.7s-2.2-1.1-3.1-2c-2-2-3.5-4.7-2.8-7.6c0.2-1.1,0.8-2.1,1.7-2.9
		c2.8-2.3,6.3-0.5,7.8,2.2c0.9,1.7,1.4,3.5,1.5,5.3c0.2,1.5-0.3,3-1.4,4.1C336.7,372.3,336.7,372.4,336.6,372.4z"/>
	<path class="st0" d="M325,376c0.6-3-1.1-5.7-3.5-7.2c-1.8-1.2-3.9-1.9-6-2.3l0,0c-1.5-0.1-2.9,0.5-3.8,1.7c-0.5,0.7-0.8,1.4-1,2.2
		c-0.2,1.9,0.3,3.8,1.5,5.3s2.8,2.6,4.5,3.3c2.3,1,5.1,1.5,7.1-0.7C324.4,377.7,324.9,376.9,325,376z"/>
	<path class="st1" d="M393,385.6c0-0.2,0-0.5,0-0.7c0-0.5,0.1-1.2,0-2.1c-0.1-2.5-0.5-5.1-1.3-7.5c-1.1-3.6-2.7-7-4.8-10.2
		c-2.4-3.9-5.4-7.5-8.8-10.6c-3.5-3-7.6-5.3-12-6.7c-3.6-1.2-7.3-1.9-11.1-2.2c-3.2-0.3-5.8-0.3-7.6-0.4l-2.1-0.1
		c-0.2,0-0.5,0-0.7-0.1c0.2-0.1,0.5-0.1,0.7-0.1l2.1-0.1c1.8,0,4.4-0.1,7.7,0.2c3.8,0.2,7.6,0.9,11.2,2.1c4.5,1.4,8.6,3.7,12.2,6.8
		c3.5,3.1,6.5,6.8,8.9,10.8c2,3.2,3.6,6.8,4.7,10.4c0.7,2.5,1.1,5,1,7.6c0,0.7,0,1.4-0.1,2.1C393.1,385.1,393.1,385.3,393,385.6z"/>
	<path class="st1" d="M349.4,352.4c0,0,0.1,0,0.2,0l0.6,0.1c0.8,0.2,1.7,0.4,2.5,0.6c3,0.9,5.9,2.1,8.6,3.7c0.9,0.5,1.7,1.1,2.6,1.7
		s1.8,1.3,2.7,2c1.9,1.6,3.7,3.3,5.4,5.2c3.8,4.3,6.6,9.4,8.2,14.9c1.7,5.5,2.4,11.2,2.2,16.9c-0.1,4.7-1.2,9.3-3.3,13.5
		c-0.8,1.6-1.9,3.1-3,4.4c-0.9,1-1.9,1.9-3,2.7c-0.7,0.5-1.4,1-2.1,1.4l-0.6,0.3c-0.1,0.1-0.2,0.1-0.2,0.1l0.2-0.1l0.6-0.3
		c0.7-0.4,1.4-0.9,2.1-1.4c1.1-0.8,2-1.8,2.9-2.8c1.2-1.4,2.2-2.8,3-4.4c2-4.2,3.1-8.7,3.2-13.4c0.2-5.7-0.6-11.3-2.2-16.8
		c-1.6-5.4-4.4-10.5-8.1-14.8c-1.6-1.9-3.4-3.6-5.3-5.2c-0.9-0.8-1.8-1.4-2.7-2s-1.8-1.1-2.6-1.7c-2.7-1.6-5.6-2.8-8.6-3.8
		c-1-0.4-1.9-0.5-2.5-0.7l-0.6-0.2L349.4,352.4z"/>
	<path class="st1" d="M392.7,379.4c-0.4,0.6-0.8,1.1-1.3,1.5c-1.1,1.2-2.3,2.2-3.6,3.1c-1.3,0.9-2.7,1.7-4.2,2.2
		c-0.6,0.3-1.2,0.5-1.9,0.6c0.6-0.3,1.2-0.6,1.8-0.8c1.4-0.6,2.8-1.4,4.1-2.3C389.4,382.4,391.1,381,392.7,379.4z"/>
	<path class="st0" d="M466.4,416.3c-10.1,5.1-21.6,7-32.8,5.6c-11.4-1.4-22.7-7.4-28.2-17.6c-2.7-5-3.9-10.7-4.8-16.4
		c-0.6-4.5-0.4-9,0.7-13.4c0.6-2.6,1.8-5,3.5-7.1c6.5-8.7,14.4-17.1,24.5-21.2c16.7-4,35.6-2.9,50.4,4.1c7.7,3.6,13.9,9.1,17.1,17.8
		c1.1,3.3,1.5,6.9,1,10.3c-0.6,5.3-2.4,10.4-5.3,14.9C488.2,400.1,482.3,408.2,466.4,416.3z"/>
	<g class="st5">
		<path class="st4" d="M418.2,386.7c1.5-9.8,8.5-17.9,16.5-23.9c8.2-6.2,18-10.8,28.3-11.2c9.4-0.3,19.3,3.5,25.1,10.8l0,0
			c4.2,4.9,6.2,12,4.7,18.2s-5.2,11.6-9.2,16.6c-7,8.3-16.3,14.3-26.6,17.4c-10.4,3.3-22.7,1.9-30.8-5.6
			C420,403.4,417.1,395,418.2,386.7z"/>
	</g>
	<path class="st0" d="M435,386.5c1.1-3.6,5.4-7.5,9.1-8c3.9-0.5,7.8,0.1,11.4,1.7c3.6,1.7,6.2,4.9,7,8.8c0.6,4.1-1.1,8.2-4.4,10.8
		c-3.3,2.5-7.5,3.5-11.5,2.8c-3.8-0.6-7.2-2.6-9.5-5.6C434.7,394.1,433.9,390.2,435,386.5z"/>
	<path class="st0" d="M468.8,387.5c-0.3,1.4,0.2,2.8,1.2,3.8s2.3,1.6,3.7,2c3,0.9,6.5,0.8,9-1.4c1-0.8,1.7-2,1.9-3.2
		c0.8-4-2.9-6.4-6.4-6.5c-2.1,0-4.2,0.5-6.1,1.4c-1.6,0.6-2.8,1.9-3.3,3.6C468.9,387.2,468.8,387.4,468.8,387.5z"/>
	<path class="st0" d="M456.6,371.6c1,0.8,2.3,1.1,3.5,0.7s2.3-1.1,3.1-2c2-2,3.5-4.7,2.8-7.6c-0.2-1.1-0.8-2.1-1.7-2.9
		c-2.8-2.3-6.3-0.5-7.8,2.2c-0.9,1.7-1.4,3.5-1.5,5.3c-0.2,1.5,0.3,3,1.4,4.1L456.6,371.6z"/>
	<path class="st0" d="M468.2,375.2c-0.6-3,1.1-5.6,3.5-7.2c1.8-1.2,3.9-1.9,6-2.3l0,0c1.5-0.1,2.9,0.5,3.8,1.7
		c0.5,0.7,0.8,1.4,0.9,2.2c0.2,1.9-0.3,3.8-1.5,5.3s-2.8,2.6-4.5,3.3c-2.3,1-5.1,1.5-7.1-0.7C468.8,376.8,468.3,376,468.2,375.2z"/>
	<path class="st1" d="M400.2,382.8c0-0.2,0-0.4,0-0.6c0-0.4,0-1.1,0.1-1.9c0.2-2.3,0.6-4.5,1.2-6.7c0.9-3.3,2.2-6.4,3.8-9.4
		c2-3.6,4.7-6.9,7.8-9.6c1.6-1.4,3.4-2.7,5.2-3.8c4.6-2.8,9.7-4.7,14.9-5.7c2.2-0.4,4.5-0.8,6.8-0.9c0.8-0.1,1.7-0.1,2.5,0
		c-0.8,0.2-1.6,0.3-2.5,0.3c-1.6,0.2-3.9,0.5-6.7,1.1c-3.3,0.7-6.4,1.8-9.5,3.1c-1.8,0.8-3.5,1.7-5.2,2.7c-1.8,1.1-3.5,2.4-5.1,3.7
		c-3.1,2.7-5.7,5.9-7.7,9.4c-1.7,2.9-3,6-3.9,9.2c-0.6,2.2-1.1,4.4-1.4,6.7C400.4,381.2,400.3,382.1,400.2,382.8z"/>
	<path class="st1" d="M443.8,351.6c0,0-0.1,0-0.2,0.1l-0.6,0.2l-1,0.3c-0.5,0.1-0.9,0.2-1.3,0.4c-2.8,0.9-5.6,2-8.1,3.5
		c-0.8,0.4-1.6,1-2.5,1.5s-1.7,1.2-2.6,1.9s-1.8,1.4-2.6,2.2c-0.4,0.4-0.9,0.8-1.3,1.2l-1.3,1.3c-1.8,1.9-3.3,4-4.7,6.2
		c-4.3,7-6.3,15.1-5.8,23.3c0.1,0.6,0.1,1.2,0.1,1.8c0,0.6,0.2,1.2,0.2,1.8c0.1,1.2,0.4,2.2,0.6,3.3s0.5,2.1,0.9,3.1
		c0.3,1,0.6,1.9,1,2.8c1.1,2.8,2.5,5.4,4.1,7.8c0.3,0.4,0.6,0.8,0.8,1.1l0.6,0.8l0.4,0.5l0.1,0.2c0,0-0.1,0-0.1-0.2
		s-0.2-0.3-0.4-0.5l-0.6-0.8c-0.3-0.4-0.6-0.7-0.8-1.1c-1.7-2.4-3.1-5.1-4.3-7.8c-0.4-0.9-0.7-1.8-1-2.8s-0.6-2-0.9-3.1
		s-0.5-2.2-0.6-3.3c-0.1-0.6-0.2-1.2-0.3-1.8c-0.1-0.6-0.1-1.2-0.2-1.8c-0.2-2.6-0.1-5.2,0.2-7.8c0.4-2.8,1-5.5,1.9-8.2
		c1-2.6,2.2-5.2,3.7-7.5c1.4-2.2,3-4.3,4.8-6.2l1.3-1.3c0.4-0.4,0.9-0.8,1.3-1.2c0.8-0.8,1.8-1.5,2.6-2.2c0.9-0.7,1.8-1.3,2.6-1.8
		c0.9-0.6,1.7-1.1,2.5-1.5c2.6-1.5,5.4-2.6,8.2-3.4c0.4-0.1,0.9-0.3,1.4-0.4l1-0.2l0.6-0.1L443.8,351.6z"/>
	<path class="st1" d="M400.5,378.5c0.5,0.4,1,0.9,1.5,1.3c1.2,1.1,2.4,2.1,3.7,3c1.3,0.9,2.7,1.6,4.2,2.2c0.6,0.2,1.2,0.5,1.8,0.8
		c-0.7-0.1-1.3-0.3-1.9-0.6c-1.5-0.6-3-1.3-4.3-2.2c-1.3-0.9-2.6-1.9-3.7-3.1C401.3,379.6,400.9,379.1,400.5,378.5z"/>
	<path class="st0" d="M434.5,313.7c2.7-4.7,7.9-8.9,7.5-14.3c-0.5-5.8-8.7-12.4-13.3-15.9l6.6-12c15.1,2.1,30.6,12.1,38.3,25.2
		c3.9,6.5,6,13.9,6,21.4c0,7.6-2.8,14.9-7.9,20.6c-2.1,2.3-4.5,4.1-7.3,5.5c-9.1,4.5-21.9,2.7-28.8-4.8c-2.4-2.6-4-5.9-4.6-9.4
		C430.4,324.4,431.7,318.7,434.5,313.7z"/>
	<path class="st1" d="M463.4,344.6c0,0-0.1,0.1-0.2,0.1c-0.2,0.1-0.4,0.2-0.6,0.3c-0.8,0.3-1.7,0.6-2.6,0.9
		c-1.4,0.4-2.8,0.6-4.2,0.8c-1.9,0.2-3.8,0.1-5.7-0.1c-4.9-0.8-9.5-2.8-13.5-5.8c-1.1-0.9-2.2-1.9-3.1-3c-1-1.2-1.7-2.5-2.4-3.8
		c-0.6-1.4-1.1-2.9-1.4-4.4c-0.3-1.6-0.4-3.2-0.3-4.8c0.1-3.2,1-6.3,2.5-9c0.4-0.7,0.7-1.3,1.2-1.9s0.9-1.2,1.4-1.7
		c1-1.1,2-2.1,3-3.1c0.9-0.9,1.8-2,2.5-3.1c0.7-1,1.1-2.2,1.4-3.4c0.3-2.2,0-4.5-0.9-6.5c-0.8-1.7-1.8-3.2-3.1-4.6c-1-1-2-2-3.1-2.9
		l-2.1-1.7c-0.3-0.2-0.5-0.4-0.7-0.6c0.3,0.1,0.5,0.3,0.8,0.5c0.5,0.4,1.2,0.9,2.1,1.6c1.1,0.9,2.2,1.8,3.2,2.9
		c1.3,1.4,2.4,2.9,3.2,4.7c1,2.1,1.4,4.5,1.1,6.8c-0.2,1.3-0.7,2.5-1.4,3.6c-0.8,1.1-1.6,2.2-2.6,3.2s-2,2-2.9,3.1
		c-0.5,0.5-0.9,1.1-1.3,1.7c-2.1,3.1-3.4,6.8-3.5,10.6c-0.1,1.5,0,3.1,0.3,4.6s0.7,2.9,1.3,4.3c0.6,1.3,1.3,2.6,2.2,3.7
		c0.9,1.1,1.9,2,3,2.9c3.8,3,8.3,5,13.1,5.8c1.8,0.3,3.7,0.4,5.6,0.2c1.4-0.2,2.8-0.4,4.2-0.7c0.9-0.2,1.7-0.4,2.6-0.7
		C462.8,344.8,463.1,344.7,463.4,344.6z"/>
	<g class="st5">
		<path class="st4" d="M438.9,321.4c3.2-5.7,10.7-6.4,12.8-5.6c3.9,0.4,7.4,2.7,9.2,6.3c1.9,3.7,1.7,8.1-0.7,11.5
			c-2.5,3.4-7,5-11.2,4.8c-3.4-0.1-6.7-1.5-9.1-3.9C436.6,331.1,436.6,325.5,438.9,321.4z"/>
	</g>
	<path class="st1" d="M441.7,309.2c0.2-0.1,0.3-0.1,0.5-0.2c0.5-0.2,1-0.3,1.5-0.4c1.8-0.4,3.7-0.7,5.6-0.6c1.3,0,2.6,0.2,3.8,0.4
		c1.5,0.3,2.9,0.7,4.3,1.3c6.5,2.5,11.3,8,12.9,14.8c0.4,1.4,0.6,2.9,0.7,4.4c0.1,1.3,0,2.6-0.1,3.9c-0.2,1.9-0.6,3.7-1.3,5.4
		c-0.2,0.5-0.4,0.9-0.6,1.4c-0.1,0.2-0.1,0.3-0.2,0.5c0-0.2,0.1-0.3,0.2-0.5c0.1-0.3,0.4-0.8,0.6-1.4c0.6-1.7,1-3.6,1.2-5.4
		c0.3-2.7,0-5.5-0.7-8.1c-1.7-6.6-6.4-12-12.8-14.5c-2.5-1-5.2-1.6-8-1.7c-1.9-0.1-3.7,0.1-5.6,0.5c-0.6,0.1-1.1,0.3-1.5,0.4
		C442.1,309.2,441.9,309.2,441.7,309.2z"/>
	<path class="st1" d="M469.1,322.6c0-0.1,0.7-0.4,1.4-1.1c0.7-0.7,1-1.5,1.1-1.4c0,0.7-0.3,1.3-0.9,1.7
		C470.4,322.2,469.8,322.5,469.1,322.6z"/>
	<path class="st1" d="M467.2,319.3c-0.1-0.1,0.9-0.7,1.7-1.7s1.3-2,1.4-2c-0.1,0.8-0.5,1.6-1.1,2.2C468.7,318.5,468,319,467.2,319.3
		z"/>
	<path class="st1" d="M447.1,311.7c-0.2-1.5,0.5-2.9,1.8-3.7c0.1,0.1-0.6,0.7-1.1,1.7C447.3,310.8,447.2,311.7,447.1,311.7z"/>
	<path class="st1" d="M443.8,311.9c-0.3-0.5-0.3-1.2-0.1-1.7c0.3-1,1-1.5,1.1-1.4c-0.3,0.5-0.5,1-0.7,1.5
		C443.8,311.1,443.9,311.9,443.8,311.9z"/>
	<path class="st1" d="M451.7,277c0.2,0,0.3,0.1,0.4,0.2c0.4,0.2,0.8,0.3,1.2,0.6c1.5,0.7,2.9,1.6,4.3,2.6
		c7.1,5.2,11.3,13.3,11.5,22.1c0.1,2.5-0.2,5-0.8,7.4c-0.4,1.6-0.9,3.2-1.6,4.8c-0.2,0.5-0.5,0.9-0.6,1.2c-0.1,0.1-0.1,0.3-0.2,0.4
		c0-0.2,0.1-0.3,0.2-0.4c0.1-0.3,0.3-0.7,0.5-1.3c0.6-1.5,1.1-3.1,1.5-4.8c2.4-11-1.7-22.4-10.7-29.2c-1.3-1-2.7-1.9-4.2-2.7
		c-0.5-0.3-0.9-0.5-1.2-0.6C452,277.2,451.9,277.1,451.7,277z"/>
	<path class="st0" d="M333.7,179.5c2.8-2.2,6.1-3.6,9.6-4c8.2-0.8,16.1,3.6,19.8,11l-23.6,27.4c-6.2-3.2-10.7-9-12.2-15.8
		C325.9,191.2,328.4,184.1,333.7,179.5z"/>
	<path class="st1" d="M337,189.9c0.3-1,0.9-1.9,1.7-2.7c3.8-3.9,9.9-4.5,14.3-1.3c0.9,0.6,1.7,1.3,2.2,2.3c-0.1,0.1-0.9-0.9-2.5-1.9
		c-2.1-1.3-4.6-1.9-7-1.7c-2.5,0.3-4.8,1.3-6.6,3C337.7,188.9,337.1,189.9,337,189.9z"/>
	<path class="st0" d="M467.8,187.6c-2.6-2.4-5.8-4-9.3-4.6c-8.2-1.3-16.3,2.5-20.5,9.6l21.7,29c6.4-2.8,11.2-8.3,13.2-15
		C474.7,199.8,472.8,192.5,467.8,187.6z"/>
	<path class="st0" d="M397.4,174.9c0,0-35.1-2.9-53.1,26.4c-12,19.4-12.2,40.3-8.7,50.3c0,0,14.4,38.9,58.8,39c0,0,58.3,0,66.6-49.5
		C468.4,197,424.4,174.5,397.4,174.9z"/>
	<path class="st2" d="M429.4,245.2l-0.1-0.1c-5.3-6.4-12.4-11-20.4-13.3l-2.2-0.6c-4.3-1.3-8.8-1.8-13.3-1.6
		c-5.8,0.2-11.4,1.3-16.9,3.3c-7.8,3-14.9,8.6-18.3,16.3c-3.4,7.7-2.8,17.3,2.6,23.6c4.7,5.4,11.3,8.8,18.2,10.6
		c7.6,1.9,15.5,2.6,23.3,1.9c9.6-0.8,18.6-5,25.3-11.9c3.5-3.8,5.7-8.7,6.2-13.8C434.4,254.4,432.8,249.2,429.4,245.2z"/>
	<path class="st1" d="M408.5,225.3c0,1.5,1.2,2.8,2.7,2.9c1.5,0.1,2.8-1,2.9-2.5v-0.1c0-1.5-1.2-2.8-2.7-2.9
		S408.6,223.8,408.5,225.3L408.5,225.3z"/>
	<path class="st1" d="M372.6,226.4c0,1.5,1.2,2.8,2.7,2.9c1.5,0.1,2.8-1,2.9-2.5c0,0,0,0,0-0.1c0-1.5-1.2-2.8-2.7-2.9
		S372.7,224.9,372.6,226.4L372.6,226.4z"/>
	<ellipse class="st1" cx="394.8" cy="240.6" rx="12" ry="8"/>
	<path class="st1" d="M396,243.4c0,0.4,0,0.8-0.1,1.3c-0.1,0.8-0.1,2-0.2,3.4c0,1.7-0.2,3.4-0.5,5.1c-0.2,1-0.6,2-1.2,2.9
		c-0.6,1-1.4,1.8-2.4,2.4s-2.1,0.9-3.3,0.9c-1,0-2.1-0.1-3.1-0.4c-1.6-0.6-3.1-1.4-4.4-2.6c-0.9-0.8-1.7-1.6-2.5-2.4
		c-0.3-0.3-0.6-0.6-0.8-1c0.4,0.2,0.7,0.5,1,0.8c0.6,0.5,1.5,1.3,2.6,2.2c1.3,1,2.8,1.8,4.4,2.4c1.9,0.6,4,0.4,5.8-0.5
		c1.7-1.1,2.8-2.8,3.3-4.8c0.4-1.6,0.6-3.3,0.7-5c0.1-1.2,0.2-2.3,0.4-3.4C395.7,244.2,395.8,243.8,396,243.4z"/>
	<path class="st1" d="M411.8,253.5c0,0-0.2,0.3-0.7,0.9c-0.6,0.8-1.3,1.5-2.1,2.1c-1.1,1-2.4,1.8-3.7,2.4c-1.7,0.7-3.7,0.8-5.5,0.2
		c-0.9-0.3-1.7-0.9-2.4-1.6c-0.6-0.7-1.1-1.4-1.4-2.2c-0.6-1.4-0.9-2.9-0.8-4.4c0-1,0-2,0.2-3c0.1-0.7,0.2-1.1,0.2-1.1
		c0.1,0.4,0.1,0.7,0.1,1.1c0,0.7,0,1.7,0.1,2.9c0.1,1.4,0.4,2.8,0.9,4.1c0.6,1.6,1.9,2.8,3.5,3.5c1.6,0.5,3.4,0.5,5-0.2
		c1.3-0.5,2.5-1.2,3.6-2.2C410.6,254.6,411.7,253.5,411.8,253.5z"/>
	<path class="st1" d="M399.5,262.9c0.1,0.1-0.3,0.5-1.1,1c-2.2,1.3-4.9,1.5-7.2,0.6c-0.9-0.4-1.4-0.7-1.3-0.8c0-0.1,0.6,0.1,1.5,0.3
		c1.1,0.3,2.3,0.4,3.5,0.3s2.3-0.4,3.4-0.9C398.9,263.1,399.4,262.8,399.5,262.9z"/>
	<path class="st4" d="M394.4,235c0,0.3-0.6,0.5-1.6,0.8c-1.2,0.3-2.4,0.7-3.6,1.2c-1.1,0.5-2.1,1.2-2.9,2c-0.6,0.7-1,1.2-1.2,1.1
		s-0.3-0.8,0.2-1.9c0.7-1.3,1.8-2.4,3.2-3c1.3-0.6,2.7-0.8,4.2-0.8C393.7,234.5,394.4,234.7,394.4,235z"/>
	<path class="st1" d="M376.9,217.6c-0.1,0.5-0.7,0.9-1.6,1.2c-0.9,0.4-2,0.8-3.1,1.2c-1.2,0.5-2.2,1-3.1,1.3s-1.6,0.5-2,0.2
		s-0.3-1.1,0.3-2.1c1.8-2.5,4.8-3.8,7.8-3.2C376.4,216.6,377,217.1,376.9,217.6z"/>
	<path class="st1" d="M420.8,218.2c-0.4,0.3-1.1,0.2-2.1-0.2c-1-0.3-2.2-0.9-3.6-1.3s-2.6-0.8-3.6-1.1s-1.7-0.6-1.8-1.1
		c-0.1-0.5,0.5-1.1,1.8-1.4c1.6-0.4,3.3-0.3,4.8,0.2c1.6,0.5,2.9,1.5,4,2.7C421,217,421.1,217.9,420.8,218.2z"/>
	<path class="st1" d="M463.8,197.7c-0.1,0.1-0.6-1.1-2-2.4c-3.5-3.7-9.1-4.7-13.5-2.2c-1.7,0.9-2.5,1.8-2.6,1.7
		c0.6-0.9,1.4-1.6,2.4-2.1c4.6-2.9,10.7-1.9,14.2,2.3C463,195.7,463.5,196.6,463.8,197.7z"/>
	<path class="st1" d="M459.1,216.4c-0.1,0-0.5-1.5-1.5-4c-0.5-1.4-1.2-2.8-1.9-4.2c-0.9-1.7-1.8-3.3-2.9-4.8s-2.2-3-3.4-4.4
		c-1.1-1.3-2.2-2.4-3.2-3.3c-1.9-1.8-3.1-2.9-3.1-2.9c0.1-0.1,0.4,0.2,1,0.6c0.8,0.6,1.7,1.3,2.4,2c1.2,1,2.3,2.1,3.3,3.3
		c1.3,1.4,2.4,2.9,3.5,4.4c1.1,1.6,2,3.2,2.9,4.9c0.7,1.4,1.3,2.8,1.8,4.3c0.3,1,0.6,2,0.8,3C459.1,215.6,459.1,216,459.1,216.4z"/>
	<path class="st1" d="M341.1,209.5c0-0.4,0.1-0.8,0.2-1.1c0.1-0.4,0.2-0.9,0.4-1.3c0.2-0.5,0.3-1.1,0.6-1.7c0.5-1.5,1.2-2.9,1.9-4.3
		c0.9-1.7,1.9-3.3,3-4.9c1.1-1.6,2.4-3,3.7-4.4c1.1-1.1,2.2-2.2,3.5-3.1c0.5-0.4,1-0.8,1.4-1.1s0.8-0.6,1.1-0.8
		c0.3-0.2,0.7-0.4,1-0.5c0.1,0.1-1.3,1-3.2,2.8c-1.2,1-2.3,2.1-3.3,3.2c-2.6,2.8-4.8,5.8-6.6,9.1c-0.7,1.3-1.4,2.7-2,4.1
		C341.6,208,341.2,209.6,341.1,209.5z"/>
	<path class="st1" d="M443.2,273.4c-0.2,0.3-0.5,0.5-0.8,0.7c-0.5,0.4-1.3,1.1-2.3,1.9c-2.9,2.3-6,4.2-9.2,5.9
		c-4.8,2.5-9.9,4.6-15.1,6c-3.1,0.9-6.2,1.5-9.4,2c-3.4,0.5-6.9,0.8-10.3,0.8c-3.5,0-6.9-0.2-10.3-0.8c-3.2-0.5-6.3-1.2-9.4-2.1
		c-2.8-0.8-5.5-1.7-8.2-2.9c-1.2-0.6-2.5-1.1-3.6-1.6l-1.7-0.8c-0.5-0.3-1.1-0.6-1.6-0.9c-3.2-1.8-6.2-3.9-8.9-6.4l-0.7-0.6
		c-0.2-0.2-0.4-0.4-0.6-0.6l-0.8-0.9c-0.2-0.2-0.5-0.5-0.7-0.8c0.3,0.2,0.5,0.4,0.8,0.7l0.9,0.9c0.2,0.2,0.4,0.4,0.6,0.6l0.7,0.6
		c2.7,2.4,5.7,4.5,8.9,6.2c0.5,0.3,1,0.6,1.6,0.8c0.5,0.3,1.1,0.5,1.7,0.8c1.1,0.5,2.4,1,3.6,1.6c2.7,1.1,5.4,2,8.2,2.8
		c3.1,0.9,6.2,1.5,9.3,2c3.4,0.5,6.8,0.8,10.2,0.8c3.4,0,6.8-0.3,10.2-0.8c3.2-0.5,6.3-1.1,9.3-2c5.2-1.4,10.3-3.4,15.1-5.8
		c3.3-1.6,6.4-3.6,9.3-5.7c1.1-0.7,1.8-1.4,2.4-1.8C442.7,273.7,442.9,273.5,443.2,273.4z"/>
	<path class="st1" d="M394.6,285.6c0-0.1-0.1-0.2-0.1-0.3c0-0.2-0.1-0.6-0.1-1c-0.1-0.9-0.1-2.1-0.2-3.7c-0.1-3.1,0-7.4,0.1-12.2
		c0.1-4.8,0.3-9,0.5-12.1c0.1-1.6,0.2-2.8,0.2-3.7l0.1-1c0-0.1,0-0.2,0-0.4c0,0.1,0,0.2,0,0.4v1l-0.1,3.7c-0.1,3.2-0.2,7.4-0.4,12.1
		c-0.2,4.7-0.2,9-0.2,12.1c0,1.6,0,2.8,0,3.7C394.5,284.6,394.6,285.1,394.6,285.6z"/>
	<path class="st1" d="M339.8,210c-0.1,0-0.2-0.1-0.4-0.2c-0.3-0.2-0.7-0.4-1-0.6c-1.2-0.8-2.3-1.7-3.2-2.7c-1.5-1.5-2.6-3.3-3.5-5.2
		c-3.1-6.8-2.1-14.7,2.7-20.5c0.9-1.1,1.9-2.1,3.1-2.9c0.3-0.2,0.6-0.5,1-0.7c0.1-0.1,0.2-0.2,0.3-0.2c0,0-0.4,0.3-1.2,1
		c-2.7,2.2-4.8,5.1-6,8.4c-1.9,4.8-1.7,10.1,0.5,14.8c0.9,1.9,2,3.6,3.4,5.2c0.9,1,2,2,3.1,2.8C339.3,209.7,339.8,209.9,339.8,210z"
		/>
	<path class="st1" d="M464.3,185.1c0.1,0,0.2,0.1,0.3,0.2c0.3,0.2,0.6,0.4,0.9,0.6c1,0.8,1.9,1.9,2.5,3c0.9,1.7,1.6,3.6,1.9,5.6
		c0.4,2.4,0.3,4.8-0.3,7.1c-0.6,2.3-1.5,4.5-2.8,6.5c-1.1,1.6-2.3,3.1-3.6,4.5c-1.1,1.2-2.1,2.1-2.7,2.8l-0.7,0.8
		c-0.2,0.2-0.3,0.3-0.3,0.2s0.1-0.1,0.2-0.3s0.4-0.5,0.7-0.8l2.6-2.9c1.3-1.4,2.5-2.9,3.5-4.5c1.2-2,2.2-4.2,2.7-6.4
		c0.6-2.3,0.7-4.6,0.3-6.9c-0.3-1.9-0.9-3.7-1.8-5.4c-0.6-1.1-1.4-2.2-2.4-3C464.8,185.3,464.3,185.1,464.3,185.1z"/>
	<path class="st1" d="M395.4,179.1c0,0.2,0,0.3,0,0.5c0,0.4,0,0.8-0.1,1.4c-0.1,1.3-0.2,3.1-0.3,5.3c-0.2,4.4-0.5,10.7-0.6,17.6
		c-0.1,6.9,0,13.1,0.1,17.6c0.1,2.2,0.1,4,0.2,5.3c0,0.6,0,1.1,0,1.4c0,0.2,0,0.3,0,0.5c0-0.2-0.1-0.3-0.1-0.5
		c0-0.4-0.1-0.9-0.1-1.5c-0.1-1.3-0.2-3.1-0.3-5.3c-0.2-4.5-0.3-10.7-0.2-17.6c0.1-6.9,0.4-13.1,0.7-17.6c0.2-2.2,0.3-4.1,0.4-5.3
		c0.1-0.6,0.1-1.1,0.1-1.4C395.3,179.4,395.4,179.2,395.4,179.1z"/>
	<path class="st0" d="M352.6,314.5c-3.2-4.4-8.6-8.6-8.1-14.1c0.5-5.8,8.7-12.4,13.3-15.9l-6.6-12c-15.1,2.1-30.6,12.1-38.3,25.2
		c-3.9,6.5-6,13.9-6,21.4c0,7.6,2.8,14.9,7.9,20.6c2.1,2.2,4.5,4.1,7.3,5.5c9.1,4.5,21.9,2.7,28.8-4.8c2.3-2.5,4.9-6.5,5.4-9.9
		C356.9,325.2,355.8,319,352.6,314.5z"/>
	<path class="st1" d="M354.8,287.1c-0.2,0.2-0.4,0.4-0.7,0.6l-2,1.7c-1,0.9-2,1.8-3,2.8c-1.2,1.3-2.3,2.8-3.1,4.4
		c-1,1.9-1.4,4.1-1.2,6.2c0.1,1.2,0.5,2.3,1.1,3.3c0.6,1.1,1.4,2.1,2.2,3.1c1.8,1.9,4,3.8,5.6,6.3c3.3,5.2,4.1,11.6,2.2,17.5
		c-0.4,1.4-1,2.7-1.8,4c-0.3,0.6-0.7,1.2-1.1,1.8c-0.4,0.5-0.9,1.1-1.3,1.6c-3.2,3.6-7.5,6-12.2,7l-0.7,0.2l-0.7,0.1l-1.4,0.2
		c-0.9,0-1.8,0.1-2.6,0.1l-2.2-0.1l-1.9-0.2l-0.8-0.1l-0.7-0.1l-1.1-0.2c-0.3,0-0.6-0.1-0.9-0.2c0.3,0,0.6,0,0.9,0.1l1.1,0.2
		l0.7,0.1l0.8,0.1l1.9,0.2h2.2c0.8,0,1.6-0.1,2.5-0.2l1.4-0.2l0.7-0.1l0.7-0.2c4.5-1,8.6-3.4,11.8-6.8c0.4-0.5,0.8-1,1.3-1.5
		c0.4-0.5,0.8-1.1,1.1-1.7c0.7-1.2,1.3-2.5,1.7-3.8c0.9-2.8,1.2-5.8,0.8-8.7c-0.4-2.9-1.3-5.7-2.9-8.2c-1.5-2.4-3.6-4.3-5.4-6.2
		c-0.9-1-1.7-2-2.3-3.2c-0.6-1.1-1-2.3-1.1-3.6c-0.1-2.3,0.3-4.5,1.4-6.5c0.8-1.6,1.9-3.1,3.2-4.4c1-1,2-1.9,3.1-2.8
		c0.9-0.7,1.6-1.2,2.1-1.6C354.2,287.4,354.5,287.3,354.8,287.1z"/>
	<g class="st5">
		<path class="st4" d="M347.5,322.5c-3.2-5.7-10.7-6.5-12.8-5.6c-3.9,0.4-7.4,2.7-9.2,6.3c-1.9,3.7-1.7,8.1,0.7,11.5
			c2.5,3.4,7,5,11.2,4.8c3.4-0.1,6.7-1.5,9.1-3.9C349.8,332.1,349.9,326.6,347.5,322.5z"/>
	</g>
	<path class="st1" d="M344.7,310.2c-0.2,0-0.4-0.1-0.5-0.1c-0.3-0.1-0.8-0.2-1.5-0.4c-1.8-0.4-3.7-0.6-5.6-0.5
		c-2.7,0.1-5.4,0.7-8,1.7c-6.3,2.5-11.1,7.9-12.7,14.6c-0.4,1.4-0.6,2.9-0.7,4.3c-0.1,1.3-0.1,2.5,0,3.8c0.2,1.8,0.6,3.7,1.2,5.4
		c0.2,0.6,0.4,1.1,0.6,1.4c0.1,0.2,0.1,0.3,0.2,0.5c-0.1-0.1-0.2-0.3-0.2-0.5c-0.2-0.5-0.4-0.9-0.6-1.4c-0.7-1.8-1.1-3.6-1.2-5.5
		c-0.1-1.3-0.2-2.6-0.1-3.9c0.1-1.5,0.3-2.9,0.7-4.4c1.6-6.7,6.5-12.2,13-14.7c2.6-1.1,5.3-1.6,8.1-1.7c1.9,0,3.7,0.2,5.6,0.6
		c0.5,0.1,1,0.3,1.5,0.4C344.4,310.1,344.5,310.1,344.7,310.2z"/>
	<path class="st1" d="M317.3,323.6c-0.7,0-1.3-0.3-1.7-0.8c-0.5-0.4-0.8-1-0.9-1.7c0.1,0,0.4,0.7,1.1,1.4S317.4,323.5,317.3,323.6z"
		/>
	<path class="st1" d="M319.3,320.3c-0.8-0.3-1.5-0.8-2-1.5c-0.6-0.6-1-1.4-1.1-2.2c0.1,0,0.6,1,1.4,2
		C318.5,319.6,319.4,320.2,319.3,320.3z"/>
	<path class="st1" d="M339.3,312.7c-0.1,0-0.2-0.9-0.7-1.9s-1.2-1.7-1.1-1.8c0.7,0.3,1.2,0.9,1.4,1.6
		C339.4,311.2,339.5,312,339.3,312.7z"/>
	<path class="st1" d="M342.6,312.9c-0.1,0,0-0.8-0.2-1.6c-0.2-0.5-0.4-1-0.7-1.5c0-0.1,0.8,0.4,1.1,1.4
		C343,311.7,342.9,312.4,342.6,312.9z"/>
	<path class="st1" d="M336.9,277.4l-0.4,0.3l-1.2,0.8c-1,0.7-2.5,1.7-4.2,3.1c-2,1.6-3.9,3.4-5.6,5.3c-2.1,2.3-3.9,5-5.4,7.8
		s-2.4,5.8-2.9,8.9c-0.4,2.5-0.4,5.1,0,7.7c0.3,1.7,0.7,3.4,1.4,5c0.5,1.1,0.8,1.7,0.8,1.8c-0.1-0.1-0.2-0.3-0.3-0.4
		c-0.2-0.3-0.4-0.7-0.6-1.3c-0.7-1.6-1.2-3.3-1.5-5c-0.4-2.6-0.5-5.2-0.1-7.8c0.5-3.2,1.5-6.2,2.9-9.1c1.5-2.8,3.3-5.4,5.5-7.8
		c1.8-1.9,3.7-3.7,5.7-5.3c1.4-1.1,2.8-2.1,4.3-3l1.2-0.8C336.6,277.6,336.8,277.5,336.9,277.4z"/>
	
		<rect x="415.6" y="20.8" transform="matrix(1 -5.410415e-03 5.410415e-03 1 -0.2568 2.2796)" class="st1" width="11.2" height="55.6"/>
	<rect x="318.6" y="21" transform="matrix(1 -5.410415e-03 5.410415e-03 1 -0.1918 1.8028)" class="st0" width="29" height="30.7"/>
	
		<rect x="347.4" y="20.8" transform="matrix(1 -5.410415e-03 5.410415e-03 1 -0.1903 1.9586)" class="st2" width="29" height="30.7"/>
	<path class="st1" d="M318.6,29.6c19.2,0.2,38.5,0,57.8-0.3c0.2,0,0.3-0.2,0.2-0.4c0-0.1-0.1-0.2-0.2-0.2c-19.2-0.1-38.5,0-57.8,0.4
		c-0.1,0-0.2,0.2-0.2,0.3C318.4,29.4,318.5,29.5,318.6,29.6z"/>
	
		<rect x="300.6" y="51.2" transform="matrix(1 -5.410415e-03 5.410415e-03 1 -0.3399 1.7696)" class="st0" width="52.6" height="25"/>
	<rect x="352.9" y="51" transform="matrix(1 -5.410415e-03 5.410415e-03 1 -0.338 2.0526)" class="st2" width="52.6" height="25"/>
	<path class="st1" d="M300.5,58.4c35,0.4,70,0,105-0.5c0.2,0,0.3-0.2,0.2-0.4c0-0.1-0.1-0.2-0.2-0.2c-35-0.2-70-0.2-105,0.6
		c-0.1,0-0.3,0.1-0.3,0.3C300.3,58.2,300.4,58.4,300.5,58.4z"/>
	<rect x="280.9" y="76.4" class="st1" width="203.8" height="9"/>
	<rect x="314.2" y="80.7" class="st1" width="8.3" height="14.8"/>
	<rect x="437.7" y="80.7" class="st1" width="8.3" height="14.8"/>
	
		<rect x="426.5" y="0" transform="matrix(1 -5.410415e-03 5.410415e-03 1 -0.2006 2.3384)" class="st0" width="11.2" height="76.5"/>
	
		<rect x="437.8" y="14.3" transform="matrix(1 -5.410415e-03 5.410415e-03 1 -0.2386 2.4164)" class="st2" width="17.4" height="62"/>
	<path class="st1" d="M454.9,26.2c-2.9,0.3-5.8,0.4-8.7,0.3c-2.9,0.1-5.8,0-8.7-0.3C443.3,25.8,449.1,25.8,454.9,26.2z"/>
	<path class="st1" d="M454.9,23.6c-2.9,0.3-5.8,0.4-8.7,0.3c-2.9,0.1-5.8,0-8.7-0.3C443.3,23.2,449.1,23.2,454.9,23.6z"/>
	<path class="st1" d="M454.9,66.9c-5.8,0.4-11.6,0.4-17.4,0C443.3,66.5,449.1,66.5,454.9,66.9z"/>
	<path class="st1" d="M454.9,64.4c-5.8,0.4-11.6,0.4-17.4,0C443.3,64,449.1,64,454.9,64.4z"/>
	<path class="st1" d="M446.5,58.7c-0.2,0-0.3-6.3-0.3-14s0.1-14,0.3-14s0.3,6.2,0.3,14S446.6,58.7,446.5,58.7z"/>
	<rect x="455.1" y="29.5" class="st0" width="18.9" height="46.8"/>
	<path class="st1" d="M435,13.1c0,1.8-1.4,3.2-3.2,3.2c-1.8,0-3.2-1.4-3.2-3.2s1.4-3.2,3.2-3.2l0,0C433.5,9.9,435,11.3,435,13.1
		L435,13.1z"/>
	<rect x="430.8" y="21.9" class="st1" width="2" height="45.5"/>
</g>
<g id="freepik--Floor--inject-88">
	<path class="st6" d="M489.3,420.2c0,0.2-109.1,0.3-243.6,0.3S2,420.3,2,420.2c0-0.2,109.1-0.3,243.6-0.3S489.3,420,489.3,420.2z"/>
</g>
<g id="freepik--Books--inject-88">
	<path class="st7" d="M146.3,420.5H21.6c-2.1-5.6-2.3-10.7,0-15.4h124.7C149.2,409.9,149.2,415.8,146.3,420.5z"/>
	<path class="st2" d="M63.5,409.4h1.3v4.7h2.9v1.1h-4.2C63.5,415.2,63.5,409.4,63.5,409.4z"/>
	<path class="st2" d="M72.3,412.7v2.5h-1.2v-0.6c-0.3,0.4-0.8,0.7-1.3,0.6c-1,0-1.6-0.6-1.6-1.3c0-0.8,0.5-1.3,1.9-1.3h1
		c0-0.5-0.3-0.9-1-0.9c-0.5,0-0.9,0.1-1.3,0.4l-0.5-0.9c0.6-0.4,1.2-0.5,1.9-0.5C71.5,410.7,72.3,411.3,72.3,412.7z M71,413.8v-0.5
		h-0.9c-0.6,0-0.8,0.2-0.8,0.5s0.3,0.5,0.7,0.5C70.5,414.4,70.9,414.2,71,413.8L71,413.8z"/>
	<path class="st2" d="M78,412.7v2.5h-1.3v-2.3c0-0.7-0.3-1-0.9-1s-1.1,0.4-1.1,1.2v2.2h-1.3v-4.4h1.2v0.5c0.4-0.4,0.9-0.6,1.5-0.6
		c1-0.1,1.8,0.6,1.9,1.6C78.1,412.4,78.1,412.5,78,412.7z"/>
	<path class="st2" d="M83.7,410.8v3.7c0.1,1.2-0.7,2.3-1.9,2.4c-0.2,0-0.4,0-0.6,0c-0.8,0-1.5-0.2-2.2-0.6l0.5-0.9
		c0.5,0.3,1,0.5,1.6,0.5c0.9,0,1.3-0.4,1.3-1.2v-0.2c-0.4,0.4-0.9,0.6-1.4,0.6c-1.2,0-2.1-1-2.1-2.1s1-2.1,2.1-2.1l0,0
		c0.6,0,1.1,0.2,1.5,0.6v-0.6L83.7,410.8L83.7,410.8z M82.5,412.8c0-0.6-0.5-1.1-1.1-1.1s-1.1,0.5-1.1,1.1s0.5,1.1,1.1,1.1
		S82.5,413.4,82.5,412.8z"/>
	<path class="st2" d="M89.3,410.8v4.4h-1.2v-0.5c-0.3,0.4-0.8,0.6-1.4,0.6c-1,0.1-1.8-0.6-1.9-1.6c0-0.1,0-0.3,0-0.4v-2.5h1.3v2.3
		c0,0.7,0.3,1.1,0.9,1.1s1-0.4,1-1.2v-2.2L89.3,410.8z"/>
	<path class="st2" d="M94.4,412.7v2.5h-1.2v-0.6c-0.3,0.4-0.8,0.7-1.3,0.6c-1,0-1.6-0.6-1.6-1.3c0-0.8,0.5-1.3,1.9-1.3h1
		c0-0.5-0.3-0.9-1-0.9c-0.5,0-0.9,0.1-1.3,0.4l-0.5-0.9c0.6-0.4,1.2-0.5,1.9-0.5C93.6,410.7,94.4,411.3,94.4,412.7z M93.1,413.8
		v-0.5h-0.9c-0.6,0-0.8,0.2-0.8,0.5s0.3,0.5,0.7,0.5C92.6,414.4,93,414.2,93.1,413.8L93.1,413.8z"/>
	<path class="st2" d="M100.2,410.8v3.7c0.1,1.2-0.7,2.3-1.9,2.4c-0.2,0-0.4,0-0.6,0c-0.8,0-1.5-0.2-2.2-0.6l0.5-0.9
		c0.5,0.3,1,0.5,1.6,0.5c0.9,0,1.3-0.4,1.3-1.2v-0.2c-0.4,0.4-0.9,0.6-1.4,0.6c-1.2,0-2.1-1-2.1-2.1s1-2.1,2.1-2.1l0,0
		c0.6,0,1.1,0.2,1.5,0.6v-0.6L100.2,410.8L100.2,410.8z M98.9,412.8c0-0.6-0.5-1.1-1.1-1.1c-0.6-0.1-1.2,0.2-1.3,0.8
		c-0.1,0.6,0.2,1.2,0.8,1.3c0.2,0,0.4,0,0.5,0C98.4,413.9,98.9,413.4,98.9,412.8L98.9,412.8z"/>
	<path class="st2" d="M105.6,413.3h-3.3c0.1,0.6,0.7,0.9,1.3,0.9c0.4,0,0.8-0.1,1.1-0.4l0.7,0.7c-1,1-2.7,0.9-3.6-0.1
		c-0.4-0.4-0.6-0.9-0.7-1.5c0-1.2,1-2.2,2.2-2.2h0.1c1.2,0,2.2,0.9,2.3,2.2v0.1C105.7,413.1,105.6,413.2,105.6,413.3z M102.3,412.6
		h2.2c-0.1-0.5-0.6-0.9-1.1-0.9C102.9,411.6,102.4,412,102.3,412.6L102.3,412.6z"/>
	<path class="st2" d="M30,412.6h5.7v1.3H31v1.1h-1V412.6z"/>
	<polygon class="st6" points="38.6,405.1 44.5,420.5 52.3,420.5 47.4,405.1 	"/>
	<polygon class="st6" points="115.2,405.1 121.1,420.5 128.9,420.5 124,405.1 	"/>
	<path class="st8" d="M146.3,405H21.6c-2.1-7.8-2.3-15,0-21.6h124.7C149.2,390.3,149.2,398.1,146.3,405z"/>
	<path class="st2" d="M58.5,390.1l-1.4,6.8h-0.5l1.1-5.8L54,396h-0.2l-1.9-4.9l-1.1,5.8h-0.5l1.4-6.8h0.4l2,5.3l4-5.3H58.5z"/>
	<path class="st2" d="M64.9,391.9l-1,5.1h-0.5l0.2-1c-0.5,0.7-1.3,1.1-2.1,1c-1.1,0.1-2.1-0.7-2.2-1.8c0-0.1,0-0.2,0-0.3
		c-0.1-1.6,1.1-2.9,2.7-3c0.1,0,0.1,0,0.2,0c0.9-0.1,1.7,0.4,2,1.3l0.3-1.3L64.9,391.9L64.9,391.9z M64,393.9
		c0.1-0.9-0.6-1.6-1.5-1.7c-0.1,0-0.2,0-0.3,0c-1.3,0-2.4,1.1-2.4,2.4v0.1c-0.1,0.9,0.5,1.7,1.4,1.8c0.1,0,0.3,0,0.4,0
		c1.3,0,2.4-1.1,2.4-2.4C64,394.1,64,394,64,393.9z"/>
	<path class="st2" d="M66.8,395.5c0,0.1,0,0.2,0,0.4c0,0.5,0.3,0.7,0.8,0.7c0.3,0,0.6-0.1,0.8-0.3l0.1,0.4c-0.3,0.2-0.7,0.4-1.1,0.3
		c-0.6,0.1-1.1-0.4-1.1-0.9c0-0.1,0-0.1,0-0.2s0-0.3,0-0.4l0.7-3.2h-0.9l0.1-0.4h0.9l0.2-1.1h0.5l-0.2,1.1h1.6l-0.1,0.4h-1.6
		L66.8,395.5z"/>
	<path class="st2" d="M75,393.4c0,0.2,0,0.4,0,0.6l-0.6,2.9h-0.5l0.6-2.9c0-0.2,0-0.3,0-0.5c0-0.8-0.5-1.3-1.4-1.3
		c-1.1,0-2.1,0.8-2.2,1.9l-0.6,2.8h-0.5l1.4-7.2h0.5l-0.6,3.1c0.5-0.7,1.3-1,2.1-1C74.3,391.8,75,392.4,75,393.4z"/>
	<path class="st2" d="M76.7,394.5c0,0.1,0,0.2,0,0.3c0,1.1,0.6,1.7,1.9,1.7c0.6,0,1.3-0.2,1.7-0.7l0.2,0.3c-0.5,0.5-1.3,0.8-2,0.8
		c-1.1,0.1-2.2-0.7-2.3-1.8c0-0.1,0-0.2,0-0.4c-0.1-1.6,1.1-2.9,2.6-3c0.1,0,0.1,0,0.2,0c1.1-0.1,2.1,0.6,2.2,1.7c0,0.1,0,0.3,0,0.4
		c0,0.2,0,0.4-0.1,0.6L76.7,394.5z M76.7,394.1h3.9c0-0.1,0-0.2,0-0.2c0-0.9-0.6-1.6-1.5-1.6c-0.1,0-0.2,0-0.2,0
		C77.9,392.3,77,393.1,76.7,394.1L76.7,394.1z"/>
	<path class="st2" d="M91.1,393.4c0,0.2,0,0.4,0,0.6l-0.6,2.9H90l0.6-2.9c0-0.2,0-0.3,0-0.5c0-0.8-0.5-1.2-1.4-1.2
		c-1.1,0-2,0.7-2.1,1.8l-0.6,2.9H86l0.6-2.9c0-0.2,0-0.3,0-0.5c0-0.8-0.5-1.2-1.4-1.2c-1.1,0-2.1,0.8-2.2,1.9l-0.6,2.8h-0.5l1-5.1
		h0.5l-0.2,0.9c0.5-0.7,1.2-1,2-1c0.8-0.1,1.5,0.4,1.7,1.1c0.5-0.7,1.3-1.1,2.2-1.1C90.5,391.8,91.1,392.4,91.1,393.4z"/>
	<path class="st2" d="M98,391.9l-1,5.1h-0.5l0.2-1c-0.5,0.7-1.3,1-2.1,1c-1.1,0.1-2.1-0.7-2.2-1.8c0-0.1,0-0.2,0-0.3
		c-0.1-1.6,1.1-2.9,2.7-3c0.1,0,0.1,0,0.2,0c0.9-0.1,1.7,0.4,2,1.3l0.3-1.3L98,391.9L98,391.9z M97.1,393.9c0.1-0.9-0.6-1.6-1.5-1.7
		c-0.1,0-0.2,0-0.3,0c-1.3,0-2.4,1.1-2.4,2.4v0.1c-0.1,0.9,0.5,1.7,1.4,1.8c0.1,0,0.2,0,0.4,0c1.3,0,2.4-1.1,2.4-2.4
		C97.1,394.1,97.1,394,97.1,393.9L97.1,393.9z"/>
	<path class="st2" d="M99.9,395.5c0,0.1,0,0.2,0,0.4c0,0.5,0.3,0.7,0.8,0.7c0.3,0,0.6-0.1,0.8-0.3l0.2,0.4c-0.3,0.2-0.7,0.4-1.1,0.3
		c-0.6,0.1-1.1-0.4-1.1-0.9c0-0.1,0-0.1,0-0.2s0-0.3,0-0.4l0.7-3.2h-1l0.1-0.4h0.9l0.2-1.1h0.5l-0.2,1.1h1.6l-0.1,0.4h-1.6
		L99.9,395.5z"/>
	<path class="st2" d="M103.9,391.9h0.5l-1,5.1h-0.5L103.9,391.9z M104.1,390.3c0-0.2,0.2-0.4,0.4-0.4l0,0c0.2,0,0.4,0.2,0.4,0.4l0,0
		c0,0.2-0.2,0.4-0.4,0.4l0,0C104.2,390.6,104.1,390.5,104.1,390.3L104.1,390.3z"/>
	<path class="st2" d="M105.3,394.9c-0.1-1.6,1.1-2.9,2.7-3c0.1,0,0.1,0,0.2,0c0.8-0.1,1.5,0.3,1.9,1l-0.4,0.2
		c-0.3-0.5-0.9-0.8-1.6-0.8c-1.3,0-2.4,1.1-2.4,2.4c0,0.1,0,0.1,0,0.2c-0.1,0.9,0.6,1.7,1.5,1.7c0.1,0,0.2,0,0.3,0
		c0.6,0,1.3-0.2,1.7-0.7l0.3,0.3c-0.5,0.6-1.3,0.9-2.1,0.9c-1.1,0.1-2.1-0.7-2.3-1.8C105.3,395.1,105.3,395,105.3,394.9z"/>
	<path class="st2" d="M116.2,391.9l-1,5.1h-0.5l0.2-1c-0.5,0.7-1.3,1.1-2.1,1c-1.1,0.1-2.1-0.7-2.2-1.8c0-0.1,0-0.2,0-0.3
		c-0.1-1.6,1.1-2.9,2.7-3c0.1,0,0.1,0,0.2,0c0.9-0.1,1.7,0.4,2,1.3l0.2-1.3L116.2,391.9L116.2,391.9z M115.3,393.9
		c0.1-0.9-0.6-1.6-1.5-1.7c-0.1,0-0.2,0-0.3,0c-1.3,0-2.4,1.1-2.4,2.4v0.1c-0.1,0.9,0.6,1.6,1.5,1.7c0.1,0,0.2,0,0.3,0
		c1.3,0,2.4-1.1,2.4-2.4C115.3,394.1,115.3,394,115.3,393.9z"/>
	<path class="st2" d="M118.7,389.7h0.5l-1.4,7.2h-0.5L118.7,389.7z"/>
	<path class="st2" d="M26.8,392.2l6.8,1.4v0.5l-6.3-1.3v1.7l-0.4-0.1L26.8,392.2z"/>
	<path class="st4" d="M42.8,383.3c0.1,0-1.4,5-3.4,10.9c-1.1,3.7-2.5,7.2-4,10.8c-0.1-0.1,1.4-5,3.4-11
		C40,390.5,41.3,386.9,42.8,383.3z"/>
	<path class="st4" d="M47.9,383.3c0.1,0-1.4,5-3.4,10.9c-1.1,3.7-2.5,7.2-4,10.8c-0.1-0.1,1.4-5,3.4-11
		C45.1,390.5,46.4,386.9,47.9,383.3z"/>
	<path class="st4" d="M131.2,383.3c0.1,0-1.4,5-3.4,10.9c-1.1,3.7-2.5,7.2-4,10.8c-0.1-0.1,1.4-5,3.4-11
		C128.4,390.5,129.7,386.9,131.2,383.3z"/>
	<path class="st4" d="M136.3,383.3c0.1,0-1.4,5-3.4,10.9c-1.1,3.7-2.5,7.2-4,10.8c1-3.7,2.1-7.4,3.4-11
		C133.5,390.5,134.8,386.9,136.3,383.3z"/>
</g>
<g id="freepik--Character--inject-88">
	<path class="st6" d="M284,101.3c10.4,11.9,14.9,27.8,16.9,43.4s1.7,31.5,3.8,47.1c1.1,8.2,3,16.3,2.3,24.5
		c-0.6,8.2-4.3,16.7-11.5,20.7c-4.2,2.4-10.2,2.7-13.4-0.9c-2.3-2.5-2.7-6.2-3-9.6L269,97.5"/>
	<path class="st9" d="M224.2,212.6l7.6-2.1l47.3-2.4l10.5,2.2c0,0-19,21.5-35.1,21.5C225.1,232.1,224.2,212.6,224.2,212.6z"/>
	<path class="st8" d="M204,163c-3.4-10.4-8.6-28.4-6.7-39.2c1.9-10.8,7.4-21.2,16.1-27.8c11.9-9.1,28.3-10.3,43.1-8
		c10.2,1.6,20.6,4.9,27.6,12.5c4.4,4.9,7.2,11.1,8.7,17.5c1.3,6.5,2.1,13,2.3,19.6c0.2,4-0.8,12.3-3,16.2"/>
	<path class="st6" d="M291.2,151.2c0,0,4.3-37-19.7-51.3c-23.5-14-48.1-8.7-56.8,2.6c-16.8,21.7-12.6,36.8-12.6,36.8l84.1,19.7
		L291.2,151.2z"/>
	<path class="st9" d="M202.1,138.4c0-0.2,0-0.4,0-0.6c0.2-21.4,17.6-39,39-38.8c1,0,2.1,0,3.2,0.1c1.7,0.1,3.4,0.2,5,0.5
		c18.6,2.9,32.1,19.3,32.3,38.1c0.2,15.3,0.3,35.7-0.4,41.7c-1.2,10.1-0.9,13.7-0.9,13.7v23.5c0,13.8-10.8,25.2-24.5,25.8l0,0
		c-14.2,0.7-26.4-10.2-27.1-24.5c0-0.2,0-0.4,0-0.6l-0.3-12.1c-16-1.6-23.7-16.8-25.2-35.2C202.4,160.3,201.9,159.6,202.1,138.4z"/>
	<path class="st9" d="M280.9,150.9c0.4-0.2,17-5.6,17,11.4s-17.1,13.6-17.1,13.1C280.7,174.9,280.9,150.9,280.9,150.9z"/>
	<path class="st10" d="M286,168.9c0.1-0.1,0.3,0.2,0.8,0.4c0.7,0.3,1.5,0.3,2.2,0c1.8-0.7,3.3-3.5,3.4-6.7c0-1.5-0.2-2.9-0.8-4.3
		c-0.3-1.1-1.2-1.9-2.2-2.3c-0.7-0.2-1.4,0.2-1.8,0.8c-0.2,0.5-0.1,0.8-0.2,0.8s-0.4-0.3-0.2-1c0.1-0.4,0.3-0.8,0.7-1.1
		c0.5-0.4,1.1-0.5,1.6-0.4c1.4,0.3,2.6,1.3,3.1,2.6c0.7,1.5,1.1,3.1,1,4.8c-0.1,3.4-1.9,6.7-4.3,7.4c-0.9,0.3-1.9,0.1-2.7-0.5
		C286,169.4,285.9,169,286,168.9z"/>
	<path class="st6" d="M209.6,144.1c0.5,0.5,3.2-1.7,7.2-1.8s7,1.8,7.4,1.3c0.2-0.2-0.3-1.1-1.6-2c-1.8-1.1-3.8-1.7-5.9-1.6
		c-2.1,0.1-4.1,0.8-5.7,2.1C209.7,143,209.4,143.9,209.6,144.1z"/>
	<path class="st6" d="M246.9,144.6c0.5,0.5,3.2-1.7,7.2-1.8c4-0.1,7,1.8,7.4,1.3c0.2-0.2-0.3-1.1-1.6-2c-1.8-1.1-3.8-1.7-5.9-1.6
		c-2.1,0.1-4.1,0.8-5.7,2.1C247.1,143.5,246.8,144.4,246.9,144.6z"/>
	<path class="st6" d="M247.4,132.1c0.4,1,3.7,1,7.4,1.8c3.7,0.8,6.7,2.1,7.5,1.4c0.4-0.4,0.1-1.3-1-2.4c-1.6-1.4-3.4-2.3-5.5-2.7
		c-2.1-0.5-4.2-0.4-6.3,0.2C248,130.9,247.2,131.6,247.4,132.1z"/>
	<path class="st6" d="M223.9,130.2c-1.1-1-5-1.1-8.7-0.3c-3.8,0.8-6,2.4-4.9,3.4s5,1.1,8.7,0.3S225,131.2,223.9,130.2z"/>
	<path class="st6" d="M240.1,178.7c0,0.2,0.5,0.7,1.6,0.8c1.4,0.1,2.8-0.3,3.9-1.2c1.1-0.9,1.8-2.2,2-3.6c0.1-1.1-0.2-1.7-0.4-1.7
		c-0.5,0-0.9,2.3-2.8,3.8S240.1,178.2,240.1,178.7z"/>
	<path class="st10" d="M228.5,205.3c0,0,20.5-0.2,25.2-3.9c0,0-3.3,10-25.1,9.5L228.5,205.3z"/>
	<path class="st6" d="M220.5,152.4c0.2,1.8-1.1,3.5-2.9,3.8c-1.8,0.3-3.5-0.9-3.8-2.7c-0.2-1.8,1.1-3.5,2.9-3.8
		C218.4,149.4,220.2,150.6,220.5,152.4z"/>
	<path class="st6" d="M255.4,152.9c0.2,1.8-1.1,3.5-2.9,3.8c-1.8,0.3-3.5-0.8-3.8-2.6V154c-0.2-1.8,1.1-3.5,2.9-3.8
		C253.4,149.8,255.1,151,255.4,152.9z"/>
	<path class="st6" d="M236.2,166.4c-0.1-0.2-1.2,0-2.9-0.2c-0.5-0.1-0.9-0.2-1.4-0.3s-0.9-0.3-1.3-0.6c-0.1-0.1-0.1-0.2-0.1-0.2
		c0-0.2,0.1-0.4,0.2-0.5l0.8-1.9c2.2-5.2,3.6-9.5,3.2-9.7s-2.5,3.9-4.7,9c-0.3,0.7-0.5,1.3-0.8,1.9c-0.2,0.4-0.3,0.9-0.3,1.3
		c0.1,0.5,0.4,1,0.9,1.3c0.3,0.2,0.6,0.3,1,0.4c0.3,0.1,0.6,0.2,0.9,0.2c0.5,0.1,1.1,0.1,1.6,0.1
		C235.2,167.3,236.2,166.6,236.2,166.4z"/>
	<path class="st8" d="M311.6,110.4c-2.2-5.1-5.3-10.2-5.1-15.7c0.1-2.5,0.7-5.6-1.4-7c-0.7-0.4-1.6-0.7-2.4-0.7
		c-11.7-1.7-23.6-1.4-35.3,0.8c0-0.6,0-1.1-0.2-1.7c-0.7-2.3-2.7-4.1-5.2-4.4c-2-0.2-4,0.3-5.6,1.6c-8.2-8.8-19.1-14.6-31-16.6
		c-3.3-0.6-7-0.8-10,0.8c-4.7,2.4-6.3,8.1-7.6,13.3c-0.5,2-0.9,4.2,0.1,6c1.4,2.4,4.8,2.7,7.6,2.6c12.7-0.3,25.5-0.7,38.2-1.3
		l0.2-0.2c0,0.3,0.1,0.6,0.2,1l-0.1-1l0,0c0.4,2.3,1.9,4.3,4.1,5.3c2.2,1,4.8,0.8,6.8-0.7c0.2-0.2,0.4-0.4,0.6-0.6
		c12,9.7,24.9,18.3,39.2,24c2.4,0.9,5.7,1.5,7-0.7C312.8,113.8,312.2,112,311.6,110.4z"/>
	<path class="st6" d="M213.3,100.4c9.5-7.3,26.1-10.7,37.7-8.1c11.6,2.7,22.7,14.6,27.7,25.4c5.3,11.5,4.6,24.8,2.2,37.3
		c-0.4,2.1-1.1,4.4-3.1,5.1c-1.5,0.3-3.1-0.3-4-1.5s-1.5-2.6-1.9-4.1c-1.9-5.8-3.7-11.7-5.6-17.5c-0.9-2.9-1.9-5.9-4.2-7.9
		c-1.4-1.1-2.9-2-4.4-2.7c-9.9-5.3-16.5-15.1-17.8-26.2c-1.1,7.2-5.7,13.3-12.2,16.6c-3.8,1.8-8.2,2.6-11.3,5.6
		c-4,3.8-7,8.5-8.9,13.6c-1.7,5.2-4.4,12.7-5.5,19.7c-0.5-4.6-2-15.1-2.5-19.7C199.6,135.7,196.8,113,213.3,100.4z"/>
	<path class="st6" d="M267.1,89.2c0,0.3-0.1,0.6-0.2,0.9c-0.3,0.8-0.8,1.4-1.4,2c-0.9,0.9-2,1.4-3.2,1.7c-1.5,0.3-3,0.1-4.3-0.7
		c-1.3-0.7-2.3-1.9-2.9-3.3c-0.4-1.1-0.5-2.4-0.2-3.6c0.2-0.8,0.5-1.6,1-2.2c0.3-0.5,0.6-0.7,0.6-0.6c-0.6,0.9-1,1.9-1.2,2.9
		c-0.2,1.1-0.1,2.3,0.3,3.3c1.1,2.6,3.9,4.2,6.7,3.7c1.1-0.2,2.1-0.7,3-1.5C266,91,266.6,90.1,267.1,89.2z"/>
	<path class="st6" d="M264.9,91.6c-0.2-0.5-0.3-1.1-0.4-1.6c-0.3-1.3-0.9-2.5-1.6-3.6c-0.8-1.1-1.7-2-2.9-2.7
		c-0.9-0.5-1.5-0.8-1.4-0.9c0.6,0,1.1,0.2,1.6,0.5c1.2,0.6,2.3,1.6,3.1,2.7c0.8,1.1,1.4,2.4,1.6,3.8C265,90.5,265,91,264.9,91.6z"/>
	<path class="st6" d="M266.8,85.1c0,0.2-1,0.1-2,0.5c-1.1,0.4-1.7,1-1.9,0.9c-0.1-0.1,0.4-1,1.7-1.5
		C265.8,84.5,266.9,84.9,266.8,85.1z"/>
	<path class="st6" d="M288,91.5c-1-0.1-2-0.3-3.1-0.6c-2.4-0.5-4.9-0.8-7.4-1c-2.5-0.1-5-0.1-7.5,0.1c-1,0.1-2.1,0.2-3.1,0.3
		c1-0.3,2-0.6,3.1-0.7c2.5-0.3,5-0.5,7.6-0.3c2.5,0.1,5,0.5,7.5,1.1C286.1,90.7,287.1,91,288,91.5z"/>
	<path class="st6" d="M284.5,96.1c-0.9-0.3-1.7-0.7-2.6-1.1c-4.1-1.9-8.3-3.2-12.8-3.9c-0.9-0.1-1.8-0.3-2.8-0.5
		c0.9-0.1,1.9,0,2.8,0.1c2.3,0.3,4.5,0.7,6.7,1.4c2.2,0.7,4.3,1.5,6.3,2.6C283,95,283.8,95.5,284.5,96.1z"/>
	<path class="st6" d="M255,88.8c-0.2,0-0.4,0-0.6,0h-1.8l-6.5-0.1c-5.6,0-13.1,0-21.5,0.5l-6.1,0.4c-1.9,0.2-3.8,0.3-5.7,0.1
		c-1.8-0.1-3.5-1-4.6-2.5c-0.5-0.7-0.7-1.5-0.7-2.3c0-0.7,0.1-1.5,0.2-2.2c0.4-2.1,1-4.2,1.7-6.3c0.2-0.7,0.5-1.3,0.6-1.7
		c0.1-0.2,0.2-0.4,0.3-0.6c0,0.2-0.1,0.4-0.2,0.6c-0.1,0.4-0.3,1-0.5,1.7c-0.4,1.5-1,3.6-1.5,6.3c-0.4,1.4-0.2,2.9,0.5,4.2
		c1.1,1.3,2.6,2.1,4.3,2.2c1.9,0.1,3.8,0.1,5.6-0.1c2-0.1,4-0.3,6.1-0.4c8.4-0.4,16-0.4,21.5-0.3c2.8,0.1,5,0.2,6.5,0.3l1.8,0.1
		C254.6,88.7,254.8,88.7,255,88.8z"/>
	<path class="st6" d="M294.7,111.4c-0.4-0.1-0.9-0.3-1.3-0.5c-0.8-0.4-2-0.9-3.4-1.7c-2.8-1.5-6.7-3.6-10.8-6.3
		c-4.1-2.7-7.6-5.3-10.1-7.3c-1.3-1-2.2-1.8-2.9-2.4c-0.4-0.3-0.7-0.6-1-1c0.4,0.2,0.8,0.5,1.1,0.8l3,2.3c2.6,1.9,6.1,4.5,10.2,7.2
		s7.9,4.9,10.7,6.4l3.3,1.8C293.9,110.8,294.3,111.1,294.7,111.4z"/>
	<path class="st6" d="M234.8,80.7c1-0.2,2.1-0.3,3.2-0.3c2.6,0,5.1,0.3,7.6,0.9s4.9,1.6,7.1,2.8c1,0.5,1.8,1,2.6,1.8
		c0,0.1-1.1-0.6-2.8-1.4c-2.3-1.1-4.7-2-7.1-2.6c-2.5-0.6-5-1-7.5-1.1C236.9,80.8,235.8,80.8,234.8,80.7z"/>
	<g class="st11">
		<path d="M255.2,85.4c-1.7-2.3-4.4-3.8-6.9-5.1c-2-1.1-4.1-1.9-6.3-2.5s-4.6-0.5-6.7,0.3c-0.4,0.1-0.8,0.4-1,0.8
			c-0.2,0.6,0.1,1.2,0.7,1.4c0.5,0.2,1.1,0.3,1.6,0.3c6.5,0.2,12.8,2,18.4,5.3"/>
	</g>
	<g class="st11">
		<path d="M266.8,90.6c4.5-0.3,8.9,0,13.3,0.9c1.6,0.2,3.2,0.8,4.6,1.6c1.4,0.8,2.4,2.2,2.8,3.8c0.1,0.2,0,0.5-0.1,0.7
			c-0.3,0.3-0.7,0.1-1-0.1c-5.9-3.4-12.5-5.7-19.2-6.7"/>
	</g>
	<path class="st7" d="M189.4,443.3l34.4,11c0,0,0.3,38.7,6.5,41.4l23.8-66l-52.9-19.4L189.4,443.3z"/>
	<path class="st1" d="M228.3,432.9c0.9-1.2,2.5-1.5,3.7-0.8c1.2,0.8,1.6,2.5,0.8,3.7c-0.9,1.2-2.6,1.6-4,0.8c-1.1-0.9-1.4-3-0.4-4"
		/>
	<g class="st5">
		<path class="st4" d="M254.1,429.7l-5.4-1.7l-20.8,63.9c0,0,0.2,3.4,2.4,3.8L254.1,429.7z"/>
	</g>
	<path class="st6" d="M223.1,455.3c0.3,0.1,1.1-1.5,2.7-2.7c1.6-1.2,3.3-1.6,3.2-1.9c0-0.3-2.1-0.5-4,1
		C223.1,453.2,222.8,455.3,223.1,455.3z"/>
	<path class="st6" d="M223.4,463.3c0.3,0.2,1.3-1,3.1-1.6s3.3-0.4,3.4-0.7c0.1-0.3-1.6-1.2-3.8-0.4
		C224,461.3,223.2,463.2,223.4,463.3z"/>
	<path class="st6" d="M230.3,470.2c0.2-0.3-1.3-1.3-3.3-1.1c-2.1,0.2-3.3,1.4-3.1,1.7s1.5-0.4,3.2-0.5
		C228.8,470.2,230.2,470.5,230.3,470.2z"/>
	<path class="st6" d="M215.5,451.9c0.3,0,0.4-1.7,1.2-3.4s1.9-3,1.7-3.3s-1.9,0.7-2.8,2.8S215.2,452,215.5,451.9z"/>
	<path class="st7" d="M317.8,447.6l-34.4,11c0,0-0.3,38.7-6.5,41.4L253,434l53-19.4L317.8,447.6z"/>
	<path class="st1" d="M278.8,437.2c-0.9-1.2-2.5-1.5-3.8-0.8c-1.2,0.8-1.5,2.5-0.8,3.7c0.9,1.2,2.6,1.6,4,0.8c1.1-0.9,1.4-3,0.4-4"
		/>
	<g class="st5">
		<path class="st4" d="M253,434l5.4-1.7l20.8,63.9c0,0-0.2,3.4-2.4,3.8L253,434z"/>
	</g>
	<path class="st6" d="M284.1,459.6c-0.3,0.1-1.1-1.5-2.7-2.7s-3.3-1.6-3.3-1.9s2.1-0.5,4,1C284.1,457.5,284.4,459.5,284.1,459.6z"/>
	<path class="st6" d="M283.7,467.5c-0.3,0.2-1.3-1-3.1-1.6s-3.3-0.4-3.4-0.7c-0.1-0.3,1.7-1.2,3.8-0.4
		C283.2,465.6,284,467.4,283.7,467.5z"/>
	<path class="st6" d="M276.8,474.4c-0.2-0.3,1.3-1.3,3.3-1.1c2.1,0.2,3.3,1.4,3.1,1.7c-0.2,0.2-1.5-0.4-3.2-0.5
		C278.4,474.4,277,474.8,276.8,474.4z"/>
	<path class="st6" d="M291.6,456.2c-0.3,0-0.4-1.7-1.2-3.4c-0.8-1.8-1.9-3-1.7-3.3s1.9,0.7,2.7,2.8
		C292.4,454.4,291.9,456.2,291.6,456.2z"/>
	<path class="st6" d="M204.3,367.6c-1.3,0-75.1-15.5-82.5-15.9c-7.4-0.4-26.2,6.3-27.5,22.6c-1.3,16.3-1,27.8,10.8,35.4
		s104.5,52.9,104.5,52.9l12.1-37.7l18.9,7.1l17.6-60.8L204.3,367.6z"/>
	<path class="st7" d="M198.2,407.8c-0.3-0.1-0.5-0.2-0.8-0.4l-2.1-1.2c-1.8-1.1-4.4-2.6-7.7-4.6c-8.5-5.1-16.5-10.9-24-17.4
		c-4.3-3.9-8.6-7.3-12.5-10.5c-2-1.6-3.8-3.1-5.6-4.4c-1.7-1.2-3.4-2.3-5.2-3.3c-2.6-1.4-5.4-2.5-8.3-3.1c-1-0.2-1.9-0.3-2.4-0.4
		c-0.3,0-0.6-0.1-0.8-0.1c0.3,0,0.6,0,0.9,0c0.8,0,1.6,0.1,2.4,0.3c3,0.6,5.8,1.6,8.5,3c1.8,1,3.6,2.1,5.3,3.3
		c1.8,1.3,3.7,2.8,5.6,4.4c3.9,3.1,8.2,6.7,12.5,10.5c7.4,6.5,15.4,12.4,23.8,17.5l7.6,4.7l2.1,1.3
		C197.7,407.4,198,407.6,198.2,407.8z"/>
	<path class="st7" d="M143.5,359.6c0.9,0.4,1.7,1,2.4,1.6c1.8,1.5,3.4,3.2,4.8,5.1c1.3,1.9,2.3,4.1,2.9,6.4c0.3,0.9,0.4,1.9,0.4,2.9
		c-0.2,0.1-0.7-4.4-3.7-8.9C147.1,362.3,143.4,359.8,143.5,359.6z"/>
	<path class="st6" d="M286.1,368.2c1.3,0,75.1-15.5,82.5-15.9s26.2,6.3,27.5,22.6c1.3,16.3,1,27.8-10.8,35.4
		c-11.8,7.7-104.5,52.9-104.5,52.9l-12.1-37.7l-18.9,7.1l-17.6-60.8L286.1,368.2z"/>
	<path class="st7" d="M292.3,408.4c0.2-0.2,0.4-0.4,0.7-0.5l2.1-1.3l7.6-4.8c8.4-5.1,16.4-11,23.8-17.5c4.3-3.9,8.6-7.4,12.5-10.5
		c2-1.6,3.8-3.1,5.6-4.4c1.7-1.2,3.5-2.3,5.3-3.3c2.7-1.4,5.5-2.4,8.5-3c0.8-0.2,1.6-0.3,2.4-0.3c0.3,0,0.6,0,0.9,0
		c-0.3,0.1-0.6,0.1-0.8,0.1c-0.6,0.1-1.4,0.2-2.4,0.4c-2.9,0.6-5.7,1.7-8.3,3.1c-1.8,1-3.6,2.1-5.2,3.3c-1.8,1.3-3.6,2.8-5.6,4.4
		c-3.9,3.2-8.2,6.7-12.5,10.5c-7.4,6.6-15.4,12.4-24,17.5c-3.2,2-5.9,3.5-7.8,4.6l-2.1,1.2C292.8,408.3,292.5,408.4,292.3,408.4z"/>
	<path class="st7" d="M346.9,360.3c0.2,0.2-3.7,2.6-6.7,7s-3.5,9-3.7,8.9c0-1,0.1-1.9,0.4-2.9c0.6-2.3,1.5-4.4,2.9-6.4
		c1.3-1.9,2.9-3.6,4.8-5.1C345.3,361.2,346.1,360.7,346.9,360.3z"/>
	<path class="st8" d="M186.4,228.7l-38.8,59.7c0,0-21.4,10.9-24,25.5s-3.1,25,4.2,29.7c1.3,0.8,2.8,1.4,4.3,1.8
		c12.5,3.5,25.7-1.6,32.7-12.5l27.7-42.7l9-69.5C201.5,220.8,193.6,220.8,186.4,228.7z"/>
	<path class="st9" d="M150,317.9h-6.5c0,0-14.3,5.4-13.3,17.9c0,0,2.1,8.5,15.7,7l17.5-5l2.2-18.6L150,317.9z"/>
	<path class="st8" d="M318.6,224.9l-30.8-16.8c0,0-16.3,17.8-37.9,17.2s-25.7-12.7-25.7-12.7l-27.5,9.1l0,0l-4.3,68.5
		c0,0,0.1,79.4,1.2,79.4c1,0,114,2.4,114,2.4l-1.5-53.1L318.6,224.9z"/>
	<path class="st8" d="M317.2,224.2c0,0,14.1,5.8,22.9,30.1c3.4,9.5,21.7,47.2,29.1,62.6c3,6,4.2,12.8,3.3,19.5
		c-0.4,3.1-1.3,6-2.9,7.8c-3.5,3.8-40.6,16.7-40.6,16.7l-14.9-23.5l11.7-8.6l-17-30c0,0,0.9-34.9,1.7-44.7
		C311.3,244.3,317.2,224.2,317.2,224.2z"/>
	<path class="st6" d="M190.1,245.4c0.2,0,1,15.5,2,34.7c0.9,19.2,1.5,34.7,1.4,34.7c-0.2,0-1-15.5-2-34.7
		C190.5,261,189.9,245.5,190.1,245.4z"/>
	<path class="st6" d="M317.2,242.9c0.2,0-2.2,16.7-5.2,37.3c-3,20.6-5.6,37.2-5.8,37.2c-0.2,0,2.2-16.7,5.2-37.3
		C314.4,259.5,317,242.9,317.2,242.9z"/>
	<path class="st6" d="M162.9,304.3c-0.1,0.1-2.6-3.2-6.4-6.3c-3.8-3.2-7.4-5-7.3-5.2c0.9,0.3,1.7,0.6,2.4,1.1
		c1.9,1.1,3.6,2.3,5.3,3.7c1.6,1.4,3.1,2.9,4.5,4.6C162,302.8,162.5,303.5,162.9,304.3z"/>
	<path class="st6" d="M352,320.9c0,0.1-1.6-0.1-4.1-0.2c-3.3,0-6.6,0.4-9.8,1.3c-3.2,0.9-6.2,2.3-9,4c-2.2,1.4-3.3,2.4-3.4,2.3
		s0.3-0.3,0.8-0.8c0.8-0.7,1.6-1.3,2.4-1.9c5.6-3.8,12.3-5.7,19.1-5.4c1,0,2,0.1,3,0.3C351.3,320.6,351.6,320.7,352,320.9z"/>
	<path class="st6" d="M346.7,311.1c0,0.1-1.5,0.4-3.9,1.4c-1.4,0.5-2.7,1.2-4,1.9c-1.6,0.9-3,1.9-4.4,3.1c-2.5,2.1-4.8,4.6-6.6,7.3
		c-1.4,2.1-2,3.6-2.1,3.5c0.1-0.4,0.2-0.7,0.4-1.1c0.4-0.9,0.9-1.8,1.4-2.7c0.8-1.3,1.6-2.5,2.6-3.7c1.2-1.4,2.5-2.7,3.9-3.9
		c1.4-1.2,3-2.2,4.6-3.1c1.3-0.7,2.7-1.3,4.1-1.8c1-0.4,1.9-0.6,2.9-0.8C345.9,311.2,346.3,311.1,346.7,311.1z"/>
	<g class="st11">
		<path d="M308.6,298.7c5.1-4.7,7.5-11.7,7.9-18.6s-0.8-13.7-2.1-20.5"/>
	</g>
	<g class="st11">
		<path d="M325.6,328.2c6-8.8,17.4-12.1,27.1-7.8c-9.6-1.1-19.3,1.6-26.9,7.5"/>
	</g>
	<g class="st11">
		<path d="M163.5,304.5c-0.8-5-4.1-9.3-8.7-11.4c-1.3-0.6-3.1-0.8-3.9,0.3c5,2.9,9.3,6.9,12.6,11.7"/>
	</g>
	<path class="st6" d="M128.5,324.7c0-0.3,0.1-0.6,0.3-0.9c0.3-0.8,0.8-1.6,1.4-2.3c1.9-2.3,4.6-3.8,7.5-4.4c2.9-0.5,5.8-0.6,8.7-0.1
		c1.1,0.2,2,0.3,2.6,0.4c0.3,0,0.6,0.1,0.9,0.3c-1.2,0-2.4-0.1-3.6-0.3c-2.8-0.3-5.7-0.2-8.5,0.3c-2.8,0.6-5.3,2-7.3,4.1
		C129.7,322.7,129,323.7,128.5,324.7z"/>
	<path class="st3" d="M252.5,273.9c-0.6-7.2-4.4-13.8-10.4-18c-2.2-1.6-4.8-2.6-7.5-2.9c-2.8-0.2-5.5,0.9-7.3,3
		c-2.5,3.2-1.7,8.1,0.9,11.1c2.6,3,6.7,4.6,10.6,5.5c3.9,0.9,8,1.2,11.9,2.3c-4.4,1-8.8,2.1-12.6,4.5s-6.8,6.5-6.7,11
		s4.1,8.9,8.5,8.3c3.4-0.5,5.9-3.4,7.6-6.4C250.9,286.7,252.6,280.3,252.5,273.9"/>
	<path class="st6" d="M252.5,273.9c0.1,1.8,0.1,3.7-0.2,5.5c-0.7,5-2.4,9.7-5.1,14c-0.9,1.4-1.9,2.7-3.2,3.8
		c-1.4,1.2-3.2,1.9-5.1,1.9c-2-0.1-3.9-1-5.2-2.5c-1.5-1.5-2.4-3.5-2.5-5.6c-0.1-2.2,0.5-4.4,1.6-6.3c1.2-2,2.7-3.6,4.6-5
		c3.8-2.7,8.6-3.9,13.2-5v0.6c-0.6-0.2-1.3-0.4-2-0.5c-4.8-1.1-9.7-1.3-14.2-3.1c-2.2-0.8-4.2-2.1-5.9-3.7c-1.6-1.6-2.6-3.7-2.9-6
		c-0.4-2.2,0.2-4.4,1.6-6.1c1.3-1.6,3.2-2.6,5.2-2.9c1.9-0.3,3.8,0,5.6,0.6c1.6,0.6,3.2,1.4,4.5,2.5c2.4,1.7,4.4,3.9,6.1,6.4
		c1.2,1.9,2.2,3.9,2.9,6c0.4,1.3,0.7,2.7,0.9,4.1c0.1,0.5,0.1,0.8,0.1,1.1C252.5,273.7,252.5,273.8,252.5,273.9
		c0-0.1-0.1-0.2-0.1-0.3c0-0.3-0.1-0.6-0.1-1.1c-0.2-1.4-0.6-2.7-1-4c-0.7-2.1-1.7-4.1-2.9-5.9c-1.6-2.4-3.7-4.5-6-6.2
		c-1.4-1-2.9-1.8-4.4-2.4c-1.7-0.6-3.5-0.8-5.3-0.6c-1.9,0.3-3.7,1.2-4.9,2.7c-1.2,1.6-1.8,3.7-1.4,5.7c0.3,2.1,1.3,4.1,2.8,5.7
		c1.6,1.6,3.6,2.8,5.7,3.6c4.3,1.7,9.2,1.9,14.1,3.1c0.7,0.2,1.4,0.4,2.1,0.6l1,0.3l-1.1,0.3c-4.7,1.1-9.3,2.3-13.1,4.9
		c-1.8,1.3-3.3,2.9-4.4,4.8c-1.1,1.8-1.6,3.9-1.5,6c0.3,4,3.6,7.6,7.2,7.7c1.8,0,3.4-0.6,4.8-1.8c1.2-1.1,2.3-2.3,3.2-3.7
		c2.6-4.2,4.4-8.9,5.2-13.8c0.2-1.3,0.3-2.7,0.4-4c0-0.4,0-0.8,0-1C252.5,274.1,252.5,274,252.5,273.9z"/>
	<path class="st3" d="M255.1,273.9c0.6-7.2,4.4-13.8,10.4-18c2.2-1.6,4.8-2.6,7.5-2.9c2.8-0.2,5.5,0.9,7.3,3
		c2.5,3.2,1.7,8.1-0.9,11.1s-6.7,4.6-10.6,5.5s-8,1.2-11.9,2.3c4.4,1,8.8,2.1,12.6,4.5s6.8,6.5,6.7,11c-0.1,4.5-4.1,8.9-8.5,8.3
		c-3.4-0.5-5.9-3.4-7.6-6.4C256.7,286.7,255,280.3,255.1,273.9"/>
	<path class="st6" d="M255.1,273.9c0,0.1,0,0.2,0,0.4c0,0.3,0,0.6,0,1c0,1.3,0.2,2.7,0.4,4c0.8,4.9,2.6,9.6,5.2,13.8
		c0.8,1.4,1.9,2.6,3.2,3.7c1.3,1.1,3,1.8,4.8,1.8c3.6-0.1,6.9-3.7,7.2-7.7c0.1-2.1-0.4-4.2-1.5-6c-1.1-1.9-2.6-3.5-4.4-4.8
		c-3.7-2.6-8.4-3.8-13.1-4.9l-1.1-0.3l1-0.3c0.7-0.2,1.4-0.4,2.1-0.6c4.9-1.1,9.8-1.3,14.1-3.1c2.1-0.8,4.1-2,5.7-3.6
		c1.5-1.5,2.5-3.5,2.8-5.7c0.3-2-0.2-4.1-1.4-5.7c-1.3-1.5-3-2.4-4.9-2.7c-1.8-0.3-3.6-0.1-5.3,0.6c-1.6,0.6-3.1,1.4-4.4,2.4
		c-2.4,1.7-4.4,3.8-6,6.2c-1.2,1.8-2.2,3.8-2.9,5.9c-0.4,1.3-0.8,2.7-1,4c-0.1,0.5-0.1,0.8-0.1,1.1
		C255.1,273.7,255.1,273.8,255.1,273.9c-0.1-0.1-0.1-0.2-0.1-0.3c0-0.2,0-0.6,0.1-1.1c0.2-1.4,0.5-2.8,0.9-4.1
		c0.7-2.1,1.6-4.1,2.9-6c1.6-2.5,3.7-4.6,6.1-6.4c1.4-1,2.9-1.9,4.5-2.5c1.8-0.7,3.7-0.9,5.6-0.6c2,0.3,3.9,1.3,5.2,2.9
		c1.3,1.7,1.9,4,1.6,6.1c-0.3,2.3-1.3,4.4-2.9,6c-1.7,1.7-3.7,2.9-5.9,3.7c-4.4,1.8-9.4,2-14.2,3.1c-0.7,0.2-1.4,0.4-2,0.5v-0.6
		c4.7,1.1,9.4,2.3,13.2,5c1.9,1.3,3.5,3,4.6,5c1.1,1.9,1.7,4.1,1.6,6.3c-0.2,2.1-1.1,4.1-2.5,5.6c-1.3,1.5-3.2,2.4-5.2,2.5
		c-1.9,0-3.7-0.7-5.1-1.9c-1.3-1.1-2.4-2.4-3.2-3.8c-2.6-4.3-4.3-9-5.1-14C255,277.5,254.9,275.7,255.1,273.9z"/>
	<path class="st6" d="M253.8,292.9L253.8,292.9c-0.7,0-1.2-0.6-1.3-1.3v-24.1c0-0.7,0.6-1.3,1.3-1.3l0,0c0.7,0,1.3,0.6,1.3,1.3v24.1
		C255,292.3,254.5,292.9,253.8,292.9z"/>
	<path class="st6" d="M253.8,292.9c-0.7,0-1.3-0.6-1.3-1.3v-24.1c0-0.7,0.6-1.3,1.3-1.3s1.3,0.6,1.3,1.3v24.1
		C255.1,292.3,254.5,292.9,253.8,292.9z M253.8,266.3c-0.7,0-1.2,0.6-1.2,1.2v24.1c0,0.7,0.6,1.2,1.2,1.2s1.2-0.6,1.2-1.2l0,0v-24.2
		C255,266.8,254.5,266.3,253.8,266.3L253.8,266.3L253.8,266.3z"/>
	<path class="st6" d="M246.9,253.3c0.7,0.5,1.3,1.2,1.8,1.9c1.3,1.7,2.4,3.6,3.1,5.6c0.8,2,1.3,4,1.5,6.2c0.1,0.9,0.1,1.8,0,2.6
		C252.8,263.6,250.6,258,246.9,253.3L246.9,253.3z"/>
	<path class="st6" d="M260.6,253.4c-1.6,2.2-3,4.6-4.2,7c-1,2.5-1.8,5.1-2.4,7.8c-0.1-0.8,0-1.6,0.2-2.4c0.7-3.9,2.3-7.5,4.7-10.6
		C259.4,254.5,260,253.9,260.6,253.4z"/>
	<path class="st6" d="M253.1,276.3c-0.1,0-0.7-1.1-1.8-2.8c-3-4.5-7.3-8.1-12.2-10.3c-1.9-0.9-3.1-1.2-3.1-1.3c0-0.1,0.3,0,0.9,0.2
		c0.8,0.2,1.6,0.5,2.4,0.8c5.1,2.1,9.5,5.8,12.4,10.5c0.4,0.7,0.8,1.5,1.2,2.2C253,275.7,253.1,276,253.1,276.3z"/>
	<path class="st6" d="M253.2,273.9c-0.4,1-0.9,2-1.6,2.9c-1.4,2.3-2.9,4.4-4.6,6.5c-1.7,2.1-3.5,4-5.4,5.8c-0.8,0.8-1.6,1.5-2.5,2.1
		c0.7-0.9,1.4-1.7,2.2-2.4c1.4-1.5,3.3-3.5,5.2-5.9s3.6-4.7,4.7-6.3C251.9,275.7,252.5,274.8,253.2,273.9z"/>
	<path class="st6" d="M267.5,263.1c-0.8,0.6-1.6,1.2-2.4,1.7c-2,1.3-3.8,2.8-5.6,4.4c-1.7,1.6-3.3,3.4-4.8,5.2
		c-0.6,0.8-1.2,1.6-1.8,2.3c0.4-0.9,0.9-1.8,1.5-2.6c1.4-2,3-3.8,4.7-5.4c1.8-1.6,3.7-3.1,5.7-4.4
		C265.6,263.9,266.5,263.4,267.5,263.1z"/>
	<path class="st6" d="M267.3,290.8c-0.9-0.4-1.8-1-2.6-1.7c-3.9-3.1-7-7.1-9.1-11.6c-0.5-0.9-0.8-1.9-1-2.9c0.5,0.9,1,1.8,1.4,2.7
		c2.3,4.4,5.3,8.2,9.1,11.5C265.9,289.4,266.6,290.1,267.3,290.8z"/>
	<path class="st6" d="M283.7,306.2c0,0.2-12.8,0.3-28.6,0.3s-28.6-0.1-28.6-0.3c0-0.2,12.8-0.3,28.6-0.3
		C270.9,305.9,283.7,306,283.7,306.2z"/>
	<path class="st6" d="M202.7,164.4c-6.4,11.5,4.9,26.9-1,38.7c-1.7,3.3-4.8,6.3-4.7,10.1s3,6.9,2.5,10.5c-0.4,2.8-2.7,4.8-4.2,7.2
		c-2.9,4.7-2.5,11,0.3,15.7c5.2,9,16.8,12.1,25.8,6.9c3.6-2.1,6.5-5.4,8.1-9.3c2.4-5.9,0.7-12.5,0.4-19c-0.3-6.6-1.2-14.4-1.4-20
		c0,0-18-1.9-23-22.5c-1.1-4.5-1.9-9.1-2.3-13.8C202.7,165.4,202.7,164.4,202.7,164.4z"/>
	<polygon class="st9" points="314.3,337.6 290.6,345.9 294.3,354 303.3,365.8 327.7,358.9 	"/>
	<polygon class="st7" points="261.8,354.6 233.3,318.7 154,318.7 223.8,407.1 297.7,400.4 	"/>
	<polygon class="st1" points="154.5,319.3 149.5,325.9 221,415.3 289,408.7 294,400.7 223.8,407.1 	"/>
	<path class="st6" d="M242,328.9c0.4-0.7,0.7-1.4,0.9-2.1c0.2-0.8,0.2-1.6,0-2.4c-0.6-2-2.4-3.3-4.4-3.3c-0.8,0-1.6,0.2-2.4,0.6
		c-0.7,0.4-1.3,0.9-1.8,1.5c-0.1,0,0.3-1,1.6-1.8c1.7-1.1,4-1,5.7,0.2c0.9,0.7,1.6,1.6,1.8,2.7c0.2,0.9,0.2,1.8-0.1,2.7
		C243.1,327.8,242.6,328.5,242,328.9z"/>
	<path class="st6" d="M245.9,332.9c0.4-0.7,0.7-1.4,0.9-2.1c0.2-0.8,0.2-1.6,0-2.4c-0.3-1-0.9-1.8-1.7-2.4s-1.8-0.9-2.8-1
		c-0.8,0-1.6,0.2-2.4,0.6c-0.7,0.4-1.3,0.9-1.8,1.5c0.3-0.8,0.8-1.4,1.6-1.8c0.8-0.5,1.6-0.7,2.5-0.8c2.8-0.1,5,2.1,5.1,4.9
		c0,0.5-0.1,1.1-0.2,1.6C247,331.7,246.6,332.4,245.9,332.9z"/>
	<path class="st6" d="M249.8,336.8c0.4-0.7,0.7-1.4,0.9-2.1c0.2-0.8,0.2-1.6,0-2.4c-0.6-1.9-2.4-3.3-4.4-3.3c-0.8,0-1.6,0.2-2.4,0.6
		c-0.7,0.4-1.3,0.9-1.8,1.5c-0.1,0,0.3-1,1.6-1.8c2.3-1.5,5.4-0.8,6.9,1.6c0.3,0.4,0.5,0.9,0.6,1.4c0.2,0.9,0.2,1.8-0.1,2.7
		C251,335.6,250.5,336.3,249.8,336.8z"/>
	<path class="st6" d="M253.7,340.7c0.4-0.7,0.7-1.4,0.9-2.1c0.2-0.8,0.2-1.6,0-2.4c-0.6-2-2.4-3.3-4.4-3.3c-0.8,0-1.6,0.2-2.4,0.6
		c-0.7,0.4-1.3,0.9-1.8,1.5c-0.1,0,0.3-1,1.6-1.8c2.4-1.5,5.5-0.7,6.9,1.6c0.3,0.4,0.5,0.9,0.6,1.4c0.2,0.9,0.2,1.8-0.1,2.7
		C254.9,339.6,254.4,340.3,253.7,340.7z"/>
	<path class="st6" d="M238.8,417.7c0-0.7-43.8-54.1-58.5-74.4l2.3-5.7l71.2-6.7l6.1,1.9l51.9,76.5L238.8,417.7z"/>
	<path class="st9" d="M148.9,322.7c0,0,0.1-0.3,0.2-0.8c0.6-2.9,2.7-12.6,4-13.5c1.5-1.2,6.8-2.8,6.8-2.8h2.7c0,0,9-6.5,10.8-6.5
		s6,1,6.3,3.1c0.2,1,0.3,2,0.1,3.1c0,0,5.9-1,7,1.8c0,0,4.5,1.2,5.6,5c1,3.8,1.2,14,1.2,14s-2.2,2.2-3.8,1c-0.3,1.2-1.6,1.9-2.7,1.5
		H187c-2.6-0.7-4.5-2.9-5-5.5c-0.2-2.3-0.8-6.3-0.8-6.3l-1.3,0.8c0,0,0.3,3.5-2.8,3.7c-3.2,0.2-3.3-1.9-3.3-1.9l-19.2-0.1l-2.7,3.3
		L148.9,322.7z"/>
	<path class="st10" d="M180,303.5c0.2,2.5,0.3,5,0.2,7.5c0.1,2.5-0.1,5-0.4,7.4c-0.2-2.5-0.3-5-0.2-7.5
		C179.5,308.4,179.7,305.9,180,303.5z"/>
	<path class="st10" d="M186.4,306.2c0,0,0.2,0.2,0.5,0.7c0.4,0.6,0.8,1.3,1.1,2c1,2.4,1.6,4.8,1.9,7.4c0.3,2.5,0.4,5.1,0.2,7.6
		c0,1.1-0.2,2.1-0.5,3.1c0-1,0-2.1,0.1-3.1c0-2.5-0.1-5-0.4-7.5c-0.3-2.5-0.8-4.9-1.7-7.3C187,307.2,186.3,306.3,186.4,306.2z"/>
	<path class="st10" d="M169.5,311c1-1.2,2.1-2.4,3.3-3.4l0.5-0.5l-0.1,0.7c-0.1,1-0.2,2.2-0.2,3.5c-0.1,4.6,0.6,8.3,0.4,8.3
		c-0.3-0.8-0.5-1.6-0.6-2.4c-0.3-2-0.4-3.9-0.4-5.9c0-1.2,0.1-2.4,0.3-3.6l0.4,0.2C172,309,170.8,310,169.5,311z"/>
	<path class="st10" d="M158,312.7c0,0,0-0.1,0.1-0.3c0.2-0.3,0.5-0.4,0.8-0.5c0.5-0.1,1,0.1,1.4,0.5c0.4,0.5,0.6,1.1,0.7,1.8
		c0.1,0.7,0,1.4,0,2.2c0,0.8,0.2,1.6,0.7,2.2c0.5,0.7,1.4,1,2.2,0.7c0.9-0.2,1.6-0.9,1.7-1.8c0.3-4,1.2-7.9-0.5-10
		c-0.6-0.8-1.5-1.3-2.6-1.3c-0.4,0-0.8,0.1-1.1,0.2c0,0,0.1-0.1,0.2-0.2c0.3-0.1,0.6-0.2,0.9-0.2c1.1-0.1,2.2,0.4,2.9,1.3
		c0.9,1.3,1.4,3,1.2,4.6c-0.1,1.8-0.3,3.7-0.5,5.8c-0.1,0.6-0.3,1.1-0.7,1.5c-0.8,0.8-1.9,1.1-3,0.7c-0.5-0.2-0.9-0.5-1.2-0.9
		c-0.5-0.8-0.7-1.6-0.7-2.5c0-0.8,0.1-1.5,0-2.2c0-0.6-0.2-1.1-0.5-1.6c-0.3-0.3-0.7-0.5-1.1-0.4C158.5,312.2,158.1,312.4,158,312.7
		z"/>
	<path class="st8" d="M218,458.6c-3.3-2.5-6.4-5.7-10.3-7.3c-4.2-1.7-17.6-2.1-21.9-3.7c-7.9-2.9-5.9-10.2-2-19.9
		c3.1-7.8,7.4-15.3,14.4-19.9l-9.8-14.5c-7.5,11.9-13.8,24.5-19,37.6c-2.3,5.9-4.4,12.2-3,18.4c1.7,6.5,6.9,11.4,13.5,12.6
		c6.9,1.1,14.3-2.1,20.9,0.3c3.3,1.1,5.9,3.5,8.7,5.6c8.1,5.6,17.9,8.1,27.7,7c3.6-0.4,8-2.2,8.3-5.8
		C235.8,466.7,225.9,464.5,218,458.6z"/>
	<g class="st11">
		<path d="M197.9,449.5c-1.4-0.1-4-0.5-6.8-0.8c-5.6-0.6-9.6-2.2-10.5-6.5c-1.4-7,6.7-22,6.7-22s8-11.5,11.1-12.2l-8.3-9.2
			c-6,8.7-10.7,18.3-14,28.3c-1.2,3.4-2,6.9-2.2,10.4c-0.2,3.6,0.8,7.1,2.8,10.1c3.6,4.8,10.3,5.2,16.2,6.2c5,0.9,7,0.5,12.9,3
			c5.7,2.4,10.5,6.8,16,9.7c0,0,12.1,7.1,21.7,5.7c0,0,2.1-1.8,2-3.5c0,0-14.7-3.3-17.8-4.9s-7.8-3.7-11.4-6.7
			C212.6,454.2,210,450.1,197.9,449.5z"/>
	</g>
	<path class="st6" d="M243.4,472.2c-0.4,0.1-0.8,0.2-1.2,0.3c-1.2,0.1-2.4,0.1-3.5,0c-4.3-0.7-8.5-1.9-12.5-3.6
		c-2.8-1.2-5.4-2.6-7.9-4.3c-2.7-1.7-5.6-3.7-8.7-5.6c-0.8-0.5-1.6-0.9-2.4-1.4c-0.8-0.4-1.7-0.8-2.6-1c-1.8-0.6-3.7-1-5.6-1.4
		c-3.9-0.8-8-1.5-12.1-2.1l0,0l-2-0.5c-2.1-0.5-4.2-1.3-6-2.4c-0.9-0.6-1.7-1.3-2.4-2.2c-0.6-0.9-1.1-1.8-1.5-2.8
		c-1.4-3.8-1.7-7.9-0.7-11.8c1.4-6.5,3.6-12.9,6.4-19c1.9-4.1,4.2-8,6.7-11.8c0.9-1.3,1.6-2.3,2.1-3l0.6-0.8
		c0.1-0.1,0.1-0.2,0.2-0.3l-0.2,0.3l-0.5,0.8c-0.5,0.7-1.1,1.7-2,3.1c-2.4,3.8-4.6,7.7-6.4,11.8c-2.8,6-4.9,12.4-6.3,18.9
		c-1,3.8-0.7,7.8,0.7,11.4c0.4,0.9,0.9,1.8,1.5,2.6c0.6,0.8,1.4,1.5,2.2,2.1c1.8,1.1,3.8,1.9,5.9,2.3l2,0.5l0,0
		c4.2,0.6,8.3,1.3,12.2,2.1c1.9,0.4,3.9,0.9,5.7,1.5c0.9,0.3,1.8,0.7,2.7,1.1c0.8,0.4,1.6,0.9,2.4,1.4c3.1,1.9,6,3.9,8.7,5.6
		c2.4,1.7,5.1,3.2,7.8,4.3c4,1.7,8.1,3,12.4,3.7c1.2,0.2,2.3,0.2,3.5,0.1C243,472.3,243.4,472.2,243.4,472.2z"/>
	<path class="st8" d="M266.4,345c0,0-13.5-8.6-23.8-5.5c-11.3,3.5-22.7,12.1-24.3,31.7c-1.3,15.5,4.1,30.6,4.1,30.6l-34.9-28.4
		c0,0-1.9,16.6,2.8,25.4c1.1,2.1,8.1,9.1,17.6,17.2c20,17,49.2,40,49.2,40s52.3,31.3,63.1,33s67.8-22.2,67.8-22.2
		s10.2-21.6,9.4-28.1c-0.9-6.4-77.2-63-84.9-67.3C304.8,367.5,266.4,345,266.4,345z"/>
	<path class="st6" d="M325,462.6c0.1,0-0.8,1.3-1.9,3.3c-1.5,2.7-2.5,5.7-3.2,8.7c-0.3,1.7-0.5,3.4-0.6,5.1c0,1.4,0,2.8,0.1,4.2
		c0.2,2.4,0.6,3.8,0.5,3.8c-0.2-0.3-0.3-0.6-0.3-1c-0.3-0.9-0.5-1.9-0.6-2.8c-0.2-1.4-0.3-2.8-0.3-4.2c0-1.7,0.2-3.5,0.6-5.2
		c0.7-3.1,1.8-6.1,3.4-8.8c0.5-0.8,1-1.6,1.6-2.4C324.8,462.9,325,462.6,325,462.6z"/>
	<path class="st6" d="M257.1,433.7c-0.5-0.3-1-0.7-1.5-1.1c-1-0.7-2.3-1.8-4-3.1c-3.3-2.7-7.8-6.6-12.5-11c-4.7-4.5-8.9-8.6-12-11.6
		l-3.6-3.5c-0.5-0.4-0.9-0.9-1.3-1.3c0.5,0.3,1,0.7,1.4,1.2c0.9,0.8,2.2,2,3.7,3.4l12.1,11.4c4.7,4.4,9.1,8.4,12.3,11.1l3.8,3.3
		C256.2,432.8,256.7,433.2,257.1,433.7z"/>
	<path class="st6" d="M270.8,418.4c-0.3,0.4-0.7,0.7-1.1,1s-0.8,0.7-1.3,1.2s-1.1,1-1.7,1.6c-3.3,3.2-6.2,6.6-8.8,10.4
		c-2.6,3.7-4.8,7.7-6.4,12c-1.2,3.3-1.7,5.4-1.8,5.4c0-0.5,0.1-1,0.3-1.5c0.1-0.6,0.3-1.2,0.4-1.7c0.2-0.8,0.4-1.5,0.7-2.2
		c1.5-4.3,3.7-8.4,6.3-12.2c2.6-3.8,5.6-7.2,9-10.3c0.6-0.6,1.3-1.1,1.8-1.6s1-0.8,1.4-1.1C269.9,419,270.3,418.7,270.8,418.4z"/>
	<path class="st6" d="M395.3,437.9c0.1,0.2-15.6,5.8-35,12.6c-19.4,6.8-35.2,12.2-35.2,12.1s15.6-5.8,35-12.6
		S395.3,437.8,395.3,437.9z"/>
	<path class="st6" d="M318.6,381.3c-0.2-0.1-0.3-0.1-0.4-0.2l-1.2-0.7l-4.7-2.8l-17-10.4l-5.6-3.5c-2-1.2-4-2.4-6.1-3.8
		c-4.1-2.7-8.4-5.9-13.1-8.8c-4.8-3.2-10.3-5.4-16-6.3c-3-0.4-6.1-0.3-9.1,0.3c-3.1,0.7-5.9,2.1-8.4,4c-4.9,3.9-8.3,9.3-9.7,15.4
		c-1.3,5.7-1,11.6,0.7,17.1c1.6,5,4,9.7,7.1,14c1.5,2,3,3.8,4.6,5.6s3,3.3,4.4,4.9c5.7,6.2,10.6,10.9,14.1,14.1
		c1.8,1.6,3.1,2.8,4.1,3.6l1.1,0.9c0.1,0.1,0.2,0.2,0.4,0.3c-0.1-0.1-0.3-0.2-0.4-0.3l-1.1-0.9c-1-0.8-2.4-1.9-4.2-3.5
		c-3.6-3.1-8.5-7.8-14.3-14c-1.4-1.5-2.9-3.2-4.4-4.9c-1.6-1.8-3.2-3.6-4.6-5.6c-3.2-4.2-5.6-9-7.2-14.1c-1.8-5.6-2.1-11.6-0.8-17.4
		c1.5-6.2,5-11.8,9.9-15.8c2.6-2,5.5-3.4,8.7-4.1c3.1-0.7,6.2-0.8,9.3-0.3c5.8,1,11.3,3.1,16.2,6.4c4.7,3,9,6.1,13.1,8.9
		c2.1,1.4,4.1,2.6,6,3.8l5.6,3.5l16.9,10.5l4.6,2.9l1.2,0.8L318.6,381.3z"/>
	<path class="st6" d="M318.6,376c-0.3-0.1-0.5-0.3-0.8-0.5l-2.2-1.4c-1.9-1.2-4.7-2.9-8.1-5c-6.9-4.2-16.7-9.7-27.2-16
		c-2.6-1.6-5.2-3.2-7.7-4.7s-4.9-2.8-7.3-4.1c-2.4-1.2-4.7-2.3-6.9-3.2c-2-0.9-4.1-1.5-6.2-1.9c-3.1-0.6-6.3-0.4-9.4,0.4
		c-1.1,0.3-2.2,0.7-3.3,1.2c1-0.6,2.1-1.1,3.2-1.4c3.1-0.9,6.4-1.1,9.5-0.5c2.2,0.4,4.3,1,6.4,1.9c2.2,0.9,4.5,2,6.9,3.2
		s4.9,2.6,7.4,4l7.7,4.7c10.6,6.3,20.3,11.9,27.1,16.1c3.4,2.1,6.2,3.9,8,5.2c0.9,0.6,1.7,1.1,2.1,1.5
		C318.1,375.6,318.3,375.7,318.6,376z"/>
	<path class="st9" d="M279.4,341.5l-17.2,6.7c0,0-0.7,1.6,1.8,3.3c2.5,1.6,6.8,0.6,6.8,0.6l-3.3,12.8c0,0,0.1,3.4,3.3,3.4
		c1.9,0.1,3.6-0.8,4.8-2.2c-0.4,2.3,0.8,4.6,2.8,5.6c1.3,0.9,3.2,0.6,4.1-0.7c0.2-0.3,0.4-0.7,0.5-1.1c0,0,2.2,2.6,3.7,2.3
		s8.9-11,8.9-11l2.5,1.5l5.2,3c1.3-2.8,1.8-5.8,1.6-8.9c-0.5-4.7-4.8-9.3-9.8-8.5c0,0-3.7-3.4-6.4-3.9s-3.9,0.7-3.9,0.7
		C284,343,281.8,341.6,279.4,341.5z"/>
	<path class="st10" d="M286.7,372.3h-0.3c-0.3,0-0.6-0.1-0.9-0.2c-1-0.5-1.9-1.2-2.7-2.1h0.2c-0.2,0.8-0.8,1.5-1.5,2
		c-0.9,0.5-2,0.5-2.9,0c-1.1-0.4-2-1.2-2.6-2.2c-0.7-1.1-0.9-2.5-0.7-3.8l0.4,0.2c-1.1,1.4-2.8,2.3-4.6,2.3c-1,0.1-2-0.2-2.8-0.8
		c-0.7-0.7-1.2-1.7-1.2-2.8v-0.1c1-3.9,2.1-8.2,3.3-12.8l0.3,0.3c-1.8,0.4-3.7,0.4-5.6,0c-0.9-0.3-1.8-0.8-2.5-1.4
		c-0.8-0.7-1.2-1.8-0.9-2.9v-0.1h0.1l4-1.5l13.3-5.1h0.1h0.1c1.3,0,2.5,0.4,3.5,1.1s1.8,1.7,2.2,2.8l-0.4-0.1c0.9-0.7,2-1,3.1-0.9
		c0.5,0,1,0.1,1.5,0.2s1,0.3,1.4,0.6c1.7,0.9,3.2,2,4.6,3.3l-0.2-0.1c1.8-0.2,3.5,0.1,5.1,1c1.4,0.8,2.5,1.9,3.3,3.2
		c0.8,1.1,1.3,2.4,1.5,3.8c0.2,1.1,0.2,2.3,0.1,3.4c-0.2,1.6-0.5,3.1-1.1,4.6c-0.2,0.5-0.4,0.9-0.5,1.1c-0.1,0.1-0.1,0.3-0.2,0.4
		c0-0.1,0.1-0.3,0.1-0.4c0.1-0.3,0.2-0.7,0.4-1.2c0.5-1.5,0.8-3,0.9-4.6c0.1-1.1,0-2.2-0.1-3.3c-0.6-2.8-2.3-5.2-4.7-6.7
		c-1.4-0.8-3.1-1.2-4.8-0.9h0l-0.1-0.1c-1.4-1.2-2.9-2.3-4.5-3.2c-0.8-0.4-1.8-0.7-2.7-0.7c-1-0.1-1.9,0.2-2.7,0.8l-0.3,0.2
		l-0.2-0.3c-0.4-1-1.1-1.9-2-2.5c-0.9-0.7-2.1-1-3.2-1h0.1l-13.3,5.2l-3.8,1.5l0.2-0.1c-0.2,0.8,0.1,1.7,0.8,2.2
		c0.6,0.6,1.4,1.1,2.2,1.3c1.7,0.4,3.5,0.4,5.2,0l0.5-0.1l-0.1,0.4c-1.2,4.6-2.4,8.9-3.4,12.8v-0.1c0,0.9,0.4,1.8,1,2.5
		c0.7,0.6,1.5,0.8,2.4,0.7c1.7,0,3.3-0.8,4.3-2.1l0.5-0.6l-0.1,0.8c-0.2,1.2,0.1,2.5,0.7,3.5c0.6,0.9,1.4,1.7,2.4,2.1
		c0.8,0.5,1.8,0.5,2.7,0c0.7-0.4,1.1-1.1,1.4-1.9l0.1-0.2l0.1,0.1c0.7,0.9,1.6,1.6,2.5,2.1C285.9,372.2,286.3,372.3,286.7,372.3z"/>
	<path class="st10" d="M283.4,346.7c-2.3,1-4.7,1.9-7.1,2.6l-2.8,0.9c-0.7,0.2-1.5,0.5-2.1,1c-0.3,0.4-0.5,0.9-0.6,1.4
		c-0.1,0.4-0.2,0.6-0.3,0.6c0,0,0-0.2,0-0.6c0.1-0.6,0.2-1.1,0.6-1.6c0.6-0.6,1.4-1,2.2-1.2l2.8-0.9
		C278.4,347.8,280.9,347.2,283.4,346.7z"/>
	<path class="st10" d="M288.2,350.9c-1,0.3-2,0.6-3.1,0.9s-2.1,0.7-3.1,1.2c-1.2,0.6-2.2,1.6-3,2.7c-0.4,0.6-0.6,1.3-0.7,1.9l-0.5,2
		c-0.3,1.3-0.6,2.4-0.9,3.3c-0.2,1-0.6,2-1.1,3c0.2-1,0.4-2.1,0.7-3.1c0.2-1,0.5-2.1,0.8-3.3c0.2-0.6,0.3-1.3,0.5-2s0.4-1.5,0.8-2.1
		c0.8-1.2,1.9-2.2,3.2-2.8c1.1-0.5,2.2-0.9,3.3-1.2C286.1,351.1,287.1,351,288.2,350.9z"/>
	<path class="st10" d="M293.4,355.3c0,0.1-1.1,0.3-2.8,0.8c-1,0.3-1.9,0.8-2.7,1.4c-1,0.8-1.7,1.8-2.2,3c-1,2.5-1.2,5-1.7,6.7
		c-0.2,1-0.5,1.9-1.1,2.7c-0.1,0,0.4-1,0.8-2.8c0.2-0.9,0.3-1.9,0.6-3.1c0.2-1.3,0.6-2.6,1-3.8c0.5-1.3,1.3-2.3,2.4-3.2
		c0.9-0.6,1.9-1.1,2.9-1.3C291.4,355.4,292.4,355.3,293.4,355.3z"/>
	<path class="st1" d="M335.3,383.1c-3.9-2.9-9.3-4.7-14.2-2.8c-11.5,4.4-35.9,19.1-45.5,26.2c-2.8,2-4.7,5-5.6,8.3l-0.6,2.6
		c0,0,50.9,36.5,57.7,37.1c6.8,0.6,59.2-22.4,59.2-22.4s3.2-8.1-1.8-12.4C363.5,401.8,349.9,394,335.3,383.1z"/>
	<path class="st6" d="M326,443.2c-0.1,0.6-0.2,1.2-0.5,1.7c-0.4,1.4-0.7,2.8-0.7,4.2c0,1.4,0.4,2.8,1.1,4c0.4,0.5,0.7,1,0.9,1.5
		c0,0-0.6-0.4-1.3-1.3c-0.9-1.2-1.3-2.7-1.3-4.2s0.3-2.9,0.9-4.3C325.4,444.2,325.6,443.7,326,443.2z"/>
	<path class="st6" d="M326,443.2c0.2-0.1,0.4-0.2,0.6-0.3l1.7-0.6l6.2-2.2c5.3-1.9,12.5-4.7,20.5-7.8l20.4-7.9l6.2-2.4l1.7-0.6
		c0.2-0.1,0.4-0.1,0.6-0.2c-0.2,0.1-0.4,0.2-0.6,0.3l-1.7,0.7l-6.1,2.6c-5.2,2.1-12.4,5-20.4,8.1s-15.3,5.7-20.6,7.6
		c-2.7,0.9-4.8,1.6-6.3,2.1l-1.7,0.5C326.4,443.1,326.2,443.2,326,443.2z"/>
	<path class="st6" d="M325.1,443.2c-0.2,0-0.4-0.1-0.6-0.2c-0.4-0.1-1-0.3-1.7-0.6c-2.1-0.8-4.1-1.8-6.1-2.9
		c-5-2.6-11.6-6.9-18.9-11.7c-7.2-4.7-14-8.6-18.7-11.9c-2.3-1.6-4.2-3-5.4-4.1c-0.6-0.5-1.1-0.9-1.4-1.2s-0.5-0.4-0.5-0.4
		s0.2,0.1,0.5,0.4l1.5,1.1c1.3,1,3.1,2.3,5.5,3.9c4.7,3.1,11.6,6.9,18.8,11.7c7.2,4.8,13.8,9.1,18.7,11.8c2.5,1.4,4.5,2.4,6,3
		C324.3,442.8,325.2,443.2,325.1,443.2z"/>
	<path class="st8" d="M292.7,412.3c-0.4-0.6-1-1-1.6-1.4l-4.2-2.9l-1.5,1.1c1.1,1.6,2.4,3.2,3.8,4.6c0.5,0.5,1.1,0.9,1.8,1.1
		c0.7,0.2,1.4,0,1.9-0.6C293.2,413.6,293.1,412.8,292.7,412.3z"/>
	<path class="st6" d="M334.2,382.3c-0.2,0.1-0.4,0.3-0.6,0.3l-1.7,0.9l-6.3,3.1c-5.3,2.6-12.6,6.3-20.5,10.6
		c-3.9,2.2-7.6,4.4-11,6.4s-6.3,4-8.7,5.7c-1.2,0.8-2.3,1.6-3.3,2.3c-1,0.7-1.8,1.3-2.4,1.8l-1.5,1.1c-0.4,0.2-0.5,0.4-0.6,0.4
		c0.1-0.2,0.3-0.3,0.5-0.5l1.5-1.2c0.6-0.5,1.4-1.1,2.4-1.9c0.9-0.8,2-1.5,3.2-2.4c2.4-1.7,5.3-3.7,8.6-5.8c3.3-2.1,7-4.3,11-6.5
		c7.9-4.4,15.3-8,20.6-10.5c2.7-1.3,4.9-2.2,6.4-2.9l1.7-0.8C333.7,382.4,333.9,382.3,334.2,382.3z"/>
	<path class="st6" d="M322.2,462.9c-0.2,0-0.5,0-0.7,0c-0.7,0-1.3-0.1-1.9-0.3c-2.4-0.4-4.7-1.2-6.9-2.2c-3.2-1.6-6.3-3.4-9.1-5.6
		c-3.2-2.4-6.7-5.3-10.4-7.9c-3.6-2.4-7.3-4.7-11.2-6.7c-3.2-1.7-6.2-3.6-9-5.8c-1.9-1.5-3.5-3.3-4.9-5.3c-0.4-0.5-0.7-1.1-1-1.7
		c-0.1-0.2-0.2-0.4-0.3-0.6c0,0,0.5,0.8,1.5,2.2c1.4,1.9,3.1,3.6,5,5.1c2.8,2.2,5.8,4.1,9,5.7c3.9,2,7.7,4.2,11.3,6.7
		c3.8,2.7,7.1,5.6,10.3,8c2.8,2.2,5.8,4.1,9,5.7c2.1,1.1,4.4,1.9,6.7,2.4C321.3,462.8,322.2,462.9,322.2,462.9z"/>
	<path class="st6" d="M206.7,415.3c-0.4-0.2-0.7-0.4-1-0.7l-2.5-2c-2.8-2.2-5.5-4.6-8.1-7.1c-2.7-2.5-4.8-5.5-6.2-8.8
		c-0.2-0.6-0.4-1.2-0.6-1.8c-0.1-0.5-0.2-0.9-0.3-1.4c0-0.4,0-0.8,0-1.2c0.3,1.4,0.7,2.8,1.2,4.2c1.5,3.2,3.7,6.1,6.3,8.5
		c2.9,3,5.9,5.4,7.9,7.2c1,0.9,1.9,1.6,2.4,2.2C206.2,414.7,206.5,414.9,206.7,415.3z"/>
	<path class="st8" d="M333.6,403.7c-0.6-0.6-1.5-0.8-2.4-0.7c-0.9,0-1.7,1.4-1.8,2.3c-0.1,1.5,0.2,3,0.9,4.4
		c-1.1-0.7-2.3-1.3-3.5-1.7c-1.1-0.4-2.2-0.4-3.3-0.2c-1.1,0.3-2,1.1-2.3,2.2c-0.1,1.1,0.3,2.2,1.2,3c0.9,0.7,1.9,1.2,3,1.5
		c5.1,1.9,10.2,3.6,15.3,5.2C340,413.8,337.9,408.1,333.6,403.7z"/>
	<path class="st6" d="M238,467.1c0,0,21.4,3,26.2,0c4.5-2.8,4.9-3.8,4.9-3.8l4.9,2.8c-2.8,3.4-6.8,5.6-11.1,6.3
		c-11.1,1.8-26.4-0.7-26.4-0.7L238,467.1z"/>
	<path class="st6" d="M255.2,471c0,0,0.1,0.3,0.2,0.8c0,0.3,0,0.7-0.1,1c-0.1,0.5-0.4,0.9-0.8,1.1c-0.5,0.3-1,0.4-1.5,0.5
		c-0.6,0.2-1.3,0.2-1.9,0c-0.3-0.1-0.7-0.4-0.9-0.7c-0.2-0.3-0.3-0.7-0.3-1.1c0-0.7,0-1.4,0-2.1s0-1.4,0.2-2.1
		c0.3-0.7,0.8-1.2,1.6-1.4c0.6-0.2,1.3-0.1,1.9,0.1c0.3,0.1,0.5,0.2,0.8,0.3c0.2,0.2,0.4,0.4,0.6,0.6c0.1,0.4,0.2,0.9,0.2,1.3
		c0,0.3,0.1,0.6,0.1,0.9C255.2,470.5,255.2,470.8,255.2,471c0,0-0.1-0.2-0.2-0.7c-0.1-0.3-0.1-0.6-0.2-0.9c-0.1-0.4-0.2-0.8-0.3-1.1
		c-0.2-0.4-0.7-0.6-1.1-0.7c-0.5-0.2-1.1-0.2-1.6,0c-0.6,0.1-1,0.6-1.2,1.1c-0.1,0.6-0.2,1.3-0.1,2c0.1,1.4-0.3,3,0.9,3.3
		c0.5,0.2,1.1,0.2,1.6,0.1s0.9-0.2,1.4-0.4c0.6-0.3,0.9-1,0.9-1.7C255.1,471.6,255.1,471.3,255.2,471z"/>
	<g class="st11">
		<path d="M381.4,456.1c-0.8-0.5-1.8-0.6-2.7-0.3c-15.8,2.3-36.8,7.7-44.5,17.5c13.2-6.9,27.7-11.1,42.6-12.1c1.5,0,3-0.3,4.3-1.1
			C382.2,459.1,382.6,457,381.4,456.1z"/>
	</g>
</g>
</svg>
