<?xml version="1.0" encoding="utf-8"?>
<!-- Generator: Adobe Illustrator 25.2.1, SVG Export Plug-In . SVG Version: 6.00 Build 0)  -->
<svg version="1.1" id="Capa_1" xmlns="http://www.w3.org/2000/svg" xmlns:xlink="http://www.w3.org/1999/xlink" x="0px" y="0px"
	 viewBox="0 0 512 512" style="enable-background:new 0 0 512 512;" xml:space="preserve">
<style type="text/css">
	.st0{fill:#FAA930;}
</style>
<g transform="translate(0.000000,512.000000) scale(0.100000,-0.100000)">
	<path class="st0" d="M2258.3,5102.6c-864.4-105.9-1615.5-637.8-1996-1416C-35.7,3075.9-81.2,2388.8,133,1747.2
		C557.8,479,1891.4-250,3189.2,78.8C3918.1,263.5,4530.1,761,4856.4,1433.3c300.4,616.9,344.8,1295.4,129.3,1941.8
		C4604,4519,3453.9,5246.7,2258.3,5102.6z M2987.3,3914.4c86.2-38.2,131.8-141.6,103.4-231.5c-9.9-34.5-144.1-184.7-523.3-589.8
		l-511-543l492.5-525.8c269.7-288.1,499.9-540.6,509.8-560.3c80-155.1-92.3-337.4-250-266c-65.3,29.6-1116.8,1153.8-1157.4,1236.3
		c-33.2,69-32,166.2,2.5,237.6c29.6,61.6,1131.6,1237.5,1174.7,1252.3C2880.1,3943.9,2930.6,3940.2,2987.3,3914.4z"/>
</g>
</svg>
