<?xml version="1.0" encoding="utf-8"?>
<!-- Generator: Adobe Illustrator 25.2.1, SVG Export Plug-In . SVG Version: 6.00 Build 0)  -->
<svg version="1.1" id="Layer_1" xmlns="http://www.w3.org/2000/svg" xmlns:xlink="http://www.w3.org/1999/xlink" x="0px" y="0px"
	 viewBox="0 0 3000 3000" style="enable-background:new 0 0 3000 3000;" xml:space="preserve">
<style type="text/css">
	.st0{clip-path:url(#SVGID_2_);}
	.st1{fill:#EC1C24;}
	.st2{fill:#EC1D24;}
	.st3{fill:#EC1E24;}
	.st4{fill:#EC1F24;}
	.st5{fill:#EC2024;}
	.st6{fill:#ED2124;}
	.st7{fill:#ED2224;}
	.st8{fill:#ED2324;}
	.st9{fill:#ED2424;}
	.st10{fill:#ED2524;}
	.st11{fill:#ED2624;}
	.st12{fill:#ED2724;}
	.st13{fill:#ED2824;}
	.st14{fill:#ED2924;}
	.st15{fill:#ED2A24;}
	.st16{fill:#EE2A24;}
	.st17{fill:#EE2B24;}
	.st18{fill:#EE2C24;}
	.st19{fill:#EE2D24;}
	.st20{fill:#EE2E24;}
	.st21{fill:#EE2F24;}
	.st22{fill:#EE3024;}
	.st23{fill:#EE3124;}
	.st24{fill:#EE3224;}
	.st25{fill:#EE3225;}
	.st26{fill:#EF3325;}
	.st27{fill:#EF3425;}
	.st28{fill:#EF3525;}
	.st29{fill:#EF3625;}
	.st30{fill:#EF3725;}
	.st31{fill:#EF3825;}
	.st32{fill:#EF3925;}
	.st33{fill:#EF3A25;}
	.st34{fill:#EF3B25;}
	.st35{fill:#EF3C25;}
	.st36{fill:#F03D25;}
	.st37{fill:#F03E25;}
	.st38{fill:#F03F25;}
	.st39{fill:#F04025;}
	.st40{fill:#F04125;}
	.st41{fill:#F04225;}
	.st42{fill:#F04325;}
	.st43{fill:#F04425;}
	.st44{fill:#F04525;}
	.st45{fill:#F14625;}
	.st46{fill:#F14725;}
	.st47{fill:#F14825;}
	.st48{fill:#F14925;}
	.st49{fill:#F14A25;}
	.st50{fill:#F14B25;}
	.st51{fill:#F14C25;}
	.st52{fill:#F14D25;}
	.st53{fill:#F14E25;}
	.st54{fill:#F24F25;}
	.st55{fill:#F25025;}
	.st56{fill:#F25125;}
	.st57{fill:#F25225;}
	.st58{fill:#F25325;}
	.st59{fill:#F25425;}
	.st60{fill:#F25525;}
	.st61{fill:#F25625;}
	.st62{fill:#F25725;}
	.st63{fill:#F35825;}
	.st64{fill:#F35925;}
	.st65{fill:#F35A25;}
	.st66{fill:#F35C25;}
	.st67{fill:#F35D25;}
	.st68{fill:#F35E26;}
	.st69{fill:#F35F26;}
	.st70{fill:#F36026;}
	.st71{fill:#F46126;}
	.st72{fill:#F46226;}
	.st73{fill:#F46426;}
	.st74{fill:#F46526;}
	.st75{fill:#F46626;}
	.st76{fill:#F46726;}
	.st77{fill:#F46826;}
	.st78{fill:#F46A26;}
	.st79{fill:#F56B26;}
	.st80{fill:#F56C26;}
	.st81{fill:#F56D26;}
	.st82{fill:#F56F26;}
	.st83{fill:#F57026;}
	.st84{fill:#F57126;}
	.st85{fill:#F57226;}
	.st86{fill:#F67426;}
	.st87{fill:#F67526;}
	.st88{fill:#F67626;}
	.st89{fill:#F67726;}
	.st90{fill:#F67926;}
	.st91{fill:#F67A26;}
	.st92{fill:#F67B26;}
	.st93{fill:#F77D26;}
	.st94{fill:#F77E26;}
	.st95{fill:#F77F26;}
	.st96{fill:#F78126;}
	.st97{fill:#F78226;}
	.st98{fill:#F78426;}
	.st99{fill:#F78526;}
	.st100{fill:#F88626;}
	.st101{fill:#F88826;}
	.st102{fill:#F88927;}
	.st103{fill:#F88A27;}
	.st104{fill:#F88C27;}
	.st105{fill:#F88D27;}
	.st106{fill:#F98F27;}
	.st107{fill:#F99027;}
	.st108{fill:#F99227;}
	.st109{fill:#F99327;}
	.st110{fill:#F99427;}
	.st111{fill:#F99627;}
	.st112{fill:#F99727;}
	.st113{fill:#FA9927;}
	.st114{fill:#FA9A27;}
	.st115{fill:#FA9C27;}
	.st116{fill:#FA9D27;}
	.st117{fill:#FA9F27;}
	.st118{fill:#FAA027;}
	.st119{fill:#FBA227;}
	.st120{fill:#FBA327;}
	.st121{fill:#FBA527;}
	.st122{fill:#FBA627;}
	.st123{fill:#FBA827;}
	.st124{fill:#FBAA27;}
	.st125{fill:#FCAB27;}
	.st126{fill:#FCAD27;}
	.st127{fill:#FCAE27;}
	.st128{fill:#FCB027;}
	.st129{fill:#FCB127;}
	.st130{fill:#FCB327;}
	.st131{fill:#FDB528;}
	.st132{fill:#FDB628;}
	.st133{fill:#FDB828;}
	.st134{fill:#FDB928;}
	.st135{fill:#FDBB28;}
	.st136{fill:#FEBD28;}
	.st137{fill:#FEBE28;}
	.st138{fill:#FEC028;}
	.st139{fill:#FEC228;}
	.st140{fill:#FEC328;}
	.st141{fill:#FEC528;}
	.st142{fill:#FFC728;}
	.st143{fill:#FFC828;}
	.st144{fill:#FFCA28;}
	.st145{fill:#390075;}
	.st146{opacity:0.5;}
	.st147{fill:#FFFFFF;}
	.st148{fill:#FFD553;}
	.st149{opacity:0.3;}
	.st150{fill:#F2101C;}
	.st151{fill:#000072;}
	.st152{fill:#D83C2D;}
	.st153{fill:#4089FF;}
	.st154{fill:#FFCFAE;}
	.st155{fill:#FDD800;}
	.st156{opacity:0.4;}
	.st157{opacity:0.35;}
	.st158{fill:#FC277E;}
	.st159{fill:#FFDAA4;}
	.st160{fill:#6B184E;}
	.st161{fill:none;stroke:#000072;stroke-width:28.4663;stroke-linecap:round;stroke-miterlimit:10;}
	.st162{fill:#293856;}
	.st163{fill:#FFCBBD;}
	.st164{fill:none;stroke:#000072;stroke-width:33.6378;stroke-linecap:round;stroke-miterlimit:10;}
	.st165{fill:#64CBFF;}
	.st166{fill:#17172B;}
	.st167{fill:#94452F;}
	.st168{fill:#925A4D;}
	.st169{fill:#FFFFFF;stroke:#000072;stroke-width:0;stroke-linecap:round;stroke-linejoin:round;stroke-miterlimit:10;}
	.st170{fill:#FF4AA1;}
</style>
<g>
	<g>
		<g>
			<g>
				<g>
					<defs>
						<path id="SVGID_1_" d="M26.1,2609.3c324-83.1,387.7,142.1,593.2,89.4S811,2415.4,811,2415.4s-98.9-208.8-304.4-156.1
							C301.1,2312,350.2,2526.2,26.1,2609.3z"/>
					</defs>
					<clipPath id="SVGID_2_">
						<use xlink:href="#SVGID_1_"  style="overflow:visible;"/>
					</clipPath>
					<g class="st0">
						<g>
							<polygon class="st1" points="26.1,2609.3 74.9,2751.5 26.1,2751.5 							"/>
						</g>
					</g>
					<g class="st0">
						<g>
							<polygon class="st1" points="26.1,2595.1 79.8,2751.5 74.9,2751.5 26.1,2609.3 							"/>
						</g>
					</g>
					<g class="st0">
						<g>
							<polygon class="st1" points="26.1,2580.8 84.7,2751.5 79.8,2751.5 26.1,2595.1 							"/>
						</g>
					</g>
					<g class="st0">
						<g>
							<polygon class="st1" points="26.1,2566.5 89.6,2751.5 84.7,2751.5 26.1,2580.8 							"/>
						</g>
					</g>
					<g class="st0">
						<g>
							<polygon class="st1" points="26.1,2552.3 94.4,2751.5 89.6,2751.5 26.1,2566.5 							"/>
						</g>
					</g>
					<g class="st0">
						<g>
							<polygon class="st1" points="26.1,2538 99.3,2751.5 94.4,2751.5 26.1,2552.3 							"/>
						</g>
					</g>
					<g class="st0">
						<g>
							<polygon class="st1" points="26.1,2523.7 104.2,2751.5 99.3,2751.5 26.1,2538 							"/>
						</g>
					</g>
					<g class="st0">
						<g>
							<polygon class="st2" points="26.1,2509.5 109.1,2751.5 104.2,2751.5 26.1,2523.7 							"/>
						</g>
					</g>
					<g class="st0">
						<g>
							<polygon class="st2" points="26.1,2495.2 114,2751.5 109.1,2751.5 26.1,2509.5 							"/>
						</g>
					</g>
					<g class="st0">
						<g>
							<polygon class="st2" points="26.1,2480.9 118.9,2751.5 114,2751.5 26.1,2495.2 							"/>
						</g>
					</g>
					<g class="st0">
						<g>
							<polygon class="st2" points="26.1,2466.7 123.8,2751.5 118.9,2751.5 26.1,2480.9 							"/>
						</g>
					</g>
					<g class="st0">
						<g>
							<polygon class="st2" points="26.1,2452.4 128.7,2751.5 123.8,2751.5 26.1,2466.7 							"/>
						</g>
					</g>
					<g class="st0">
						<g>
							<polygon class="st3" points="26.1,2438.1 133.6,2751.5 128.7,2751.5 26.1,2452.4 							"/>
						</g>
					</g>
					<g class="st0">
						<g>
							<polygon class="st3" points="26.1,2423.9 138.5,2751.5 133.6,2751.5 26.1,2438.1 							"/>
						</g>
					</g>
					<g class="st0">
						<g>
							<polygon class="st3" points="26.1,2409.6 143.4,2751.5 138.5,2751.5 26.1,2423.9 							"/>
						</g>
					</g>
					<g class="st0">
						<g>
							<polygon class="st4" points="26.1,2396.1 26.4,2396 148.3,2751.5 143.4,2751.5 26.1,2409.6 							"/>
						</g>
					</g>
					<g class="st0">
						<g>
							<polygon class="st4" points="26.4,2396 30.7,2394.5 153.2,2751.5 148.3,2751.5 							"/>
						</g>
					</g>
					<g class="st0">
						<g>
							<polygon class="st4" points="30.7,2394.5 35.1,2393 158.1,2751.5 153.2,2751.5 							"/>
						</g>
					</g>
					<g class="st0">
						<g>
							<polygon class="st5" points="35.1,2393 39.5,2391.5 162.9,2751.5 158.1,2751.5 							"/>
						</g>
					</g>
					<g class="st0">
						<g>
							<polygon class="st5" points="39.5,2391.5 43.9,2390 167.8,2751.5 162.9,2751.5 							"/>
						</g>
					</g>
					<g class="st0">
						<g>
							<polygon class="st5" points="43.9,2390 48.2,2388.5 172.7,2751.5 167.8,2751.5 							"/>
						</g>
					</g>
					<g class="st0">
						<g>
							<polygon class="st6" points="48.2,2388.5 52.6,2387 177.6,2751.5 172.7,2751.5 							"/>
						</g>
					</g>
					<g class="st0">
						<g>
							<polygon class="st6" points="52.6,2387 57,2385.5 182.5,2751.5 177.6,2751.5 							"/>
						</g>
					</g>
					<g class="st0">
						<g>
							<polygon class="st6" points="57,2385.5 61.4,2384 187.4,2751.5 182.5,2751.5 							"/>
						</g>
					</g>
					<g class="st0">
						<g>
							<polygon class="st7" points="61.4,2384 65.8,2382.5 192.3,2751.5 187.4,2751.5 							"/>
						</g>
					</g>
					<g class="st0">
						<g>
							<polygon class="st7" points="65.8,2382.5 70.1,2381 197.2,2751.5 192.3,2751.5 							"/>
						</g>
					</g>
					<g class="st0">
						<g>
							<polygon class="st8" points="70.1,2381 74.5,2379.5 202.1,2751.5 197.2,2751.5 							"/>
						</g>
					</g>
					<g class="st0">
						<g>
							<polygon class="st8" points="74.5,2379.5 78.9,2378 207,2751.5 202.1,2751.5 							"/>
						</g>
					</g>
					<g class="st0">
						<g>
							<polygon class="st9" points="78.9,2378 83.3,2376.5 211.9,2751.5 207,2751.5 							"/>
						</g>
					</g>
					<g class="st0">
						<g>
							<polygon class="st9" points="83.3,2376.5 87.6,2375 216.8,2751.5 211.9,2751.5 							"/>
						</g>
					</g>
					<g class="st0">
						<g>
							<polygon class="st10" points="87.6,2375 92,2373.5 221.7,2751.5 216.8,2751.5 							"/>
						</g>
					</g>
					<g class="st0">
						<g>
							<polygon class="st10" points="92,2373.5 96.4,2372 226.6,2751.5 221.7,2751.5 							"/>
						</g>
					</g>
					<g class="st0">
						<g>
							<polygon class="st11" points="96.4,2372 100.8,2370.5 231.4,2751.5 226.6,2751.5 							"/>
						</g>
					</g>
					<g class="st0">
						<g>
							<polygon class="st11" points="100.8,2370.5 105.2,2369 236.3,2751.5 231.4,2751.5 							"/>
						</g>
					</g>
					<g class="st0">
						<g>
							<polygon class="st12" points="105.2,2369 109.5,2367.5 241.2,2751.5 236.3,2751.5 							"/>
						</g>
					</g>
					<g class="st0">
						<g>
							<polygon class="st12" points="109.5,2367.5 113.9,2366 246.1,2751.5 241.2,2751.5 							"/>
						</g>
					</g>
					<g class="st0">
						<g>
							<polygon class="st13" points="113.9,2366 118.3,2364.5 251,2751.5 246.1,2751.5 							"/>
						</g>
					</g>
					<g class="st0">
						<g>
							<polygon class="st13" points="118.3,2364.5 122.7,2363 255.9,2751.5 251,2751.5 							"/>
						</g>
					</g>
					<g class="st0">
						<g>
							<polygon class="st14" points="122.7,2363 127,2361.5 260.8,2751.5 255.9,2751.5 							"/>
						</g>
					</g>
					<g class="st0">
						<g>
							<polygon class="st15" points="127,2361.5 131.4,2360 265.7,2751.5 260.8,2751.5 							"/>
						</g>
					</g>
					<g class="st0">
						<g>
							<polygon class="st16" points="131.4,2360 135.8,2358.5 270.6,2751.5 265.7,2751.5 							"/>
						</g>
					</g>
					<g class="st0">
						<g>
							<polygon class="st17" points="135.8,2358.5 140.2,2357 275.5,2751.5 270.6,2751.5 							"/>
						</g>
					</g>
					<g class="st0">
						<g>
							<polygon class="st17" points="140.2,2357 144.6,2355.5 280.4,2751.5 275.5,2751.5 							"/>
						</g>
					</g>
					<g class="st0">
						<g>
							<polygon class="st18" points="144.6,2355.5 148.9,2354 285.3,2751.5 280.4,2751.5 							"/>
						</g>
					</g>
					<g class="st0">
						<g>
							<polygon class="st19" points="148.9,2354 153.3,2352.5 290.2,2751.5 285.3,2751.5 							"/>
						</g>
					</g>
					<g class="st0">
						<g>
							<polygon class="st19" points="153.3,2352.5 157.7,2351 295.1,2751.5 290.2,2751.5 							"/>
						</g>
					</g>
					<g class="st0">
						<g>
							<polygon class="st20" points="157.7,2351 162.1,2349.5 299.9,2751.5 295.1,2751.5 							"/>
						</g>
					</g>
					<g class="st0">
						<g>
							<polygon class="st21" points="162.1,2349.5 166.4,2348 304.8,2751.5 299.9,2751.5 							"/>
						</g>
					</g>
					<g class="st0">
						<g>
							<polygon class="st21" points="166.4,2348 170.8,2346.5 309.7,2751.5 304.8,2751.5 							"/>
						</g>
					</g>
					<g class="st0">
						<g>
							<polygon class="st22" points="170.8,2346.5 175.2,2345 314.6,2751.5 309.7,2751.5 							"/>
						</g>
					</g>
					<g class="st0">
						<g>
							<polygon class="st23" points="175.2,2345 179.6,2343.5 319.5,2751.5 314.6,2751.5 							"/>
						</g>
					</g>
					<g class="st0">
						<g>
							<polygon class="st24" points="179.6,2343.5 184,2342 324.4,2751.5 319.5,2751.5 							"/>
						</g>
					</g>
					<g class="st0">
						<g>
							<polygon class="st25" points="184,2342 188.3,2340.5 329.3,2751.5 324.4,2751.5 							"/>
						</g>
					</g>
					<g class="st0">
						<g>
							<polygon class="st26" points="188.3,2340.5 192.7,2339 334.2,2751.5 329.3,2751.5 							"/>
						</g>
					</g>
					<g class="st0">
						<g>
							<polygon class="st27" points="192.7,2339 197.1,2337.5 339.1,2751.5 334.2,2751.5 							"/>
						</g>
					</g>
					<g class="st0">
						<g>
							<polygon class="st28" points="197.1,2337.5 201.5,2336 344,2751.5 339.1,2751.5 							"/>
						</g>
					</g>
					<g class="st0">
						<g>
							<polygon class="st28" points="201.5,2336 205.8,2334.5 348.9,2751.5 344,2751.5 							"/>
						</g>
					</g>
					<g class="st0">
						<g>
							<polygon class="st29" points="205.8,2334.5 210.2,2333 353.8,2751.5 348.9,2751.5 							"/>
						</g>
					</g>
					<g class="st0">
						<g>
							<polygon class="st30" points="210.2,2333 214.6,2331.5 358.7,2751.5 353.8,2751.5 							"/>
						</g>
					</g>
					<g class="st0">
						<g>
							<polygon class="st31" points="214.6,2331.5 219,2330 363.6,2751.5 358.7,2751.5 							"/>
						</g>
					</g>
					<g class="st0">
						<g>
							<polygon class="st32" points="219,2330 223.4,2328.5 368.4,2751.5 363.6,2751.5 							"/>
						</g>
					</g>
					<g class="st0">
						<g>
							<polygon class="st32" points="223.4,2328.5 227.7,2327 373.3,2751.5 368.4,2751.5 							"/>
						</g>
					</g>
					<g class="st0">
						<g>
							<polygon class="st33" points="227.7,2327 232.1,2325.5 378.2,2751.5 373.3,2751.5 							"/>
						</g>
					</g>
					<g class="st0">
						<g>
							<polygon class="st34" points="232.1,2325.5 236.5,2324 383.1,2751.5 378.2,2751.5 							"/>
						</g>
					</g>
					<g class="st0">
						<g>
							<polygon class="st35" points="236.5,2324 240.9,2322.5 388,2751.5 383.1,2751.5 							"/>
						</g>
					</g>
					<g class="st0">
						<g>
							<polygon class="st36" points="240.9,2322.5 245.2,2321 392.9,2751.5 388,2751.5 							"/>
						</g>
					</g>
					<g class="st0">
						<g>
							<polygon class="st37" points="245.2,2321 249.6,2319.5 397.8,2751.5 392.9,2751.5 							"/>
						</g>
					</g>
					<g class="st0">
						<g>
							<polygon class="st37" points="249.6,2319.5 254,2318 402.7,2751.5 397.8,2751.5 							"/>
						</g>
					</g>
					<g class="st0">
						<g>
							<polygon class="st38" points="254,2318 258.4,2316.5 407.6,2751.5 402.7,2751.5 							"/>
						</g>
					</g>
					<g class="st0">
						<g>
							<polygon class="st39" points="258.4,2316.5 262.8,2314.9 412.5,2751.5 407.6,2751.5 							"/>
						</g>
					</g>
					<g class="st0">
						<g>
							<polygon class="st40" points="262.8,2314.9 267.1,2313.4 417.4,2751.5 412.5,2751.5 							"/>
						</g>
					</g>
					<g class="st0">
						<g>
							<polygon class="st41" points="267.1,2313.4 271.5,2311.9 422.3,2751.5 417.4,2751.5 							"/>
						</g>
					</g>
					<g class="st0">
						<g>
							<polygon class="st42" points="271.5,2311.9 275.9,2310.4 427.2,2751.5 422.3,2751.5 							"/>
						</g>
					</g>
					<g class="st0">
						<g>
							<polygon class="st43" points="275.9,2310.4 280.3,2308.9 432.1,2751.5 427.2,2751.5 							"/>
						</g>
					</g>
					<g class="st0">
						<g>
							<polygon class="st44" points="280.3,2308.9 284.7,2307.4 436.9,2751.5 432.1,2751.5 							"/>
						</g>
					</g>
					<g class="st0">
						<g>
							<polygon class="st45" points="284.7,2307.4 289,2305.9 441.8,2751.5 436.9,2751.5 							"/>
						</g>
					</g>
					<g class="st0">
						<g>
							<polygon class="st46" points="289,2305.9 293.4,2304.4 446.7,2751.5 441.8,2751.5 							"/>
						</g>
					</g>
					<g class="st0">
						<g>
							<polygon class="st47" points="293.4,2304.4 297.8,2302.9 451.6,2751.5 446.7,2751.5 							"/>
						</g>
					</g>
					<g class="st0">
						<g>
							<polygon class="st48" points="297.8,2302.9 302.2,2301.4 456.5,2751.5 451.6,2751.5 							"/>
						</g>
					</g>
					<g class="st0">
						<g>
							<polygon class="st49" points="302.2,2301.4 306.5,2299.9 461.4,2751.5 456.5,2751.5 							"/>
						</g>
					</g>
					<g class="st0">
						<g>
							<polygon class="st50" points="306.5,2299.9 310.9,2298.4 466.3,2751.5 461.4,2751.5 							"/>
						</g>
					</g>
					<g class="st0">
						<g>
							<polygon class="st51" points="310.9,2298.4 315.3,2296.9 471.2,2751.5 466.3,2751.5 							"/>
						</g>
					</g>
					<g class="st0">
						<g>
							<polygon class="st52" points="315.3,2296.9 319.7,2295.4 476.1,2751.5 471.2,2751.5 							"/>
						</g>
					</g>
					<g class="st0">
						<g>
							<polygon class="st53" points="319.7,2295.4 324.1,2293.9 481,2751.5 476.1,2751.5 							"/>
						</g>
					</g>
					<g class="st0">
						<g>
							<polygon class="st54" points="324.1,2293.9 328.4,2292.4 485.9,2751.5 481,2751.5 							"/>
						</g>
					</g>
					<g class="st0">
						<g>
							<polygon class="st55" points="328.4,2292.4 332.8,2290.9 490.8,2751.5 485.9,2751.5 							"/>
						</g>
					</g>
					<g class="st0">
						<g>
							<polygon class="st56" points="332.8,2290.9 337.2,2289.4 495.7,2751.5 490.8,2751.5 							"/>
						</g>
					</g>
					<g class="st0">
						<g>
							<polygon class="st57" points="337.2,2289.4 341.6,2287.9 500.6,2751.5 495.7,2751.5 							"/>
						</g>
					</g>
					<g class="st0">
						<g>
							<polygon class="st58" points="341.6,2287.9 345.9,2286.4 505.4,2751.5 500.6,2751.5 							"/>
						</g>
					</g>
					<g class="st0">
						<g>
							<polygon class="st59" points="345.9,2286.4 350.3,2284.9 510.3,2751.5 505.4,2751.5 							"/>
						</g>
					</g>
					<g class="st0">
						<g>
							<polygon class="st60" points="350.3,2284.9 354.7,2283.4 515.2,2751.5 510.3,2751.5 							"/>
						</g>
					</g>
					<g class="st0">
						<g>
							<polygon class="st61" points="354.7,2283.4 359.1,2281.9 520.1,2751.5 515.2,2751.5 							"/>
						</g>
					</g>
					<g class="st0">
						<g>
							<polygon class="st62" points="359.1,2281.9 363.5,2280.4 525,2751.5 520.1,2751.5 							"/>
						</g>
					</g>
					<g class="st0">
						<g>
							<polygon class="st63" points="363.5,2280.4 367.8,2278.9 529.9,2751.5 525,2751.5 							"/>
						</g>
					</g>
					<g class="st0">
						<g>
							<polygon class="st64" points="367.8,2278.9 372.2,2277.4 534.8,2751.5 529.9,2751.5 							"/>
						</g>
					</g>
					<g class="st0">
						<g>
							<polygon class="st65" points="372.2,2277.4 376.6,2275.9 539.7,2751.5 534.8,2751.5 							"/>
						</g>
					</g>
					<g class="st0">
						<g>
							<polygon class="st66" points="376.6,2275.9 381,2274.4 544.6,2751.5 539.7,2751.5 							"/>
						</g>
					</g>
					<g class="st0">
						<g>
							<polygon class="st67" points="381,2274.4 385.3,2272.9 549.2,2750.8 547.2,2751.5 544.6,2751.5 							"/>
						</g>
					</g>
					<g class="st0">
						<g>
							
								<rect x="467.2" y="2258.5" transform="matrix(0.9459 -0.3244 0.3244 0.9459 -789.3054 288.1561)" class="st68" width="4.6" height="505.2"/>
						</g>
					</g>
					<g class="st0">
						<g>
							
								<rect x="471.5" y="2257" transform="matrix(0.9459 -0.3244 0.3244 0.9459 -788.5964 289.5038)" class="st69" width="4.6" height="505.2"/>
						</g>
					</g>
					<g class="st0">
						<g>
							
								<rect x="475.9" y="2255.5" transform="matrix(0.9459 -0.3244 0.3244 0.9459 -787.8574 290.8344)" class="st70" width="4.6" height="505.2"/>
						</g>
					</g>
					<g class="st0">
						<g>
							
								<rect x="480.3" y="2254" transform="matrix(0.9459 -0.3244 0.3244 0.9459 -787.1484 292.1821)" class="st71" width="4.6" height="505.2"/>
						</g>
					</g>
					<g class="st0">
						<g>
							
								<rect x="484.7" y="2252.5" transform="matrix(0.9459 -0.3244 0.3244 0.9459 -786.4094 293.5126)" class="st72" width="4.6" height="505.2"/>
						</g>
					</g>
					<g class="st0">
						<g>
							
								<rect x="489.1" y="2251" transform="matrix(0.9459 -0.3244 0.3244 0.9459 -785.6854 294.8518)" class="st73" width="4.6" height="505.2"/>
						</g>
					</g>
					<g class="st0">
						<g>
							
								<rect x="493.4" y="2249.5" transform="matrix(0.9459 -0.3244 0.3244 0.9459 -784.9763 296.1996)" class="st74" width="4.6" height="505.2"/>
						</g>
					</g>
					<g class="st0">
						<g>
							
								<rect x="497.8" y="2248" transform="matrix(0.9459 -0.3244 0.3244 0.9459 -784.2374 297.53)" class="st75" width="4.6" height="505.2"/>
						</g>
					</g>
					<g class="st0">
						<g>
							
								<rect x="502.2" y="2246.5" transform="matrix(0.9459 -0.3244 0.3244 0.9459 -783.5134 298.8692)" class="st76" width="4.6" height="505.2"/>
						</g>
					</g>
					<g class="st0">
						<g>
							
								<rect x="506.6" y="2245" transform="matrix(0.9459 -0.3244 0.3244 0.9459 -782.8042 300.2171)" class="st77" width="4.6" height="505.2"/>
						</g>
					</g>
					<g class="st0">
						<g>
							
								<rect x="510.9" y="2243.5" transform="matrix(0.9459 -0.3244 0.3244 0.9459 -782.0653 301.5475)" class="st78" width="4.6" height="505.2"/>
						</g>
					</g>
					<g class="st0">
						<g>
							
								<rect x="515.3" y="2242" transform="matrix(0.9459 -0.3244 0.3244 0.9459 -781.3562 302.8954)" class="st79" width="4.6" height="505.2"/>
						</g>
					</g>
					<g class="st0">
						<g>
							
								<rect x="519.7" y="2240.5" transform="matrix(0.9459 -0.3244 0.3244 0.9459 -780.6173 304.2257)" class="st80" width="4.6" height="505.2"/>
						</g>
					</g>
					<g class="st0">
						<g>
							
								<rect x="524.1" y="2239" transform="matrix(0.9459 -0.3244 0.3244 0.9459 -779.8933 305.5648)" class="st81" width="4.6" height="505.2"/>
						</g>
					</g>
					<g class="st0">
						<g>
							
								<rect x="528.5" y="2237.5" transform="matrix(0.9459 -0.3244 0.3244 0.9459 -779.1841 306.9129)" class="st82" width="4.6" height="505.2"/>
						</g>
					</g>
					<g class="st0">
						<g>
							
								<rect x="532.8" y="2236" transform="matrix(0.9459 -0.3244 0.3244 0.9459 -778.4453 308.2431)" class="st83" width="4.6" height="505.2"/>
						</g>
					</g>
					<g class="st0">
						<g>
							
								<rect x="537.2" y="2234.5" transform="matrix(0.9459 -0.3244 0.3244 0.9459 -777.7213 309.5823)" class="st84" width="4.6" height="505.2"/>
						</g>
					</g>
					<g class="st0">
						<g>
							
								<rect x="541.6" y="2233" transform="matrix(0.9459 -0.3244 0.3244 0.9459 -777.012 310.9304)" class="st85" width="4.6" height="505.2"/>
						</g>
					</g>
					<g class="st0">
						<g>
							
								<rect x="546" y="2231.5" transform="matrix(0.9459 -0.3244 0.3244 0.9459 -776.2733 312.2605)" class="st86" width="4.6" height="505.2"/>
						</g>
					</g>
					<g class="st0">
						<g>
							
								<rect x="550.3" y="2230" transform="matrix(0.9459 -0.3244 0.3244 0.9459 -775.564 313.6087)" class="st87" width="4.6" height="505.2"/>
						</g>
					</g>
					<g class="st0">
						<g>
							
								<rect x="554.7" y="2228.5" transform="matrix(0.9459 -0.3244 0.3244 0.9459 -774.8253 314.9388)" class="st88" width="4.6" height="505.2"/>
						</g>
					</g>
					<g class="st0">
						<g>
							
								<rect x="559.1" y="2227" transform="matrix(0.9459 -0.3244 0.3244 0.9459 -774.1013 316.278)" class="st89" width="4.6" height="505.2"/>
						</g>
					</g>
					<g class="st0">
						<g>
							
								<rect x="563.5" y="2225.5" transform="matrix(0.9459 -0.3244 0.3244 0.9459 -773.3919 317.6262)" class="st90" width="4.6" height="505.2"/>
						</g>
					</g>
					<g class="st0">
						<g>
							
								<rect x="567.9" y="2224" transform="matrix(0.9459 -0.3244 0.3244 0.9459 -772.6533 318.9562)" class="st91" width="4.6" height="505.2"/>
						</g>
					</g>
					<g class="st0">
						<g>
							
								<rect x="572.2" y="2222.5" transform="matrix(0.9459 -0.3244 0.3244 0.9459 -771.9439 320.3045)" class="st92" width="4.6" height="505.2"/>
						</g>
					</g>
					<g class="st0">
						<g>
							
								<rect x="576.6" y="2220.9" transform="matrix(0.9459 -0.3244 0.3244 0.9459 -771.2053 321.6345)" class="st93" width="4.6" height="505.2"/>
						</g>
					</g>
					<g class="st0">
						<g>
							
								<rect x="581" y="2219.4" transform="matrix(0.9459 -0.3244 0.3244 0.9459 -770.4813 322.9736)" class="st94" width="4.6" height="505.2"/>
						</g>
					</g>
					<g class="st0">
						<g>
							
								<rect x="585.4" y="2217.9" transform="matrix(0.9459 -0.3244 0.3244 0.9459 -769.7718 324.3219)" class="st95" width="4.6" height="505.2"/>
						</g>
					</g>
					<g class="st0">
						<g>
							
								<rect x="589.7" y="2216.4" transform="matrix(0.9459 -0.3244 0.3244 0.9459 -769.0333 325.6519)" class="st96" width="4.6" height="505.2"/>
						</g>
					</g>
					<g class="st0">
						<g>
							
								<rect x="594.1" y="2214.9" transform="matrix(0.9459 -0.3244 0.3244 0.9459 -768.3093 326.991)" class="st97" width="4.6" height="505.2"/>
						</g>
					</g>
					<g class="st0">
						<g>
							
								<rect x="598.5" y="2213.4" transform="matrix(0.9459 -0.3244 0.3244 0.9459 -767.5997 328.3394)" class="st98" width="4.6" height="505.2"/>
						</g>
					</g>
					<g class="st0">
						<g>
							
								<rect x="602.9" y="2211.9" transform="matrix(0.9459 -0.3244 0.3244 0.9459 -766.8612 329.6693)" class="st99" width="4.6" height="505.2"/>
						</g>
					</g>
					<g class="st0">
						<g>
							
								<rect x="607.3" y="2210.4" transform="matrix(0.9459 -0.3244 0.3244 0.9459 -766.1517 331.0177)" class="st100" width="4.6" height="505.2"/>
						</g>
					</g>
					<g class="st0">
						<g>
							
								<rect x="611.6" y="2208.9" transform="matrix(0.9459 -0.3244 0.3244 0.9459 -765.4132 332.3476)" class="st101" width="4.6" height="505.2"/>
						</g>
					</g>
					<g class="st0">
						<g>
							
								<rect x="616" y="2207.4" transform="matrix(0.9459 -0.3244 0.3244 0.9459 -764.6892 333.6867)" class="st102" width="4.6" height="505.2"/>
						</g>
					</g>
					<g class="st0">
						<g>
							
								<rect x="620.4" y="2205.9" transform="matrix(0.9459 -0.3244 0.3244 0.9459 -763.9796 335.0352)" class="st103" width="4.6" height="505.2"/>
						</g>
					</g>
					<g class="st0">
						<g>
							
								<rect x="624.8" y="2204.4" transform="matrix(0.9459 -0.3244 0.3244 0.9459 -763.2412 336.365)" class="st104" width="4.6" height="505.2"/>
						</g>
					</g>
					<g class="st0">
						<g>
							
								<rect x="629.1" y="2202.9" transform="matrix(0.9459 -0.3244 0.3244 0.9459 -762.5172 337.7041)" class="st105" width="4.6" height="505.2"/>
						</g>
					</g>
					<g class="st0">
						<g>
							
								<rect x="633.5" y="2201.4" transform="matrix(0.9459 -0.3244 0.3244 0.9459 -761.8076 339.0527)" class="st106" width="4.6" height="505.2"/>
						</g>
					</g>
					<g class="st0">
						<g>
							
								<rect x="637.9" y="2199.9" transform="matrix(0.9459 -0.3244 0.3244 0.9459 -761.0692 340.3824)" class="st107" width="4.6" height="505.2"/>
						</g>
					</g>
					<g class="st0">
						<g>
							
								<rect x="642.3" y="2198.4" transform="matrix(0.9459 -0.3244 0.3244 0.9459 -760.3595 341.731)" class="st108" width="4.6" height="505.2"/>
						</g>
					</g>
					<g class="st0">
						<g>
							
								<rect x="646.7" y="2196.9" transform="matrix(0.9459 -0.3244 0.3244 0.9459 -759.6212 343.0606)" class="st109" width="4.6" height="505.2"/>
						</g>
					</g>
					<g class="st0">
						<g>
							
								<rect x="651" y="2195.4" transform="matrix(0.9459 -0.3244 0.3244 0.9459 -758.8972 344.3998)" class="st110" width="4.6" height="505.2"/>
						</g>
					</g>
					<g class="st0">
						<g>
							
								<rect x="655.4" y="2193.9" transform="matrix(0.9459 -0.3244 0.3244 0.9459 -758.1874 345.7485)" class="st111" width="4.6" height="505.2"/>
						</g>
					</g>
					<g class="st0">
						<g>
							<polygon class="st112" points="578,2206.8 578.7,2206.6 582.8,2206.6 746.2,2683.2 741.9,2684.7 							"/>
						</g>
					</g>
					<g class="st0">
						<g>
							<polygon class="st113" points="587.7,2206.6 750.6,2681.7 746.2,2683.2 582.8,2206.6 							"/>
						</g>
					</g>
					<g class="st0">
						<g>
							<polygon class="st114" points="592.6,2206.6 755,2680.2 750.6,2681.7 587.7,2206.6 							"/>
						</g>
					</g>
					<g class="st0">
						<g>
							<polygon class="st115" points="597.5,2206.6 759.4,2678.7 755,2680.2 592.6,2206.6 							"/>
						</g>
					</g>
					<g class="st0">
						<g>
							<polygon class="st116" points="602.3,2206.6 763.8,2677.2 759.4,2678.7 597.5,2206.6 							"/>
						</g>
					</g>
					<g class="st0">
						<g>
							<polygon class="st117" points="607.2,2206.6 768.1,2675.7 763.8,2677.2 602.3,2206.6 							"/>
						</g>
					</g>
					<g class="st0">
						<g>
							<polygon class="st118" points="612.1,2206.6 772.5,2674.2 768.1,2675.7 607.2,2206.6 							"/>
						</g>
					</g>
					<g class="st0">
						<g>
							<polygon class="st119" points="617,2206.6 776.9,2672.7 772.5,2674.2 612.1,2206.6 							"/>
						</g>
					</g>
					<g class="st0">
						<g>
							<polygon class="st120" points="621.9,2206.6 781.3,2671.2 776.9,2672.7 617,2206.6 							"/>
						</g>
					</g>
					<g class="st0">
						<g>
							<polygon class="st121" points="626.8,2206.6 785.6,2669.7 781.3,2671.2 621.9,2206.6 							"/>
						</g>
					</g>
					<g class="st0">
						<g>
							<polygon class="st122" points="631.7,2206.6 790,2668.2 785.6,2669.7 626.8,2206.6 							"/>
						</g>
					</g>
					<g class="st0">
						<g>
							<polygon class="st123" points="636.6,2206.6 794.4,2666.7 790,2668.2 631.7,2206.6 							"/>
						</g>
					</g>
					<g class="st0">
						<g>
							<polygon class="st124" points="641.5,2206.6 798.8,2665.2 794.4,2666.7 636.6,2206.6 							"/>
						</g>
					</g>
					<g class="st0">
						<g>
							<polygon class="st125" points="646.4,2206.6 803.2,2663.7 798.8,2665.2 641.5,2206.6 							"/>
						</g>
					</g>
					<g class="st0">
						<g>
							<polygon class="st126" points="651.3,2206.6 807.5,2662.2 803.2,2663.7 646.4,2206.6 							"/>
						</g>
					</g>
					<g class="st0">
						<g>
							<polygon class="st127" points="656.2,2206.6 811.9,2660.7 807.5,2662.2 651.3,2206.6 							"/>
						</g>
					</g>
					<g class="st0">
						<g>
							<polygon class="st128" points="661.1,2206.6 816.3,2659.2 811.9,2660.7 656.2,2206.6 							"/>
						</g>
					</g>
					<g class="st0">
						<g>
							<polygon class="st129" points="666,2206.6 820.7,2657.7 816.3,2659.2 661.1,2206.6 							"/>
						</g>
					</g>
					<g class="st0">
						<g>
							<polygon class="st130" points="670.8,2206.6 824.8,2655.4 824.8,2656.2 820.7,2657.7 666,2206.6 							"/>
						</g>
					</g>
					<g class="st0">
						<g>
							<polygon class="st131" points="675.7,2206.6 824.8,2641.2 824.8,2655.4 670.8,2206.6 							"/>
						</g>
					</g>
					<g class="st0">
						<g>
							<polygon class="st132" points="680.6,2206.6 824.8,2626.9 824.8,2641.2 675.7,2206.6 							"/>
						</g>
					</g>
					<g class="st0">
						<g>
							<polygon class="st133" points="685.5,2206.6 824.8,2612.6 824.8,2626.9 680.6,2206.6 							"/>
						</g>
					</g>
					<g class="st0">
						<g>
							<polygon class="st134" points="690.4,2206.6 824.8,2598.4 824.8,2612.6 685.5,2206.6 							"/>
						</g>
					</g>
					<g class="st0">
						<g>
							<polygon class="st135" points="695.3,2206.6 824.8,2584.1 824.8,2598.4 690.4,2206.6 							"/>
						</g>
					</g>
					<g class="st0">
						<g>
							<polygon class="st136" points="700.2,2206.6 824.8,2569.8 824.8,2584.1 695.3,2206.6 							"/>
						</g>
					</g>
					<g class="st0">
						<g>
							<polygon class="st137" points="705.1,2206.6 824.8,2555.6 824.8,2569.8 700.2,2206.6 							"/>
						</g>
					</g>
					<g class="st0">
						<g>
							<polygon class="st138" points="710,2206.6 824.8,2541.3 824.8,2555.6 705.1,2206.6 							"/>
						</g>
					</g>
					<g class="st0">
						<g>
							<polygon class="st139" points="714.9,2206.6 824.8,2527 824.8,2541.3 710,2206.6 							"/>
						</g>
					</g>
					<g class="st0">
						<g>
							<polygon class="st140" points="719.8,2206.6 824.8,2512.8 824.8,2527 714.9,2206.6 							"/>
						</g>
					</g>
					<g class="st0">
						<g>
							<polygon class="st141" points="724.7,2206.6 824.8,2498.5 824.8,2512.8 719.8,2206.6 							"/>
						</g>
					</g>
					<g class="st0">
						<g>
							<polygon class="st142" points="729.6,2206.6 824.8,2484.3 824.8,2498.5 724.7,2206.6 							"/>
						</g>
					</g>
					<g class="st0">
						<g>
							<polygon class="st143" points="734.5,2206.6 824.8,2470 824.8,2484.3 729.6,2206.6 							"/>
						</g>
					</g>
					<g class="st0">
						<g>
							<polygon class="st144" points="739.3,2206.6 824.8,2455.7 824.8,2470 734.5,2206.6 							"/>
						</g>
					</g>
					<g class="st0">
						<g>
							<polygon class="st144" points="824.8,2455.7 739.3,2206.6 824.8,2206.6 							"/>
						</g>
					</g>
				</g>
				<g>
					<g>
						<path class="st145" d="M558.2,2710.3c-61.9,0-112.4-25-165.1-51.1c-87.6-43.3-186.9-92.4-366-46.5c-1.9,0.5-3.8-0.7-4.3-2.6
							c-0.1-0.3-0.1-0.6-0.1-0.9c0-1.6,1.1-3,2.7-3.4c179.2-46,243.7-132.5,300.6-208.9c45-60.4,87.5-117.4,179.8-141.1
							c206-52.8,307.5,155.9,308.5,158c0.2,0.4,0.3,0.9,0.3,1.3c0.1,2.3,11.6,234.2-194.3,287
							C598.1,2707.8,577.6,2710.3,558.2,2710.3z M162.4,2587.1c100.9,0,170.3,34.4,233.8,65.7c71.1,35.1,132.4,65.5,222.3,42.4
							c194.7-50,189.6-265.1,189-279c-6.2-12.4-105.3-203.5-300-153.5c-89.9,23.1-129.8,76.6-175.9,138.5
							c-50,67.1-105.7,141.9-238.2,190.9C117.9,2588.7,140.9,2587.1,162.4,2587.1z"/>
					</g>
				</g>
			</g>
			<g class="st146">
				<g>
					<g>
						<g>
							<path class="st147" d="M172.7,2590.8c159.4-99.1,161-244.3,325.2-286.4c205.5-52.7,304.4,156.1,304.4,156.1s1.3,21-2.6,51.8
								c13.9-53.5,11.3-97,11.3-97s-98.9-208.8-304.4-156.1c-205.5,52.7-156.4,266.9-480.4,350C82.1,2595,130.2,2589.8,172.7,2590.8
								z"/>
						</g>
					</g>
				</g>
			</g>
			<g>
				<g>
					<g>
						<path class="st148" d="M282,2548.1c188.7-48.4,288.5,92.7,408.2,62c119.6-30.7,104.2-193.7,104.2-193.7s-65-150.3-184.6-119.6
							S470.6,2499.7,282,2548.1z"/>
					</g>
				</g>
			</g>
			<g class="st149">
				<g>
					<g>
						<path class="st145" d="M784.8,2556.6c-28.1,32-67.5,59.1-122.8,73.3c-170,43.6-242.9-103-446.4-107.9
							c-45,34.6-104.4,65.5-189.5,87.3c324-83.1,387.7,142.1,593.2,89.4C711.8,2675,759.9,2615.2,784.8,2556.6z"/>
					</g>
				</g>
				<g>
					<g>
						<path class="st145" d="M558.2,2708.7c-61.6,0-111.9-24.9-164.5-50.9c-87.9-43.4-187.4-92.7-367.1-46.6l-1-3.8
							c76.4-19.6,138.1-48.1,188.8-87l0.5-0.4l0.7,0c94.8,2.3,162.6,35.8,222.5,65.4c71.4,35.3,133,65.8,223.4,42.6
							c49.7-12.8,90.7-37.2,121.8-72.7l7.9-9.1l-4.7,11.1c-31.8,74.8-87.9,123-166.8,143.3C597.9,2706.2,577.5,2708.7,558.2,2708.7z
							 M162.3,2588.8c100.6,0,169.8,34.3,233.1,65.5c71.3,35.3,133,65.8,223.4,42.6c73.8-18.9,127.4-62.7,159.3-130.3
							c-30.5,31.4-69.4,53.3-115.7,65.2c-91.8,23.6-157-8.7-226.1-42.8c-59.3-29.3-126.5-62.6-220.2-65
							c-39.5,30.2-85.6,54.2-140,72.6C107.4,2591.1,136,2588.8,162.3,2588.8z"/>
					</g>
				</g>
			</g>
			<g>
				<g>
					<g>
						<path class="st145" d="M556.7,2723.5c-64.4,0-117.6-25-173.1-51.1c-88.3-41.5-188.3-88.6-362.9-43.8
							c-8.9,2.3-17.9-3.1-20.2-11.9c-0.4-1.4-0.5-2.8-0.5-4.1c0-7.4,5-14.1,12.4-16c174.9-44.9,240.9-130.6,299.2-206.2
							c48.5-62.9,94.2-122.3,190.9-147.1c89.7-23,174.2-1.6,244.5,62c52.3,47.3,77.9,100.7,79,103c0.9,1.9,1.4,4,1.6,6.1
							c0.2,2.5,3.4,61.7-19.7,128.3c-31,89.6-94.8,149.1-184.4,172.1C599.7,2720.9,577.6,2723.5,556.7,2723.5z M156.8,2577.1
							c102.6,0.3,174.9,34.3,240.9,65.3c70.9,33.4,132.2,62.2,217.5,40.3c179.1-46,180.2-234.9,179.4-263.1
							c-12.8-25.1-104.8-190.2-283.9-144.2c-85.6,22-126,74.5-172.8,135.2C294.3,2467.1,246.7,2528.9,156.8,2577.1z"/>
					</g>
				</g>
			</g>
		</g>
		<g>
			<g>
				<g>
					<g>
						<path class="st150" d="M1393.8,1899.7c0,0-170.2-6.9-209.9-95.4c-55.6-124.1-30.5-360.8,51.9-447
							c57.1-59.7,209.4-35.8,209.4-35.8"/>
					</g>
				</g>
			</g>
			<g>
				<g>
					<g>
						<path class="st145" d="M1393.8,1901.9C1393.8,1901.9,1393.7,1901.9,1393.8,1901.9c-7.1-0.3-172.2-8-212-96.8
							c-57.4-128.1-30.1-363.4,52.3-449.6c57.3-59.9,205.2-37.5,211.4-36.5c1.3,0.2,2.1,1.4,1.9,2.6c-0.2,1.3-1.4,2.1-2.6,1.9
							c-1.5-0.2-151.8-23-207.4,35.2c-79.8,83.4-107.1,320.2-51.4,444.5c38.6,86.2,206.2,94,207.9,94.1c1.3,0.1,2.2,1.1,2.2,2.4
							C1396,1901,1395,1901.9,1393.8,1901.9z"/>
					</g>
				</g>
			</g>
		</g>
		<g class="st149">
			<g>
				<g>
					<g>
						<path class="st147" d="M1445.2,1321.3l-3.5,39.3c-33.6-4-151.6-13.9-200.3,37.1c-61.2,64-90.8,211.1-79.2,333.4
							c-23.5-128.4,5.4-302.6,73.6-373.9C1292.9,1297.4,1445.2,1321.3,1445.2,1321.3z"/>
					</g>
				</g>
			</g>
		</g>
		<g>
			<g>
				<g>
					<path class="st151" d="M1393.8,1915.9c-0.2,0-0.4,0-0.7,0c-7.4-0.3-180.8-8.4-224.1-105c-59.3-132.2-30.5-375.5,54.9-464.9
						c62.3-65.1,217.1-41.7,223.7-40.7c8.9,1.4,14.9,9.7,13.5,18.6c-1.4,8.9-9.7,14.9-18.6,13.5c-40.1-6.3-153.2-12.9-195.1,31
						c-76.7,80.2-102.7,308.9-48.8,429.2c35.1,78.3,194.1,85.8,195.8,85.9c9,0.4,15.9,7.9,15.6,16.9
						C1409.7,1909.1,1402.5,1915.9,1393.8,1915.9z"/>
				</g>
			</g>
		</g>
		<g>
			<g>
				<g>
					<path class="st151" d="M1256.4,1668.8c-0.5,0-0.9,0-1.4-0.1c-8.9-0.7-15.6-8.6-14.9-17.6c1.7-20.9,18-205.8,54.9-256.8
						c39.8-55.1,144.3-53.5,148.7-53.4c9,0.2,16.1,7.6,15.9,16.6c-0.2,9-7.6,16.1-16.6,15.9c-25.5-0.5-96.9,5.7-121.6,39.9
						c-26.7,37-44.3,186.2-48.8,240.5C1271.8,1662.3,1264.7,1668.8,1256.4,1668.8z"/>
				</g>
			</g>
		</g>
		<g class="st149">
			<g>
				<g>
					<path class="st151" d="M1183.9,1804.2c39.7,88.6,209.9,95.4,209.9,95.4l5.3-83.3c-46.7-2.7-158.9-16.3-195.1-84.3
						c-25.5-47.8-40.3-121.4-44.2-195.7C1148.2,1630.9,1154.9,1739.5,1183.9,1804.2z"/>
				</g>
			</g>
		</g>
		<g>
			<g>
				<g>
					<g>
						<path class="st152" d="M1315.1,1666.6c0,0-61.7-11.8-113.7-32c0,0-4.7,100.8,2.3,131c8.6,36.6,68.3,56.6,89.2,45.5
							C1322,1795.6,1315.1,1666.6,1315.1,1666.6z"/>
					</g>
				</g>
			</g>
			<g>
				<g>
					<g>
						<path class="st151" d="M1277.6,1816.6c-10.7,0-23.6-3-36.1-8.7c-21.7-9.8-36.4-25.1-40.3-41.9c-7.1-30.2-2.6-127.6-2.4-131.7
							l0.2-3.5l3.3,1.3c51.2,19.9,112.7,31.8,113.3,31.9l2,0.4l0.1,2c0.3,5.3,6.6,130.8-23.6,146.8
							C1289.8,1815.5,1284.2,1816.6,1277.6,1816.6z M1203.8,1638.2c-0.7,18.1-3.8,100.4,2.4,126.8c3.6,15.2,17.2,29.2,37.4,38.4
							c18.5,8.4,38.3,10.6,48.1,5.4c22.2-11.8,22.7-103.2,21-140.1C1302,1666.5,1249.5,1655.5,1203.8,1638.2z"/>
					</g>
				</g>
			</g>
		</g>
		<g>
			<g>
				<g>
					<path class="st151" d="M1277.9,1828.5c-14.3,0-29.7-4.4-41.3-9.7c-25.1-11.4-42.2-29.6-47-50c-7.3-31.3-3.2-124.5-2.7-135
						c0.2-4.7,2.7-8.9,6.6-11.5c3.9-2.5,8.8-3.1,13.2-1.4c50.1,19.5,110.6,31.2,111.2,31.3c6.6,1.2,11.4,6.8,11.8,13.5
						c2.2,41.6,3.7,140.2-29.9,158C1293.4,1827.2,1285.8,1828.5,1277.9,1828.5z M1215.1,1655c-1.1,34.3-1.7,88.4,2.7,107.2
						c2.7,11.4,14.2,22.7,30.7,30.2c17,7.7,32.7,8.3,37.5,5.7c10.2-6.1,16.9-61.6,15-119.7C1283.8,1674.8,1249.4,1666.7,1215.1,1655
						z"/>
				</g>
			</g>
		</g>
		<g class="st149">
			<g>
				<g>
					<path class="st151" d="M1203.7,1765.5c8.6,36.6,68.3,56.6,89.2,45.5c9.2-4.9,14.8-21.3,18.2-41.4c-23.2,7.9-77.8-11.9-86-46.8
						c-3.7-15.9-4.2-51.1-3.8-81c-6.7-2.3-13.4-4.7-20-7.2C1201.4,1634.5,1196.6,1735.3,1203.7,1765.5z"/>
				</g>
			</g>
		</g>
		<g>
			<g>
				<g>
					<path class="st153" d="M2102.8,1489.3c0,0-107.9,71.8-210,82.2c0,0-14.9-38.2-22.1-96.3c-2.4-19.3-2.9-38.4-2.3-55.9
						c1.5-46.2,10.3-81.8,10.3-81.8s1.4,0,4.1-0.1c15.4-0.9,74.4-7.5,179.7-55.3L2102.8,1489.3z"/>
				</g>
			</g>
		</g>
		<g class="st149">
			<g>
				<g>
					<path class="st151" d="M2102.8,1489.3c0,0-107.9,71.8-210,82.2c0,0-14.9-38.2-22.1-96.3c-8.7-69.9,8.1-137.8,8.1-137.8
						s5.1,0.1,15.3-1.2c-2.1,23.4-2.8,51.7,0.7,80.5c0.1,0.6,0.1,1.2,0.2,1.7c7.1,55.7,70.1,89.3,125.5,67.1
						c29.5-11.8,55.6-25.1,74.5-35.7L2102.8,1489.3z"/>
				</g>
			</g>
		</g>
		<g>
			<g>
				<g>
					<path class="st151" d="M1883.9,1586.2l-3.8-9.8c-0.6-1.6-15.6-40.5-22.9-99.6c-8.9-71.6,7.7-139.9,8.4-142.7l2.6-10.6l10.9,0.2
						c0,0,0,0,0,0c0.8,0,59.6-0.5,177.9-54.2l15.9-7.2l45.3,233.3l-7.6,5.1c-4.5,3-112,73.8-216.2,84.4L1883.9,1586.2z
						 M1890.1,1350.5c-4.1,20.8-12.1,71.6-5.7,122.9c4.8,38.6,13.1,68.3,17.8,83c78.9-11.4,160.4-58.5,185.3-73.8l-35.1-181
						C1965.7,1339.3,1912.1,1348.4,1890.1,1350.5z"/>
				</g>
			</g>
		</g>
		<g>
			<g>
				<g>
					<path class="st154" d="M2062.6,1282c0,0,122.5-59.6,233.3-172.2c24-24.3,53.1-42.9,85.3-54.5c49.5-17.8,118.2-39.4,136.7-30.1
						c42.9,21.6-40.4,74.8-40.4,74.8s25.5,35.7,26.9,66.4s-17.4,54.7-66.3,73.9c-9.1,3.6-17.9,6.1-25.6,7.9
						c-20.6,4.8-39.8,14.6-56,28.2c-61,51.2-204.2,168-259.4,182.6L2062.6,1282z"/>
				</g>
			</g>
		</g>
		<g class="st149">
			<g>
				<g>
					<path class="st151" d="M2504.3,1166.5c1.4,30.8-17.4,54.7-66.3,73.9c-9.1,3.6-17.9,6.1-25.6,7.9c-20.6,4.8-39.8,14.6-56,28.2
						c-61,51.2-204.2,167.9-259.4,182.7l-10.6-54.5c55.6-15.4,198-131.5,258.7-182.5c16.2-13.6,21.1-16.3,41.7-21.2
						c7.7-1.8,42.8,13,64.5,2.3c35.9-17.7,36.7-53.2,40.9-77.6C2498.1,1137.8,2503.7,1152.6,2504.3,1166.5z"/>
				</g>
			</g>
		</g>
		<g>
			<g>
				<g>
					<path class="st151" d="M2086.3,1476.2l-39.2-201.9l9.5-4.6c1.2-0.6,121.8-60.1,229.5-169.4c25.2-25.6,56.5-45.6,90.4-57.8
						c120.2-43.2,139.3-33.6,147.5-29.4c15.6,7.9,19.4,19.2,19.8,27.3c1.2,24.4-28.5,49.9-47.6,63.7c8.4,14.2,20.8,38.8,21.8,62
						c1.7,38.3-22.8,66.8-75,87.3c-8.7,3.4-18,6.3-27.5,8.5c-18.2,4.2-35.6,13-50.2,25.3c-74.8,62.9-208.7,170.5-264.7,185.4
						L2086.3,1476.2z M2078.1,1289.6l29.3,151.1c43.6-19.6,130.9-83,240.1-174.7c18-15.1,39.3-25.8,61.7-31
						c8.2-1.9,16.2-4.4,23.7-7.3c52.5-20.6,58.4-43.1,57.6-60.5c-1-21.8-17.9-50-24.3-59.1l-8.4-11.8l12.2-7.8
						c22.3-14.2,46.8-37.3,46.3-46.8c-0.1-1.6-3.6-3.5-4.7-4.1c-0.7-0.3-18.8-7.7-125.8,30.8c-30.1,10.8-57.8,28.5-80.1,51.2
						C2211,1215.7,2109.3,1273.2,2078.1,1289.6z"/>
				</g>
			</g>
		</g>
		<g>
			<g>
				<g>
					<path class="st155" d="M2454.1,2544.3c-382.8,96.8-770.6,165.4-1163.4,205.6c-85.3-241.8-104.8-489.5-73.5-743.3
						c354.9-36.5,705.2-98.4,1051.1-185.8"/>
				</g>
			</g>
			<g>
				<g>
					<path class="st145" d="M1290.7,2752.5c-1.1,0-2-0.7-2.4-1.7c-82.5-233.7-106.5-477.2-73.6-744.5c0.1-1.2,1.1-2.1,2.3-2.2
						c353.1-36.3,706.6-98.8,1050.8-185.7c1.4-0.3,2.7,0.5,3.1,1.8c0.3,1.4-0.5,2.7-1.8,3.1c-343.7,86.8-696.8,149.3-1049.5,185.7
						c-32.4,265-8.5,506.5,73,738.3c390.2-40.1,780.8-109.2,1161-205.4c1.4-0.3,2.7,0.5,3.1,1.8s-0.5,2.7-1.8,3.1
						c-381.1,96.4-772.7,165.6-1163.8,205.7C1290.8,2752.5,1290.8,2752.5,1290.7,2752.5z"/>
				</g>
			</g>
		</g>
		<g class="st156">
			<g>
				<g>
					<path class="st147" d="M1217.2,2006.6c354.9-36.5,705.2-98.4,1051.1-185.8c6.2,24,9.3,36,15.4,60.1
						c-283.8,71.7-570.5,126.6-860.7,164.8c-118.5,12.4-213.1,118-215.8,234.7c-1,43.9,0.6,89,4,133.1
						C1198,2276.9,1200.4,2142.9,1217.2,2006.6z"/>
				</g>
			</g>
		</g>
		<g class="st157">
			<g>
				<g>
					<path class="st151" d="M1217.2,2006.6c10.8-1.1,16.2-1.6,27-2.7c-13.9,161.1-7.1,319.4,21.2,478.1
						c23.7,132.8,164.9,203.8,289.7,189.2c299-41.3,594.6-98.9,887.2-173c4.7,18.4,7.1,27.7,11.8,46.1
						c-382.8,96.8-770.6,165.4-1163.4,205.6C1205.3,2508.1,1185.9,2260.4,1217.2,2006.6z"/>
				</g>
			</g>
		</g>
		<g>
			<g>
				<g>
					<path class="st151" d="M1279.6,2767.4l-4.3-12.1c-83.2-235.7-107.5-481.3-74.3-750.7l1.6-12.9l12.9-1.3
						c352.5-36.2,705.3-98.6,1048.8-185.4c8.7-2.2,17.5,3.1,19.7,11.8c2.2,8.7-3.1,17.5-11.8,19.7
						c-340.8,86.1-690.8,148.3-1040.5,184.9c-29.7,254.7-6.7,487.5,70,711c385.9-40.2,772.2-108.8,1148.3-203.9
						c8.7-2.2,17.5,3.1,19.7,11.8c2.2,8.7-3.1,17.5-11.8,19.7c-381.8,96.6-774,165.9-1165.7,206.1L1279.6,2767.4z"/>
				</g>
			</g>
		</g>
		<g>
			<g>
				<g>
					<path class="st147" d="M1106.4,2016.7c44.4-3.7,66.5-5.7,110.8-10.1c-31.3,253.8-11.8,501.5,73.5,743.3
						c-40.8,4.1-81.7,7.8-122.7,11.1C1081.9,2518.3,1066.8,2270.4,1106.4,2016.7z"/>
				</g>
			</g>
			<g>
				<g>
					<path class="st151" d="M1166.3,2763.8l-0.7-1.8c-83.2-234.6-103.5-478.5-61.8-745.6l0.3-2l2-0.2c44.5-3.7,66.2-5.7,110.8-10.1
						l3.2-0.3l-0.4,3.2c-32.8,266.5-8.8,509.2,73.4,742.2l1.1,3.1l-3.2,0.3c-40.6,4.1-81.9,7.8-122.7,11.2L1166.3,2763.8z
						 M1108.6,2019.1c-41,264.8-21,506.7,61.2,739.3c39-3.2,78.5-6.8,117.4-10.7c-81.3-231.8-105.1-473.4-72.9-738.3
						C1172.4,2013.6,1150.7,2015.6,1108.6,2019.1z"/>
				</g>
			</g>
		</g>
		<g>
			<g>
				<g>
					<path class="st151" d="M1156.9,2778.3l-4.2-11.8c-84-236.8-104.4-482.9-62.4-752.3l2-12.6l12.7-1.1c44.4-3.7,66.1-5.6,110.6-10
						l20.2-2l-2.5,20.2c-32.5,264.3-8.8,505,72.7,735.9l6.9,19.5l-20.6,2.1c-40.7,4.1-82.1,7.8-122.9,11.2L1156.9,2778.3z
						 M1120.5,2031.8c-37.9,254.5-18.7,487.7,58.7,712c29.7-2.5,59.7-5.2,89.4-8.1c-75.7-223.9-98.6-456.9-69.9-711
						C1170.3,2027.5,1150.3,2029.3,1120.5,2031.8z"/>
				</g>
			</g>
		</g>
		<g>
			<g>
				<g>
					<path class="st158" d="M1062,2020.2c17.7-1.4,26.6-2.1,44.3-3.5c-39.6,253.7-24.5,501.6,61.7,744.4
						c-19.6,1.6-29.4,2.4-49.1,3.9c-71.3,4.4-147.5-9.3-209.3-46.7c-56.9-34.5-109-87.5-130.8-150.7
						c-36.6-106.3-40.3-209-10.5-315.2C803.4,2127.9,927.4,2027.9,1062,2020.2z"/>
				</g>
			</g>
		</g>
		<g class="st157">
			<g>
				<g>
					<g>
						<path class="st151" d="M1070.6,2019.6c-11.6,144-4.5,286.1,24.6,426.5c-16.1-141.3-11.4-284.4,11.2-429.4
							C1091.7,2017.9,1083.1,2018.6,1070.6,2019.6z"/>
					</g>
				</g>
			</g>
			<g>
				<g>
					<g>
						<path class="st151" d="M1129.9,2635.4c-9.8,0.8-18.5,1.5-31.2,2.4c-71.3,4.4-147.5-9.3-209.3-46.7
							c-56.9-34.5-109-87.5-130.8-150.7c-3.6-10.5-6.8-21-9.8-31.5c1.7,52.6,11.7,105.2,30.2,158.6
							c21.8,63.2,73.8,116.3,130.8,150.7c61.8,37.4,138,51.1,209.3,46.7c19.6-1.5,29.4-2.3,49.1-3.9
							C1153.2,2719.4,1140.5,2677.5,1129.9,2635.4z"/>
					</g>
				</g>
			</g>
		</g>
		<g class="st156">
			<g>
				<g>
					<path class="st147" d="M1062,2020.2c17.7-1.4,26.6-2.1,44.3-3.5c-39.6,253.7-24.5,501.6,61.7,744.4c-5.9,0.5-8.9,0.7-14.9,1.2
						c-86.6-198.3-125.5-404.6-120.2-618.7c0.5-22-19.8-39.2-42.1-35.1l0,0c-90.1,16.6-172.4,69.7-223.1,146.2
						c0.2-0.8,0.4-1.6,0.7-2.4C808.1,2125.3,927.4,2027.9,1062,2020.2z"/>
				</g>
			</g>
		</g>
		<g>
			<g>
				<g>
					<path class="st151" d="M1093,2782.1c-70.9,0-138.1-17.4-191.7-49.8c-66.5-40.2-116.7-98.3-137.7-159.4
						c-37.8-109.8-41.3-216.1-10.8-324.9c37.4-133.3,167-235.9,308.2-244c17.6-1.3,26.4-2.1,44.1-3.5l20.6-1.7l-3.2,20.4
						c-41.2,263.9-21.3,504.8,60.9,736.4l7.1,19.9l-21,1.7c-19.7,1.6-29.5,2.4-49.2,3.9C1111.1,2781.8,1102,2782.1,1093,2782.1z
						 M1087.2,2034.6c-7.3,0.6-14.3,1.1-24,1.9l-0.3,0c-125.7,7.1-245.6,101.9-278.9,220.3c-28.7,102.3-25.4,202.2,10.2,305.5
						c18.6,53.9,63.7,105.7,123.8,142.1c54.8,33.2,125.8,49,199.9,44.4c11.2-0.9,19.3-1.5,27.8-2.2
						C1069.6,2521.9,1050.4,2288.5,1087.2,2034.6z M1062,2020.2L1062,2020.2L1062,2020.2z"/>
				</g>
			</g>
		</g>
		<g>
			<g>
				<g>
					<path class="st159" d="M2281.6,1817.4c153.9-13.7,325.2,44.2,472.4,81.5c60.5,15.4,123.8,28.9,181.4,50.4
						c43,16.1,61.8,68.9,37.7,108.1c-32.9,53.5-77,103.2-118.5,151.4c-104.6,121.5-234.1,267.5-385.8,331.7
						c-54.1,1.6-124.6-25-139.1-83.1c-16.7-66.7,96.1-146.4,96.1-146.4c0,0-160.1-22.3-180.2-99.7
						c-19.4-74.6,109.2-172.2,109.2-172.2c0,0-133.6-20.1-147.4-85.1C2195.8,1899.6,2230.8,1841.2,2281.6,1817.4z"/>
				</g>
			</g>
			<g>
				<g>
					<path class="st151" d="M2464,2543.1c-56.9,0-122.8-29.2-136.8-85.1c-15.1-60.3,70.1-128.9,92.1-145.5
						c-30.4-5.2-158.3-31.5-176.2-100.6c-17.7-68.1,82.2-152.6,105.5-171.2c-11.9-1.9-32.8-7.6-33.1-7.7
						c-45.5-12.5-101.7-36.3-110.6-78.5c-11.2-53.1,22-114.3,75.7-139.5l0.9-0.2c127.7-11.3,269.6,27,394.8,60.8
						c27.2,7.4,52.9,14.3,78.4,20.8c12.7,3.2,25.6,6.4,38.5,9.5c47.9,11.7,97.5,23.9,143.1,41c21.5,8,38.1,25.3,45.7,47.4
						c7.5,21.8,5,45.2-6.8,64.4c-30.3,49.3-70.1,95.4-108.6,139.9l-10.1,11.7c-91,105.7-228.6,265.5-386.8,332.4l-0.9,0.2
						C2467.3,2543.1,2465.7,2543.1,2464,2543.1z M2356.3,2041.1L2356.3,2041.1c-1.2,1-127,97.4-108.2,169.5
						c19.5,75.1,176.5,97.6,178.1,97.8l6.4,0.9l-5.2,3.7c-1.1,0.8-111.2,79.5-95.1,143.7c13.7,54.8,80.2,82.7,136.1,81.2
						c156.9-66.6,293.8-225.6,384.5-330.8l10.1-11.7c38.3-44.4,78-90.3,108.1-139.3c11-17.8,13.2-39.7,6.3-60
						c-7.1-20.7-22.6-36.8-42.7-44.3c-45.3-17-94.8-29.1-142.6-40.8c-12.9-3.2-25.8-6.3-38.6-9.6c-25.5-6.5-51.3-13.4-78.5-20.8
						c-124.7-33.7-265.9-71.8-392.6-60.7c-51.4,24.3-83.2,82.9-72.5,133.6c13.4,63.1,143.9,82.9,145.2,83.1l-0.3,2.2l1.8,2
						C2356.6,2040.9,2356.4,2041,2356.3,2041.1z"/>
				</g>
			</g>
		</g>
		<g class="st157">
			<g>
				<g>
					<path class="st160" d="M2256.2,2018.6c0,0-5.8,1.5-8.6,2.4c-0.2-0.1-0.4-0.3-0.5-0.4C2250,2020,2256.2,2018.6,2256.2,2018.6z"
						/>
				</g>
			</g>
			<g>
				<g>
					<path class="st151" d="M2247.2,2023.7l-1-0.6c-0.4-0.2-0.9-0.5-1.3-1.1l-2.4-3.3l4-0.7c2.9-0.5,9-2,9-2l1.2,4.9
						c0,0-5.7,1.5-8.5,2.4L2247.2,2023.7z"/>
				</g>
			</g>
		</g>
		<g class="st157">
			<g>
				<g>
					<path class="st151" d="M2426,1827.4c110.4,19.1,219.8,44.3,328.1,71.5c60.4,15.2,123.8,28.9,181.4,50.4
						c43,16.1,61.8,68.9,37.7,108.1c-32.9,53.5-77,103.2-118.5,151.4c-104.6,121.5-234.1,267.5-385.8,331.7
						c-36.2,1.8-69.8-6.8-95.1-23.3c147.2-65.1,274-204.1,377.5-322c41.8-47.6,86.2-96.6,119.4-149.5c24.4-38.8,6.3-91.8-36.3-108.5
						c-57-22.4-119.8-36.9-179.8-53C2578.9,1863.7,2502.5,1844.9,2426,1827.4z"/>
				</g>
			</g>
		</g>
		<g class="st156">
			<g>
				<g>
					<path class="st147" d="M2367.8,2338.7c36.8,37.8,15.1,117.5,25.1,163.5c2.4,10.9,7.6,21.4,14,30.6
						c-39.2-12.5-68.4-39.6-77.3-75.4C2318.9,2413.8,2332,2367.1,2367.8,2338.7z"/>
				</g>
			</g>
		</g>
		<g class="st156">
			<g>
				<g>
					<path class="st147" d="M2307,2256.7c4.5,18.6,13,35.4,24.3,49.8c-42.2-15.9-76-51.8-85.7-95.2c-12-53.6,10.6-116.7,58.4-148.4
						C2336.6,2109.6,2293.7,2201.3,2307,2256.7z"/>
				</g>
			</g>
		</g>
		<g class="st156">
			<g>
				<g>
					<path class="st147" d="M2281.6,1817.4c153.9-13.7,325.2,44.2,472.4,81.5c60.5,15.4,123.5,29,181.4,50.4c16.1,6,29,17,37.3,30.2
						c-51.2-14.7-103.1-27.3-154.8-39.8c-138.8-33.5-284.5-73.7-427.7-78.7c-50.5-1.7-98.8,27.6-117.9,74.7
						c-8.2,20.2-10.4,42.4-5,64c3.7,14.9,9.5,28.5,17.2,40.4c-37.1-8.8-70.4-49.6-77.1-86
						C2197.2,1898.7,2230.8,1841.2,2281.6,1817.4z"/>
				</g>
			</g>
		</g>
		<g>
			<g>
				<g>
					<path class="st151" d="M2754,1898.9c60.6,15.4,123.8,28.9,181.4,50.4c43,16.1,61.8,68.9,37.7,108.1
						c-32.9,53.5-77,102.7-118.5,151.4c-55.7-30.6-89-83.9-105.9-137.1C2732,2018.7,2728.5,1956.4,2754,1898.9z"/>
				</g>
			</g>
		</g>
		<g class="st149">
			<g>
				<g>
					<path class="st147" d="M2754,1898.9c60.6,15.4,123.5,29,181.4,50.4c30.6,11.3,49,40,48.6,69.8c-7.7-8.1-17.4-14.7-28.9-19.1
						c-11-4.2-31-10.3-57.3-17.6c-72.9-20.1-154.8,44.3-135.9,122.3c0.1,0.6,0.3,1.2,0.4,1.7c-5.2-11-10.4-23.1-13.6-34.9
						C2733.6,2015.5,2728.5,1956.4,2754,1898.9z"/>
				</g>
			</g>
		</g>
		<g>
			<g>
				<g>
					<path class="st151" d="M2858.4,2229.4l-11.6-6.4c-67.2-36.9-98.8-100-113.5-146.5c-20.4-64.4-18.3-129.8,5.9-184.2l5.6-12.5
						l13.3,3.4c13.2,3.4,26.6,6.6,40,9.9c47.8,11.7,97.2,23.8,143.1,41c25.3,9.5,44.9,29.8,53.9,55.8c8.8,25.7,5.9,53.4-8,76
						c-29.3,47.7-67.2,91.9-103.9,134.6c-5.4,6.3-10.7,12.5-16.1,18.8L2858.4,2229.4z M2763.8,1918.2c-16,44.6-16,96.8,0.5,148.6
						c12,38,36.8,88.7,86.9,121.1c2.4-2.8,4.8-5.6,7.2-8.4c35.8-41.8,72.9-85,100.8-130.5c8.8-14.3,10.6-32,5-48.4
						c-5.8-16.8-18.3-29.9-34.5-35.9c-44.1-16.5-92.6-28.4-139.5-39.9C2781.4,1922.5,2772.6,1920.4,2763.8,1918.2z"/>
				</g>
			</g>
		</g>
		<g>
			<g>
				<g>
					<path class="st151" d="M2463.5,2556.8c-65,0-136-32.3-149.7-96c-11-51,5.4-99.6,41.4-131.6c-58.7-12-110.4-56.2-125.4-113.9
						c-14.7-56.4,10.5-120.1,57.4-159.3c-48.1-11.9-86.4-49.1-95.8-99c-11.6-61.4,23.4-126.3,83.4-154.4l2.6-1.2l2.9-0.3
						c129.6-11.5,272.2,26.9,397.9,60.9c27.8,7.5,54,14.6,79.9,21.1l18.7,4.7l-7.8,17.6c-21,47.1-22.6,104.4-4.6,161.2
						c12.9,40.8,40.4,96.1,98.2,127.8l17.7,9.7l-13.2,15.2c-104.5,120.1-234.6,269.6-391.8,336l-2.8,1.2l-3,0.1
						C2467.4,2556.8,2465.5,2556.8,2463.5,2556.8z M2413,2297.7c12.7,0,16.1,9.1,16.9,12.2c0.9,3.5,2.6,15.4-14,21.1
						c-53.1,18.3-82,68.9-70.3,123c11.4,52.6,76.8,70.9,119.8,70.3c142.8-61.5,265-197.6,364.4-311.7c-55.6-37.6-83.1-93.7-96.5-136
						c-18.2-57.5-18.5-115.9-1.1-166.4c-20.3-5.3-41-10.8-62.5-16.7c-122.2-33-260.6-70.3-383.7-60.1
						c-44.4,22.1-71.3,72.2-62.7,117.7c10.7,56.5,66.4,82.6,114,75.2c16.4-2.6,20.8,7.4,22,11.7c1.1,4.4,2.1,15.2-13.5,21
						c-54.2,20.1-101.2,84.5-84.6,148.2c15.5,59.5,83.7,102,146.1,91C2409.4,2297.8,2411.3,2297.7,2413,2297.7z"/>
				</g>
			</g>
		</g>
		<g class="st149">
			<g>
				<g>
					<path class="st147" d="M1981.3,1990.4c50.1-10.5,94-4.3,98.2,14.5c4.2,18.8-33.3,43.2-83.9,53.8c-50.6,10.6-94.8,3.2-98.5-15.7
						C1893.5,2024.1,1931.2,2000.9,1981.3,1990.4z"/>
				</g>
			</g>
		</g>
		<g>
			<g>
				<g>
					<path class="st153" d="M1972.8,1848.2l-42.6,14.8l-373,129.6l-195.5-212.3c0,0-19.9-236,102.1-430.6
						c24.1-38.5,92-152.3,92-152.3l346.6,17.6c0,0-12.2,203.8,7,346.1c4.8,36.1,11.4,72.6,18.4,106.7
						c15.5,75.7,33.4,140.5,41.1,167.3C1971.4,1843.5,1972.8,1848.2,1972.8,1848.2z"/>
				</g>
			</g>
		</g>
		<g>
			<g>
				<g>
					<path class="st151" d="M1552.5,2011.4L1346,1787.1l-0.5-5.5c-0.8-9.9-18.9-243.6,104.6-440.6c23.7-37.9,91.1-150.8,91.8-151.9
						l5-8.4l372.8,18.9l-1,16.4c-0.1,2-11.8,204,6.9,342.9c18.7,138.6,62.3,283.1,62.8,284.6l4.5,15L1552.5,2011.4z M1377.6,1773.5
						l184.4,200.2l390.9-135.8c-11.7-41-44-159.7-59.5-274.7c-16.2-120.4-10.4-281.3-8-332.8l-320.6-16.3
						c-16.2,27.1-67,112.1-87.1,144.1C1370.1,1529.8,1375.7,1737.5,1377.6,1773.5z"/>
				</g>
			</g>
		</g>
		<g>
			<g>
				<g>
					<path class="st161" d="M1507.3,1538.9"/>
				</g>
			</g>
		</g>
		<g class="st157">
			<g>
				<g>
					<path class="st162" d="M1366.8,1848.1c9.4,87.3,34.1,203.7,101.5,283.5c104.1,123.1,192.8,191.5,192.8,191.5l190-222.1
						l-45.6-46.8l-76.7,89.7c-45.8,53.6-127.6,57-177.6,7.3c-28.5-28.3-61.5-63.3-96.1-104.2
						C1407.8,1991.3,1381.5,1917.3,1366.8,1848.1z"/>
				</g>
			</g>
			<g>
				<g>
					<path class="st151" d="M1661.5,2326.7l-1.9-1.5c-0.9-0.7-90.1-70-193.2-191.9c-54.3-64.3-88.7-160.1-102.1-284.9l5-0.8
						c17.8,83.5,47.3,150.1,87.7,197.9c30.6,36.2,62.9,71.2,96,104.1c23.7,23.5,55.1,35.7,88.4,34.3c33.4-1.4,63.8-16.1,85.5-41.5
						l78.5-91.8l49.2,50.4L1661.5,2326.7z M1375.3,1893.2c16.2,101.8,48,181.3,94.9,236.8c94.4,111.6,177.1,178.9,190.5,189.6
						l186.9-218.5l-42-43.1l-74.9,87.6c-22.3,26.1-54.8,41.9-89.2,43.3c-34.7,1.4-67.5-11.3-92.2-35.8
						c-33.2-32.9-65.6-68.1-96.3-104.4C1419.6,2009.2,1393.5,1957,1375.3,1893.2z"/>
				</g>
			</g>
		</g>
		<g>
			<g>
				<g>
					<path class="st147" d="M1720.3,1967l130.8,134.1l-189.9,222.1c0,0-88.7-68.4-192.8-191.5c-87.3-103.3-102.9-268.1-106.6-351.5
						c-0.1-3-0.2-6-0.4-8.8c-0.6-16.1,18.5-24.7,30.3-13.7c48.6,45.3,152.5,102.3,256.7,113.6c89.1,9.6,193.8-7.4,258.7-21.3
						c37.6-8,61.9-15,61.9-15l16.3,51.7l-9.2,1.8l-182.1,35.8l-63.4,11.2C1715.6,1938,1709.8,1956.2,1720.3,1967z"/>
				</g>
			</g>
			<g>
				<g>
					<path class="st151" d="M1661.5,2326.7l-1.9-1.5c-0.9-0.7-90.1-69.9-193.2-191.9c-63.2-74.8-100.3-196.8-107.2-353l-0.4-8.8
						c-0.3-8.5,4.3-15.9,12-19.4c7.7-3.5,16.4-2.1,22.6,3.7c51.5,48,155.7,102.2,255.2,112.9c86.9,9.4,188.2-6.4,257.9-21.3
						c37.1-7.9,61.5-14.9,61.7-15l2.4-0.7l17.9,56.7l-194.1,38.1l-63.5,11.2c-6,1.1-10.7,5.2-12.6,11c-1.9,5.8-0.5,11.9,3.8,16.3
						l132.4,135.8L1661.5,2326.7z M1379.4,1755.3c-2.2,0-4.4,0.5-6.5,1.4c-5.8,2.6-9.2,8.2-9,14.6l0.4,8.8
						c6.9,155,43.5,276,106,349.9c94.4,111.7,177.1,178.9,190.5,189.6l186.8-218.5l-129.2-132.4c-5.6-5.8-7.5-13.8-5-21.4
						c2.5-7.6,8.7-13,16.6-14.4l63.4-11.2l188.5-37l-14.7-46.6c-7,1.9-29.1,7.8-59.7,14.4c-70.1,15-171.9,30.8-259.5,21.3
						c-100.6-10.9-206-65.7-258.1-114.3C1386.9,1756.8,1383.2,1755.3,1379.4,1755.3z"/>
				</g>
			</g>
		</g>
		<g class="st149">
			<g>
				<g>
					<path class="st151" d="M1851.1,2101.1l-189.9,222.1c0,0-88.7-68.4-192.8-191.5c-90.6-107.1-104-280.2-107-360.3
						c-0.5-13.9,13.7-22.2,25.2-17.1c9.9,86.5,35,199.2,100.8,277.1c23.7,28,46.6,53.2,67.8,75.4c63.4,66.3,170.3,63,229.9-6.7
						l30.4-35.5L1851.1,2101.1z"/>
				</g>
			</g>
		</g>
		<g>
			<g>
				<g>
					<path class="st151" d="M1663.5,2345.5l-12.2-9.4c-3.7-2.8-91.3-70.9-195.3-193.9c-67.4-79.7-104.6-204.2-110.8-370.2
						c-0.5-13.9,7.3-26.6,19.9-32.4c12.7-5.8,27.5-3.4,37.7,6.1c49.9,46.4,150.8,98.9,247.3,109.3c135.9,14.7,312.6-35.3,314.4-35.8
						l15.2-4.4l26.5,84.1l-209.1,41.1l-63.3,11.2c-0.4,0.1-1.6,0.3-2.1,1.8c-0.5,1.5,0.4,2.4,0.6,2.7l140.9,144.5L1663.5,2345.5z
						 M1379.4,1769.1c-0.2,0-0.5,0.1-0.8,0.2c-1,0.5-1,1.1-1,1.6c5.8,156.3,41.5,277.4,103.2,350.4
						c79.8,94.4,150.9,156.6,178.3,179.4l170-198.8l-120.2-123.2c-9.1-9.4-12.3-22.9-8.3-35.4c4-12.5,14.5-21.6,27.4-23.9l63-11.1
						l173.2-34l-6.1-19.4c-47,12.1-191.5,45.7-311.5,32.7c-103.6-11.2-212.2-67.8-266-117.9
						C1380.3,1769.4,1380,1769.1,1379.4,1769.1z"/>
				</g>
			</g>
		</g>
		<g>
			<g>
				<g>
					<g>
						<polygon class="st163" points="1678.2,2303.3 1981.3,2543.1 2082.7,2427.9 1828.8,2127.1 						"/>
					</g>
				</g>
			</g>
			<g>
				<g>
					<g>
						<path class="st151" d="M1981.6,2546.6l-307.1-243l154.3-180.4l1.9,2.3l255.3,302.4L1981.6,2546.6z M1681.9,2302.9l299.1,236.7
							l98.4-111.8l-250.6-296.8L1681.9,2302.9z"/>
					</g>
				</g>
			</g>
		</g>
		<g>
			<g>
				<g>
					<g>
						<polygon class="st163" points="1678.2,2303.2 1726.3,2341.4 1884.6,2466.6 1942.5,2512.5 1981.3,2543.1 2082.7,2427.9 
							1946,2266 1919.5,2234.6 1868.9,2174.7 1828.8,2127.2 						"/>
					</g>
				</g>
			</g>
			<g>
				<g>
					<g>
						<path class="st151" d="M1981.6,2546.6l-307.1-243l154.3-180.4l257.2,304.7L1981.6,2546.6z M1681.9,2302.9l299.1,236.7
							l98.4-111.8l-250.6-296.8L1681.9,2302.9z"/>
					</g>
				</g>
			</g>
		</g>
		<g class="st157">
			<g>
				<g>
					<path class="st162" d="M1937.2,2441.6c0.3,25.4,1.2,49.6,5.3,70.8L1937.2,2441.6z"/>
				</g>
			</g>
			<g>
				<g>
					<path class="st151" d="M1940,2512.9c-4.3-21.9-5.2-47.2-5.4-71.3l5.1-0.2l5.3,70.8L1940,2512.9z"/>
				</g>
			</g>
		</g>
		<g>
			<g>
				<g>
					<path class="st151" d="M1983,2562l-324.5-256.9l170.4-199.3l272,322.2L1983,2562z M1697.9,2301.3l281.7,222.9l85-96.6
						l-235.8-279.3L1697.9,2301.3z"/>
				</g>
			</g>
		</g>
		<g>
			<g>
				<g>
					<path class="st147" d="M2046,2584.1c29.2,6.2,84.3-15.4,109.1-125.3c16.1-71.4,11.9-219.8-67.3-251.3
						c-60.6-24.1-123.8,38.3-114,152.3C1981.9,2455.7,1956.6,2565.2,2046,2584.1z"/>
				</g>
			</g>
			<g>
				<g>
					<path class="st151" d="M2055.7,2587.6c-3.7,0-7.1-0.4-10.2-1c-71.2-15-71.7-85.9-72.1-161c-0.1-21.7-0.3-44.1-2.1-65.6
						c-5.5-64.8,12.2-119.2,47.5-145.4c21.1-15.7,45.9-19,70-9.4c80.7,32.1,84.6,183.9,68.8,254.2
						C2134.6,2561.1,2086.7,2587.6,2055.7,2587.6z M2061.7,2204.9c-14,0-27.7,4.6-40,13.8c-33.9,25.1-50.9,77.8-45.5,140.9
						c1.9,21.8,2,44.3,2.1,66c0.5,76.1,0.9,141.9,68.1,156.1l0,0c25.9,5.5,81.3-13.3,106.1-123.4c15.5-68.9,12.2-217.4-65.7-248.4
						C2078.5,2206.5,2070.1,2204.9,2061.7,2204.9z"/>
				</g>
			</g>
		</g>
		<g class="st157">
			<g>
				<g>
					<path class="st151" d="M1973.8,2359.8c8.2,95.9-17.2,205.5,72.2,224.3c29.2,6.2,84.3-15.4,109.1-125.3
						c4.2-18.6,7-42.6,7.4-68.2c-26.5,93.4-76.8,112.1-104.2,106.3c-89.4-18.9-64-128.4-72.2-224.4c-0.3-2.7-0.4-5.4-0.6-8.1
						C1975.4,2289.6,1970.5,2321.8,1973.8,2359.8z"/>
				</g>
			</g>
		</g>
		<g>
			<g>
				<g>
					<path class="st151" d="M2055.4,2598.8c-4.4,0-8.6-0.4-12.3-1.2c-11.2-2.3-20.8-5.9-29.6-11c-7.5-4.2-14.4-9.7-20.3-16.2l0,0
						c-30.4-33.5-30.7-87.5-31.1-144.6c-0.1-21.5-0.3-43.7-2.1-64.8c-5-58.1,7.7-107.8,35.5-140c16.9-19.5,38.8-30.9,61.6-32.2
						l1.1-0.1l0.1,0c11.4-0.5,23,1.5,34.5,6c88,35,92.7,191.3,75.6,267.2C2144,2570.4,2090.6,2598.8,2055.4,2598.8z M2057.8,2216.3
						c-15.2,1.2-29.6,9-41.5,22.7c-22.6,26.1-33.2,69.7-28.9,119.6c1.9,22.2,2,45,2.2,67c0.3,51.8,0.7,100.7,24,126.3l0,0
						c4,4.4,8.5,8,13.5,10.8c6.3,3.6,13.4,6.2,21.7,8c22.1,4.7,70-13.3,92.8-114.9c15.7-69.9,9.5-208.3-58.9-235.5
						c-7.6-3-15.3-4.4-22.7-4.1l-1,0.2L2057.8,2216.3z"/>
				</g>
			</g>
		</g>
		<g class="st157">
			<g>
				<g>
					<path class="st151" d="M1678.2,2303.2l48.1,38.1l158.3,125.2l34.2,27.1l23.7,18.7c-4.2-21.2-5.1-45.4-5.3-70.8
						c-0.3-26.8,0-54.9-2.3-81.9c-3.2-37.1,1.4-68.8,11.1-93.8l-26.5-31.4c-25.7,21.7-46.4,58-46.3,118.3c0,0.1,0,0.3,0,0.4
						c0.1,15.3-17.5,24-29.5,14.5L1800,2333c-21.6-17.1-24.7-48.8-6.8-69.8l75.8-88.6l-40.1-47.5l-116.6,136.4L1678.2,2303.2z"/>
				</g>
			</g>
		</g>
		<g class="st157">
			<g>
				<g>
					<polygon class="st162" points="1812.8,1316.6 1789.1,1335.4 1789.1,1335.3 					"/>
				</g>
			</g>
			<g>
				<g>
					<polygon class="st151" points="1786.6,1340.6 1786.6,1334.2 1787.6,1333.3 1811.2,1314.6 1814.4,1318.6 1814.4,1318.6 					"/>
				</g>
			</g>
		</g>
		<g>
			<g>
				<g>
					<g>
						<path class="st150" d="M1933,2505l70.4,56.2c-37.6-41.4-23.2-125.6-29.7-201.4c-8.1-95.2,34.6-154.5,84.2-157.3
							c-6.2-0.4-146.1-6.6-145.9,150.4C1912.3,2442.1,1933,2505,1933,2505z"/>
					</g>
				</g>
			</g>
			<g>
				<g>
					<g>
						<path class="st145" d="M2003.4,2563.4c-0.5,0-1-0.2-1.4-0.5l-70.4-56.2c-0.3-0.3-0.6-0.7-0.7-1.1c-0.2-0.6-20.9-64.2-21-152.8
							c-0.1-50.2,14.1-89.1,42-115.5c42.7-40.4,103.7-37.4,106.3-37.2c1.2,0.1,2.2,1.1,2.2,2.3c0,1.2-0.9,2.2-2.2,2.3
							c-18.8,1.1-36.2,10.3-50.4,26.7c-24.6,28.4-36.2,75.1-31.7,128.1c1.9,21.8,2,44.3,2.1,66.1c0.3,54,0.7,105.1,26.9,134
							c0.8,0.9,0.8,2.2,0,3.1C2004.6,2563.2,2004,2563.4,2003.4,2563.4z M1935,2503.6l56.8,45.3c-17.6-30.9-17.9-76-18.2-123.3
							c-0.1-21.7-0.3-44.1-2.1-65.7c-4.6-54.2,7.3-102.1,32.8-131.5c8.9-10.2,18.9-17.8,29.8-22.5c-21.5,2.7-53.6,10.8-79,34.8
							c-27,25.5-40.7,63.3-40.6,112.1C1914.5,2436,1932.8,2496.7,1935,2503.6z"/>
					</g>
				</g>
			</g>
		</g>
		<g class="st157">
			<g>
				<g>
					<path class="st151" d="M1912.1,2352.9c0.2,89.2,20.9,152.1,20.9,152.1l70.4,56.2c-24.5-27-26.9-72.1-27.4-121.3l-45.6-36.4
						c0,0-10.3-31.1-16.4-80.7C1912.7,2332.1,1912.1,2342.1,1912.1,2352.9z"/>
				</g>
			</g>
		</g>
		<g>
			<g>
				<g>
					<path class="st151" d="M1994.8,2571.9l-73.6-58.7l-1.3-3.9c-0.9-2.7-21.4-66-21.6-156.4c-0.1-53.5,15.3-95.2,45.6-123.8
						c45.5-43,107.9-40.7,114.8-40.3l0,27.5c-15.6,0.9-30.3,8.8-42.4,22.8c-22.6,26.1-33.2,69.7-28.9,119.6c1.9,22.2,2,45,2.2,67
						c0.3,51.8,0.7,100.7,24,126.3L1994.8,2571.9z M1944.9,2496.9l23,18.3c-5.4-26.8-5.6-57.7-5.8-89.5c-0.1-21.5-0.3-43.7-2.1-64.8
						c-4.4-52,5.2-97.2,27.2-129.1c-8.4,4.4-16.7,10.1-24.4,17.3c-24.6,23.3-37.1,58.2-37,103.8
						C1926,2426.5,1940.7,2482.2,1944.9,2496.9z"/>
				</g>
			</g>
		</g>
		<g>
			<g>
				<g>
					<path class="st151" d="M1712.2,2279.8c-3.5,0-6.9-1.1-9.9-3.4c-11.7-9-287-223.6-296.4-491.7c-0.3-9,6.7-16.5,15.7-16.8
						c9.1-0.3,16.5,6.7,16.8,15.7c8.8,252.9,280.9,464.9,283.7,467c7.1,5.5,8.5,15.7,3,22.8
						C1721.9,2277.6,1717,2279.8,1712.2,2279.8z"/>
				</g>
			</g>
		</g>
		<g>
			<g>
				<g>
					<path class="st164" d="M1729.3,1324.7"/>
				</g>
			</g>
		</g>
		<g>
			<g>
				<g>
					<g>
						<path class="st150" d="M1366.7,1640.5c0,0,132.4,69.1,226.2-1.8s107.9-193.8,90.8-229.3s-224.3-55.9-224.3-55.9l44.1-48.7
							c0,0,246,2.1,265.9,122.7c19.9,120.5-35.4,256-167.8,300.2c-117.7,39.3-240.4-22.1-240.4-22.1s-3.2-10.8-4.4-32.7
							C1355.7,1650.9,1366.7,1640.5,1366.7,1640.5z"/>
					</g>
				</g>
			</g>
			<g>
				<g>
					<g>
						<path class="st145" d="M1517.5,1742.9c-85.3,0-156.3-34.9-157.2-35.4c-0.6-0.3-1-0.8-1.2-1.4c-0.1-0.5-3.3-11.3-4.5-33.2
							c-1.3-22.7,10.1-33.7,10.5-34.1c0.7-0.7,1.8-0.8,2.6-0.4c1.3,0.7,132.2,67.6,223.8-1.6c91-68.7,107.2-191.1,90.1-226.5
							c-13.1-27.2-151.3-47.6-222.5-54.6c-0.9-0.1-1.6-0.6-1.9-1.5c-0.3-0.8-0.1-1.7,0.4-2.4l44.1-48.7c0.4-0.5,1.2-0.9,1.7-0.8
							c10.1,0.1,248.2,3.5,268.2,124.6c19.1,115.9-32.9,257.2-169.3,302.8C1573.9,1739.3,1545,1742.9,1517.5,1742.9z M1363.3,1703.9
							c11.5,5.5,127.6,58.3,237.7,21.5c134-44.8,185-183.7,166.2-297.7c-18.7-113.4-245.4-120.4-262.7-120.7l-40.4,44.6
							c31.3,3.3,205.3,23.1,221.6,56.7c16.8,34.7,5.5,158.9-91.4,232.2c-88.3,66.7-211.6,10.3-227.1,2.8c-2.6,3.2-9,12.9-8.1,29.4
							C1360.2,1690.4,1362.5,1700.8,1363.3,1703.9z"/>
					</g>
				</g>
			</g>
		</g>
		<g class="st149">
			<g>
				<g>
					<path class="st151" d="M1601.7,1727.6c-117.6,39.3-240.3-22.1-240.3-22.1s-3.2-10.8-4.5-32.7c0-0.3,0-0.6,0-0.9
						c25.5,11.4,132,53.7,234.6,19.4c128.8-43,184.6-172.4,169.2-290.4c4.2,8.1,7.2,16.9,8.8,26.5
						C1789.4,1547.9,1734,1683.3,1601.7,1727.6z"/>
				</g>
			</g>
		</g>
		<g>
			<g>
				<g>
					<path class="st151" d="M1516.7,1757.1c-87.2,0-158.6-35.1-162.6-37l-6.3-3.2l-2-6.8c-0.4-1.3-3.8-13.3-5.1-36.4
						c-1.6-28.6,13.2-43.5,14.9-45.1l8.4-7.9l10.2,5.3c1.2,0.6,124.6,63.4,208.9-0.3c88.5-66.8,98.7-183,85.9-209.3
						c-9.9-15-106.6-36.5-211.3-46.8l-32.1-3.2l70.7-78.1l7.3,0.1c10.6,0.1,260,3.8,281.8,136.3c20.1,121.8-34.8,270.2-178.6,318.3
						C1576.3,1753.2,1545.6,1757.1,1516.7,1757.1z M1375.5,1694.1c26.8,11.6,126.7,49.6,221,18.1c126.6-42.3,174.7-174,156.9-282.2
						c-14-84.6-173.5-106.9-242.8-108.9l-17.9,19.8c20.1,2.5,47.5,6.3,75.3,11.2c102.3,18.1,123.3,35.5,130.4,50.2
						c22.1,45.7,2.7,175.2-95.6,249.4c-82.9,62.6-190.1,26.6-228.9,10c-0.6,2.8-1,6.2-0.7,10.2
						C1373.7,1681.8,1374.7,1689.2,1375.5,1694.1z"/>
				</g>
			</g>
		</g>
		<g class="st149">
			<g>
				<g>
					<path class="st151" d="M1985.2,1886.6l-9.2,1.8c-13.1-7.2-28.9-16-45.8-25.5c-7.5-4.2-15.3-8.6-23.2-13
						c-44.5-25.1-93-52.6-123.9-70.2l-4.9,8.4c-4.2,7.3-31.7-4-31.7-4c-12.4-6.9-171.1-156.4-171.1-156.4l83.1-161.6l205.9,145.3
						c5.9,4.2,7.8,11.9,4.9,18.3l58.5,37.8c15.5,75.7,33.4,140.5,41.1,167.3L1985.2,1886.6z"/>
				</g>
			</g>
		</g>
		<g>
			<g>
				<g>
					<path class="st154" d="M1853,1566.5l243.3,157.3c19,12.3,39.8,21.8,61.6,28.1c54.8,15.7,160.6,51.2,134.3,84.8
						c0,0-62.8,62.2-154.1,50.4c-78.6-10.2-90.3-14.5-128.6-33.6c-34.9-17.3-258.6-145-258.6-145L1853,1566.5z"/>
				</g>
			</g>
		</g>
		<g class="st149">
			<g>
				<g>
					<path class="st151" d="M2292.2,1836.7c0,0-62.8,62.3-154.1,50.4c-78.6-10.2-90.3-14.5-128.6-33.5
						c-34.8-17.4-258.5-145-258.5-145l30.3-42.1c53.5,30.4,212,120.6,240.9,134.9c38.3,19.1,50,23.4,128.6,33.5
						c57.7,7.4,104-14.6,130.2-31.9C2294.9,1813.9,2301,1825.4,2292.2,1836.7z"/>
				</g>
			</g>
		</g>
		<g>
			<g>
				<g>
					<path class="st151" d="M2161.4,1904.9c-8.2,0-16.7-0.5-25.4-1.6c-79-10.2-92.6-14.7-133.8-35.1
						c-34.9-17.3-250.2-140.2-259.4-145.4l-15.7-9l121.7-169.3l256.3,165.7c17.8,11.5,37.1,20.3,57.2,26.1
						c135.3,38.8,145.3,69.3,148.5,79.4c3.5,10.7,1.4,21.7-5.9,31.1l-1.4,1.5C2301.1,1850.8,2245.4,1904.9,2161.4,1904.9z
						 M1774.6,1703.4c51.5,29.3,213.3,121.4,242,135.6c35.9,17.9,46.2,22,123.5,32c76.5,9.8,132.2-38.1,139.7-45.1
						c0.2-0.3,0.2-0.4,0.2-0.4c-0.9-5.6-26-29.2-126.6-58c-23.2-6.6-45.4-16.8-65.9-30l-230.3-148.9L1774.6,1703.4z"/>
				</g>
			</g>
		</g>
		<g>
			<g>
				<g>
					<path class="st153" d="M1658.5,1413.4l205.9,145.4c6.3,4.4,8.2,13,4.3,19.6l-90.5,157c-4.2,7.3-13.6,9.7-20.8,5.2l-182.1-112.9
						"/>
				</g>
			</g>
		</g>
		<g class="st149">
			<g>
				<g>
					<path class="st151" d="M1778.3,1735.4c-4.2,7.3-13.6,9.7-20.8,5.2l-182.1-112.8l0,0c9.4-28.9,43.2-41.8,69.5-26.4l143.4,83.8
						c7.2,4.4,16.6,2.1,20.8-5.2L1778.3,1735.4z"/>
				</g>
			</g>
		</g>
		<g>
			<g>
				<g>
					<path class="st151" d="M1765.3,1759.1c-5.7,0-11.3-1.6-16.4-4.7l-182.1-112.8c-7.6-4.7-10-14.8-5.3-22.4
						c4.7-7.6,14.8-10,22.4-5.3l180.9,112.1l89.2-154.8l-204.9-144.7c-7.3-5.2-9.1-15.3-3.9-22.7c5.2-7.3,15.3-9.1,22.7-3.9
						l205.9,145.4c13.2,9.3,17.1,27,9,41l-90.5,157c-4.3,7.4-11.1,12.6-19.4,14.7C1770.4,1758.8,1767.8,1759.1,1765.3,1759.1z
						 M1855,1572L1855,1572L1855,1572z"/>
				</g>
			</g>
		</g>
		<g>
			<g>
				<g>
					<path class="st151" d="M2123.6,1830.6c17.5,0.7,34.7,3.8,51.7,9.1c8.5,2.6,16.9,6,24.9,10.8c4,2.3,7.8,5.3,11.5,8.6
						c1.7,1.9,3.4,3.8,5,5.7c1.4,2.3,2.7,4.6,3.9,7c1.8,3.6,0.4,7.9-3.2,9.7c-3.3,1.7-7.3,0.6-9.3-2.5l-0.6-0.9
						c-3.4-5.3-9.3-10.1-15.8-14.4c-6.6-4.3-13.7-8.4-21.2-11.9c-15-7.2-31-13.3-47.2-19.2l0,0c-0.5-0.2-0.8-0.8-0.6-1.3
						C2122.7,1830.9,2123.1,1830.6,2123.6,1830.6z"/>
				</g>
			</g>
		</g>
		<g>
			<g>
				<g>
					<path class="st151" d="M2156.6,1792c11,1,22,2.7,32.8,4.9c10.9,2.2,21.7,4.9,32.3,8.4c10.6,3.5,21.3,7.5,31.3,13.4
						c5,2.9,10,6.2,14.5,10.4c4.5,4.2,8.8,9.3,11.4,15.9c1.4,3.7-0.4,7.9-4.1,9.4c-3.4,1.3-7.2-0.1-8.9-3.2l-0.2-0.4
						c-3.9-6.9-12.1-13.2-20.7-18.6c-8.7-5.4-18.2-10.3-27.9-14.7c-19.6-8.8-40.1-16.3-60.8-23.4c-0.5-0.2-0.9-0.8-0.7-1.3
						C2155.7,1792.2,2156.1,1792,2156.6,1792z"/>
				</g>
			</g>
		</g>
		<g>
			<g>
				<g>
					
						<ellipse transform="matrix(6.078519e-02 -0.9982 0.9982 6.078519e-02 860.5551 2485.6975)" class="st165" cx="1751.1" cy="785.6" rx="545" ry="606.8"/>
				</g>
			</g>
			<g>
				<g>
					<path class="st151" d="M1759.4,1333.3c-13.8,0-27.6-0.4-41.6-1.3c-335.3-20.4-593.2-282.2-574.9-583.5
						c18.4-301.3,306.2-529.8,641.4-509.4c335.3,20.4,593.2,282.2,574.9,583.5C2341.7,1111.3,2076.6,1333.3,1759.4,1333.3z
						 M1145.4,748.7l2.4,0.1c-18.2,298.6,237.6,558.1,570.3,578.3c13.8,0.8,27.7,1.3,41.3,1.3c314.7,0,577.5-219.9,594.9-506.1
						c18.2-298.6-237.6-558.1-570.3-578.3c-332.7-20.2-618.1,206.2-636.3,504.8L1145.4,748.7z"/>
				</g>
			</g>
		</g>
		<g>
			<g>
				<g>
					<path class="st151" d="M1759.4,1348.3c-14.1,0-28.2-0.4-42.5-1.3c-343.6-20.9-607.8-289.8-588.9-599.4l0,0
						c18.9-309.6,313.7-544.5,657.3-523.5c343.6,20.9,607.8,289.8,588.9,599.4C2356.2,1120.2,2084.5,1348.3,1759.4,1348.3z
						 M1162.8,749.7c-17.7,290.4,231.8,542.6,556.2,562.4c13.5,0.8,27,1.2,40.4,1.2c306.8,0,563-213.7,579.9-492
						c17.7-290.4-231.8-542.6-556.2-562.4C1458.9,239.2,1180.5,459.4,1162.8,749.7L1162.8,749.7z"/>
				</g>
			</g>
		</g>
		<g>
			<g>
				<g>
					<path class="st147" d="M1407.5,1317.5c27.5,47.7,153.5,89.9,307,99.3c153.5,9.4,283.8-17.3,316.8-61.3l5-82
						c0.3-4.3-4.8-6.6-8-3.8c-43.4,38.3-165.7,60.6-308,51.9c-142.2-8.7-260.9-45.6-299.4-88.9c-2.9-3.2-8.1-1.5-8.4,2.8
						L1407.5,1317.5z"/>
				</g>
			</g>
			<g>
				<g>
					<path class="st151" d="M1773.8,1421.2c-19.4,0-39.3-0.6-59.5-1.8c-150.8-9.2-280.8-51.5-309-100.5l-0.4-0.7l5-82.8
						c0.2-3,2-5.5,4.9-6.4c2.8-1,6-0.2,8,2.1c39.3,44.2,158.9,79.6,297.6,88c138.8,8.4,261.8-12.2,306.2-51.3c2.3-2,5.5-2.5,8.2-1.1
						c2.7,1.3,4.2,4,4,7l-5,82.7l-0.5,0.6C2003.9,1396.2,1899.3,1421.2,1773.8,1421.2z M1410,1316.9c28.3,47.4,156,88.3,304.5,97.3
						c148.6,9,280.4-16,314.1-59.7l4.9-81.2c0.1-1.3-0.8-1.9-1.2-2.1c-0.3-0.2-1.5-0.6-2.6,0.4c-45.3,40-169.8,61.1-309.8,52.6
						c-140-8.5-261-44.6-301.1-89.7c-1-1.1-2.2-0.8-2.5-0.7c-0.4,0.1-1.4,0.6-1.4,1.9L1410,1316.9z"/>
				</g>
			</g>
		</g>
		<g>
			<g>
				<g>
					<path class="st147" d="M1407.5,1317.5c27.5,47.7,153.5,89.9,307,99.3c153.5,9.4,283.8-17.3,316.8-61.3l5-82
						c0.3-4.3-4.8-6.6-8-3.8c-43.4,38.3-165.7,60.6-308,51.9c-142.2-8.7-260.9-45.6-299.4-88.9c-2.9-3.2-8.1-1.5-8.4,2.8
						L1407.5,1317.5z"/>
				</g>
			</g>
		</g>
		<g class="st149">
			<g>
				<g>
					<g>
						<path class="st147" d="M1411.9,1243.8l-1.6,25.5c0.2-3.5,5.5-4.8,8.4-2.2c38.9,35.7,157.9,67,300.2,75.7
							c142.3,8.7,264.2-8,307.2-38.7c3.2-2.3,8.2-0.3,8,3.2l1.6-25.5c0.2-3.5-4.8-5.5-8-3.2c-43,30.7-164.9,47.4-307.2,38.7
							c-142.2-8.7-261.3-40-300.2-75.7C1417.4,1239,1412.2,1240.4,1411.9,1243.8z"/>
					</g>
				</g>
			</g>
		</g>
		<g class="st149">
			<g>
				<g>
					<path class="st151" d="M1410.1,1273.7l-2.3,38.6c27.3,50.7,153.2,95.2,306.7,104.5c153.5,9.3,283.9-19.5,317.1-66.6l2.3-38.6
						c-33.2,47-163.6,75.9-317.1,66.6C1563.3,1368.9,1437.4,1324.4,1410.1,1273.7z"/>
				</g>
			</g>
		</g>
		<g>
			<g>
				<g>
					<path class="st151" d="M1774.3,1434.9c-19.9,0-40.3-0.6-60.9-1.9c-157.6-9.6-289.2-53.8-320.1-107.4l-2.4-4.2l5.3-86.9
						c0.5-8.5,6.1-15.8,14.2-18.6c8.1-2.8,16.9-0.4,22.5,5.9c36.3,41.1,154.9,75.4,288.3,83.6c133.5,8.1,255.4-11.6,296.4-48
						c6.4-5.6,15.4-6.9,23-3.2c7.7,3.7,12.3,11.7,11.8,20.2l-3.3,54.3c-1.7,28.1-18.3,53.5-43.2,66.3
						C1956.1,1420.5,1870.6,1434.9,1774.3,1434.9z M1424,1313.2c26.3,36,134.4,77.8,291.4,87.4c114.8,7,220.5-6.2,275.7-34.5
						c14.7-7.5,24.5-22.6,25.5-39.3l1.9-30.7c-58.2,32.9-172.9,49.4-299.3,41.7c-126.3-7.7-238.2-38-292-77.7L1424,1313.2z"/>
				</g>
			</g>
		</g>
		<g>
			<g>
				<g>
					<g>
						<g>
							
								<ellipse transform="matrix(3.933322e-02 -0.9992 0.9992 3.933322e-02 962.3519 3089.405)" class="st163" cx="2087.9" cy="1044.2" rx="87.9" ry="74.7"/>
						</g>
					</g>
				</g>
				<g>
					<g>
						<g>
							<path class="st151" d="M2087,1134.6c-0.9,0-1.8,0-2.7-0.1c-42.6-1.7-75.6-43.6-73.6-93.4c0.9-24.1,9.8-46.4,25-62.9
								c15.3-16.6,35.1-25.2,55.8-24.5c42.6,1.7,75.6,43.6,73.6,93.4c-0.9,24.1-9.8,46.4-25,62.9
								C2125.5,1126,2106.7,1134.6,2087,1134.6z M2088.8,958.9c-18.3,0-35.7,8.1-49.4,22.9c-14.3,15.6-22.7,36.8-23.6,59.6
								c-1.9,47,29,86.6,68.7,88.1c19.2,0.8,37.6-7.4,51.8-22.8c14.3-15.6,22.7-36.8,23.6-59.6c1.9-47-29-86.6-68.7-88.1
								C2090.4,958.9,2089.6,958.9,2088.8,958.9z"/>
						</g>
					</g>
				</g>
			</g>
			<g class="st149">
				<g>
					<g>
						<path class="st166" d="M2162.5,1047.1c-1.9,48.5-36.9,86.5-78.1,84.9c-41.2-1.6-73.1-42.3-71.2-90.8
							c0.7-17.4,5.6-33.5,13.6-46.8c1.8,44.8,32.3,81,71.2,82.5c26.4,1,50.3-14.2,64.5-38.1
							C2162.6,1041.6,2162.6,1044.4,2162.5,1047.1z"/>
					</g>
				</g>
				<g>
					<g>
						<path class="st151" d="M2086.9,1134.6c-0.9,0-1.7,0-2.6,0c-42.6-1.7-75.6-43.6-73.6-93.4c0.7-17.3,5.5-33.9,14-48
							c0.6-1,1.7-1.5,2.8-1.2c1.1,0.3,1.9,1.2,1.9,2.4c1.7,44.2,31.3,78.6,68.7,80.1c24.5,1,47.9-12.8,62.2-36.8
							c0.6-1,1.7-1.5,2.8-1.2c1.1,0.3,1.9,1.2,1.9,2.4c0.1,2.9,0.1,5.7,0,8.4l0,0C2163.1,1096,2128.4,1134.6,2086.9,1134.6z
							 M2025,1003.3c-5.5,11.6-8.7,24.6-9.2,38.1c-1.9,47,29,86.6,68.7,88.1c39.7,1.6,73.5-35.2,75.5-82.1
							c-15.4,21.2-38.3,33.1-62.1,32.2C2060.3,1078.1,2030.2,1045.9,2025,1003.3z M2162.5,1047.1L2162.5,1047.1L2162.5,1047.1z"/>
					</g>
				</g>
			</g>
			<g>
				<g>
					<g>
						<path class="st151" d="M2087,1148.4c-1.1,0-2.2,0-3.2-0.1c-50.1-2-89.1-50.3-86.8-107.7c1.1-27.3,11.2-52.8,28.6-71.7
							c18-19.6,41.6-29.8,66.4-28.9c50.1,2,89.1,50.3,86.8,107.7c-1.1,27.3-11.2,52.8-28.6,71.7
							C2133,1138.2,2110.6,1148.4,2087,1148.4z M2088.8,972.6c-14.4,0-28.3,6.5-39.3,18.4c-12.1,13.2-19.2,31.2-20,50.8
							c-1.5,39.4,23.4,72.6,55.5,73.8c15.1,0.6,29.7-5.9,41.2-18.4c12.1-13.2,19.2-31.2,20-50.8c1.5-39.4-23.4-72.6-55.5-73.8
							C2090.1,972.6,2089.4,972.6,2088.8,972.6z"/>
					</g>
				</g>
			</g>
			<g>
				<g>
					<g>
						
							<ellipse transform="matrix(3.933476e-02 -0.9992 0.9992 3.933476e-02 303.6083 2347.9331)" class="st154" cx="1372.9" cy="1016.1" rx="87.9" ry="74.7"/>
					</g>
				</g>
			</g>
			<g class="st149">
				<g>
					<g>
						<path class="st151" d="M1447.6,1019c-1.9,48.5-36.9,86.5-78.1,84.9c-41.2-1.6-73.1-42.3-71.2-90.8c0.1-3.1,0.4-6.1,0.8-9
							c12.2,25.4,35,42.8,61.7,43.9c38.6,1.5,71.8-31.7,77.4-75.9C1444.7,985.9,1448.2,1001.9,1447.6,1019z"/>
					</g>
				</g>
			</g>
			<g>
				<g>
					<g>
						<path class="st151" d="M1372,1120.3c-1.1,0-2.2,0-3.2-0.1c-24.8-1-47.5-13.1-64-34c-15.8-20.2-24-46.4-22.9-73.7
							c1.1-27.3,11.2-52.8,28.6-71.7c18-19.6,41.7-29.8,66.4-28.9c50.1,2,89.1,50.3,86.8,107.7l-16.3-0.6l16.3,0.6
							c-1.1,27.3-11.2,52.8-28.6,71.7C1418,1110.1,1395.6,1120.3,1372,1120.3z M1373.8,944.5c-14.4,0-28.3,6.5-39.3,18.4
							c-12.1,13.2-19.2,31.2-20,50.8s4.9,38.2,16,52.3c10.4,13.3,24.5,21,39.6,21.6c15.2,0.5,29.7-5.9,41.2-18.4
							c12.1-13.2,19.2-31.3,20-50.8c1.5-39.4-23.4-72.6-55.5-73.8C1375.1,944.5,1374.4,944.5,1373.8,944.5z"/>
					</g>
				</g>
			</g>
			<g>
				<g>
					<g>
						<path class="st154" d="M2077.9,1142.9C2077.9,1143,2077.9,1143,2077.9,1142.9c-4.9,123.2-170.8,147.8-170.8,147.8
							c-60.9,10.2-117.5,14-178.8,11c-2.6-0.1-5.3-0.2-7.9-0.3c-58.3-2.3-112.2-10.4-169.6-24.8c0,0-163.5-37.5-158.6-160.7
							c1-25.1,12.7-42.3,21.5-51.8c5.3-5.8,9.6-8.7,9.6-8.7s-5.2-47-8.4-87.5c-0.2-2.1-0.3-4.3-0.5-6.3c-1.3-17.1-2.1-32.4-1.9-41.7
							c0.5-21.1,3.2-40.9,7.8-59.5c33.6-135.3,170.7-205.3,333.2-201.7c144.3,8.1,263.9,72.7,304.8,183.5
							c10.4,27.9,15.7,58.9,15,92.5c0,3.6-0.2,7.4-0.4,11.1c-0.5,9-2.4,23.6-4.9,39.9c-6.4,41.6-16.5,94.4-16.5,94.4s2.1,1.7,5.1,5
							C2064.7,1093.8,2079,1113.6,2077.9,1142.9z"/>
					</g>
				</g>
			</g>
			<g>
				<g>
					<g>
						<g>
							<path class="st163" d="M1754.2,658.7c-0.2,0-0.4,0-0.6,0c-0.2,0-0.4,0-0.6-0.1L1754.2,658.7z"/>
						</g>
					</g>
				</g>
				<g>
					<g>
						<g>
							<path class="st151" d="M1753.6,661.3c-0.2,0-0.3,0-0.5,0c0,0-0.1,0-0.1,0l-0.1,0c-1.3-0.2-2.4-1.3-2.3-2.6
								c0.1-1.4,0.9-2.4,2.5-2.4l1.2,0c0,0,0.1,0,0.1,0h0c0,0,0,0,0,0c1.4,0.1,2.5,1.2,2.4,2.6c-0.1,1.4-1.1,2.4-2.6,2.4l-0.3,0
								C1753.7,661.3,1753.7,661.3,1753.6,661.3z"/>
						</g>
					</g>
				</g>
			</g>
			<g>
				<g>
					<g>
						<g>
							<path class="st163" d="M1753.6,658.7c-0.2,0-0.4,0-0.6-0.1l1.3,0.1C1754,658.7,1753.8,658.7,1753.6,658.7z"/>
						</g>
					</g>
				</g>
				<g>
					<g>
						<g>
							<path class="st151" d="M1753.8,661.3c-0.2,0-0.5,0-0.7,0c-0.1,0-0.1,0-0.2,0l-0.1,0c-1.3-0.2-2.3-1.3-2.3-2.6
								c0.1-1.4,0.9-2.4,2.5-2.4l1.2,0c0,0,0.1,0,0.1,0h0c0,0,0,0,0,0c1.4,0.1,2.5,1.2,2.4,2.6c-0.1,1.4-1.1,2.4-2.6,2.4l0,0
								C1754,661.3,1753.9,661.3,1753.8,661.3z"/>
						</g>
					</g>
				</g>
			</g>
			<g>
				<g>
					<g>
						<g>
							<path class="st163" d="M1752.9,658.7l1.3,0.1c-0.2,0-0.4,0-0.6,0C1753.4,658.7,1753.1,658.7,1752.9,658.7z"/>
						</g>
					</g>
				</g>
				<g>
					<g>
						<g>
							<path class="st151" d="M1753.8,661.3c-0.3,0-0.5,0-0.7,0c0,0-0.1,0-0.1,0l-0.1,0c-1.3-0.2-2.4-1.3-2.3-2.6
								c0.1-1.4,0.9-2.4,2.5-2.4l1.2,0c0,0,0.1,0,0.1,0h0c0,0,0,0,0,0c1.4,0.1,2.5,1.2,2.4,2.6c-0.1,1.4-1.1,2.4-2.6,2.4l0,0
								C1754,661.3,1753.9,661.3,1753.8,661.3z"/>
						</g>
					</g>
				</g>
			</g>
			<g>
				<g>
					<g>
						<path class="st151" d="M1768.1,1319.1c-13.4,0-26.9-0.3-40.6-1c-61-1.9-118.4-10-180.7-25.6c-6.9-1.6-176.4-42-171-177.2
							c1.4-34.3,19.4-56.4,30.2-66.7c-2.8-25.8-10.6-101.5-9.9-129.1c2.1-87.9,40-160.7,109.7-210.5
							c62.9-44.9,150.4-68.5,246.4-66.7c0.4,0,0.8,0,1.2,0l1.3,0.1c0.4,0,0.8,0,1.1,0.1c95.9,5.7,181.2,36.1,240.4,85.9
							c65.6,55.1,97.7,130.6,92.9,218.4c-1.5,27.6-15.2,102.3-20,127.9c10,11.1,26.2,34.5,24.9,68.8
							c-5.3,135.2-177.4,162.2-184.7,163.3C1860.6,1315.1,1814.7,1319.1,1768.1,1319.1z M1730.3,1285.6
							c58.1,2.7,113.5-0.8,174.1-10.9c1.8-0.3,153-24.2,157.2-132.3c1.2-31.4-19.9-49.2-20.1-49.3c-4.7-3.8-7-9.9-5.8-15.8
							c0.2-1,19.4-101.5,21.1-132.1c4.3-77.2-23.8-143.4-81.3-191.7c-54.1-45.4-133.1-73.2-222.5-78.3
							c-89.5-1.9-170.5,19.6-228,60.6c-61,43.6-94.3,107.4-96.1,184.7c-0.7,30.7,10.5,132.3,10.7,133.4c0.7,6-2.1,11.9-7.1,15.3
							c-0.8,0.6-22.7,16.3-23.9,47.6c-4.3,108.1,144.5,143.9,146,144.2c59.9,15,114.8,22.8,173,24.6c0.3,0,0.6,0,0.9,0
							c0.1,0,0.3,0,0.4,0c0.2,0,0.4,0,0.5,0C1729.7,1285.5,1730,1285.5,1730.3,1285.6z"/>
					</g>
				</g>
			</g>
			<g>
				<g>
					<g>
						<polygon class="st167" points="1460.4,851.8 1449,947.9 1435.1,1065 1396.6,1063.5 1383.5,967.8 1370.3,871.2 1420.4,860.4 
													"/>
					</g>
				</g>
			</g>
			<g>
				<g>
					<g>
						<path class="st151" d="M1410.1,1080.3c-0.5,0-1,0-1.5,0c-18.5-0.7-33.8-14.6-36.3-32.9l-23.8-174.1c-1.2-8.9,5-17.1,13.9-18.4
							c8.9-1.2,17.1,5,18.4,13.9l23.8,174.1c0.4,2.7,2.6,4.7,5.3,4.8c3.1,0.2,5.4-2,5.7-4.9l22.9-193.1c1.1-8.9,9.1-15.3,18.1-14.3
							c8.9,1.1,15.3,9.2,14.3,18.1l-22.9,193.1C1445.8,1065.8,1429.3,1080.3,1410.1,1080.3z"/>
					</g>
				</g>
			</g>
			<g>
				<g>
					<g>
						<path class="st167" d="M2115.6,829.4l-19.7,95.7l-30.1,146.6c-1.2,5.2-4,9.6-8,12.6c-0.4,0.3-0.7,0.6-1.1,0.8
							c-3.8,2.6-8.3,4-13.1,3.8c-11.4-0.4-20.5-9.6-21-21l-4.4-120.7l-3-81.7l43-23.2L2115.6,829.4z"/>
					</g>
				</g>
			</g>
			<g>
				<g>
					<g>
						<path class="st151" d="M2044.5,1105.3c-0.5,0-1,0-1.5,0c-19.8-0.8-35.9-16.9-36.6-36.6l-7.3-202.5c-0.3-9,6.7-16.6,15.7-16.9
							c9.2-0.3,16.6,6.7,16.9,15.7l7.3,202.4c0.1,2.8,2.4,5.2,5.3,5.3c2.5,0.1,5.1-1.7,5.6-4.4l49.7-242.1
							c1.8-8.8,10.5-14.5,19.3-12.7c8.8,1.8,14.5,10.4,12.7,19.3l-49.8,242.3C2077.9,1092.8,2062.4,1105.3,2044.5,1105.3z"/>
					</g>
				</g>
			</g>
			<g class="st149">
				<g>
					<g>
						<path class="st160" d="M1754.2,658.7c-0.2,0-0.4,0-0.6,0c-0.2,0-0.4,0-0.6-0.1L1754.2,658.7z"/>
					</g>
				</g>
				<g>
					<g>
						<path class="st151" d="M1753.6,661.3c-0.2,0-0.3,0-0.5,0c0,0-0.1,0-0.1,0l-0.1,0c-1.3-0.2-2.4-1.3-2.3-2.6
							c0.1-1.4,0.9-2.4,2.5-2.4l1.2,0c0,0,0.1,0,0.1,0h0c0,0,0,0,0,0c1.4,0.1,2.5,1.2,2.4,2.6c-0.1,1.4-1.1,2.4-2.6,2.4l-0.3,0
							C1753.7,661.3,1753.7,661.3,1753.6,661.3z"/>
					</g>
				</g>
			</g>
			<g class="st149">
				<g>
					<g>
						<path class="st151" d="M2077.9,1142.9C2077.9,1143,2077.9,1143,2077.9,1142.9c-4.9,123.2-170.8,147.8-170.8,147.8
							c-60.9,10.3-117.5,14-178.8,11.1c-2.6-0.1-5.2-0.2-7.8-0.3c-58.3-2.3-112.2-10.4-169.6-24.8c0,0-163.5-37.5-158.6-160.8
							c0.3-8.4,1.8-15.9,4.1-22.5c18.9,100.4,156.6,132,156.6,132c57.4,14.4,111.3,22.5,169.6,24.8c2.6,0.1,5.2,0.2,7.8,0.3
							c61.3,3,117.9-0.8,178.8-11.1c0,0,139.7-20.7,166.4-119.3C2077.3,1126.9,2078.2,1134.6,2077.9,1142.9z"/>
					</g>
				</g>
			</g>
			<g class="st149">
				<g>
					<g>
						<path class="st151" d="M2093.1,938.8c-0.5,9-6.6,32.4-9.1,48.7c-38.3,2-93-3.9-143.6-29.5c-68.4-34.6-126.5-96.8-126.5-96.8
							c2.1,33.2,9.5,67.4,15.5,90.4c3.3,13-8.5,25-21.4,21.6c-125-32.2-219.5-124.4-219.5-124.4c1.7,23,9.1,53.4,15.6,76.8
							c4,14.4-10.6,27-24.3,20.9c-83-37.4-106.4-67.2-106.4-67.2c-14.3,51.9-72.5,92.6-93.3,104.4c-0.2-2.1-3.9-44.7-4.1-46.8
							c-1.3-17.1,36.3-7.7,36.6-17.1c0.5-21.1,3.2-40.9,7.8-59.5c33.6-135.3,170.7-205.3,333.2-201.7
							c144.3,8.1,263.9,72.7,304.8,183.5c10.4,27.9,15.7,58.9,15,92.5C2073.4,938.5,2093.3,935,2093.1,938.8z"/>
					</g>
				</g>
			</g>
			<g>
				<g>
					<g>
						<path class="st167" d="M1475.1,834.1c0,0,23.3,29.7,106.4,67.2c13.7,6.2,28.3-6.4,24.3-20.9c-6.5-23.4-13.9-53.8-15.6-76.8
							c0,0,94.5,92.2,219.5,124.4c13,3.3,24.8-8.6,21.4-21.6c-5.9-23-13.3-57.2-15.5-90.4c0,0,58.1,62.1,126.5,96.8
							c60.8,30.8,104.6,30.7,150.9,26c0,0,1-4.8,22.5-109.3c0,0,89.4-45.4,116.1-85.6c0,0-75.9-21.8-108.4-49.1
							c0,0,46.8-43.9,69.2-92.4c-59.5-9.8-250.2-93.7-348-117.7c-99.4-24.3-249-30-399.7,108.6c-119.5,109.9-176.1,112-176.1,112
							l86.4,119.3l18.1,108.4C1373.1,932.8,1444.7,944.5,1475.1,834.1z"/>
					</g>
				</g>
			</g>
			<g>
				<g>
					<g>
						<path class="st168" d="M1605.8,880.4c1.3,4.5,0.7,8.8-1.1,12.5c-2.9-13.6-5.3-27.1-6.1-38.8c0,0,0.2,0.2,0.5,0.4
							C1601.2,863.5,1603.6,872.4,1605.8,880.4z"/>
					</g>
				</g>
				<g>
					<g>
						<path class="st151" d="M1604.7,895.4c-0.1,0-0.2,0-0.3,0c-1.1-0.1-1.9-0.9-2.2-2c-3.4-15.7-5.4-28.5-6.2-39.2
							c-0.1-1.1,0.5-2.1,1.5-2.5c1-0.4,2.1-0.2,2.9,0.6c0.4,0.3,1,1.1,1.1,1.6c1.8,7.8,4,16,6.7,25.8l0,0c1.4,4.9,0.9,9.8-1.3,14.3
							C1606.5,894.8,1605.7,895.4,1604.7,895.4z"/>
					</g>
				</g>
			</g>
			<g class="st146">
				<g>
					<g>
						<path class="st147" d="M2197.5,592.1c-6.8,14.8-15.8,29.1-25.2,41.9c-79.4-24.4-230.9-88.7-314.5-109.1
							c-99.4-24.3-238.5-17.6-399.7,108.6C1382,693,1273.7,695,1273.7,695s56.5-2.1,176.1-112c150.7-138.6,300.3-132.9,399.7-108.6
							C1947.3,498.3,2138,582.2,2197.5,592.1z"/>
					</g>
				</g>
			</g>
			<g class="st149">
				<g>
					<g>
						<path class="st151" d="M2231.7,743.8c-26.7,40.2-116.1,85.6-116.1,85.6c-21.4,104.5-22.5,109.3-22.5,109.3
							c-46.3,4.7-90.1,4.7-150.9-26c-68.4-34.6-126.5-96.8-126.5-96.8c2.1,33.2,9.5,67.4,15.5,90.4c3.3,13-8.5,25-21.4,21.6
							c-125-32.2-219.5-124.4-219.5-124.4c1.7,23,9.1,53.4,15.6,76.8c4,14.4-10.6,27-24.3,20.9c-83-37.4-106.4-67.2-106.4-67.2
							c-30.4,110.5-102,98.7-102,98.7l-8.9-53.4c23.6-5.1,61.4-24.8,81.4-97.5c0,0,23.3,29.7,106.4,67.1
							c13.7,6.2,28.3-6.4,24.3-20.9c-6.5-23.4-13.9-53.8-15.6-76.8c0,0,94.6,92.2,219.5,124.4c13,3.3,24.8-8.6,21.4-21.6
							c-5.9-23.1-13.4-57.2-15.5-90.4c0,0,58.1,62.1,126.5,96.8c30.9,15.6,57.4,23.3,82.1,26.5c37.9,4.8,73-20.7,80.7-58.1
							c0.1-0.7,0.3-1.4,0.4-2.1c6.2-30.3,24.8-56.6,51.2-72.9c14.6-9,31-20,45.3-31.6C2202.3,735.3,2231.7,743.8,2231.7,743.8z"/>
					</g>
				</g>
			</g>
			<g>
				<g>
					<g>
						<path class="st151" d="M2093.1,955.1c-1.1,0-2.3-0.1-3.4-0.4c-8.8-1.9-14.4-10.6-12.5-19.4l0,0c0.1-0.3,1.6-7.4,22.5-109.2
							c1-4.9,4.2-9,8.6-11.3c19.5-9.9,67.3-37.1,95-63.1c-26.2-9.1-67.4-25.3-90.4-44.6c-3.6-3-5.7-7.4-5.8-12
							c-0.1-4.7,1.7-9.2,5.1-12.4c0.4-0.4,33.6-31.8,56-69.4c-33.7-9.2-83.8-28-140-49c-68.5-25.6-139.4-52.1-187.6-63.9
							c-142-34.7-271.4,0.5-384.8,104.7c-78.3,71.9-130.8,99.4-159.8,109.9l72.3,99.8c1.5,2,2.5,4.4,2.9,6.9l18.1,108.4
							c1.5,8.9-4.5,17.3-13.4,18.8c-8.9,1.5-17.3-4.5-18.8-13.4l-17.5-104.6l-84.2-116.2c-3.5-4.9-4.1-11.3-1.5-16.7
							c2.6-5.4,8-8.9,14-9.2c0.2,0,54.3-5.4,165.7-107.7c121.9-112.1,261.4-149.9,414.6-112.4c50.1,12.2,121.9,39.1,191.3,65.1
							c65.6,24.5,127.5,47.7,155.6,52.4c5,0.8,9.4,4,11.7,8.4c2.4,4.5,2.5,9.8,0.4,14.5c-15.8,34.2-42.4,65.7-58.8,83.2
							c28,16.6,70.9,31,87.8,35.8c5,1.4,9,5.2,10.8,10.1c1.8,4.9,1.2,10.3-1.7,14.6c-24.4,36.8-92.9,75.5-115.3,87.4
							c-19.7,96.1-20.9,101.7-21,101.9C2107.4,949.8,2100.7,955.1,2093.1,955.1z"/>
					</g>
				</g>
			</g>
			<g>
				<g>
					<g>
						<path class="st151" d="M2046,957.2c-0.2,0-0.3,0-0.5,0c-37.5-1.2-72.6-10.7-110.6-29.9c-38.4-19.4-73.2-46.7-97.3-67.9
							c2.9,16.2,6.4,31.1,9.4,43c3,11.8-0.3,24-8.9,32.6c-8.6,8.6-20.7,11.9-32.4,8.9c-83.3-21.4-152.7-67.9-192-98.7
							c2.2,9.6,4.8,19.9,7.9,30.9c3.6,12.8-0.5,26.2-10.6,34.9c-10.1,8.7-24,10.7-36.1,5.2c-46.7-21-75.3-39.8-92.1-52.9
							c-10.1,26.1-23.7,46.6-40.6,61.4c-6.8,5.9-17.1,5.2-23-1.6c-5.9-6.8-5.2-17.1,1.6-23c17-14.8,30-38.4,38.7-70.2
							c1.6-5.9,6.5-10.4,12.5-11.7c6-1.2,12.3,1.1,16,5.9c0.1,0.1,23.3,27.6,100.2,62.4c0.3,0.1,0.8,0.4,1.5-0.2
							c0.7-0.6,0.5-1.1,0.4-1.4c-9.2-33.1-14.7-60-16.2-80c-0.5-6.8,3.2-13.1,9.4-16c6.1-2.9,13.4-1.6,18.3,3.1
							c0.9,0.9,93.1,89.6,212.2,120.3c0.3,0.1,0.7,0.2,1.2-0.4c0.6-0.6,0.5-1.2,0.4-1.4c-6.1-23.6-13.7-58.9-16-93.4
							c-0.4-6.9,3.5-13.3,9.8-16c6.3-2.7,13.7-1.2,18.4,3.8c0.6,0.6,57,60.5,122,93.4c34.1,17.2,63.9,25.4,96.9,26.4
							c9,0.3,16.1,7.8,15.8,16.8C2062,950.3,2054.7,957.2,2046,957.2z"/>
					</g>
				</g>
			</g>
			<g>
				<g>
					<g>
						<g>
							<path class="st151" d="M1659.1,1140.2c-0.9,15.8,3.1,33,12.4,47.1c10.7,16.5,28.5,28.9,53.7,30.4c20.9,1.2,40.6-9,54.6-24.3
								c11.5-12.6,19.1-28.8,20-45.1c1-17.6-6.6-18.3-19.1-14.7c-4.6,1.3-10,3.3-15.9,5.1c-10.5,3.4-22.6,6.6-35.4,5.8
								c-13.4-0.8-25.7-5.7-36-10.3c-5.8-2.6-11-5.1-15.5-6.8C1666.9,1123.2,1660,1123.9,1659.1,1140.2z"/>
						</g>
					</g>
				</g>
				<g>
					<g>
						<g>
							<g>
								<path class="st169" d="M1675.5,1136.2c-0.8,13.5,10.9,27.5,28.9,30.3c18,2.8,27.1,3.3,45.3,2.6
									c20.6-0.8,34.9-16.8,31.9-32.2c-0.2-1.1-0.5-2.3-0.9-3.3c-4.7,1.3-10,3.3-15.9,5.1c-10.5,3.4-22.7,6.6-35.4,5.8
									c-13.4-0.8-25.7-5.6-36-10.3c-5.8-2.6-11-5.1-15.5-6.8c-0.6,1.1-1,2.3-1.4,3.5C1675.9,1132.6,1675.6,1134.4,1675.5,1136.2z"
									/>
							</g>
						</g>
					</g>
				</g>
				<g>
					<g>
						<g>
							<path class="st170" d="M1671.5,1187.3c10.7,16.5,28.5,28.9,53.7,30.4c20.9,1.2,40.6-9,54.6-24.3c-8.8-6.4-35.9-15.8-49-6
								c-4.1,3.1-5.4,9.3-5.4,9.3s-0.6-6.3-4.3-9.8C1709.1,1175.5,1680.7,1181.9,1671.5,1187.3z"/>
						</g>
					</g>
					<g>
						<g>
							<path class="st145" d="M1728.6,1219.2c-1.1,0-2.3,0-3.4-0.1c-29.8-1.7-46.3-17.8-54.9-31c-0.2-0.3-0.3-0.7-0.2-1.1
								s0.3-0.7,0.7-0.9c9.3-5.4,38.7-12.2,51.3-0.3c1.8,1.7,2.9,3.9,3.6,5.9c0.9-1.9,2.3-4,4.3-5.4c13.8-10.3,41.8-0.4,50.7,6
								c0.3,0.2,0.5,0.6,0.6,1c0,0.4-0.1,0.8-0.4,1.1C1766.4,1210.2,1747.5,1219.2,1728.6,1219.2z M1673.5,1187.8
								c8.4,12.4,24.1,26.9,51.8,28.5c18.8,1.1,37.7-7.2,52.3-22.6c-9.4-5.9-34.1-14-46-5.1c-3.6,2.7-4.8,8.4-4.9,8.4
								c-0.2,0.7-0.8,1.2-1.5,1.1c-0.7,0-1.3-0.6-1.3-1.3c0-0.1-0.6-5.8-3.9-8.9C1709.5,1177.8,1683.8,1182.7,1673.5,1187.8z"/>
						</g>
					</g>
				</g>
				<g>
					<g>
						<g>
							<path class="st151" d="M1728.8,1225.5c-1.3,0-2.7,0-4-0.1c-30.1-1.7-47.7-17.3-57.1-30c-11.5-15.5-17.4-35.8-16.3-55.6l0,0
								c0.4-6.3,1.6-15.2,8.6-19.7c6.6-4.3,14.5-2.1,20.7,0.2c3.6,1.3,7.4,3.1,11.6,5l4.4,2c10.2,4.6,21.4,9,33.3,9.7
								c11.6,0.7,23-2.4,32.6-5.5c2.4-0.7,4.6-1.5,6.7-2.2c3.4-1.1,6.5-2.2,9.4-3c7.5-2.2,16.1-3.7,22.4,1.4
								c6.6,5.3,6.9,14.6,6.5,21.2C1805.4,1185.9,1771.6,1225.5,1728.8,1225.5z M1668.2,1133c0.1,0.1-1.1,1.7-1.4,7.6l0,0
								c-0.9,16.3,3.9,32.9,13.3,45.5c7.5,10.1,21.4,22.4,45.6,23.8c35.3,2,64.7-31.7,66.4-62.1c0.4-6.7-0.8-8.3-0.8-8.3
								c0,0-0.1,0-0.5,0c-0.9,0-3.2,0.1-7.9,1.5c-2.7,0.8-5.6,1.7-8.7,2.8c-2.2,0.7-4.6,1.5-7,2.3c-10.9,3.5-24.1,7-38.2,6.2
								c-14.5-0.8-27.7-6-38.8-11l-4.5-2c-3.9-1.8-7.5-3.4-10.6-4.6C1670.1,1132.7,1668.5,1132.9,1668.2,1133z M1659.1,1140.2
								L1659.1,1140.2L1659.1,1140.2z"/>
						</g>
					</g>
				</g>
			</g>
			<g>
				<g>
					<g>
						<path class="st151" d="M1932.9,1081.1c-6.1-13.3-13.5-25.8-22.7-33.9c-4.5-4.1-9.6-6.7-14.8-8.6c-1.4-0.3-2.7-0.7-4-1.2
							c-1.4-0.3-2.9-0.4-4.3-0.6c-2.8-0.7-6-0.2-9-0.3c-3,0.1-6,0.7-9,1.1c-2.6,1-5.7,1.3-8,2.7c-5.1,2.1-9.3,5.5-12.8,10.4
							c-7.1,9.5-10.5,24.1-11.9,38.4l0,0.4c-0.2,2.4-2.3,4.1-4.7,3.9c-1.7-0.2-3.1-1.3-3.6-2.9c-2.8-8-3.8-16-3.8-24.6
							c0.2-8.4,1.8-17.3,5.9-25.8c1.1-2.1,2.1-4.2,3.6-6.2l4.5-5.7c3.5-3.3,7.2-6.8,11.5-9c4.2-2.8,8.7-4,13.2-5.7
							c2.2-0.6,4.5-0.9,6.7-1.4c2.3-0.3,4.5-1,6.8-0.9c4.6,0,9.1-0.6,13.8,0.4c2.3,0.4,4.7,0.6,7,1.2c2.3,0.7,4.6,1.5,6.9,2.3
							c8.9,3.6,17,9.5,22.7,16.7c5.8,7.2,9.5,15.3,11.9,23.4c2.2,8.2,3.4,16.3,2.6,24.9c-0.2,2.4-2.3,4.1-4.7,3.9
							c-1.6-0.2-2.9-1.1-3.5-2.5L1932.9,1081.1z"/>
					</g>
				</g>
			</g>
			<g>
				<g>
					<g>
						<path class="st151" d="M1531.5,1057.1c-0.4-8.6,1.1-16.6,3.7-24.7c2.7-8,6.8-15.9,12.9-22.9c6.1-6.9,14.4-12.5,23.5-15.7
							c2.3-0.7,4.6-1.4,6.9-2c2.3-0.4,4.7-0.6,7-0.9c4.8-0.8,9.2,0,13.8,0.2c2.3,0,4.5,0.8,6.7,1.2c2.2,0.5,4.5,1,6.7,1.7
							c4.4,1.9,8.9,3.3,12.9,6.2c4.2,2.4,7.7,6,11.1,9.5l4.2,5.9c1.3,2,2.2,4.2,3.3,6.3c3.8,8.6,4.9,17.6,4.8,26
							c-0.3,8.5-1.7,16.5-4.9,24.4c-0.9,2.2-3.4,3.3-5.6,2.4c-1.6-0.6-2.6-2.1-2.7-3.8l0-0.4c-0.8-14.4-3.5-29.1-10.2-38.9
							c-3.2-5-7.3-8.6-12.3-10.9c-2.2-1.6-5.3-2-7.9-3.1c-3-0.5-6-1.2-9-1.5c-3,0-6.2-0.6-9-0.1c-1.4,0.2-2.9,0.2-4.3,0.4
							c-1.3,0.4-2.7,0.7-4.1,1c-5.3,1.7-10.5,4-15.2,7.9c-9.5,7.7-17.4,19.9-24.1,32.9l-0.2,0.4c-1.1,2.1-3.7,3-5.8,1.9
							C1532.4,1060,1531.6,1058.6,1531.5,1057.1z"/>
					</g>
				</g>
			</g>
		</g>
		<g>
			<g>
				<g>
					<path class="st151" d="M2324.1,1151.7c5.9,1.3,11.2,1.9,15.9,1.3c4.7-0.6,8.6-2.1,12.6-4.3c3.9-2.2,7.7-4.9,11.9-8.1
						c2.2-1.6,4.2-3.3,7.2-5.4c1.5-1,3-2.1,6.4-3.4c0.8-0.3,2.2-0.7,3.4-0.9c0.9-0.1,1.9-0.2,2.8-0.2c0.5,0,0.9,0,1.5,0
						c0.7,0.1,1.3,0.2,2,0.3c3,0.7,4.2,1.5,5.8,2.5c1,0.7,1.7,1.3,2.4,1.9c2.2,2.1,3.2,3.4,4.4,4.8l2.9,3.9c1.8,2.5,3.4,4.9,5,7.3
						c3.2,4.7,6.2,9.3,9.3,13.4c3.1,4,6.5,7.7,9.2,9.4c1.3,0.8,2,0.9,1.4,0.9c-0.2-0.1-0.3,0.1-0.5,0c-0.1,0-0.2,0.1-0.3,0.1
						l0.6-0.2c0.8-0.3,1.5-0.6,2.1-1c2.4-1.4,3.6-3.2,4.6-6.3c0.9-3.1,1-7.2,0.4-11.7c-1.2-9-4.8-18.7-9.3-27.6
						c-2.2-4.5-4.8-8.7-7.4-12.4c-2.8-3.7-4.8-5.7-8.5-8.2c-7.2-4.9-17.8-8.7-29.2-13.3l-0.2-0.1c-1.2-0.5-1.7-1.8-1.3-3
						c0.2-0.5,0.6-0.9,1-1.1c5.8-3.3,12-5,18.6-5.8c6.5-0.7,13.4-0.3,20.5,1.9c3.5,1.1,7,2.8,10.4,5c3.4,2.3,6.1,4.9,8.6,7.5
						c4.9,5.1,8.7,10.7,11.9,16.4c6.4,11.5,10.9,24,11.9,38.2c0.5,7,0.1,14.7-2.7,22.7c-2.6,7.9-9,15.9-16.7,20.1
						c-1.9,1.1-3.9,2-5.8,2.7l-1.5,0.6c-0.8,0.2-1.6,0.4-2.4,0.6c-1.6,0.4-3.2,0.5-4.8,0.5c-6.5-0.1-11.2-2.3-14.9-4.5
						c-7.2-4.5-11.7-9.5-16.1-14.3c-4.2-4.8-8-9.7-11.5-14.5l-5-6.9l-2.2-3.1c-0.6-0.8-1.4-1.8-1.3-1.7c0.2,0.2,0.3,0.3,0.7,0.5
						c0.9,0.6,1.5,1,3.8,1.6c0.5,0.1,1,0.2,1.5,0.2l0.9,0.1c0.6,0,1.2-0.1,1.7-0.2c0.4,0,1.2-0.3,1.3-0.3c0.7-0.3-0.3,0.1-1.3,0.6
						c-2,1-4.7,2.6-7.4,4.2c-5.5,3-12,6-19.2,7.3c-7.1,1.4-15,1.1-21.8-1.7c-6.8-2.5-12.1-7.3-15.7-12.6c-0.7-1-0.4-2.4,0.6-3.1
						c0.5-0.4,1.2-0.5,1.7-0.3L2324.1,1151.7z"/>
				</g>
			</g>
		</g>
		<g>
			<g>
				<g>
					<path class="st151" d="M2448.8,1244.3c-62.8,0-86.3-58.6-90-90.3c-0.6-5.6,3.4-10.6,8.9-11.3c5.6-0.7,10.6,3.4,11.3,8.9
						c0.4,3.2,9.8,74.7,73.1,72.2c5.6-0.3,10.3,4.1,10.6,9.8c0.2,5.6-4.1,10.3-9.8,10.6C2451.5,1244.3,2450.1,1244.3,2448.8,1244.3z
						"/>
				</g>
			</g>
		</g>
		<g>
			<g>
				<g>
					<path class="st151" d="M2433.1,1126.6c-6.1,0-11.5-4.4-12.5-10.6c-1.2-6.9,3.5-13.5,10.4-14.6c0.2,0,18-3.2,41.5-13
						c6.5-2.7,13.9,0.3,16.6,6.8c2.7,6.5-0.3,13.9-6.8,16.6c-26.4,11-46.2,14.5-47.1,14.6
						C2434.5,1126.5,2433.8,1126.6,2433.1,1126.6z"/>
				</g>
			</g>
		</g>
		<g class="st146">
			<g>
				<g>
					<g>
						<path class="st147" d="M1463.6,470c-20.3,24.1-39.5,47.4-56.7,71.5c-17.2,24.1-32.4,48.8-45.5,74.2
							c-13.1,25.4-23.7,51.7-32.6,78.5c-2.2,6.7-4.9,13.3-7.8,19.9c-2.5,6.7-5.5,13.3-8.9,20c-2.9,6.8-6.5,13.6-10.5,20.5
							c-3.7,7-7.8,14-13.4,21.2l-2,2.6c-10.5,13.6-30,16-43.6,5.5c-4-3.1-7.1-7.1-9.1-11.4c-4.1-8.9-6.8-18-9-27.2
							c-1.8-9.1-2.8-18.4-3.3-27.6c-0.3-9.2,0.3-18.4,1.1-27.5c1.2-9.1,3-18.1,5.1-27c10-35.2,25.7-68.7,45.2-99.3
							c19.6-30.6,43.3-58.2,70.1-81.7c26.8-23.5,56.6-43.2,88.9-56.9c14.3-6,30.8,0.7,36.8,15c4.2,10.1,2.2,21.2-4.4,29L1463.6,470z
							"/>
					</g>
				</g>
			</g>
		</g>
		<g class="st146">
			<g>
				<g>
					<g>
						<path class="st147" d="M1533.4,368.9c4.3-3.9,8.7-7.6,13.2-11.1c4.6-3.4,9.2-6.7,14-9.9c4.7-3.2,9.7-6,14.5-8.9
							c5-2.7,10-5.4,15.1-8c20.4-10,41.9-17.8,64-23.4c22.1-5.6,44.8-9.3,67.6-10.1c11.4,0,23,1.7,34.3,5.5
							c11.3,3.9,22.5,9.4,33,19.5c14.4,13.8,14.9,36.7,1.1,51.2c-0.5,0.5-1,1.1-1.6,1.5l-2.3,2.1c-5.2,4.7-10.1,8-15,10.9
							c-4.9,3-9.7,5.3-14.4,7.3c-4.7,2.2-9.4,3.6-14.1,4.9c-4.7,1.4-9.3,2.3-14,3c-18.6,2-37.3,3.4-56.1,5.4l-57.2,5.9
							c-9.7,1-19.5,2-29.6,2.8c-5,0.5-10.1,0.9-15.2,1.2c-5.1,0.4-10.3,0.6-15.7,0.7l-1.7,0c-16,0.2-29.2-12.6-29.4-28.7
							C1523.8,382.1,1527.6,374.3,1533.4,368.9z"/>
					</g>
				</g>
			</g>
		</g>
	</g>
</g>
</svg>
