<?xml version="1.0" encoding="utf-8"?>
<!-- Generator: Adobe Illustrator 25.2.1, SVG Export Plug-In . SVG Version: 6.00 Build 0)  -->
<svg version="1.1" id="Capa_1" xmlns="http://www.w3.org/2000/svg" xmlns:xlink="http://www.w3.org/1999/xlink" x="0px" y="0px"
	 viewBox="0 0 512 512" style="enable-background:new 0 0 512 512;" xml:space="preserve">
<style type="text/css">
	.st0{fill:#FAA930;}
</style>
<g transform="translate(0.000000,512.000000) scale(0.100000,-0.100000)">
	<path class="st0" d="M2487,4590c-27-5-72-20-100-34c-31-16-520-416-1212-994C-47,2543-13,2574,3,2508c4-13,58-85,122-160
		c96-114,121-138,149-144c19-3,44-3,55,1c11,3,517,420,1123,925c607,506,1105,920,1108,920s501-414,1108-920
		c606-505,1112-922,1123-925c11-4,36-4,55-1c28,6,53,30,149,144c64,75,118,147,122,160c15,62,3,74-367,382l-355,296l-5,672l-5,672
		l-28,27l-27,28l-323,3c-210,2-335,0-358-7c-68-20-68-22-71-386l-3-327l-408,340c-437,365-450,374-572,385
		C2562,4596,2513,4595,2487,4590z"/>
	<path class="st0" d="M1642,3018l-912-752v-780c0-537,4-794,11-821c15-55,83-119,142-133c32-9,228-12,656-12h611v610v610h410h410
		v-610V520h611c407,0,625,4,653,11c56,14,114,62,137,113c18,39,19,84,19,832v790l-909,749c-499,412-912,750-917,752
		S2144,3432,1642,3018z"/>
</g>
</svg>
