<?xml version="1.0" encoding="utf-8"?>
<!-- Generator: Adobe Illustrator 25.2.1, SVG Export Plug-In . SVG Version: 6.00 Build 0)  -->
<svg version="1.1" id="Capa_1" xmlns="http://www.w3.org/2000/svg" xmlns:xlink="http://www.w3.org/1999/xlink" x="0px" y="0px"
	 viewBox="0 0 512 512" style="enable-background:new 0 0 512 512;" xml:space="preserve">
<style type="text/css">
	.st0{fill:#FAA930;}
</style>
<g transform="translate(0.000000,512.000000) scale(0.100000,-0.100000)">
	<path class="st0" d="M964.6,5086.9C776,4978.3,201,4314.3,36.4,4014.9c-38.9-69.7-40-76.6-33.2-149.7
		c25.1-244.6,133.7-595.4,283.5-916.6c165.8-353.1,445.8-776,763.6-1154.3c162.3-193.1,543-573.7,731.6-733.7
		c683.6-576,1372.9-937.1,1993.6-1043.4c56-9.1,116.6-17.1,136-17.1c65.2,0,245.8,116.6,519,333.7
		c352.1,281.1,629.9,555.4,676.7,669.7c38.9,92.6-36.6,178.3-309.8,360c-396.7,261.7-765.9,469.7-940.8,528
		c-81.2,27.4-88,28.6-128,11.4c-56-22.9-91.5-58.3-249.2-240c-70.9-81.1-152-170.3-179.5-197.7l-51.4-49.1l-73.2,18.3
		c-237.8,61.7-560.1,229.7-827.6,432c-117.7,90.3-316.6,282.3-426.4,413.7c-208.1,248-404.7,604.6-483.5,877.7l-25.1,89.1l61.7,62.9
		c34.3,35.4,118.9,112,187.5,170.3c160,134.9,217.2,195.4,238.9,248c17.1,38.9,16,48-5.7,116.6c-64,208-531.6,995.4-700.7,1180.6
		C1100.6,5128,1057.2,5140.6,964.6,5086.9z"/>
	<path class="st0" d="M2742.2,4937.1v-182.9h54.9c237.8,0,553.3-77.7,799.1-194.3c419.5-200,736.2-509.7,940.8-920
		c128-257.1,182.9-450.3,208.1-739.4l13.7-157.7h180.6h180.6v50.3c0,88-21.7,282.3-46.9,412.6c-67.4,353.1-256.1,756.6-480.1,1027.4
		c-410.4,496-959.1,796.6-1585.5,869.7c-80,9.1-172.6,17.1-204.6,17.1h-60.6V4937.1z"/>
	<path class="st0" d="M2742.2,4026.3v-182.9l90.3-8c266.4-21.7,498.4-132.6,692.7-331.4c185.2-188.6,288.1-412.6,309.8-672l8-89.1
		h180.6h181.8v46.9c0,157.7-69.7,437.7-149.8,595.4c-139.5,277.7-386.4,528-656.2,662.9c-170.3,85.7-360.1,138.3-553.3,153.1l-104,8
		V4026.3z"/>
</g>
</svg>
