<?xml version="1.0" encoding="utf-8"?>
<!-- Generator: Adobe Illustrator 25.2.1, SVG Export Plug-In . SVG Version: 6.00 Build 0)  -->
<svg version="1.1" id="Capa_1" xmlns="http://www.w3.org/2000/svg" xmlns:xlink="http://www.w3.org/1999/xlink" x="0px" y="0px"
	 viewBox="0 0 512 512" style="enable-background:new 0 0 512 512;" xml:space="preserve">
<style type="text/css">
	.st0{fill:#AEACAE;}
</style>
<g transform="translate(0.000000,512.000000) scale(0.100000,-0.100000)">
	<path class="st0" d="M165,5098c-34-12-92-53-117-83c-48-56-48-61-48-839v-731l24-50c27-58,78-107,133-126c60-22,295-19,355,4
		c58,23,119,88,143,153c42,116,107,261,155,348c226,407,573,626,1038,653l112,6l-2-1779c-3-1965,2-1802-65-1866
		c-63-60-134-78-442-108c-220-21-262-36-318-108c-42-56-56-129-51-267c7-155,37-217,133-268l40-22h1305h1305l41,22
		c51,27,98,80,115,130c9,25,14,86,14,178c0,126-2,145-23,187c-26,53-69,94-121,115c-19,8-122,23-230,34c-236,23-301,34-363,61
		c-58,25-113,83-127,135c-8,26-11,588-11,1797v1759l113-6c464-27,811-246,1038-654c48-87,112-231,154-347c24-65,85-130,143-153
		c60-23,295-26,355-4c55,19,106,68,133,126l24,50v731c0,812,2,789-67,857c-19,20-51,44-72,54c-34,17-138,18-2411,20
		C930,5108,186,5105,165,5098z"/>
</g>
</svg>
