<?xml version="1.0" encoding="utf-8"?>
<!-- Generator: Adobe Illustrator 25.2.1, SVG Export Plug-In . SVG Version: 6.00 Build 0)  -->
<svg version="1.1" id="Capa_1" xmlns="http://www.w3.org/2000/svg" xmlns:xlink="http://www.w3.org/1999/xlink" x="0px" y="0px"
	 viewBox="0 0 512 512" style="enable-background:new 0 0 512 512;" xml:space="preserve">
<style type="text/css">
	.st0{fill:#FAA930;}
</style>
<g transform="translate(0.000000,512.000000) scale(0.100000,-0.100000)">
	<path class="st0" d="M216,4321c59-55,2330-2004,2339-2007c7-3,534,443,1171,992c638,548,1166,1003,1174,1010c12,12-345,14-2340,14
		C1193,4330,210,4326,216,4321z"/>
	<path class="st0" d="M0,2594V1076l28,26c15,14,400,346,857,738s840,723,853,734l23,22l-848,730c-466,401-862,742-880,758l-33,28
		V2594z"/>
	<path class="st0" d="M4240,3354c-481-415-874-757-872-761c1-5,395-346,875-759l872-751l3,759c1,418,1,1098,0,1512l-3,753L4240,3354
		z"/>
	<path class="st0" d="M1056,1593L130,795l1215-3c668-1,1762-1,2430,0l1216,3l-917,790c-505,435-925,794-934,799c-14,6-71-38-276-215
		c-143-122-269-231-281-242l-22-20l-280,242c-154,132-284,241-289,241S1566,2031,1056,1593z"/>
</g>
</svg>
