<?xml version="1.0" encoding="utf-8"?>
<!-- Generator: Adobe Illustrator 25.2.1, SVG Export Plug-In . SVG Version: 6.00 Build 0)  -->
<svg version="1.1" id="Capa_1" xmlns="http://www.w3.org/2000/svg" xmlns:xlink="http://www.w3.org/1999/xlink" x="0px" y="0px"
	 viewBox="0 0 512 512" style="enable-background:new 0 0 512 512;" xml:space="preserve">
<style type="text/css">
	.st0{fill:#FFFFFF;}
</style>
<g transform="translate(0.000000,512.000000) scale(0.100000,-0.100000)">
	<path class="st0" d="M1220,5105C592,5018,99,4521,14,3890c-20-155-20-2505,0-2660c42-312,180-592,402-814C637,195,918,56,1230,14
		c155-20,2505-20,2660,0c636,86,1130,580,1216,1216c20,155,20,2505,0,2660c-86,636-580,1130-1216,1216
		C3742,5125,1364,5125,1220,5105z M3782,4660c244-23,445-118,609-287c160-165,246-354,269-591c13-144,13-2300,0-2444
		c-23-237-109-426-269-591c-164-169-365-264-609-287c-144-13-2300-13-2444,0c-244,23-445,118-609,287c-160,165-246,354-269,591
		c-13,144-13,2300,0,2444c23,244,118,445,287,609c159,155,356,247,573,268C1447,4671,3653,4672,3782,4660z"/>
	<path class="st0" d="M3813,4239c-75-29-144-95-178-171c-97-212,50-453,284-466c113-6,228,51,290,145c41,61,55,113,54,196
		C4261,4165,4025,4321,3813,4239z"/>
	<path class="st0" d="M2380,3865c-290-41-542-167-750-375c-224-223-348-488-381-813c-33-311,66-658,260-912c58-77,179-198,256-256
		c254-194,601-293,913-260c324,33,589,157,812,381c224,223,348,488,381,812c27,257-35,543-168,773C3435,3681,2910,3939,2380,3865z
		 M2760,3400c311-75,565-329,640-640c27-116,27-284,0-400c-59-248-233-463-463-575c-126-61-233-85-377-85s-251,24-377,85
		c-230,112-404,327-463,575c-27,116-27,284,0,400c74,308,327,564,635,639C2467,3427,2646,3427,2760,3400z"/>
</g>
</svg>
