<?xml version="1.0" encoding="utf-8"?>
<!-- Generator: Adobe Illustrator 25.2.1, SVG Export Plug-In . SVG Version: 6.00 Build 0)  -->
<svg version="1.1" id="Capa_1" xmlns="http://www.w3.org/2000/svg" xmlns:xlink="http://www.w3.org/1999/xlink" x="0px" y="0px"
	 viewBox="0 0 512 512" style="enable-background:new 0 0 512 512;" xml:space="preserve">
<style type="text/css">
	.st0{fill:#FFFFFF;}
</style>
<g transform="translate(0.000000,512.000000) scale(0.100000,-0.100000)">
	<path class="st0" d="M2980,5106c-288-45-490-143-656-318c-140-148-227-321-276-548c-19-86-21-138-25-542l-4-448h-395h-394v-455
		v-455l393-2l392-3l3-1167l2-1168h470h470v1170v1170h390c215,0,390,1,390,3c27,182,116,894,113,900c-2,4-204,7-449,7h-445l3,373
		c3,364,4,373,27,431c47,117,145,187,293,206c40,5,193,10,341,10h267l-2,408l-3,407l-130,12C3542,5116,3080,5122,2980,5106z"/>
</g>
</svg>
