<?xml version="1.0" encoding="utf-8"?>
<!-- Generator: Adobe Illustrator 25.2.1, SVG Export Plug-In . SVG Version: 6.00 Build 0)  -->
<svg version="1.1" id="Capa_1" xmlns="http://www.w3.org/2000/svg" xmlns:xlink="http://www.w3.org/1999/xlink" x="0px" y="0px"
	 viewBox="0 0 512 512" style="enable-background:new 0 0 512 512;" xml:space="preserve">
<style type="text/css">
	.st0{fill:#FFFFFF;}
</style>
<g transform="translate(0.000000,512.000000) scale(0.100000,-0.100000)">
	<path class="st0" d="M1131,4678c81-244,164-507,184-584l35-142v-391v-391h145h145v395v394l170,563c94,310,173,571,176,581
		c5,16-6,17-143,17h-148l-84-328c-47-180-92-351-101-381l-16-54l-82,304c-45,167-91,339-103,382l-21,77h-153H982L1131,4678z"/>
	<path class="st0" d="M2297,4630c-62-11-122-42-171-88c-82-79-111-153-127-327c-13-140-5-683,11-760c25-122,103-225,208-276
		c55-27,211-38,277-20c109,29,205,121,247,236c21,57,22,78,26,454c4,422-1,486-43,578c-33,73-104,145-173,176
		C2487,4632,2375,4644,2297,4630z M2460,4375c42-38,45-70,45-490c0-362-2-403-17-432c-25-44-55-63-104-63c-57,0-98,34-113,94
		s-15,766,0,820c6,22,24,53,40,69c27,27,35,29,80,25C2418,4395,2449,4385,2460,4375z"/>
	<path class="st0" d="M2990,4022c0-360,4-631,11-682c17-140,55-182,170-188c62-4,77-1,132,26c35,17,91,56,125,87l62,57v-76v-76h130
		h130v725v725h-130h-130v-554v-553l-41-47c-61-69-125-94-168-67c-25,16-30,126-30,684l-1,537h-130h-130V4022z"/>
	<path class="st0" d="M1700,3003c-30-1-152-7-270-13c-293-15-502-36-580-60c-122-37-221-109-289-210c-73-111-106-235-138-526
		c-22-206-26-1108-5-1329c16-166,46-350,69-420c52-161,169-289,321-350c105-42,390-68,952-86c413-13,1594-7,1910,11
		c218,12,482,35,557,49c178,34,339,180,402,364c24,70,56,259,73,432c18,182,18,1101,0,1290c-35,369-84,518-209,642
		c-89,89-181,134-307,152c-313,45-768,61-1661,59C2102,3007,1730,3005,1700,3003z M1630,2410v-140h-155h-155v-830V610h-145h-145v830
		v830H875H720v140v140h455h455V2410z M2910,2234v-317l53,50c93,88,187,119,282,93c61-17,118-80,142-157c16-53,18-105,18-573
		c0-590,0-594-78-674c-92-96-231-82-365,39l-52,47v-66v-66h-130h-130v970v970h130h130V2234z M4174,2037c66-30,127-84,160-142
		c48-81,58-143,63-382l5-223h-261h-261v-172c0-148,3-179,19-215c21-46,62-73,110-73c84,0,121,60,121,193v87h137h136l-6-113
		c-4-78-13-131-27-168c-57-153-177-233-351-232c-104,0-179,22-245,72c-63,47-99,100-126,186c-22,68-23,82-23,485c0,382,2,419,19,470
		c47,135,142,223,268,250C3985,2076,4114,2064,4174,2037z M1930,1470c0-421,3-586,12-605c25-56,102-40,172,35l46,49v551v550h130h130
		v-720V610h-130h-130v77v77l-37-35c-119-112-209-150-307-129c-63,13-106,53-127,117c-10,29-14,200-16,686l-4,647h131h130V1470z"/>
	<path class="st0" d="M3000,1828c-19-5-47-19-62-30l-28-19v-444V891l34-26c66-51,145-43,182,18c18,30,19,54,19,447
		c0,382-1,418-18,448c-11,19-33,40-52,48s-36,14-37,13C3036,1839,3019,1834,3000,1828z"/>
	<path class="st0" d="M3980,1833c-35-6-78-50-90-92c-5-20-10-82-10-138v-103h131h132l-6,113c-3,66-11,128-20,149
		C4095,1815,4041,1843,3980,1833z"/>
</g>
</svg>
