<?xml version="1.0" encoding="utf-8"?>
<!-- Generator: Adobe Illustrator 25.2.1, SVG Export Plug-In . SVG Version: 6.00 Build 0)  -->
<svg version="1.1" id="Capa_1" xmlns="http://www.w3.org/2000/svg" xmlns:xlink="http://www.w3.org/1999/xlink" x="0px" y="0px"
	 viewBox="0 0 702 455" style="enable-background:new 0 0 702 455;" xml:space="preserve">
<style type="text/css">
	.st0{fill:#FFFFFF;}
</style>
<g>
	<path class="st0" d="M316.4,350.8c0.3-0.2,0.8-0.3,1.4-0.4s1.3-0.2,2-0.2s1.5,0,2.2,0.1s1.4,0.2,2,0.4c1.6,0.5,3,1.2,4.2,2.1
		s2.1,1.9,2.8,3c0.7,1.1,1.1,2.4,1.2,3.7c0.1,1.3,0,2.7-0.4,4.1c-0.6,1.8-1.3,3.4-2.3,4.6s-2.1,2.1-3.3,2.7c-1.2,0.6-2.5,1-3.9,1
		s-2.8-0.1-4.1-0.5c-1.3-0.4-2.4-0.9-3.4-1.5s-1.8-1.2-2.4-1.9l2.4-3.3c0.3,0.3,0.7,0.6,1.1,0.9s1,0.7,1.5,1s1,0.5,1.5,0.6
		c1.1,0.3,2.1,0.5,3,0.5s1.8-0.2,2.5-0.6s1.4-0.9,1.9-1.6s1-1.6,1.3-2.7c0.3-0.9,0.4-1.9,0.3-2.7c-0.1-0.9-0.4-1.6-0.8-2.3
		c-0.4-0.7-1-1.3-1.7-1.8s-1.6-0.9-2.6-1.2c-0.6-0.2-1.1-0.3-1.6-0.3s-0.9,0-1.3,0l-0.7,2.4l3.5,1l-1.2,3.8l-7.5-2.3L316.4,350.8z"
		/>
	<path class="st0" d="M304.5,365.9l-3.8-1.8l8.9-19.1l3.8,1.8L304.5,365.9z"/>
	<path class="st0" d="M305.2,343.4l-12.5,18l0,0l-0.2-20.3l1.2,1.3l-18.8,6.7l0,0l12.5-18l3.4,2.4l-7.1,10.3l1-1.9l11.6-4.3l0,0
		l0.2,12.5l-1.7,1.2l7-10.2L305.2,343.4z"/>
	<path class="st0" d="M283,331.2c-0.6,0-1.1-0.2-1.4-0.5s-0.5-0.8-0.6-1.4c0-0.6,0.1-1.1,0.6-1.5c0.4-0.5,0.9-0.7,1.5-0.7
		s1,0.2,1.4,0.5c0.4,0.4,0.6,0.8,0.6,1.4c0.1,0.6-0.1,1.1-0.6,1.5C284.1,331,283.6,331.2,283,331.2z"/>
	<path class="st0" d="M274.9,318.2l-18.3,12l0,0l7.4-18.9l0.6,1.7l-19.9-0.9l0,0l18.3-12l2.3,3.5l-10.5,6.9l1.6-1.4l12.4,0.4l0,0
		l-4.4,11.7l-2,0.5l10.3-6.8L274.9,318.2z"/>
	<path class="st0" d="M251.7,301c-1.4,0.5-2.7,0.7-4.2,0.6s-2.7-0.4-4-1s-2.4-1.4-3.4-2.4s-1.7-2.2-2.2-3.6s-0.7-2.8-0.6-4.2
		c0.1-1.4,0.4-2.8,1-4c0.6-1.3,1.4-2.4,2.4-3.4s2.2-1.7,3.6-2.2c1.4-0.5,2.8-0.7,4.2-0.6s2.7,0.4,4,1s2.4,1.4,3.3,2.5
		c1,1,1.7,2.2,2.2,3.6s0.7,2.8,0.6,4.2c-0.1,1.4-0.4,2.7-1,4s-1.4,2.4-2.4,3.3C254.3,299.7,253.1,300.5,251.7,301z M250.3,296.9
		c0.9-0.3,1.6-0.8,2.3-1.4s1.2-1.3,1.5-2c0.4-0.8,0.6-1.6,0.6-2.5c0.1-0.9-0.1-1.7-0.4-2.6c-0.3-0.8-0.7-1.6-1.3-2.2s-1.3-1.1-2-1.4
		c-0.8-0.3-1.6-0.5-2.5-0.5s-1.7,0.1-2.6,0.4c-0.9,0.3-1.7,0.8-2.3,1.4c-0.7,0.6-1.2,1.3-1.6,2c-0.4,0.8-0.6,1.6-0.7,2.4
		c-0.1,0.9,0.1,1.7,0.4,2.6c0.3,0.9,0.8,1.6,1.3,2.2c0.6,0.6,1.3,1.1,2.1,1.4s1.6,0.5,2.5,0.6S249.4,297.3,250.3,296.9z"/>
	<path class="st0" d="M253.8,274l-20.8,2.8l-0.8-6.2c-0.3-2.1-0.2-3.9,0.2-5.5s1.1-2.8,2-3.9c0.9-1,2-1.8,3.2-2.4s2.5-1,3.8-1.1
		c1.5-0.2,3-0.1,4.3,0.3s2.5,1,3.5,1.9s1.8,1.9,2.5,3.1c0.6,1.2,1,2.5,1.2,3.9L253.8,274z M249.3,270.4L249,268
		c-0.1-1-0.4-2-0.8-2.8c-0.4-0.8-0.9-1.5-1.5-2s-1.3-0.9-2.2-1.2c-0.8-0.2-1.8-0.3-2.8-0.1c-1.4,0.2-2.4,0.5-3.2,1.1
		s-1.4,1.2-1.8,1.9c-0.4,0.7-0.6,1.4-0.7,2.1c-0.1,0.7-0.1,1.3,0,1.8l0.4,3.3L249.3,270.4z"/>
	<path class="st0" d="M230.6,251.8l0.8-14.3l4,0.2l-0.6,10.2l4.5,0.3l0.5-9l4,0.2l-0.5,9l4.5,0.3l0.6-10.6l4,0.2l-0.8,14.7
		L230.6,251.8z"/>
	<path class="st0" d="M234,223.8c0.3-1.3,0.7-2.4,1.3-3.3c0.6-0.9,1.2-1.6,2-2.2c0.8-0.5,1.6-0.9,2.5-1s1.9-0.1,3,0.2
		c0.8,0.2,1.6,0.5,2.4,1c0.8,0.5,1.4,1,2,1.8s0.9,1.6,1.1,2.6c0.2,1,0.1,2.2-0.2,3.6l-0.7,2.9l6.5,1.6l-1,4l-20.4-4.9L234,223.8z
		 M244.3,225.5c0.1-0.6,0.2-1.1,0.1-1.6c-0.1-0.5-0.3-0.8-0.5-1.1c-0.3-0.3-0.5-0.6-0.9-0.7c-0.3-0.2-0.6-0.3-0.9-0.4
		c-0.2-0.1-0.5-0.1-0.9-0.1s-0.7,0-1.1,0.2c-0.4,0.1-0.8,0.4-1.1,0.7c-0.3,0.4-0.6,0.9-0.8,1.6l-0.7,2.9l6.2,1.5L244.3,225.5z
		 M247.7,222.3l9.1-3.2l-1.1,4.7l-9,3.3L247.7,222.3z"/>
	<path class="st0" d="M266.3,200.1l-19.8,8.3l1.1-0.8l11.7,5.4l-1.8,3.8l-19.8-9.3l0.1-0.2l19.6-8.1l-0.8,0.7l-11.9-5.5l1.8-3.8
		l19.8,9.3L266.3,200.1z"/>
	<path class="st0" d="M258.8,190.4c-1.1-0.9-2.1-2-2.7-3.2c-0.7-1.2-1.1-2.5-1.3-3.9s-0.1-2.8,0.2-4.1c0.3-1.4,1-2.6,1.9-3.8
		s2-2.1,3.2-2.7c1.2-0.7,2.6-1.1,4-1.3s2.8-0.1,4.2,0.3c1.4,0.4,2.6,1,3.8,1.9c1.2,0.9,2.1,2,2.8,3.2c0.7,1.2,1.1,2.6,1.2,3.9
		c0.2,1.4,0.1,2.8-0.3,4.1c-0.4,1.4-1,2.6-1.9,3.8s-2,2.1-3.2,2.8s-2.5,1.1-3.9,1.3s-2.7,0.1-4.1-0.3S260,191.3,258.8,190.4z
		 M261.5,187c0.7,0.6,1.5,1,2.4,1.2c0.8,0.2,1.7,0.3,2.5,0.2c0.9-0.1,1.7-0.3,2.4-0.8c0.8-0.4,1.4-1,2-1.7s0.9-1.5,1.1-2.3
		s0.2-1.6,0.1-2.5c-0.1-0.8-0.4-1.6-0.9-2.4c-0.4-0.8-1-1.4-1.8-2s-1.6-1-2.4-1.2c-0.9-0.2-1.7-0.3-2.5-0.2s-1.6,0.3-2.4,0.7
		s-1.4,1-2,1.7s-1,1.5-1.2,2.3s-0.3,1.7-0.1,2.5c0.1,0.8,0.4,1.6,0.9,2.4C260.1,185.8,260.7,186.4,261.5,187z"/>
	<path class="st0" d="M302.1,160.4c0,0.4-0.2,0.8-0.5,1.3s-0.6,1.1-1.1,1.7c-0.4,0.6-0.9,1.1-1.4,1.7c-0.5,0.5-1,1-1.6,1.4
		c-1.4,1-2.8,1.7-4.2,2c-1.4,0.4-2.8,0.5-4.1,0.3c-1.3-0.2-2.5-0.6-3.7-1.3s-2.1-1.7-3-2.9c-1.1-1.6-1.8-3.1-2.2-4.6
		c-0.3-1.5-0.4-2.9-0.1-4.3c0.3-1.3,0.8-2.6,1.6-3.7c0.8-1.1,1.8-2.1,3-2.9c1.1-0.8,2.2-1.4,3.3-1.8c1.1-0.4,2.1-0.7,3-0.7l1.1,3.9
		c-0.4,0-0.9,0.1-1.5,0.3s-1.1,0.4-1.7,0.6c-0.6,0.2-1,0.5-1.4,0.8c-0.9,0.7-1.7,1.4-2.2,2.1c-0.6,0.7-0.9,1.5-1.1,2.3
		s-0.1,1.7,0.1,2.5c0.2,0.9,0.7,1.8,1.3,2.7c0.6,0.8,1.2,1.4,2,1.9c0.7,0.4,1.5,0.7,2.3,0.8s1.7,0,2.5-0.2c0.9-0.3,1.7-0.7,2.5-1.3
		c0.5-0.3,0.9-0.7,1.3-1c0.4-0.4,0.6-0.7,0.8-1.1l-1.5-2.1l-3,2.1l-2.3-3.3l6.4-4.5L302.1,160.4z"/>
	<path class="st0" d="M298.2,141.2l13.1-5.9l1.6,3.6l-9.3,4.2l1.8,4.1l8.2-3.7l1.6,3.6l-8.2,3.7l1.9,4.1l9.7-4.3l1.6,3.6l-13.4,6
		L298.2,141.2z"/>
	<path class="st0" d="M342,149.9l-18.7-10.6l1.3,0.4l2.9,12.5l-4.1,0.9l-4.8-21.3h0.2l18.4,10.6l-1-0.2l-3-12.8l4.1-0.9L342,149.9
		L342,149.9z"/>
	<path class="st0" d="M346,127.7l14.3-0.3l0.1,4l-10.2,0.2l0.1,4.5l9-0.2l0.1,4l-9,0.2l0.1,4.5l10.6-0.2l0.1,4l-14.7,0.3L346,127.7z
		"/>
	<path class="st0" d="M374.2,129c1.3,0.2,2.4,0.6,3.4,1c1,0.5,1.7,1.1,2.3,1.8c0.6,0.7,1,1.5,1.2,2.4s0.2,1.9,0.1,3
		c-0.1,0.8-0.4,1.7-0.8,2.5s-0.9,1.5-1.6,2.1s-1.5,1-2.5,1.3s-2.2,0.3-3.6,0.1l-2.9-0.5l-1,6.6l-4.1-0.7l3.3-20.8L374.2,129z
		 M373.3,139.3c0.6,0.1,1.2,0.1,1.6-0.1c0.4-0.1,0.8-0.4,1.1-0.6c0.3-0.3,0.5-0.6,0.7-0.9c0.2-0.3,0.3-0.6,0.3-0.9
		c0-0.2,0-0.5,0-0.9s-0.1-0.7-0.2-1.1s-0.4-0.7-0.8-1.1c-0.4-0.3-0.9-0.5-1.6-0.6l-2.9-0.5l-1,6.3L373.3,139.3z M376.7,142.5
		l3.9,8.8l-4.8-0.8l-4-8.7L376.7,142.5z"/>
	<path class="st0" d="M380.8,151.3l16.2-17.5l0.2,0.1l1.7,23.8l-4.5-1.6l-0.6-16.5l3.5-0.9l-12.6,14L380.8,151.3z M389.4,146.3
		l6,2.1l0.2,3.8l-8.5-3L389.4,146.3z"/>
	<path class="st0" d="M414.9,164.8c-0.3,0.1-0.8,0.1-1.5,0c-0.7,0-1.5-0.1-2.4-0.4c-0.9-0.2-1.8-0.6-2.8-1.2c-1.4-0.9-2.6-1.8-3.4-3
		s-1.4-2.3-1.7-3.6c-0.3-1.3-0.4-2.6-0.1-3.9c0.2-1.3,0.7-2.6,1.4-3.9c0.8-1.4,1.7-2.5,2.8-3.5s2.3-1.6,3.5-2
		c1.3-0.4,2.6-0.5,3.9-0.4c1.4,0.2,2.7,0.6,4,1.4c1.2,0.7,2.2,1.5,3,2.3c0.8,0.9,1.3,1.7,1.7,2.4l-3.3,2.6c-0.2-0.5-0.6-1.2-1.1-1.9
		s-1.2-1.3-2.1-1.9c-0.7-0.4-1.4-0.6-2.2-0.7c-0.8-0.1-1.6,0-2.4,0.3s-1.5,0.6-2.2,1.2c-0.7,0.5-1.3,1.2-1.7,2.1
		c-0.5,0.9-0.8,1.8-1,2.6c-0.2,0.9-0.1,1.7,0,2.5c0.2,0.8,0.5,1.5,1,2.2s1.2,1.2,2,1.7c1,0.6,1.9,0.9,2.8,1s1.6,0.1,2.2-0.1
		L414.9,164.8z"/>
	<path class="st0" d="M429.5,151.9l3.3,2.5L420,171.2l-3.3-2.5L429.5,151.9z"/>
	<path class="st0" d="M430.6,165.7c1-1,2.2-1.7,3.6-2.2c1.3-0.5,2.7-0.7,4.1-0.7s2.8,0.3,4.1,0.9c1.3,0.5,2.5,1.4,3.5,2.4
		c1,1.1,1.8,2.3,2.2,3.6c0.5,1.3,0.7,2.7,0.7,4.1c0,1.4-0.3,2.8-0.9,4.1s-1.4,2.4-2.4,3.4c-1.1,1-2.3,1.8-3.6,2.3
		c-1.3,0.5-2.7,0.7-4.1,0.7s-2.7-0.4-4-0.9c-1.3-0.6-2.4-1.4-3.5-2.4c-1-1.1-1.8-2.3-2.3-3.6s-0.7-2.7-0.7-4.1c0-1.4,0.3-2.7,0.9-4
		C428.7,167.9,429.5,166.7,430.6,165.7z M433.5,168.8c-0.7,0.6-1.2,1.4-1.6,2.2s-0.6,1.6-0.6,2.5s0.1,1.7,0.4,2.5s0.8,1.6,1.4,2.2
		c0.6,0.6,1.3,1.1,2.1,1.5c0.8,0.3,1.6,0.5,2.4,0.5s1.7-0.2,2.5-0.5s1.6-0.8,2.2-1.4c0.7-0.7,1.2-1.4,1.6-2.2s0.6-1.6,0.6-2.5
		c0-0.8-0.1-1.7-0.4-2.5s-0.7-1.5-1.4-2.2c-0.6-0.7-1.3-1.2-2.1-1.5c-0.8-0.3-1.6-0.5-2.5-0.5s-1.7,0.2-2.5,0.5
		C435,167.7,434.2,168.2,433.5,168.8z M452.9,166.7l-5.7-0.4l-1.7-1.8l4.3-1L452.9,166.7z"/>
	<path class="st0" d="M448.5,207.7l4.2-21.1v1.4l-11,6.7l-2.1-3.6l18.8-11.2l0.1,0.1l-4.3,20.7l-0.1-1l11.2-6.8l2.1,3.6L448.5,207.7
		L448.5,207.7z"/>
	<path class="st0" d="M454.1,219.8l20.4-4.9l1.5,6.1c0.5,2.1,0.6,3.9,0.3,5.5c-0.3,1.6-0.8,3-1.6,4.1c-0.8,1.1-1.8,2-3,2.8
		c-1.2,0.7-2.4,1.2-3.7,1.5c-1.5,0.4-3,0.4-4.3,0.2c-1.3-0.3-2.6-0.8-3.6-1.5c-1.1-0.7-2-1.7-2.8-2.8s-1.3-2.4-1.6-3.8L454.1,219.8z
		 M459,222.9l0.6,2.4c0.2,1,0.6,1.9,1.1,2.7s1,1.4,1.7,1.9s1.4,0.8,2.3,0.9c0.9,0.1,1.8,0.1,2.8-0.2c1.3-0.3,2.4-0.8,3.1-1.4
		c0.7-0.6,1.3-1.3,1.6-2.1c0.3-0.8,0.5-1.5,0.5-2.2s0-1.3-0.1-1.8l-0.8-3.3L459,222.9z"/>
	<path class="st0" d="M479.5,239.5l0.7,14.3l-4,0.2l-0.5-10.2l-4.5,0.2l0.4,9l-4,0.2l-0.4-9l-4.5,0.2l0.5,10.6l-4,0.2l-0.7-14.7
		L479.5,239.5z"/>
	<path class="st0" d="M479.8,261.3l-0.5,4.1l-16.9-2.1l-1.2,9.8l-4-0.5l1.8-13.9L479.8,261.3z"/>
	<path class="st0" d="M473.5,292.3l-4.8,12.2L465,303l3.3-8.4l-4.4-1.7l-2.8,7.3l-3.7-1.5l2.8-7.3l-7.7-3l1.5-3.9L473.5,292.3z"/>
	<path class="st0" d="M452.4,306.9c-0.6-0.3-1.2-0.5-1.9-0.5c-0.7,0-1.4,0.2-2.1,0.6s-1.2,0.9-1.6,1.5c-0.5,0.7-0.7,1.5-0.7,2.2
		c0,0.8,0.1,1.5,0.4,2.1c0.3,0.7,0.8,1.2,1.3,1.5l11.3,7l-2.1,3.5l-11.4-7c-1.3-0.8-2.3-1.9-2.9-3.1c-0.6-1.3-0.9-2.6-0.8-4.1
		s0.6-2.9,1.4-4.2c0.8-1.3,1.9-2.4,3.1-3.1c1.3-0.7,2.6-1.1,4-1.1s2.8,0.4,4.1,1.2l11.4,7l-2.2,3.5L452.4,306.9z"/>
	<path class="st0" d="M453,330l-9.5,10.6l-3-2.7l3.4-3.8l-12.7-11.4l2.8-3.1l12.7,11.4l3.3-3.7L453,330z"/>
	<path class="st0" d="M427.4,337.2c-0.4-0.5-1-0.9-1.7-1.1s-1.4-0.3-2.2-0.2c-0.8,0.1-1.4,0.4-2.1,0.9s-1.2,1.1-1.4,1.9
		c-0.3,0.7-0.4,1.4-0.3,2.1s0.3,1.3,0.7,1.9l8.2,10.4l-3.2,2.5l-8.2-10.5c-0.9-1.2-1.5-2.5-1.6-3.9s0.1-2.8,0.7-4.1
		c0.6-1.3,1.5-2.5,2.8-3.5c1.2-1,2.6-1.6,4-1.8c1.4-0.3,2.8-0.2,4.1,0.3c1.3,0.5,2.5,1.3,3.4,2.5l8.2,10.5l-3.3,2.5L427.4,337.2z"/>
	<path class="st0" d="M402.9,353.3l-8.3-4.8l4.3-2.2l8.4,4.7L402.9,353.3z M412.9,362.7c-1.2,0.6-2.3,1-3.4,1.2s-2.1,0.1-3-0.1
		s-1.7-0.7-2.4-1.3c-0.7-0.6-1.3-1.4-1.8-2.4c-0.4-0.8-0.7-1.6-0.8-2.5c-0.2-0.9-0.1-1.8,0-2.7c0.2-0.9,0.6-1.7,1.3-2.6
		c0.7-0.8,1.6-1.5,2.9-2.2l2.6-1.4l-3.1-5.9l3.7-1.9l9.6,18.7L412.9,362.7z M407.5,353.8c-0.6,0.3-1,0.6-1.3,1s-0.4,0.8-0.5,1.2
		c-0.1,0.4-0.1,0.8,0,1.1s0.2,0.7,0.3,0.9c0.1,0.2,0.3,0.4,0.5,0.7c0.2,0.3,0.5,0.5,0.9,0.8c0.4,0.2,0.8,0.4,1.3,0.4
		s1.1-0.1,1.7-0.5l2.6-1.4l-2.9-5.6L407.5,353.8z"/>
	<path class="st0" d="M397.4,358.7c0.4,1.4,0.5,2.8,0.3,4.2c-0.2,1.4-0.6,2.7-1.3,3.9s-1.5,2.3-2.6,3.2c-1.1,0.9-2.3,1.6-3.8,2
		c-1.4,0.4-2.8,0.5-4.2,0.3c-1.4-0.2-2.7-0.6-4-1.3c-1.2-0.7-2.3-1.6-3.2-2.7c-0.9-1.1-1.6-2.3-2-3.7c-0.4-1.4-0.5-2.8-0.4-4.2
		c0.2-1.4,0.6-2.7,1.3-3.9c0.7-1.2,1.6-2.3,2.7-3.2c1.1-0.9,2.3-1.5,3.7-1.9c1.4-0.4,2.8-0.5,4.2-0.4c1.4,0.2,2.7,0.6,3.9,1.3
		c1.2,0.7,2.3,1.5,3.2,2.6C396.4,356,397,357.3,397.4,358.7z M393.3,359.9c-0.3-0.9-0.7-1.7-1.2-2.4c-0.5-0.7-1.2-1.2-1.9-1.7
		c-0.7-0.4-1.6-0.7-2.4-0.8c-0.9-0.1-1.7,0-2.6,0.2s-1.6,0.6-2.3,1.2c-0.6,0.5-1.2,1.2-1.5,1.9c-0.4,0.8-0.6,1.6-0.7,2.4
		c-0.1,0.9,0,1.7,0.3,2.6s0.7,1.7,1.2,2.4c0.5,0.7,1.2,1.3,1.9,1.7s1.5,0.7,2.4,0.8s1.7,0,2.6-0.2s1.6-0.7,2.3-1.2
		c0.7-0.5,1.2-1.2,1.6-2s0.6-1.6,0.7-2.5C393.7,361.7,393.6,360.8,393.3,359.9z"/>
</g>
<g>
	<g>
		<path class="st0" d="M355,406.5c-41.7,0-80.9-16.2-110.3-45.7c-29.5-29.5-45.7-68.6-45.7-110.3s16.2-80.9,45.7-110.3
			c29.5-29.5,68.6-45.7,110.3-45.7s80.9,16.2,110.3,45.7c29.5,29.5,45.7,68.6,45.7,110.3s-16.2,80.9-45.7,110.3
			C435.8,390.3,396.7,406.5,355,406.5z M355,106.1c-38.6,0-74.8,15-102.1,42.3s-42.3,63.5-42.3,102.1s15,74.8,42.3,102.1
			c27.3,27.3,63.5,42.3,102.1,42.3s74.8-15,102.1-42.3c27.3-27.3,42.3-63.5,42.3-102.1s-15-74.8-42.3-102.1
			C429.8,121.1,393.6,106.1,355,106.1z"/>
	</g>
</g>
<g>
	<g>
		<path class="st0" d="M355,386.9c-36.4,0-70.7-14.2-96.5-40s-40-60-40-96.5s14.2-70.7,40-96.5s60-40,96.5-40s70.7,14.2,96.5,40
			s40,60,40,96.5s-14.2,70.7-40,96.5S391.4,386.9,355,386.9z M355,117c-35.7,0-69.2,13.9-94.4,39.1s-39.1,58.7-39.1,94.4
			s13.9,69.2,39.1,94.4c25.2,25.2,58.7,39.1,94.4,39.1s69.2-13.9,94.4-39.1c25.2-25.2,39.1-58.7,39.1-94.4s-13.9-69.2-39.1-94.4
			C424.2,130.9,390.7,117,355,117z"/>
	</g>
</g>
<path class="st0" d="M100.8,402.2l1.4,1.9l0.1-2.4c0.2-8.2-3.3-9.2-7.4-10.4c-0.4-0.1-0.9-0.2-1.3-0.4c-4.3-1.3-9.5,0.4-11,1
	c-2.3-2-4.7-8.8-5.7-12.1c3.5-1.8,21-10.7,28.3-17.2c7.1-6.4,6-18.5,5.5-22.1c1.2,0.1,3.6,0.4,6.5,1.7c3.8,1.6,8.5,0.6,10.4,0.1
	c0.9,4,0.5,6.4,0,9.3c-0.4,2.1-0.8,4.6-0.8,8c0,9.1,13.7,10.6,21.8,11.5c3,0.3,5.6,1.1,7.9,1.8c4.1,1.2,7.6,2.2,11.5,0.5
	c5.4-2.4,7-7,6.7-10.2c0-0.1,0-0.2,0.1-0.2c0.5-0.5,2.4-0.4,3.5-0.2l1,0.2v-1c-0.1-1.9-1.6-2.8-3-3.1c0.9-0.4,2.6-0.5,3.6-0.5h0.9
	l-0.1-0.9c-0.2-2.3-2.4-3.2-4.1-3.5c0.9-1.3,3.7-1.5,3.7-1.5l2.5-0.2l-2.2-1.3c-0.3-0.2-6.3-3.8-11.4-1.8c-4.4,1.7-7.6,8.5-8.5,10.3
	h-0.1c-4.4,0-12.9-3.2-15.5-4.3c1.1-2.4,4.4-10.1,7-19.6c3.4-12.1,0.1-22.8-8.1-26.8c-6.9-3.3-19.9-1.2-23.7-0.5
	c0.3-2.4,1.8-8.2,8.2-11.2c8-3.7,18.7-16.4,20.7-18.9c1.5,0.4,5.9,1.2,13.8,0.7c5.3-0.4,9.2-3.1,12.9-5.7c3.2-2.2,6.2-4.4,9.7-4.7
	c8.4-0.8,15.6-4.7,16.5-8.9c0.2-0.7,0.5-1.3,1.1-1.6c1.3-0.8,3.2-0.3,3.3-0.3l0.9,0.2l0.1-1c0.1-2.3-2.4-3.4-3.7-3.8
	c0.6-0.9,2.5-1.3,3.3-1.4l0.9-0.1l-0.2-0.9c-0.5-2.1-1.9-3.1-3-3.6c0.8-0.6,2.5-0.8,3.4-0.8h2l-1.4-1.4c-2.1-2.1-6.2-3.2-10-2.7
	c-2.8,0.4-5,1.6-6,3.5c-0.3,0.5-0.5,0.9-0.8,1.4c-2,3.8-3.5,6.5-8.9,5.6c-2.6-0.4-5.3-0.1-7.8,0.2c-4.4,0.6-7.3,0.8-8.8-1.7
	c-2.2-3.6-1.5-8.1-1.1-10c4,1.6,6.9,0.2,11.8-3.1c2.5-1.7,5-4.7,7.7-7.8c3.2-3.8,6.8-8,10.9-10.6c7.3-4.5,16.7-13.2,16.8-16.5
	c0.1-1.9,2.6-3.8,3.5-4.3l0.4-0.3l-0.1-0.5c-0.2-1.7-1.8-2.4-3-2.7c1-1.3,2.5-1.9,2.5-1.9l0.8-0.3l-0.3-0.8
	c-0.9-2.1-2.8-2.5-4.3-2.4c0.5-1.1,1.7-2.4,2.5-3.1l1-0.8l-1.2-0.5c-3.1-1.4-5.9-1.5-8.3-0.4c-4,1.9-5.8,6.9-6.9,11.1
	c-1.2,4.4-4.5,7.4-11.5,10.1c-1.8,0.7-3.9,1.8-6.1,3c-5.7,3-12.1,6.4-14.8,3.2c-3.4-4.3-8.5-8.6-10.2-10c1.7-1.5,5.6,0.1,5.6,0.2
	l1,0.4l0.1-1.1c0-0.3,0.8-7.8-10.1-11.3c-5.1-1.7-6.9-3.5-7.4-4.8c-0.3-0.6-0.3-1.1-0.2-1.5c10.4,0.1,16.5-1.2,19.1-4.2
	c2-2.2,1.6-4.9,1.3-7c-0.1-0.4-0.1-0.8-0.2-1.2c-0.1-0.9-0.5-1.7-1.3-2.2c-1.4-1.1-3.8-1.3-6.1-1.3c4.1-2.1,9-5.6,8-10.6
	c-1.2-6.5-6.6-8.4-12.8-10.6c-1.7-0.6-3.5-1.2-5.3-2c-3.7-1.6-6.1-1.6-8.7-1.6c-3.6,0-7.6-0.1-16.8-4.4c-21.3-9.9-37.8,7.8-38,8
	l-1.5,1.6l2.7,0c1.1-0.1,2.6-0.1,4.1,0c-13.9,4.5-22.1,22.3-22.5,23.1l-0.8,1.7l1.8-0.6c3.1-1.1,6.1-1.2,8-1.1
	c-3.2,2.8-10.4,10.4-13.1,22.2c-1.8,8,1.2,12.3,3.9,16.1c2.6,3.6,4.8,6.8,3.2,12.7c-3.4,13.1,3.3,25.1,3.6,25.6l0.6,1.1l0.7-1.1
	c2.8-4,5.7-6.3,8.8-6.7c2.3-0.3,4.1,0.6,4.9,1.1c-1.2,2.9-6.9,16.1-16.4,40.7c-12,30.9-23.4,44.1-39.6,45.7
	c-7.2,0.7-14.5-3.4-19.6-10.9c-5.9-8.7-9.3-23.5-1.3-39c3.7-7.2,8.9-11.8,15.3-13.8c11.9-3.6,24.3,3.1,24.4,3.2l3.1,1.7l-2.1-2.9
	c-9.9-13.9-25.7-10.8-37.1-3.3c-7.1,4.7-12.8,14.8-14.7,26c-1.6,9.2-1.3,23.1,9.2,36.9c4.4,5.8,10.2,9.2,17.1,10.1
	c1.3,0.2,2.7,0.3,4,0.3c14.8,0,29.9-10,34.2-13.1c0.3,4.1,1.3,16.1,4.1,27.5c1.7,7-0.7,8.1-4.1,9.8c-2.9,1.4-6.5,3.1-7.2,9.2
	c-1.5,12.4,10.7,26.3,11.4,27.1c1.1,1.5,1.9,2.7,2.6,3.9c1.5,2.4,2.6,4.1,5.5,4.9c4.1,1.1,8.5-0.5,11.5-1.7c0.7-0.3,1.3-0.3,1.7-0.1
	c0.6,0.3,0.8,0.9,0.8,0.9l0.8,2.5l0.8-2.5c0.5-1.6,0.4-2.9,0.3-3.7c1.6,0.3,2.6,2.2,2.6,2.2l0.8,1.5l0.7-1.6c0.7-1.7,0.6-3,0.3-3.9
	C99.8,400.9,100.8,402.2,100.8,402.2z"/>
<g>
	<path class="st0" d="M615.7,408.6c-2.8,0-5.7,0-8.5,0c-0.4-1.5-1.5-3.6-0.9-4.4c1.7-2.5,4-4.5,6.1-6.7c0.9-0.9,2.3-1.9,2.4-3
		c0.3-4.5,3.3-6.5,6.3-8.6c7.7-5.2,14.7-11,12.9-22.6c-0.1-0.4,0.1-0.9,0.2-1.4c1-3.9-0.3-7.1-2.1-10.4c-5-9.2-12.3-15.8-20.5-21.6
		c-5.4,3.8-9.1,16.3-6.8,23.4c1.7,5.3,0.6,7.1-4,9.7c-5.2,3-10.1,6.6-15.1,10.1c-0.9,0.6-1.7,1.8-2,2.9c-1.2,5.4-5.1,7.1-9.3,8.8
		c0-1.8,0-3.1,0-4.3c-0.4-0.2-0.8-0.4-1.2-0.6c-1.1,2.2-2.1,4.5-3.2,6.7c-0.8,1.6-1.7,4.1-2.8,4.3c-5.3,1.2-10.7,1.7-16.1,2.4
		c-0.2-0.5-0.4-1.1-0.6-1.6c3-4.6,6.1-9.2,11.1-11.9c1.3-0.7,3.5-2.5,3.3-2.9c-2-4.9,2.2-5.5,4.1-5.8c6.9-1.2,11.8-5.9,16.6-10.6
		c6.8-6.7,7.5-13,4.2-22.2c-3.5-10-7.4-20.3,0.9-30.2c2.2-2.7,1.7-5.1-2.1-6.8c-17.6-7.6-31.3-19.8-38.1-39.7
		c-1.5-4.4-2.9-8.7-8.5-8.2c-0.8,0.1-1.7-0.9-2.5-1.5c-4.3-3.4-7.3-2.9-10.3,1.8c-2.6,4-5,8.2-7.4,12.4c-1.9,3.3-1.2,5,2.4,5.9
		c1.7,0.4,3.4,0.6,5.2,1c-2.1,6.2-1.5,7,3.8,7c1.1,0,2.9,0.5,3.2,1.2c2.8,6.9,3.4,13.9,1.2,21.6c-4.8-3-9.1-5.5-11.2-10.9
		c-1.2-3-6.2-4-7.9-2.1c-1.8-3-4.1-5.9-5.4-9.2c-2.4-6.1-5.5-12.1-4-19.2c0.6-2.9-1.5-4.7-3.8-4c-0.8-3.4-1.7-6.7-2.5-10
		c0-2.5,0-4.9,0-7.4c3-4,6-8,9.1-11.9c3-3.7,6.2-7.1,9.3-10.7c2.6-3,4.8-6.5,7.8-8.8c6.6-5.2,10.4-3.6,13.9,4.4
		c1.1,2.4,3,4.4,4.3,6.2c4.4-4.1,8.7-7,11.4-11c4.3-6.2,9.7-9.6,16.4-11.4c4.4-1.2,8.7-2.8,12.8-4.8c3-1.4,4.8-4.1,4.8-7.8
		c-4.4-2.3-12.4-0.4-15.6,3.7c-4.7,5.9-8.6,6.9-15.3,4.1c-4-1.7-5.5-9.1-2.7-12.5c4.2-4.9,8.5-9.8,12.5-15c2.8-3.7,5-7.8,7.6-12
		c-0.4-0.1-1.9-1.1-3.2-0.9c-1.2,0.2-2.3,1.7-3.7,3c-0.3-5.6,3.6-5.3,6.6-6.1c-1.3-3.9-2.6-7.4-3.8-11c0.3-0.2,0.6-0.3,0.9-0.5
		c1,1,2,1.9,2.8,2.6c1.8-2.6,3.5-5.1,5.2-7.5c0.6,0,1.1,0,1.7,0c-1.2,2-2.4,4.1-3.6,6.1c0.3,0.3,0.6,0.6,0.9,0.8
		c2.7-3.7,5.7-6.3,9-5.6c0.1,2.7,0.2,4.7,0.3,6.6c3.4-2.4,6.2-4.4,9-6.4c0.1,0.3,0.3,0.5,0.4,0.8c-0.9,1.2-1.8,2.3-2.6,3.5
		c6.3-2.3,11.9-3.4,17.3,1.4c0.5,0.4,1.4,0.5,2,0.4c4.3-0.9,7.8,0.6,9.6,2.8c4.6,0,8.6-1.3,11.1,0.3c4.3,2.7,7.6,2.6,11.1-1
		c0.1,0.6,0.3,1,0.2,1.2c-1.9,5.4-5.2,6.7-11.5,4.5c-3.1-1.1-5.8-1.6-7.1,3.5c5-2.2,8.9-1.5,12.1,2.9c1,1.4,2.7,2.2,4.1,3.3
		c0.5-1.5,1.1-3,2-5.8c0.7,3,2,6.1,1.4,6.7c-2,1.9-4.7,2.9-7.1,4.3c6.3,2.4,10.3,6.9,9,15.4c-0.2,1.1,1.8,3,3.1,4s3.5,1,4.5,2.2
		c1.1,1.3,1.9,3.5,1.8,5.2c-0.1,1.1-1.9,2.1-3,3.2c0.5-4.4-2.3-6.2-7.8-5.2c-0.4,4.2-0.2,8.8,3.5,10.9c2.1,1.2,5.5-0.3,9.2-0.6
		c-2.6,2.7-5.1,5.4-7.8,8.3c3.4,3.9,2,8.2-1.3,12.2c3.8,3.2,4.9,2.2,7.1-5.8c0.5,2,1,4.3,0.3,6c-0.8,2.2-2.3,4.8-4.1,5.8
		c-1.1,0.6-3.5-1.6-5.2-2.6s-3.3-2.2-5-3.4c1.2,3.3,2.1,5.8,3.2,8.3c0.8,2,1.9,4,2.8,6c0.9,2,2.4,4.2,2.2,6.2
		c-0.1,1.4-2.8,2.4-5,4.1c1.1-2.8,1.6-4.4,2.2-5.9c-1.8-0.5-3.6-1.1-5.5-1.5c-0.2-0.1-0.5,0.1-0.8,0.2c-2.6,1-4,0.5-4.2-2.9
		c-0.2-2.9-1.9-4.1-4.7-3.8c-2.3,0.3-4.6,0.1-7,0.1c-0.3,2.5-0.8,5.6-0.9,8.8c-0.1,3.8,1.8,5.7,5.9,5.3c-0.2,0.5-0.3,1-0.5,1.4
		c-1.9,0.1-3.9,0.3-5.8,0.4c0.7,8.8,0.1,9.9-5.3,9.2c3-2.7,3.9-5.8,2.1-9.4c-1.8-3.6-4.8-3-7.8-3c-2.5,0-5-1-7.9-1.7
		c2.7,5.5,5,11.5,8.3,16.7c2.5,3.9,5.9,7.8,9.8,9.9c10.8,5.8,20,13,23.7,26.3c1.2-0.5,2.1-0.9,3-1.3c13.3-6.1,26.7-0.5,32.7,13.7
		c3.7,8.8,3.4,17.8,1.4,27c-0.8,3.7-1.1,7.5-1.7,11.4c-0.6-1.6-1.2-3.3-2-5.3c-3.5,4.8-6.2,10-3.7,15.4c4.5,9.4,3.8,16.8-3.7,24.1
		c-3.6,3.4-2,9.7,2.1,12.8c4,3,8.4,1.8,11.2-3.1c0.5-0.9,0.9-1.8,1.4-2.6c0.3,3.2,0.3,6.5-1.1,8.8c-1.4,2.2-4.3,3.3-6.4,4.8
		c5.4,4.2,8.5,2.9,15.9-6.9c-2,10.4-7,14.4-16.5,13.3c-1.4-0.2-2.8,0.1-4.2-0.1c-2.4-0.4-4.8-0.9-7.1-1.6c-1.2-0.4-2.2-1.4-3.4-1.8
		c-10.6-3.4-12.3-6.7-9.7-18.1c0-0.2-0.2-0.5,0-0.2c-2.1,0.4-4,0.9-5.9,1.3c-0.2-0.4-0.3-0.7-0.5-1.1c3.9-0.9,3.4-3.4,1.9-5.8
		c-4.5-7.4-4.3-15-1.2-22.8c0.4-0.9,0.8-2.4,0.4-3c-3.3-5.2-2.3-10.4,0-15.7c-0.5-0.2-1-0.4-1.4-0.6c-1.2,2.4-2.4,4.8-3.5,7.1
		c-3-5.3-2.3-10.5,1.7-15.7c-1.1,0.1-1.7,0.1-3.6,0.2c3.2-3.8,5.8-6.7,8.2-9.5c-0.5-2.6-1-5.3-1.7-8.9c1.2,0.8,1.5,1,1.8,1.2
		c1.4,0.5,2.8,0.9,4.2,1.4c-0.5-2-0.4-4.7-1.6-5.8c-1.5-1.4-4.1-1.5-5.1-1.9c-4,7.4-7.6,13.9-11.2,20.4c-4.2,7.4-2.2,20.2,4.4,24.7
		c3.7,2.6,3.8,5.4,2,8.9c-2.4,4.7-5.3,9.1-7.6,13.9c-2.2,4.6-4.7,9.4-5.3,14.4c-0.6,5.2-2.1,8.7-6.6,10.6c-2.5-2.6-4.2-2.2-5.1,2.1
		c-1,5.1-3.9,7.5-8.1,8.9C617.2,407.7,616.5,408.2,615.7,408.6z M543.8,237.4c0.2-0.4,0.5-0.8,0.7-1.3c-1.2-0.7-2.5-1.3-3.6-2.2
		c-1.2-1-2.4-2.2-3.2-3.5c-3-4.9-5.6-5.6-10.2-2.3c-3.8,2.7-7.4,5.7-11.1,8.5c-2.5,2-3,3.9-0.2,6.1c2.5,2,4.2,4.2,1.2,7.4
		c-0.7,0.7-0.6,2.2-0.9,3.4c0.4,0.1,0.8,0.2,1.2,0.4c0.8-2.7,1.5-5.4,2.4-8.1c1.3-3.7,2.2-7.6,4.1-10.8c4.7-7.7,8.7-7.8,14.7-1.4
		C540.3,235.1,542.1,236.2,543.8,237.4z"/>
</g>
<g>
	<path class="st0" d="M353.9,275.8c0-1.3,0-2,0-2.8c0-11-0.4-22.1,0.2-33.1c0.3-5.9-2-9.4-6.5-12.6c-10.3-7.2-22-9.4-34.2-9.6
		c-1.8,0-2.7,0.5-3.3,2.2c-3.9,10.6-8,21.1-12,31.6c-1.4,3.6-2.8,7.1-4.3,11.1C316.2,256.4,335.8,261.7,353.9,275.8z M357.7,275.9
		c18.1-14.2,37.7-19.5,60.2-13.2c-2.6-6.8-5.1-13.2-7.5-19.6c-3-7.8-5.9-15.5-8.8-23.3c-0.5-1.4-1.1-2.2-2.7-2
		c-4.2,0.4-8.5,0.5-12.7,1.1c-10.1,1.4-19.2,5.4-26.7,12.5c-1.2,1.1-1.8,2.3-1.7,4c0.1,4.2,0,8.4,0,12.6
		C357.7,257,357.7,266.2,357.7,275.9z M363.4,276.5c0.3,0.1,0.4,0.2,0.4,0.1c0.6-0.3,1.3-0.6,1.9-0.8c10.4-4.4,21.1-6.4,32.4-4.9
		c5.4,0.7,10.7,1.8,16,2.5c5.6,0.7,11.3,1.2,17.3,1.9c-0.4-1.3-0.7-2.2-1-3c-5.1-14.5-10.3-29-15.4-43.5c-1.5-4.3-4.3-6.8-9-8
		c6.1,16.1,12.2,32.2,18.5,48.6C402.6,260.2,382.5,262.9,363.4,276.5z M305.7,220.2c-2,1.1-3.3,2-4.7,2.7c-2.3,1-3.4,2.7-4.2,5
		c-4,11.6-8.2,23.2-12.3,34.9c-1.4,4.1-2.8,8.1-4.3,12.3c1.1,0,1.8,0.1,2.6,0c8.1-1,16.3-1.6,24.3-3c10.8-2,21.4-2,31.9,1.4
		c3,1,6,2.2,9,3.3c-18.8-13.7-39-16.3-60.9-7.1C293.3,252.9,299.4,236.9,305.7,220.2z M437.1,279.2c-1.5,0-2.5,0.1-3.4,0
		c-9.3-1-18.7-1.6-27.9-3.2c-10.1-1.7-20.1-2.6-30.1,0.4c-4.3,1.3-8.5,3.1-12.7,4.6c0.1,0.2,0.2,0.4,0.2,0.7c26.2,0,52.4,0,78.7,0
		c-0.2-0.8-0.4-1.5-0.6-2.1c-5.2-15.1-10.6-30.2-15.6-45.4c-1.2-3.5-3.5-5-6.7-6.4C425,245.1,431,262,437.1,279.2z M269.6,281.7
		c26.5,0,52.6,0,78.8,0c-11-5.9-22.5-8.5-34.9-6.8c-9,1.2-18,2.5-27,3.7c-3.9,0.5-7.8,0.6-12.2,0.9c6.2-17.4,12.2-34.4,18.3-51.5
		c-3.9,1.2-5.8,3.5-7,7.1c-3,9.5-6.5,18.9-9.7,28.3C273.9,269.5,271.8,275.5,269.6,281.7z"/>
	<path class="st0" d="M353.9,275.8c-18.1-14.2-37.6-19.4-60.2-13.1c1.6-4,3-7.6,4.3-11.1c4-10.5,8.1-21,12-31.6
		c0.6-1.7,1.5-2.2,3.3-2.2c12.3,0.2,23.9,2.4,34.2,9.6c4.5,3.2,6.8,6.6,6.5,12.6c-0.6,11-0.2,22.1-0.2,33.1
		C353.9,273.8,353.9,274.6,353.9,275.8z"/>
	<path class="st0" d="M357.7,275.9c0-9.7,0-18.8,0-27.9c0-4.2,0.1-8.4,0-12.6c0-1.7,0.5-2.8,1.7-4c7.5-7.2,16.5-11.1,26.7-12.5
		c4.2-0.6,8.5-0.6,12.7-1.1c1.7-0.2,2.2,0.6,2.7,2c2.9,7.8,5.9,15.5,8.8,23.3c2.4,6.4,4.9,12.7,7.5,19.6
		C395.5,256.4,375.9,261.6,357.7,275.9z"/>
	<path class="st0" d="M363.4,276.5c19-13.6,39.2-16.3,61.2-7.1c-6.3-16.5-12.3-32.5-18.5-48.6c4.7,1.2,7.5,3.7,9,8
		c5.1,14.5,10.3,29,15.4,43.5c0.3,0.8,0.6,1.7,1,3c-6-0.6-11.7-1.1-17.3-1.9c-5.4-0.7-10.7-1.7-16-2.5c-11.3-1.5-22,0.5-32.4,4.9
		c-0.6,0.3-1.3,0.6-1.9,0.8C363.8,276.7,363.8,276.6,363.4,276.5z"/>
	<path class="st0" d="M305.7,220.2c-6.3,16.7-12.4,32.7-18.7,49.2c21.9-9.2,42.1-6.6,60.9,7.1c-3-1.1-6-2.3-9-3.3
		c-10.5-3.3-21.1-3.4-31.9-1.4c-8,1.5-16.2,2.1-24.3,3c-0.7,0.1-1.5,0-2.6,0c1.5-4.2,2.9-8.2,4.3-12.3c4.1-11.6,8.3-23.2,12.3-34.9
		c0.8-2.3,1.9-4,4.2-5C302.5,222.2,303.8,221.3,305.7,220.2z"/>
	<path class="st0" d="M437.1,279.2c-6.1-17.2-12.1-34.1-18.2-51.4c3.3,1.4,5.6,2.9,6.7,6.4c5,15.2,10.4,30.3,15.6,45.4
		c0.2,0.6,0.4,1.3,0.6,2.1c-26.3,0-52.5,0-78.7,0c-0.1-0.2-0.2-0.4-0.2-0.7c4.2-1.6,8.4-3.3,12.7-4.6c10-3.1,20-2.2,30.1-0.4
		c9.2,1.6,18.6,2.2,27.9,3.2C434.7,279.3,435.7,279.2,437.1,279.2z"/>
	<path class="st0" d="M269.6,281.7c2.1-6.2,4.2-12.3,6.3-18.3c3.3-9.4,6.7-18.8,9.7-28.3c1.2-3.6,3.1-5.9,7-7.1
		c-6.1,17.1-12.1,34-18.3,51.5c4.4-0.3,8.3-0.4,12.2-0.9c9-1.1,18-2.4,27-3.7c12.4-1.7,23.9,0.9,34.9,6.8
		C322.3,281.7,296.1,281.7,269.6,281.7z"/>
</g>
<g>
	<g>
		<path class="st0" d="M363.2,24.3c-6.3-2.4-13.9-2.3-19.9,0c-2.8-6.4,12-9,18.1-4.8C363.2,20.7,364,22.4,363.2,24.3z"/>
	</g>
</g>
<g>
	<g>
		<path class="st0" d="M375.2,56.9L375.2,56.9c-2,9.5-5.9,20.2-9.9,28.8c-3.3,0.1-6.9,0.2-10.9,0.2c9.3-13.4,18.4-43.7-1.2-43.7
			c-19.5,0-10.4,30.3-1.2,43.7c-4,0-7.6-0.1-10.9-0.2c-4-8.6-7.9-19.3-9.9-28.8l0,0c-0.9-4.2-1.3-7.5-1.1-11l0,0
			c0.6-12.9,9.7-21.8,23.1-21.8c13.5,0,22.5,9,23.1,21.8l0,0C376.5,49.5,376,53,375.2,56.9z"/>
	</g>
</g>
<g>
	<g>
		<path class="st0" d="M331.6,85.1c-3.4-0.3-6.1-0.7-8-1.2l-2.7-0.6c-6.1-5.3-15.3-14.7-17-24.7c-2.5-15.1,7.1-18.2,13.6-18.2
			c5,0,8.7,2,11.2,4.1c-0.4,4.1,0.1,7.6,0.9,11.6c-6.1-2-12.9,1.6-11.5,10.7C319.2,74,327,81.3,331.6,85.1z"/>
	</g>
</g>
<g>
	<g>
		<path class="st0" d="M402.6,58.6c-1.7,10-10.9,19.4-17,24.7c0,0-4.9,1.2-10.7,1.8c4.6-3.7,12.5-11,13.6-18.2
			c1.3-8.1-3.9-11.3-8.1-11.3c-1.2,0-2.4,0.2-3.4,0.5c0.2-1.1,0.4-2.1,0.6-3.2c0.5-2.9,0.6-5.8,0.3-8.4c2.5-2.1,6.2-4.1,11.2-4.1
			C395.4,40.3,405.1,43.4,402.6,58.6z"/>
	</g>
</g>
<g>
	<g>
		<path class="st0" d="M361.6,13.5c0,1.4-0.3,2.7-0.8,3.8c-2-0.9-4.6-1.5-7.5-1.5s-5.5,0.5-7.5,1.5c-0.5-1.2-0.8-2.5-0.8-3.8
			c0-3.5,4.2-8,7.3-10.8c0.6-0.5,1.4-0.5,2,0C357.4,5.5,361.6,9.9,361.6,13.5z"/>
	</g>
</g>
<path class="st0" d="M406.6,98.3c-0.6,0-1.3-0.1-1.9-0.4c-50.1-21.7-98.2-0.3-98.6,0c-2.4,1.1-5.3,0-6.4-2.4s-0.1-5.3,2.4-6.4
	c2.1-1,52.3-23.6,106.6,0c2.5,1.1,3.6,3.9,2.5,6.4C410.3,97.3,408.5,98.3,406.6,98.3z"/>
<g>
	<path class="st0" d="M355.1,446.5c14-7.5,2.7-16.2,0.1-35.8C352.4,430,339.1,439.6,355.1,446.5z"/>
	<path class="st0" d="M335.8,437.5c15.9,1.1,9.1-9.3,17.3-27.3C340.4,425,325.9,423.1,335.8,437.5z"/>
	<path class="st0" d="M374.4,437.5c-15.9,1.1-9.1-9.3-17.3-27.3C369.8,425,384.2,423.1,374.4,437.5z"/>
	<path class="st0" d="M449.8,370.3c1.9,2.9,3.4,5.9,4.6,8.8c-0.7-3.7-1.8-7.1-3-10.1C450.9,369.4,450.3,369.9,449.8,370.3z"/>
	<path class="st0" d="M513.5,375.2c-2,4.5-6,6-10.6,4.3c-3.2-1.2-8.9-8.8-19.1-4.2c4.1-5.4,9.1-6.7,11.1-6.5c2.5,0.2,4.4,1.7,6.4,3
		c3.4,2.3,7.4,3.8,11.5,2.6C513.3,374.3,513.7,374.7,513.5,375.2z"/>
	<g>
		<path class="st0" d="M561.6,377.1c-6.7-2.7-16,0-16.8,7.5c0,0.1,0,0.2,0,0.2c-0.1,0.8,0,1.6,0.1,2.5c0.5,3.8,4.9,7.1,8.7,5.1
			c2.9-1.5,3.6-7.7-1.1-6.8c-1.2,0.6-1.3,4.1,2.2,3.6c-0.2,1.2-1.1,2.2-2.2,2.5c-3.8,1-6.8-2.3-6.7-5.9c0.5-2.4,2.3-3.1,4.5-2.7
			c1.2,0.2,2.3,0.2,3.5-0.2c2.6-0.7,3.3-3.6,6.1-2.9c-1.6,3.3,3.1,4.8,5.4,6.7c-2.9,0.6-3.3,4.3-1.8,6.9c0.3,0.5,0.9,0.3,1.1-0.3
			c1-3.9,5.4-1.7,4.8,3.8c0.6,0,1,0.1,1.8,0.2C572.7,387.2,569.2,380.2,561.6,377.1z"/>
		<path class="st0" d="M520.3,423.1C520.2,423.9,520.3,423.1,520.3,423.1L520.3,423.1z"/>
	</g>
	<path class="st0" d="M487.7,386.2c8.4-0.5,16.8,8,22.7,12.9c6.9,5.7,14.4,13.6,23.5,15.3c-8.7,0.4-16.9-6.9-23.2-12
		c-3.8-3.1-7.5-6.4-11.3-9.5C495.9,390.1,492.1,387,487.7,386.2C490,386.1,489.9,386.6,487.7,386.2z"/>
	<path class="st0" d="M641.5,422.5c0.9,0.9,2.8,1.6,4.1,1.2c2.3-0.7,2-3.8,1.3-5.6c-1.2-3.3-26.1-23.2-47.3-1.2
		C609,409.8,624.6,406.3,641.5,422.5z"/>
	<path class="st0" d="M429.2,379c-0.7,0.5-1.4,1-2.1,1.4c-0.6,0.3-1.2,0.6-1.8,1c0.1,0.5,0.2,1,0.5,1.5c1.4,2,3.3,2.4,5.6,2.8
		c0.6,0.1,0.9-0.5,0.6-1c-1.3-2-1-4.4,0.4-6.2C431.3,378.7,430.2,378.9,429.2,379z"/>
	<path class="st0" d="M449.2,379.3c-1.9-2.2-3.7-3.8-5.4-5c-1.3,0.7-2.6,1.3-4,1.9c4.2,1,9.3,5.2,13.8,15.4c0.6,1.4,0.5-2.1,0.2-3.3
		C452.7,385,451.3,381.8,449.2,379.3z"/>
	<path class="st0" d="M454.1,396.6c-0.1-0.1-0.1-0.3-0.1-0.5l0,0C454,396.2,454.1,396.4,454.1,396.6z"/>
	<path class="st0" d="M471.1,375.3c-4-1.2-6.9-0.8-9.7,2.9c-0.1,0,4-6.8,0.6-5.5c1.4-3.3-0.5-7.2-1.9-4.2c0.5-3.3-1.7-3.9-4.4-4.9
		c-0.6,0.9-1.2,1.8-1.9,2.6c3.1,5.3,6.4,13,1.6,23c-0.2,0.5,0.8,0.7,1.1,0.2c4.3-8,10.6-11.2,15.1-13.5
		C472.1,375.9,471.5,375.4,471.1,375.3z"/>
	<path class="st0" d="M557.6,418.9c-23.9-4.9-22.2,34.5-50.8,28.3c3,3.2,20.1,12.6,18.4,3.7c7,5.6,7.9-3.2,14.8,0.9
		c1.8-3.8,0.6-5.7-3-6.8c6,0.3,9.2-3.6,9.6-8.8c-3.6,2-4.2,0.2-7,1.6c8-6.4,6.4-11.7,13.5-16.4c-3.3,0.8-3-0.8-5.9,0.1
		c5.1-3.3,10.7-2.2,14,0.1c3.7,2.6,4.4,7.3,2.3,11.1c-1.1,2.1-3.3,3.5-5.6,2.7c-1.2-0.4-1.9-1.4-2.3-2.5c-0.3-0.9-0.3-1.9,0.1-2.8
		c1.6-2.6,4.2-1,2.9,0.2c-0.7,0.4,0,1.3,0.7,1c1.7-1,1.8-2.9-0.3-3.4c-2.3-0.6-4.6,0.8-4.7,3.3c-0.1,2.9,1.6,5.2,4.5,5.7
		c2.5,0.5,4.6-1.7,5.8-3.6C568.3,427.4,563.7,420.2,557.6,418.9z"/>
	<path class="st0" d="M681.9,427.6c-2.6-2.9-8.7-4.6-12-1.7c-2.8,2.4-3.1,6-1.6,7.8s4.7,1.3,4.3-1.1c-0.4-2.8,0.1-5.7,2.8-5.7
		c2.4,0,4.4,0.7,6.1,1.9c1,1.2,3.8,5.1,1.1,10.1c-15.7,22.2-39.9-16.4-60-22.5c-10.4-3.2-20.2,0.4-26.3,11.4
		c0.4-2.7,0.3-5.5-0.1-8.1c-0.9-5.3-4.1-10.1-8.5-13.8c2.7,1.3,5.3,2.9,8.1,4c3.6,1.4,8,1.2,9.8-2.6c0.2-0.3,0-0.7-0.4-0.9
		c-5.1-1.5-8.5-5.9-14-6.6c-2.9-0.3-5.9-0.2-8.8,0c-2.8,0.2-5.5-0.4-8.3-0.6c-4.1-0.9-8.3-1-12.4-0.1c-7.4,1.7-14.5,4.7-20.1,9.7
		c1.3,0.5,2.1,1.1,3.2,1.5l0,0c2.9-1.9,6.2-3.2,9.4-4.6c7.5-3.3,14.3-2.9,19.9-0.8c1.8,1.3,3.4,2.7,4.6,4.7c1.4,2.3,2,7.8-1.9,7.9
		c-0.5,0-0.8,0.6-0.4,1c2.2,2.1,5,4.3,7.6,2.6c0.2,3.2,1.2,6.1,0.5,9.4c-0.7,3.7-2.8,6.4-5.9,8.1c-1.7,0.2-3.5,0-5.2-0.8
		c-4.3-1.9-6-11,0.3-11c2.2,0,2.9,1.3,2.9,3.3c-0.6,1.3-2.1,0.5-2.2,2.1c2.7,1.2,4.4-1.7,4-4c-0.6-3.5-4.8-4.5-7.7-3.3
		c-6.6,2.6-5.4,12-0.9,15.9c5.8,5,15.1,3.6,20.5-1.2c2.4-2.2,4.6-6.2,5.6-8c24.9-41.8,56.1,24.6,77.7,16.5
		c5.1-1.9,9.6-5.2,10.7-10.3C686,431.2,681.9,427.7,681.9,427.6z"/>
	<path class="st0" d="M568.2,404c-4.3,5.4-10.9,9-16.4,8.8c-6.3-0.2-11.6-3.3-21.5-11.4c-6.6-5.4-12.9-11-20-15.6
		c-9.1-5.8-19.7-9.8-29.9-8.9c0.2-0.4,0.4-0.9,0.6-1.3c1.1-1.6,3.3-2.5,4.2-4.3c1.4-2.8-1.7-6.2,1.7-8.3c0.4-0.2,0.4-0.8,0-1
		c-3.5-1.8-5.8,1.1-7,4.2c-1.3-2-3.4-3.4-6.1-4c-5.9-1.1-11.1,5.5-6.4,9.7c4.2,3.8,8.3-3.3,4.1-4.3c-0.9,1.6,1.9,1.7,0.5,3.6
		c-1.2,1.7-3.7,0.8-4.6-0.7c-2.6-4.2,3.3-7.6,6.8-5.9c3.8,1.8,5.2,5.7,4.2,9.7c-0.4,1.5-1.1,2.4-2.1,3.2c-3.9,0.9-17.1,6.2-21,15.7
		c-0.1-2-0.4-4-0.8-6c-0.8-4.1-2.1-8-3.9-11.7c-0.7-1.4-1.5-2.7-2.3-4c-1.2,0.8-2.4,1.6-3.6,2.3c5,6.2,8.1,13.9,9.3,22.3
		c0,0.2,0,0.3,0.1,0.5c0.3,0.3,0.9,0.3,1-0.2c0.3-1,0.8-1.5,1.4-1.8c1.4-0.6,3.3,0,4.8-0.7c0.5-0.2,1-0.5,1.4-0.8s0.8-0.7,1.1-1
		c0.8-1.3,2-1.2,3.6,0.4c-0.6-0.1-0.8,0.8-0.3,1.1c3.4,1.9,5-5.4,1-6.8c1.9-0.9,4,0.6,6.1-0.3c2-0.9,2.6-3.7,5.6-2
		c2,1.1,3.4,3.4,3.6,5.7c1.6,9.3-8.3,7.5-8.8,5.6c-0.3-1.4,0.4-3.4,2.1-3.2c0.8,0.1,1.1,0.3,1.3-0.8c-3.4-1.4-5.1,2.9-3.7,5.5
		c0.8,1.5,2.4,2.4,4,2.7c7.6,1.2,10.2-8.4,7.3-12.8c-1.9-2.9-4.2-4.8-6.8-5.8c3.1,0,6.2,0.4,9.2,1.3c8.7,2.5,16.4,8.1,23.5,13.7
		c7.3,5.7,16.3,13.5,25.9,17.4l0,0c6.6,3,12.7,3,17.8,1.5c5.5-1.6,10.5-4.5,14.9-10.7C569.5,404.4,569.1,404.2,568.2,404z"/>
	<path class="st0" d="M397.3,394.5c-4-1.1-8.7,0.1-10.2,4.3c-1.2,3.3,0.7,7.8,4.8,7c0-0.1,0-0.2,0-0.3c-0.2-1.6-3-1-3.3-3.3
		c-0.2-1.7,0.5-3.4,1.8-4.4c3.2-2.5,8.2-0.2,9.9,2.9c4.2,7.4-3.1,15.7-10.2,16.6c-8.1,0.6-16-3.4-19.9-10.5c-0.3-3,0.5-6,1.8-9
		c0.2-0.5,0.5-1,0.8-1.4c-3.3,1.2-6.7,2.2-10.1,2.9c0,1.1,0.1,2.2,0.2,3.3c-0.3-1.1-0.5-2.1-0.7-3.2c-1,0.2-2.1,0.3-3.1,0.4
		c0.3,1.7,0.7,3.4,1.3,5.1c2.8,8.3,9.6,15,18,17.6c8.2,2.5,18,1.4,23.5-5.8C407,409.9,407,397.3,397.3,394.5z"/>
	<path class="st0" d="M642.9,440.7c-2.9-2.6-5.2-4.2-9.3-3.4c-2.2,0.4-4.6,1.2-6.8,0.8c-2.1-0.4-3.8-1.4-5-3.2c-2-3-4.6-6.5-8.6-5
		c3.4,3.8-1.3,12.9-8.5,7.3c-0.5-0.4,0.6-0.9,1-0.6c3.9,0.8,4.4-3.9,1.7-5.1c-4.7-3-12.6,12.2-21.1,12.7
		c6.3-3.1,10.3-10.7,14.7-17.5c7.3-11.1,26.4-9.9,42.9,13.4C644.2,440.6,643.3,441.1,642.9,440.7z"/>
	<path class="st0" d="M471.2,426.6c-7.8-7.6-17.4-19.8-29.1-21.4c-0.3-0.1-1-0.2-2.3-0.2c12.7,2.2,21.9,15.5,30.6,24
		s19.5,17.8,32.5,17.7C490,444.9,480,435.4,471.2,426.6z"/>
	<path class="st0" d="M536.7,414.5c-1.9,2.6-3.7,5.6-4.8,8.6c-1.9-5.2-7.4-9.5-13.1-8.1c-3.8,0.9-7.3,5.4-5.5,9.4
		c1.4,3.1,7.5,4.6,7.8,0c-1.7-0.8-1.8,2.5-4.3,1.6c-2.6-0.8-3.1-3.8-2-6c2.3-4.9,8.6-4.1,12.1-1c9.7,8.7,0.7,19.5-9.1,22
		c-0.8,0.2-15.1,1.7-14.9-7.6c0.1-3.3-1.1-5.8-4.8-7.2c4,0.9,8-3.7,8-7.9c0.1-6.8-8.1-7-8.1-2.9l0,0l-0.1,0.1
		c-0.3,0.6,0.6,0.9,1.1,0.4c1.4-1.3,2.8,0.6,2.8,0.8c-0.1,5-6.8,5-10.4,0.1c-1.9-2.7-4.3-1.1-6.7-0.5c3.9-3.5,7-10.1,1.9-13.8
		c-3.8-2.8-8.9-1.2-8.9,3.9c0,0.7,1,0.8,1.2,0.2c0.5-2.2,2.8-3.9,4.9-2.2c2.3,2,0.5,5.7-1.1,7.4c-1.9,2.2-7.2,4.4-13.3-3.2l0,0
		c-12.5-10.9-30.5-18.4-46.2-10.5c-8.4,1-12.2-9.4-7.3-9.3c2.3,0.6,4.2-2.2,3-4.5c-3.2,1.3-6.5,2.2-9.9,3c-1.6,8.7,4,12.8,10,13.3
		c-6.6,4.7-11.4,12.1-12,20.3c-0.7,8.9,3.6,18.3,12.7,20.8c8.2,2.2,19.1-3.2,16.2-13.1c-1.1-3.8-5.4-6.4-9.2-4.4
		c-3.4,1.7-2.8,8.8,1.6,7.1c-0.1-1.5-1-0.7-1.9-1.2c-1-0.6-1.2-2.1-0.8-3.1c1-2.9,5.1-2.8,7.1-1.2c4.8,3.7,1.9,11.6-2.9,13.7
		c-5.9,2.5-13,0.7-17-4.3c-3.7-4.7-4.4-11.7-2.8-17.4c1.2-4.2,3.6-8.1,6.8-11.1c-0.7,1.4-1.2,2.9-1.3,4.3c-0.2,1.7,0.1,3.4,0.1,5.1
		c0,2.5-1.3,4.7-2.7,6.6c-0.2,0.2-0.1,0.7,0.2,0.8c5.5,2.6,11-0.6,14-5.5c1.8-3,2.3-6.4,2.8-9.8c0.1-0.5,0.3-2.8,0.9-5.1
		c0,2.4,1.4,4.5,4.2,3.9c0.5-0.1,0.5-0.7,0.3-1c-1-1.2-1.2-5.4,0.2-6.6c7.1,0.5,13.9,4.1,19.5,8.2c13.2,9.7,22.7,24.1,37.2,32.3
		c7.7,4.4,17.6,7.3,26.3,4.4c7.8-2.5,14-9.4,14.3-18.1c2.2-5.2,4.2-8.3,6.4-10.8C538.2,415.2,536.8,414.5,536.7,414.5z"/>
	<path class="st0" d="M259.5,366.6c-1.7,3.7-3.1,7.8-4.1,12.4c1.5-3.6,3.5-7.3,6.1-10.8C260.8,367.7,260.1,367.2,259.5,366.6z"/>
	<path class="st0" d="M196.3,375.2c2,4.5,6,6,10.6,4.3c3.2-1.2,8.9-8.8,19.1-4.2c-4.1-5.4-9.1-6.7-11.1-6.5c-2.5,0.2-4.4,1.7-6.4,3
		c-3.4,2.3-7.4,3.8-11.5,2.6C196.6,374.3,196.1,374.7,196.3,375.2z"/>
	<g>
		<path class="st0" d="M148.2,377.1c6.7-2.7,16,0,16.8,7.5c0,0.1,0,0.2,0,0.2c0.1,0.8,0,1.6-0.1,2.5c-0.5,3.8-4.9,7.1-8.7,5.1
			c-2.9-1.5-3.6-7.7,1.1-6.8c1.2,0.6,1.3,4.1-2.2,3.6c0.2,1.2,1.1,2.2,2.2,2.5c3.8,1,6.8-2.3,6.7-5.9c-0.5-2.4-2.3-3.1-4.5-2.7
			c-1.2,0.2-2.3,0.2-3.5-0.2c-2.6-0.7-3.3-3.6-6.1-2.9c1.6,3.3-3.1,4.8-5.4,6.7c2.9,0.6,3.3,4.3,1.8,6.9c-0.3,0.5-0.9,0.3-1.1-0.3
			c-1-3.9-5.4-1.7-4.8,3.8c-0.6,0-1,0.1-1.8,0.2C137.1,387.2,140.7,380.2,148.2,377.1z"/>
		<path class="st0" d="M189.5,423.1C189.6,423.9,189.5,423.1,189.5,423.1L189.5,423.1z"/>
	</g>
	<path class="st0" d="M222.2,386.2c-8.4-0.5-16.8,8-22.7,12.9c-6.9,5.7-14.4,13.6-23.5,15.3c8.7,0.4,16.9-6.9,23.2-12
		c3.8-3.1,7.5-6.4,11.3-9.5C213.9,390.1,217.7,387,222.2,386.2C219.8,386.1,219.9,386.6,222.2,386.2z"/>
	<path class="st0" d="M68.3,422.5c-0.9,0.9-2.8,1.6-4.1,1.2c-2.3-0.7-2-3.8-1.3-5.6c1.2-3.3,26.1-23.2,47.3-1.2
		C100.8,409.8,85.2,406.3,68.3,422.5z"/>
	<path class="st0" d="M268.2,373c-2.4,1.2-4.9,3.2-7.6,6.3c-2.2,2.5-3.5,5.7-4.5,8.9c-0.4,1.3-0.4,4.7,0.2,3.3
		c5.6-12.8,12.3-16.2,16.9-15.5C271.5,375.1,269.9,374.1,268.2,373z"/>
	<path class="st0" d="M277.3,378.2c1.5,1.8,2,4.3,0.6,6.4c-0.3,0.5,0,1.1,0.6,1c2.3-0.3,4.2-0.8,5.6-2.8c0.3-0.4,0.4-0.8,0.5-1.3
		C282.1,380.5,279.7,379.4,277.3,378.2z"/>
	<path class="st0" d="M255.8,396.6c0.1-0.1,0.1-0.3,0.1-0.5l0,0C255.8,396.2,255.8,396.4,255.8,396.6z"/>
	<path class="st0" d="M257.1,364.6c-0.5-0.5-1.1-0.9-1.6-1.4c-3.3,1.5-6.4,1.6-5.9,5.5c-1.5-3-3.4,0.8-1.9,4.2
		c-3.4-1.4,0.7,5.5,0.6,5.5c-2.7-3.7-5.6-4.2-9.7-2.9c-0.4,0.1-1,0.6-0.6,0.8c4.5,2.3,10.8,5.5,15.1,13.5c0.3,0.5,1.4,0.3,1.1-0.2
		C249,378.2,253.7,369.9,257.1,364.6z"/>
	<path class="st0" d="M152.2,418.9c23.9-4.9,22.2,34.5,50.8,28.3c-3,3.2-20.1,12.6-18.4,3.7c-7,5.6-7.9-3.2-14.8,0.9
		c-1.8-3.8-0.6-5.7,3-6.8c-6,0.3-9.2-3.6-9.6-8.8c3.6,2,4.2,0.2,7,1.6c-8-6.4-6.4-11.7-13.5-16.4c3.3,0.8,3-0.8,5.9,0.1
		c-5.1-3.3-10.6-2.2-14,0.1c-3.7,2.6-4.4,7.3-2.3,11.1c1.1,2.1,3.2,3.5,5.6,2.7c1.2-0.4,1.9-1.4,2.3-2.5c0.3-0.9,0.3-1.9-0.1-2.8
		c-1.6-2.6-4.2-1-2.9,0.2c0.7,0.4,0,1.3-0.7,1c-1.7-1-1.8-2.9,0.3-3.4c2.3-0.6,4.6,0.8,4.7,3.3c0.1,2.9-1.6,5.2-4.5,5.7
		c-2.5,0.5-4.6-1.7-5.8-3.6C141.6,427.4,146.1,420.2,152.2,418.9z"/>
	<path class="st0" d="M28,427.6c2.6-2.9,8.7-4.6,12-1.7c2.8,2.4,3.1,6,1.6,7.8s-4.7,1.3-4.3-1.1c0.4-2.8-0.1-5.7-2.8-5.7
		c-2.4,0-4.4,0.7-6.1,1.9c-1,1.2-3.8,5.1-1.1,10.1c15.7,22.2,39.9-16.4,60-22.5c10.4-3.2,20.2,0.4,26.3,11.4
		c-0.4-2.7-0.3-5.5,0.1-8.1c0.9-5.3,4.1-10.1,8.5-13.8c-2.7,1.3-5.3,2.9-8.1,4c-3.6,1.4-8,1.2-9.8-2.6c-0.2-0.3,0-0.7,0.4-0.9
		c5.1-1.5,8.5-5.9,13.9-6.6c2.9-0.3,5.9-0.2,8.8,0c2.8,0.2,5.5-0.4,8.3-0.6c4.1-0.9,8.3-1,12.4-0.1c7.4,1.7,14.5,4.7,20.1,9.7
		c-1.3,0.5-2.1,1.1-3.2,1.5l0,0c-2.9-1.9-6.2-3.2-9.4-4.6c-7.5-3.3-14.3-2.9-19.9-0.8c-1.8,1.3-3.4,2.7-4.6,4.7
		c-1.4,2.3-2,7.8,1.9,7.9c0.5,0,0.8,0.6,0.4,1c-2.2,2.1-5,4.3-7.6,2.6c-0.2,3.2-1.2,6.1-0.5,9.4c0.7,3.7,2.8,6.4,5.9,8.1
		c1.7,0.2,3.5,0,5.2-0.8c4.3-1.9,6-11-0.3-11c-2.2,0-2.9,1.3-2.9,3.3c0.6,1.3,2.1,0.5,2.2,2.1c-2.7,1.2-4.4-1.7-4-4
		c0.6-3.5,4.8-4.5,7.7-3.3c6.6,2.6,5.4,12,0.9,15.9c-5.8,5-15.1,3.6-20.5-1.2c-2.4-2.2-4.6-6.2-5.6-8C89,390,57.8,456.4,36.2,448.3
		c-5.1-1.9-9.6-5.2-10.7-10.3C23.8,431.2,27.9,427.7,28,427.6z"/>
	<path class="st0" d="M262.9,369.3c-1.4,1.9-2.7,3.9-3.7,6.1c-1.8,3.7-3.1,7.7-3.9,11.7c-0.4,2-0.6,4-0.8,6
		c-4-9.5-17.2-14.8-21-15.7c-1-0.7-1.7-1.7-2.1-3.2c-0.9-3.9,0.4-7.9,4.2-9.7c3.5-1.7,9.5,1.7,6.8,5.9c-1,1.5-3.4,2.4-4.6,0.7
		c-1.4-1.9,1.4-2,0.5-3.6c-4.3,1-0.2,8.1,4.1,4.3c4.7-4.2-0.5-10.8-6.4-9.7c-2.8,0.5-4.8,2-6.1,4c-1.1-3.1-3.4-6-7-4.2
		c-0.4,0.2-0.4,0.8,0,1c3.4,2.1,0.3,5.4,1.7,8.3c0.9,1.8,3.2,2.7,4.2,4.3c0.2,0.5,0.3,0.9,0.6,1.3c-10.2-0.9-20.8,3.1-29.9,8.9
		c-7.1,4.6-13.4,10.2-20,15.6c-9.9,8.2-15.2,11.3-21.5,11.4c-5.6,0.2-12.2-3.4-16.4-8.8c-0.9,0.2-1.3,0.4-1.9,0.5
		c4.3,6.2,9.4,9.1,14.9,10.7c5.1,1.5,11.3,1.6,17.8-1.5l0,0c9.6-3.9,18.6-11.6,25.9-17.4c7.1-5.5,14.7-11.1,23.5-13.7
		c3-0.9,6.1-1.3,9.2-1.3c-2.6,1-5,2.9-6.8,5.8c-2.8,4.4-0.3,14,7.3,12.8c1.6-0.2,3.2-1.2,4-2.7c1.4-2.6-0.3-6.9-3.7-5.5
		c0.2,1.1,0.5,0.8,1.3,0.8c1.7-0.2,2.4,1.9,2.1,3.2c-0.5,2-10.3,3.8-8.8-5.6c0.2-2.3,1.6-4.5,3.6-5.7c3-1.7,3.7,1.1,5.6,2
		c2.1,0.9,4.2-0.6,6.1,0.3c-4,1.4-2.4,8.6,1,6.8c0.5-0.3,0.3-1.1-0.3-1.1c1.6-1.6,2.8-1.7,3.6-0.4c0.3,0.4,0.7,0.7,1.1,1
		c0.4,0.4,0.9,0.6,1.4,0.8c1.5,0.7,3.4,0.1,4.8,0.7c0.6,0.3,1.1,0.8,1.4,1.8c0.2,0.5,0.8,0.5,1,0.2c0-0.2,0-0.4,0.1-0.5
		c1.3-9.2,5-17.6,10.8-24.1C265.4,371.1,264.2,370.2,262.9,369.3z"/>
	<path class="st0" d="M350.1,400c-0.8-0.1-1.6-0.1-2.4-0.3c-0.2,0.9-0.4,1.9-0.7,2.8c0.1-1,0.1-1.9,0.1-2.9c-2.1-0.4-4-0.9-5.8-1.7
		c-1.2,0-2.4-0.1-3.6-0.2c0,0.1,0.1,0.1,0.1,0.2c1.4,2.9,2.1,6,1.8,9c-3.8,7.2-11.8,11.2-19.9,10.5c-7.1-1-14.4-9.3-10.2-16.6
		c1.8-3.1,6.7-5.5,9.9-2.9c1.3,1,2,2.7,1.8,4.4c-0.3,2.3-3,1.7-3.3,3.3c0,0.1,0,0.2,0,0.3c4.1,0.8,5.9-3.8,4.8-7
		c-1.5-4.2-6.2-5.4-10.2-4.3c-9.7,2.8-9.7,15.4-4.5,22.2c5.5,7.1,15.3,8.3,23.5,5.8c8.4-2.6,15.2-9.3,18-17.6
		c0.5-1.6,0.9-3.2,1.2-4.8C350.6,400.1,350.3,400.1,350.1,400z"/>
	<path class="st0" d="M66.9,440.7c2.9-2.6,5.2-4.2,9.3-3.4c2.2,0.4,4.6,1.2,6.8,0.8c2.1-0.4,3.8-1.4,5-3.2c2-3,4.6-6.5,8.6-5
		c-3.4,3.8,1.3,12.9,8.5,7.3c0.5-0.4-0.6-0.9-1-0.6c-3.9,0.8-4.4-3.9-1.7-5.1c4.7-3,12.6,12.2,21.1,12.7
		c-6.3-3.1-10.3-10.7-14.7-17.5c-7.3-11.1-26.4-9.9-42.9,13.4C65.6,440.6,66.5,441.1,66.9,440.7z"/>
	<path class="st0" d="M238.6,426.6c7.8-7.6,17.4-19.8,29.1-21.4c0.3-0.1,1-0.2,2.3-0.2c-12.7,2.2-21.9,15.5-30.6,24
		c-8.7,8.5-19.5,17.8-32.5,17.7C219.8,444.9,229.8,435.4,238.6,426.6z"/>
	<path class="st0" d="M290.8,400.6c6-0.6,11.7-4.7,10-13.5c-3.3-0.9-6.6-1.9-9.8-3c-1.4,2.3,0.6,5.4,2.9,4.7c5,0,1.1,10.4-7.3,9.3
		c-15.7-7.9-33.7-0.4-46.2,10.5l0,0c-6.1,7.5-11.4,5.4-13.3,3.2c-1.5-1.7-3.4-5.5-1.1-7.4c2.1-1.7,4.4,0,4.9,2.2
		c0.2,0.7,1.1,0.5,1.2-0.2c0.1-5.1-5.1-6.7-8.9-3.9c-5.1,3.7-2,10.3,1.9,13.8c-2.4-0.5-4.8-2.2-6.7,0.5c-3.6,5-10.3,5-10.4-0.1
		c0-0.2,1.4-2,2.8-0.8c0.5,0.4,1.3,0.2,1.1-0.4l-0.1-0.1l0,0c0-4.1-8.2-3.9-8.1,2.9c0.1,4.2,4,8.8,8,7.9c-3.7,1.3-4.9,3.9-4.8,7.2
		c0.3,9.3-14,7.8-14.9,7.6c-9.8-2.6-18.8-13.3-9.1-22c3.5-3.1,9.8-4,12.1,1c1,2.2,0.6,5.2-2,6c-2.5,0.8-2.5-2.4-4.3-1.6
		c0.4,4.6,6.5,3.2,7.8,0c1.8-4-1.7-8.5-5.5-9.4c-5.7-1.4-11.2,2.9-13.1,8.1c-1.1-3-3-6-4.8-8.6c-0.1,0.1-1.5,0.8-2.2,1.1
		c2.3,2.5,4.3,5.6,6.4,10.8c0.3,8.7,6.5,15.6,14.3,18.1c8.7,2.9,18.6,0,26.3-4.4c14.4-8.2,23.9-22.5,37.2-32.3
		c5.6-4.1,12.4-7.8,19.5-8.2c1.5,1.3,1.2,5.4,0.2,6.6c-0.3,0.3-0.2,0.9,0.3,1c2.8,0.6,4.2-1.5,4.2-3.9c0.5,2.2,0.8,4.5,0.9,5.1
		c0.4,3.4,0.9,6.8,2.8,9.8c3,4.9,8.5,8.1,14,5.5c0.3-0.1,0.4-0.6,0.2-0.8c-1.4-2-2.7-4.1-2.7-6.6c0-1.7,0.2-3.4,0.1-5.1
		c-0.1-1.5-0.6-3-1.3-4.3c3.2,3.1,5.6,6.9,6.8,11.1c1.5,5.7,0.9,12.7-2.8,17.4c-4,5-11.1,6.8-17,4.3c-4.8-2.1-7.7-10-2.9-13.7
		c2.1-1.6,6.2-1.7,7.1,1.2c0.3,1,0.2,2.5-0.8,3.1c-1,0.5-1.8-0.3-1.9,1.2c4.5,1.7,5.1-5.3,1.6-7.1c-3.8-1.9-8.1,0.6-9.2,4.4
		c-2.8,9.9,8,15.3,16.2,13.1c9.1-2.5,13.4-11.9,12.7-20.8C302.3,412.7,297.5,405.4,290.8,400.6z"/>
</g>
</svg>
