<?xml version="1.0" encoding="utf-8"?>
<!-- Generator: Adobe Illustrator 25.2.1, SVG Export Plug-In . SVG Version: 6.00 Build 0)  -->
<svg version="1.1" id="Capa_1" xmlns="http://www.w3.org/2000/svg" xmlns:xlink="http://www.w3.org/1999/xlink" x="0px" y="0px"
	 viewBox="0 0 512 512" style="enable-background:new 0 0 512 512;" xml:space="preserve">
<g transform="translate(0.000000,512.000000) scale(0.100000,-0.100000)">
	<path d="M271,5109c-104-20-194-91-239-187c-22-47-27-71-27-137c0-155-68-78,1075-1220l1010-1010L1071,1535C244,706,49,506,30,465
		c-34-71-35-199-2-270c29-63,93-129,157-163c72-37,187-42,270-12c58,22,94,56,1083,1044l1022,1021l1018-1016
		C4395,253,4605,48,4645,29c42-20,65-24,145-24c83,0,101,4,145,27c62,32,129,103,158,166c32,68,30,197-3,267
		c-19,41-214,241-1041,1070L3030,2555l1010,1010c1143,1142,1075,1065,1075,1220c0,65-5,90-26,135c-81,172-284,242-454,158
		c-26-13-391-370-1057-1036L2560,3025L1543,4042C876,4708,511,5065,485,5078c-34,17-145,45-164,41C318,5118,295,5114,271,5109z"/>
</g>
</svg>
