<?xml version="1.0" encoding="utf-8"?>
<!-- Generator: Adobe Illustrator 25.2.1, SVG Export Plug-In . SVG Version: 6.00 Build 0)  -->
<svg version="1.1" id="Capa_1" xmlns="http://www.w3.org/2000/svg" xmlns:xlink="http://www.w3.org/1999/xlink" x="0px" y="0px"
	 viewBox="0 0 512 512" style="enable-background:new 0 0 512 512;" xml:space="preserve">
<g transform="translate(0.000000,512.000000) scale(0.100000,-0.100000)">
	<path d="M245,4471c-90-22-173-90-215-176c-34-69-35-198-2-265c34-71,75-113,144-151l63-34h2325h2325l51,27c76,40,107,70,145,140
		c31,58,34,70,34,148s-3,90-34,148c-37,69-79,109-151,144l-45,23l-2305,2C1312,4477,262,4475,245,4471z"/>
	<path d="M245,2871c-90-22-173-90-215-176c-34-69-35-198-2-265c34-71,75-113,144-151l63-34h2325h2325l51,27c76,40,107,70,145,140
		c31,58,34,70,34,148s-3,90-34,148c-37,69-79,109-151,144l-45,23l-2305,2C1312,2877,262,2875,245,2871z"/>
	<path d="M245,1271c-90-22-173-90-215-176c-34-69-35-198-2-265c34-71,75-113,144-151l63-34h2325h2325l51,27c76,40,107,70,145,140
		c31,58,34,70,34,148s-3,90-34,148c-37,69-79,109-151,144l-45,23l-2305,2C1312,1277,262,1275,245,1271z"/>
</g>
</svg>
