<?xml version="1.0" encoding="utf-8"?>
<!-- Generator: Adobe Illustrator 25.2.1, SVG Export Plug-In . SVG Version: 6.00 Build 0)  -->
<svg version="1.1" id="Capa_1" xmlns="http://www.w3.org/2000/svg" xmlns:xlink="http://www.w3.org/1999/xlink" x="0px" y="0px"
	 viewBox="0 0 512 512" style="enable-background:new 0 0 512 512;" xml:space="preserve">
<style type="text/css">
	.st0{fill:#FFB800;}
</style>
<g transform="translate(0.000000,512.000000) scale(0.100000,-0.100000)">
	<path class="st0" d="M3590,4959c-381-41-668-76-700-86c-77-23-136-84-146-150s8-125,65-208c126-185,801-1105,839-1143
		c99-99,220-109,282-23c18,26,62,120,132,281l19,44l40-63c334-528,366-1219,84-1781c-97-192-195-329-344-480
		c-347-349-806-540-1301-540c-906,0-1672,655-1814,1550c-61,386-4,750,174,1116c38,77,74,162,80,190c25,111-19,243-108,327
		c-78,72-128,91-242,92c-84,0-102-3-155-28c-91-43-140-102-222-269c-109-221-171-398-218-624c-129-620-19-1283,304-1823
		C769,657,1463,203,2250,105c161-20,459-20,620,0c615,77,1206,387,1602,842c246,282,406,562,518,903c191,579,170,1180-61,1760
		c-104,262-252,497-475,757l-42,48l81,180c104,233,112,295,47,369c-42,48-103,66-214,65C4276,5028,3945,4997,3590,4959z"/>
</g>
</svg>
