<?xml version="1.0" encoding="utf-8"?>
<!-- Generator: Adobe Illustrator 25.2.1, SVG Export Plug-In . SVG Version: 6.00 Build 0)  -->
<svg version="1.1" id="Capa_1" xmlns="http://www.w3.org/2000/svg" xmlns:xlink="http://www.w3.org/1999/xlink" x="0px" y="0px"
	 viewBox="0 0 900 900" style="enable-background:new 0 0 900 900;" xml:space="preserve">
<style type="text/css">
	.st0{fill:#4A85D3;}
	.st1{fill:#407EC1;}
	.st2{fill:#5B9ADD;}
	.st3{fill:#FFFFFF;}
</style>
<g id="Bg">
</g>
<g id="Object">
	<g>
		<g>
			<g>
				<circle class="st0" cx="450.1" cy="450" r="450"/>
			</g>
			<g>
				<path class="st1" d="M685.5,65.9c44.8,70,70.8,153.1,70.8,242.4c0,248.5-201.5,450-450,450c-86.3,0-166.9-24.3-235.4-66.5
					c80,124.9,219.9,207.6,379.2,207.6c248.5,0,450-201.5,450-450C900.1,287.3,814.2,145.1,685.5,65.9z"/>
			</g>
			<g>
				<path class="st2" d="M61.3,497.5c0-230.8,187-417.8,417.7-417.8c134.9,0,254.8,63.9,331.2,163.1
					C738.1,117.5,602.9,33.2,448,33.2C217.2,33.2,30.2,220.3,30.2,451c0,95.9,32.3,184.2,86.6,254.7
					C81.5,644.4,61.3,573.3,61.3,497.5z"/>
			</g>
		</g>
		<g>
			<path class="st3" d="M709.4,343.6h-71.7h-29.1h-55.4c-4,0-7-3.8-5.9-7.6c6.4-22.6,6.9-47,6.9-70.1c0-12.8,0.6-27.3-0.8-41.2
				c-1.4-14.2-4.9-27.9-13.3-38.7c-9.3-12-23.1-20.9-38.5-20.9c-35.7,0-41.3,35-44.7,63.3c-3.9,33.1-5.4,67.2-20,97.7
				c-10.2,21.3-24.7,39.6-47.5,48.6c-17.5,6.9-30.3,12.3-48.8,15.9c-2.9,0.6-4.9,3-4.9,5.9v231c0,3.4,2.7,6.1,6.1,6.1h63.9
				c1.9,0,3.7,1,4.9,2.5c12.6,16.9,32.8,27.9,55.5,27.9h99.4h72.2h28.6c29.2,0,53.1-23.9,53.1-53.1l0,0c0-7.6-1.8-14.7-5-21.1
				c-1.3-2.5-0.6-5.6,1.6-7.3c10.8-8.6,17.8-28.3,17.8-43.2v-6.1c0-7.6-1.8-14.7-5-21.1c-1.3-2.5-0.6-5.6,1.6-7.3
				c10.8-8.6,17.8-21.9,17.8-36.8v-6.1c0-7.6-1.8-14.7-5-21.1c-1.3-2.5-0.6-5.6,1.6-7.3c10.8-8.6,17.8-21.9,17.8-36.8l0,0
				C762.5,367.5,738.6,343.6,709.4,343.6z"/>
			<path class="st3" d="M300.4,657.2H182.6c-1.5,0-2.7-1.2-2.7-2.7V367.2c0-1.5,1.2-2.7,2.7-2.7h117.8c1.5,0,2.7,1.2,2.7,2.7v287.2
				C303.2,656,301.9,657.2,300.4,657.2z"/>
		</g>
	</g>
</g>
</svg>
