<?xml version="1.0" encoding="utf-8"?>
<!-- Generator: Adobe Illustrator 25.2.1, SVG Export Plug-In . SVG Version: 6.00 Build 0)  -->
<svg version="1.1" id="Capa_1" xmlns="http://www.w3.org/2000/svg" xmlns:xlink="http://www.w3.org/1999/xlink" x="0px" y="0px"
	 viewBox="0 0 512 512" style="enable-background:new 0 0 512 512;" xml:space="preserve">
<style type="text/css">
	.st0{fill:#FFB800;}
</style>
<g transform="translate(0.000000,512.000000) scale(0.100000,-0.100000)">
	<path class="st0" d="M395.2,5102.3c-145.5-28.3-276.6-110.5-343.8-216.2l-40-61.4v-2266V292.5l43.1-62.6
		c63.9-93.3,111.9-131.4,223.9-178.1L379.2,10h647.4H1674l100.7,41.8c111.9,46.7,159.8,84.7,223.9,178.1l43.1,62.6v2266.2v2266.2
		l-43.1,62.6c-63.9,93.3-111.9,131.4-223.9,178.1l-100.7,41.8l-615.5,2.4C719.7,5111,422.3,5107.3,395.2,5102.3z M1538.2,2558.7
		V396.9h-511.6H515v2161.7v2161.7h511.6h511.6V2558.7z"/>
	<path class="st0" d="M3464.8,5102.3c-145.5-28.3-276.6-110.5-343.8-216.2l-40-61.4v-2266V292.5l43.1-62.6
		C3188,136.6,3236,98.5,3348,51.8L3448.8,10h647.4h647.4l100.7,41.8c111.9,46.7,159.8,84.7,223.9,178.1l43.1,62.6v2266.2v2266.2
		l-43.1,62.6c-63.9,93.3-111.9,131.4-223.9,178.1l-100.7,41.8l-615.5,2.4C3789.3,5111,3491.9,5107.3,3464.8,5102.3z M4608,2558.7
		V396.9h-511.7h-511.6v2161.7v2161.7h511.6h511.6V2558.7H4608z"/>
</g>
</svg>
