<?xml version="1.0" encoding="utf-8"?>
<!-- Generator: Adobe Illustrator 25.2.1, SVG Export Plug-In . SVG Version: 6.00 Build 0)  -->
<svg version="1.1" id="Capa_1" xmlns="http://www.w3.org/2000/svg" xmlns:xlink="http://www.w3.org/1999/xlink" x="0px" y="0px"
	 viewBox="0 0 512 512" style="enable-background:new 0 0 512 512;" xml:space="preserve">
<g transform="translate(0.000000,512.000000) scale(0.100000,-0.100000)">
	<path d="M2095,5111c-11-5-29-19-40-31c-20-22-20-40-25-778l-5-756l-100-38c-55-21-103-38-107-38c-5,0-8,92-8,204
		c0,190-1,205-20,229c-12,15-38,31-58,37c-49,13-535,13-584,0c-20-6-46-22-58-37c-20-25-20-36-20-720v-695l-507-861
		C284,1153,45,736,31,700c-33-85-36-245-7-329C80,210,200,88,365,24C413,6,457,5,1460,2c744-2,1062,0,1105,8c89,17,199,75,265,140
		l56,55l52-52c59-58,117-95,200-126c55-21,72-22,612-25c387-2,573,0,615,8c203,39,382,215,424,418c7,36,11,298,11,805v752l140,140
		c150,149,180,197,180,284c0,92-57,183-144,229l-51,27l-854,3c-505,1-882-1-923-7c-167-23-288-123-356-295c-14-36-17-123-22-696
		l-5-656l-478,739l-477,738l2,367l3,367l75,37c41,20,126,53,187,73c87,28,118,44,138,67l25,30v739v739h265h265v-704
		c0-387,3-717,6-735c10-49,47-77,127-96c332-80,619-245,829-475c39-44,75-80,79-80c10,0,159,121,159,129c0,4-39,49-87,101
		c-158,168-366,318-573,411c-104,46-225,90-287,103l-33,7l-2,737c-3,693-4,739-21,764c-10,14-32,31-49,37
		C2881,5122,2126,5123,2095,5111z M1600,3078c0-616,1-655,18-683c10-16,263-407,561-868s552-857,564-880c32-61,35-165,8-237
		c-26-70-88-134-161-169l-55-26H1495H455l-47,22c-66,30-133,96-164,160c-38,76-38,175-2,253c14,30,253,442,532,915l506,859v653v653
		h160h160V3078z M4900,2431c5-11,10-23,10-27c0-3-72-80-160-169l-159-162l-3-804l-3-804l-26-55c-37-80-81-125-157-162l-67-33l-505-3
		c-524-3-597,1-669,38c-51,26-115,92-143,148l-23,47l-3,923c-3,1017-6,956,59,1021c64,64,7,61,966,61C4869,2450,4890,2450,4900,2431
		z"/>
	<path d="M1336,2098c-55-88-882-1500-893-1526c-18-42-4-92,34-122c25-19,40-20,414-20h389v105v105h-275c-151,0-275,2-275,4
		s178,307,396,678c218,370,398,680,401,688c2,10-24,31-81,63c-46,26-86,47-90,47C1353,2120,1344,2110,1336,2098z"/>
	<path d="M1810,1065V960h110h110v105v105h-110h-110V1065z"/>
	<path d="M2134,737c-2-7-3-56-2-108l3-94h105h105v105v105l-103,3C2163,750,2138,748,2134,737z"/>
	<path d="M3200,1920v-110h160h160v110v110h-160h-160V1920z"/>
	<path d="M4160,1335V640h-160h-160V535V430h234h234l31,31l31,31v769v769h-105h-105V1335z"/>
	<path d="M3200,1495v-105h105h105v105v105h-105h-105V1495z"/>
	<path d="M3200,1065V960h160h160v105v105h-160h-160V1065z"/>
	<path d="M3200,640V530h105h105v110v110h-105h-105V640z"/>
	<path d="M747,4995c-47-18-106-60-139-100c-82-98-94-240-32-356c81-147,273-206,424-129c51,26,115,93,142,148c33,68,33,207-1,272
		c-32,62-86,117-146,148C933,5010,808,5018,747,4995z M900,4785c66-34,76-121,19-169c-94-79-223,42-148,138
		C807,4800,851,4810,900,4785z"/>
	<path d="M4047,4350c-67-26-112-63-151-123c-126-194-18-443,212-487c96-18,193,12,271,85c69,65,96,129,96,230c-1,97-25,156-95,226
		C4296,4364,4157,4393,4047,4350z M4198,4149c69-24,87-116,33-170c-71-71-183-12-172,91c4,31,27,64,56,76
		C4152,4162,4159,4163,4198,4149z"/>
	<path d="M311,4259c-77-13-137-46-202-109C34,4076,7,4007,6,3890c-1-75,3-93,30-150c39-83,101-145,184-184c57-27,75-31,150-30
		c117,1,186,28,260,103c65,66,95,124,108,206C778,4086,563,4300,311,4259z M446,4034c47-22,76-67,82-125c5-59-10-101-50-134
		c-147-124-345,68-226,220C293,4048,380,4065,446,4034z"/>
	<path d="M4471,3619c-77-13-137-46-202-109c-75-74-102-143-103-260c-1-75,3-93,30-150c39-83,101-145,184-184c57-27,75-31,150-30
		c117,1,186,28,260,103c65,66,95,124,108,206C4938,3446,4723,3660,4471,3619z M4606,3394c47-22,76-67,82-125c5-59-10-101-50-134
		c-147-124-345,68-226,220C4453,3408,4540,3425,4606,3394z"/>
	<path d="M210,3095v-105h110h110v105v105H320H210V3095z"/>
	<path d="M2030,2985v-105h105h105v105v105h-105h-105V2985z"/>
	<path d="M534,2657c-2-7-3-56-2-108l3-94h105h105v105v105l-103,3C563,2670,538,2668,534,2657z"/>
	<path d="M2134,2657c-2-7-3-56-2-108l3-94h105h105v105v105l-103,3C2163,2670,2138,2668,2134,2657z"/>
	<path d="M2350,2135v-105h105h105v105v105h-105h-105V2135z"/>
</g>
</svg>
