<?xml version="1.0" encoding="utf-8"?>
<!-- Generator: Adobe Illustrator 25.2.1, SVG Export Plug-In . SVG Version: 6.00 Build 0)  -->
<svg version="1.1" id="Capa_1" xmlns="http://www.w3.org/2000/svg" xmlns:xlink="http://www.w3.org/1999/xlink" x="0px" y="0px"
	 viewBox="0 0 512 512" style="enable-background:new 0 0 512 512;" xml:space="preserve">
<g transform="translate(0.000000,512.000000) scale(0.100000,-0.100000)">
	<path d="M4960,5104c-161-42-413-201-708-448l-72-61l202-203l203-203l20,24c268,319,425,552,485,715C5152,5097,5116,5145,4960,5104z
		"/>
	<path d="M2045,4494c-538-57-1006-278-1381-652c-189-189-311-358-429-597C72,2916,5,2626,5,2255c0-314,47-570,153-836
		C380,864,821,412,1365,180C1653,58,1918,6,2250,5c284,0,428,28,578,111c222,124,345,423,287,699c-19,91-81,215-146,290
		c-72,84-95,122-109,187c-45,201,139,387,344,349c72-13,97-27,190-104c125-104,245-154,396-164c287-19,562,160,655,426
		c61,175,71,564,21,847c-41,231-116,453-219,647c-23,42-44,76-49,75c-4-2-61-48-127-102c-288-238-534-384-736-436l-70-18l4-99
		c4-125-10-196-60-301c-90-188-311-354-567-424c-64-18-105-22-242-22c-141,0-177,3-250,23c-157,42-309,125-423,231
		c-84,77-117,125-117,169c0,80,56,139,152,161c84,20,154,58,219,118s81,85,129,209c55,143,158,260,284,321c106,52,173,65,304,60
		l113-4l5,25c41,202,203,487,443,781c61,74,111,138,111,142c0,11-237,123-344,163c-112,41-288,87-428,111
		C2508,4491,2135,4503,2045,4494z M1759,3885c80-19,167-71,223-134c239-265,87-687-267-742c-136-22-281,28-382,128
		c-171,172-171,456,0,627C1448,3879,1600,3922,1759,3885z M1159,2985c219-52,372-280,334-500c-63-365-499-509-758-250
		c-173,174-175,457-2,629C848,2979,1000,3022,1159,2985z M1459,1784c198-50,340-231,341-433c1-267-254-486-516-443
		c-95,16-181,60-249,127c-245,245-131,659,208,750C1313,1804,1381,1803,1459,1784z"/>
	<path d="M1580,3592c-72-38-100-148-53-211c52-69,122-87,192-49c57,31,84,77,78,139C1788,3582,1677,3643,1580,3592z"/>
	<path d="M980,2692c-38-20-80-89-80-131c0-49,38-108,84-130c54-27,81-26,136,2c57,29,83,75,77,138C1188,2681,1076,2742,980,2692z"/>
	<path d="M1277,1488c-39-23-77-86-77-128c0-48,39-108,84-129c54-27,91-26,140,2c52,30,78,79,73,138C1487,1483,1374,1544,1277,1488z"
		/>
	<path d="M3849,4282c-377-391-599-685-706-933c-47-109-51-180-10-215c33-28,63-30,138-8c190,56,468,246,816,558
		c76,68,174,161,218,205l80,81l-210,210c-115,116-213,210-216,210C3955,4390,3906,4341,3849,4282z"/>
	<path d="M2588,2967c-96-27-158-89-203-202c-41-105-73-164-122-228c-43-56-140-144-185-168l-22-12l26-13c55-29,179-63,254-69
		c94-8,228,12,322,49c76,30,190,104,231,151c60,69,76,112,76,205c0,73-4,92-27,135c-33,63-80,108-140,135
		C2738,2976,2648,2983,2588,2967z"/>
</g>
</svg>
