<?xml version="1.0" encoding="utf-8"?>
<!-- Generator: Adobe Illustrator 25.2.1, SVG Export Plug-In . SVG Version: 6.00 Build 0)  -->
<svg version="1.1" id="Capa_1" xmlns="http://www.w3.org/2000/svg" xmlns:xlink="http://www.w3.org/1999/xlink" x="0px" y="0px"
	 viewBox="0 0 512 512" style="enable-background:new 0 0 512 512;" xml:space="preserve">
<g transform="translate(0.000000,512.000000) scale(0.100000,-0.100000)">
	<path d="M2325,5109c-498-46-992-248-1380-564c-114-93-293-274-387-390c-217-271-393-627-478-965C-72,2587-6,1978,271,1421
		C520,918,917,521,1421,271C2051-43,2759-85,3425,151c151,54,400,177,535,266c397,261,722,637,920,1063c330,713,319,1517-31,2219
		c-130,262-265,451-472,660c-209,211-411,357-678,490C3269,5063,2796,5153,2325,5109z M2050,4709c122-68,220-134,219-149
		c0-8-64-206-142-440l-142-424l-95-38c-144-58-478-226-638-323l-143-86l-37,21c-20,12-149,88-285,168l-248,147l6,32
		c9,51,119,321,178,439c49,99,65,119,158,211c57,57,136,128,174,159c180,144,458,304,649,373l80,29l105-45
		C1947,4759,2019,4726,2050,4709z M3710,4663c192-103,384-249,552-419c135-136,223-246,320-399c72-115,163-283,156-290
		c-2-2-35,17-73,41c-82,53-352,189-409,206c-35,11-88,66-415,436c-398,448-395,444-377,518l6,23l78-35
		C3590,4725,3663,4688,3710,4663z M3632,4228c177-200,351-395,386-435l64-72l-32-98c-38-115-209-554-222-568
		c-12-13-1112-125-1119-114c-13,22-431,492-505,568l-81,84l153,460c85,254,158,465,163,470c18,18,524,63,738,66l132,1L3632,4228z
		 M721,3289c151-89,280-167,286-173c9-8,16-80,23-226c10-221,36-450,69-623l18-98l-214-337c-118-185-221-343-228-351
		c-11-11-28-3-105,50c-51,35-131,97-179,139l-85,75l-32,100c-113,353-138,773-68,1160c12,62,28,110,52,155c34,61,181,290,187,290
		C447,3450,571,3377,721,3289z M3944,2729c126-193,216-345,290-489l59-115l-277-516l-276-515l-113-18c-241-39-525-66-692-66h-110
		l-270,466c-149,257-271,472-273,480c-2,7,50,113,116,236s161,303,212,401c75,145,96,177,113,178c12,0,249,24,527,53
		c278,30,525,54,550,55l46,1L3944,2729z M4935,2254c-64-515-299-999-668-1373c-124-126-295-268-301-249c-2,7-12,56-21,108
		s-27,135-41,183l-24,88l286,534l286,534l102,50c120,59,283,155,346,204c25,19,46,34,47,33C4948,2366,4942,2315,4935,2254z
		 M1378,1996c161-41,390-86,610-122c86-14,162-30,168-37s81-133,167-282c85-148,202-352,260-452l105-181l-141-194
		c-78-107-153-209-167-227l-26-32l-569,102c-548,97-571,102-593,127c-40,47-127,164-194,262s-218,354-218,370c0,15,441,700,451,700
		C1237,2030,1303,2015,1378,1996z M1874,390c371-66,470-87,510-108c28-14,97-44,154-67l103-42l-55-6c-60-6-257,6-374,23
		c-211,30-479,111-674,203c-118,55-185,95-143,83C1406,473,1622,434,1874,390z"/>
</g>
</svg>
