<?xml version="1.0" encoding="utf-8"?>
<!-- Generator: Adobe Illustrator 25.2.1, SVG Export Plug-In . SVG Version: 6.00 Build 0)  -->
<svg version="1.1" id="Capa_1" xmlns="http://www.w3.org/2000/svg" xmlns:xlink="http://www.w3.org/1999/xlink" x="0px" y="0px"
	 viewBox="0 0 512 512" style="enable-background:new 0 0 512 512;" xml:space="preserve">
<style type="text/css">
	.st0{fill:#FAA930;}
</style>
<g transform="translate(0.000000,512.000000) scale(0.100000,-0.100000)">
	<path class="st0" d="M620,5110c-71-15-151-60-206-115c-86-85-137-210-154-375c-13-129-13-3991,0-4120c17-165,68-290,154-375
		C563-24,787-38,1033,86c76,37,3457,1975,3546,2031c31,20,90,70,131,112c159,161,196,340,107,521c-37,76-152,198-238,253
		c-89,56-3470,1994-3546,2031c-37,19-97,44-133,56C826,5114,686,5124,620,5110z"/>
</g>
</svg>
